<svg width="39" height="39" viewBox="0 0 39 39" fill="none" xmlns="http://www.w3.org/2000/svg">
<path fill-rule="evenodd" clip-rule="evenodd" d="M3.27496 19.3059V4.7502C3.27496 3.93558 3.93534 3.2752 4.74996 3.2752H34.25C35.0646 3.2752 35.725 3.93558 35.725 4.7502V34.2502C35.725 35.0648 35.0646 35.7252 34.25 35.7252H4.74996C4.10721 35.7252 3.56048 35.3141 3.35839 34.7405L12.0926 25.3507L16.0776 29.1092C16.6845 29.6816 17.6448 29.6372 18.1963 29.0114L25.9611 20.2001L31.3181 25.7499C31.8839 26.336 32.8177 26.3525 33.4038 25.7868C33.9899 25.221 34.0064 24.2872 33.4406 23.7011L26.973 17.0008C26.3747 16.381 25.3747 16.4036 24.8051 17.05L16.9918 25.9163L13.0362 22.1856C12.4407 21.6239 11.5017 21.6546 10.9442 22.254L0.719959 33.2456C0.454467 33.531 0.323742 33.8936 0.32496 34.2549M0.32496 34.2549C0.327483 36.6966 2.30765 38.6752 4.74996 38.6752H34.25C36.6938 38.6752 38.675 36.6941 38.675 34.2502V4.7502C38.675 2.30634 36.6938 0.325195 34.25 0.325195H4.74996C2.3061 0.325195 0.324957 2.30634 0.324957 4.7502V19.3059H3.27496M14.3375 18.0252C17.1886 18.0252 19.5 15.7139 19.5 12.8627C19.5 10.0115 17.1886 7.70019 14.3375 7.70019C11.4863 7.70019 9.17495 10.0115 9.17495 12.8627C9.17495 15.7139 11.4863 18.0252 14.3375 18.0252ZM14.3375 15.0752C13.1155 15.0752 12.125 14.0846 12.125 12.8627C12.125 11.6408 13.1155 10.6502 14.3375 10.6502C15.5594 10.6502 16.55 11.6408 16.55 12.8627C16.55 14.0846 15.5594 15.0752 14.3375 15.0752Z" fill="#D5DDE0"/>
</svg>
