<svg width="51" height="51" viewBox="0 0 51 51" fill="none" xmlns="http://www.w3.org/2000/svg">
<path fill-rule="evenodd" clip-rule="evenodd" d="M19.4999 18.9696L12.8695 34.1176H8.55854L5.3019 22.0441C5.11447 21.3035 4.92704 21.0342 4.34131 20.7201C3.33386 20.2039 1.71726 19.7102 0.288086 19.4184L0.381802 18.9696H7.34023C8.23054 18.9696 9.02712 19.5307 9.21456 20.5181L10.9483 29.2703L15.2124 18.9696H19.4999ZM36.4408 29.1804C36.4549 26.7847 34.379 25.7451 32.7201 24.9142C31.6129 24.3597 30.6913 23.8981 30.7007 23.1885C30.7241 22.6499 31.263 22.0664 32.4344 21.9093C33.0202 21.842 34.6368 21.7747 36.4642 22.5826L37.1905 19.3734C36.2065 19.0368 34.9413 18.7002 33.3716 18.7002C29.3418 18.7002 26.4835 20.7648 26.46 23.7046C26.4366 25.8815 28.4984 27.0933 30.0447 27.8339C31.6378 28.5744 32.1767 29.0457 32.1767 29.719C32.1533 30.7288 30.9115 31.1777 29.7401 31.2001C27.7142 31.2221 26.5253 30.6808 25.5954 30.2575L25.5463 30.2351L24.7966 33.5564C25.7572 33.9828 27.5143 34.3419 29.3418 34.3643C33.6293 34.3643 36.4174 32.3222 36.4408 29.1804ZM47.1217 34.1176H50.8938L47.5903 18.9696H44.0994C43.3028 18.9696 42.6468 19.396 42.3656 20.0693L36.2272 34.0952H40.5147L41.3582 31.8286H46.6063L47.1217 34.1176ZM42.553 28.7538L44.7084 23.0761L45.9502 28.7538H42.553ZM21.9586 34.1176L25.3324 18.9696H21.2557L17.8819 34.1176H21.9586Z" fill="#1A1F71"/>
</svg>
