<svg width="54" height="54" viewBox="0 0 54 54" fill="none" xmlns="http://www.w3.org/2000/svg">
<path d="M24.4888 26.9998L13.743 16.2559C13.0487 15.5618 13.0487 14.4364 13.743 13.7423C14.4372 13.0481 15.5628 13.0481 16.2571 13.7423L27.0029 24.4861L37.7431 13.748C38.4373 13.0539 39.5629 13.0539 40.2572 13.748C40.9514 14.4421 40.9514 15.5675 40.2572 16.2616L29.517 26.9998L40.2565 37.7373C40.9508 38.4314 40.9508 39.5568 40.2565 40.2509C39.5623 40.945 38.4367 40.945 37.7424 40.2509L27.0029 29.5134L16.2577 40.2566C15.5634 40.9508 14.4378 40.9508 13.7436 40.2566C13.0493 39.5625 13.0493 38.4371 13.7436 37.743L24.4888 26.9998Z" fill="#3E4958"/>
</svg>
