<svg width="36" height="36" viewBox="0 0 36 36" fill="none" xmlns="http://www.w3.org/2000/svg">
<path fill-rule="evenodd" clip-rule="evenodd" d="M17.8284 35.9663C27.5847 35.9663 35.4937 28.0572 35.4937 18.301C35.4937 8.54475 27.5847 0.635742 17.8284 0.635742C8.07215 0.635742 0.163147 8.54475 0.163147 18.301C0.163147 28.0572 8.07215 35.9663 17.8284 35.9663ZM20.445 13.3996L19.0648 9.15164C18.6756 7.95394 16.9812 7.95394 16.592 9.15164L15.2118 13.3996C15.0378 13.9352 14.5386 14.2978 13.9754 14.2978H9.50891C8.24957 14.2978 7.72596 15.9093 8.74479 16.6496L12.3583 19.2749C12.8139 19.6059 13.0046 20.1927 12.8305 20.7283L11.4503 24.9763C11.0611 26.174 12.432 27.1699 13.4508 26.4297L17.0643 23.8043C17.5199 23.4733 18.1369 23.4733 18.5925 23.8043L22.206 26.4297C23.2248 27.1699 24.5957 26.174 24.2065 24.9763L22.8263 20.7283C22.6522 20.1927 22.8429 19.6059 23.2985 19.2749L26.912 16.6496C27.9308 15.9093 27.4072 14.2978 26.1479 14.2978H21.6814C21.1182 14.2978 20.619 13.9352 20.445 13.3996Z" fill="#D5DDE0"/>
</svg>
