<svg width="37" height="37" viewBox="0 0 37 37" fill="none" xmlns="http://www.w3.org/2000/svg">
<path fill-rule="evenodd" clip-rule="evenodd" d="M18.3606 36.3333C28.2107 36.3333 36.1957 28.3216 36.1957 18.4386C36.1957 8.55566 28.2107 0.543945 18.3606 0.543945C8.51057 0.543945 0.525513 8.55566 0.525513 18.4386C0.525513 28.3216 8.51057 36.3333 18.3606 36.3333ZM25.5282 13.6484V11.4838C26.3804 11.5095 27.0806 12.217 27.0806 13.0866V25.7725C27.0806 26.6569 26.3636 27.386 25.4819 27.386H11.2395C10.3565 27.386 9.64083 26.6584 9.64083 25.7725V13.0866C9.64083 12.217 10.341 11.5095 11.1932 11.4838V13.6484C11.1932 14.6268 11.9842 15.4153 12.9592 15.4153H14.0735C15.0484 15.4153 15.8499 14.6268 15.8499 13.6484V11.476H20.8714V13.6484C20.8714 14.6268 21.673 15.4153 22.6481 15.4153H23.7622C24.7372 15.4153 25.5282 14.6268 25.5282 13.6484ZM12.9552 14.2548H14.0572C14.3917 14.2548 14.6629 13.9831 14.6629 13.6475V10.0988C14.6629 9.76317 14.3917 9.49128 14.0572 9.49128H12.9552C12.6207 9.49128 12.3495 9.76317 12.3495 10.0988V13.6475C12.3495 13.9831 12.6207 14.2548 12.9552 14.2548ZM23.736 14.2548H22.634C22.2996 14.2548 22.0284 13.9831 22.0284 13.6475V10.0988C22.0284 9.76317 22.2996 9.49128 22.634 9.49128H23.736C24.0703 9.49128 24.3415 9.76317 24.3415 10.0988V13.6475C24.3415 13.9831 24.0703 14.2548 23.736 14.2548Z" fill="#D5DDE0"/>
</svg>
