<svg width="37" height="36" viewBox="0 0 37 36" fill="none" xmlns="http://www.w3.org/2000/svg">
<path fill-rule="evenodd" clip-rule="evenodd" d="M18.5 35.9663C28.2563 35.9663 36.1653 28.0572 36.1653 18.301C36.1653 8.54475 28.2563 0.635742 18.5 0.635742C8.74377 0.635742 0.834763 8.54475 0.834763 18.301C0.834763 28.0572 8.74377 35.9663 18.5 35.9663ZM22.3979 11.0233C23.762 11.0233 25.0168 11.5695 25.9313 12.5613C26.8349 13.5416 27.3326 14.8807 27.3326 16.3321C27.3326 17.8262 26.776 19.1938 25.5807 20.636C24.5114 21.9263 22.9747 23.2358 21.1953 24.7521L21.1951 24.7523L21.1803 24.7649C20.576 25.28 19.8921 25.8629 19.1827 26.4833C18.994 26.6486 18.7514 26.7397 18.5 26.7397C18.2485 26.7397 18.0061 26.6486 17.8171 26.4831C17.1025 25.8582 16.4142 25.2716 15.8069 24.754L15.8053 24.7527C14.0256 23.2361 12.4888 21.9263 11.4195 20.6361C10.2241 19.1938 9.66739 17.8262 9.66739 16.3322C9.66739 14.8807 10.1651 13.5416 11.0686 12.5613C11.9831 11.5695 13.238 11.0233 14.6022 11.0233C15.6219 11.0233 16.5558 11.3457 17.3777 11.9814C17.7927 12.3023 18.1687 12.695 18.5 13.1531C18.8314 12.6949 19.2073 12.3023 19.6222 11.9814C20.4443 11.3457 21.3781 11.0233 22.3979 11.0233Z" fill="#D5DDE0"/>
</svg>
