<?xml version="1.0"?>
<svg width="476" height="331" xmlns="http://www.w3.org/2000/svg" xmlns:svg="http://www.w3.org/2000/svg">
 <defs>
  <clipPath id="clip0_2_3348">
   <rect fill="white" height="330.17" id="svg_1" rx="8" width="476" y="0.7"/>
  </clipPath>
  <clipPath id="clip1_2_3348">
   <rect fill="white" height="330.17" id="svg_2" transform="translate(0 0.699951)" width="476"/>
  </clipPath>
  <clipPath id="clip2_2_3348">
   <rect fill="white" height="330.17" id="svg_3" transform="translate(0.0124512 0.699951)" width="475.98"/>
  </clipPath>
 </defs>
 <g class="layer">
  <title>Layer 1</title>
  <g clip-path="url(#clip0_2_3348)" id="svg_4">
   <g clip-path="url(#clip1_2_3348)" id="svg_5">
    <g clip-path="url(#clip2_2_3348)" id="svg_6">
     <mask height="237" id="mask0_2_3348" maskUnits="userSpaceOnUse" width="398" x="39" y="39">
      <path d="m39.46,39.8l0,235.82l208.11,0c3.32,-17.39 39.37,-43.05 94.26,-41.55c55.23,1.53 73.56,29.9 80.93,41.55l13.78,-0.22l0,-235.6l-397.08,0z" fill="white" id="svg_7"/>
     </mask>
     <g id="svg_8" mask="url(#mask0_2_3348)">
      <path d="m130.08,152.76c-4.99,0 -8.88,-4.35 -8.31,-9.3c1.38,-12 7.7,-32.38 33.8,-41.17c40.63,-13.66 138.62,-32.46 161.29,-24.73c19.01,6.48 48.88,44.09 53.93,65.47c1.23,5.23 -2.83,10.21 -8.21,10.2l-232.51,-0.48l0.01,0.01z" fill="#96ABC0" id="svg_9" opacity="0.1"/>
      <g id="svg_10" opacity="0.23">
       <path d="m405.5,177.2c-0.75,-9.85 -9.77,-21.86 -21.25,-23.3c-9.95,-1.24 -262.03,-0.8 -270.81,0.29c-11.5,1.44 -22.12,13.45 -22.87,23.3c-2.13,28.08 -3.21,92.6 -3.21,104l321.33,-0.29c0,-11.4 -1.06,-75.93 -3.21,-104l0.02,0z" fill="#96ABC0" id="svg_11"/>
      </g>
      <path d="m266.65,105.79l-6.04,76.47l57.52,-1.52l-7.57,-80.24l-21.52,-19.1l-22.39,24.39z" fill="#9EA8AD" id="svg_12"/>
      <g id="svg_13" opacity="0.2">
       <path d="m246.74,274.57c0.62,3.15 2.48,6 5.55,7.45c0.39,1.01 0.9,2.23 1.03,2.49c0.42,0.88 1.4,2.06 1.78,3.18c0.6,1.7 1.51,3.29 1.99,4.21c-1.21,0.58 -2.49,0.18 -3.38,-1.63c-0.74,-1.33 -1.19,-2.66 -1.84,-2.47c-0.37,0.17 -0.07,1.32 0.65,3.82c0.63,2.03 1.6,5.19 2.22,7.94c0.45,1.71 -1.24,2.02 -1.81,0.94c-0.96,-1.9 -2.25,-6.67 -2.8,-7.48c-0.18,-0.3 -0.47,-0.11 -0.45,0.13c0.33,2.36 3.61,7.79 1.76,8.46c-0.27,0.03 -0.5,-0.02 -0.73,-0.17c-0.32,-0.23 -0.61,-0.69 -0.95,-1.45c-0.06,-0.21 -0.16,-0.4 -0.23,-0.6c-0.83,-2.14 -1.6,-4.28 -2.15,-5.36c-0.11,-0.3 -0.46,-0.4 -0.54,-0.12c-0.1,0.16 0.41,1.51 0.93,3.04c0.76,2.16 1.64,4.77 0.89,5.06c-0.75,0.31 -1.3,-0.8 -1.91,-2.29c-1.07,-2.54 -2.04,-6.12 -2.22,-6.24c-0.18,-0.07 -0.47,-0.06 -0.36,0.22c0.23,0.92 0.84,3.35 1.21,5.01c0.16,0.85 -0.58,1.36 -0.99,0.95c-0.85,-1.53 -1.82,-4.8 -2.68,-7.11c-1.56,-4.29 -1.6,-8.89 -3,-12.95c-0.23,-0.76 -0.48,-1.28 -0.86,-2.17c2.98,-0.56 5.98,-1.57 8.87,-2.85l0.02,-0.01z" fill="#7D3561" id="svg_14" opacity="0.2"/>
      </g>
      <path d="m254.54,280.67c-2.94,-15.56 1.62,-33.51 2.27,-35.58c0,0 62.29,6.27 65.11,9.08c6.06,-0.76 28.76,-4.54 27.25,20.44c-0.07,1.24 -8.22,21.99 -12.87,23.47c-12.16,3.85 -61.8,3.04 -61.81,3.03c-9.34,-0.75 -17.92,-9.72 -19.95,-20.44z" fill="#669198" id="svg_15"/>
      <mask height="57" id="mask1_2_3348" maskUnits="userSpaceOnUse" width="94" x="253" y="245">
       <path d="m254.54,280.67c-2.94,-15.56 1.62,-33.51 2.27,-35.58c0,0 90.84,3.02 89.33,28.01c-0.08,1.24 -5.2,23.51 -9.85,24.98c-12.16,3.85 -61.8,3.04 -61.81,3.03c-9.34,-0.75 -17.92,-9.72 -19.95,-20.44l0.01,0z" fill="white" id="svg_16"/>
      </mask>
      <g id="svg_17" mask="url(#mask1_2_3348)">
       <path d="m248.04,267.42c7.26,14.01 7.26,20.82 24.68,20.82c17.41,0 6.8,-17.42 31.04,-17.42c19.7,0 18.93,30.29 18.93,30.29l-68.98,0.97l-5.66,-34.66l-0.01,0z" fill="#547B7F" id="svg_18"/>
      </g>
      <g id="svg_19" opacity="0.5">
       <path d="m310.48,200.37l-34.85,1.32c-5.13,0.14 -8.18,-1.72 -11.63,-4.82c-0.39,-0.35 -2.86,27.04 60.64,16.09c0.34,-0.06 3.25,-23.91 3.25,-23.91c0,0 -3.06,11.38 -17.41,11.32z" fill="#004753" id="svg_20"/>
      </g>
      <path d="m312.08,170.15l32.55,43.91c0.06,0.04 12.62,-6.92 13.53,-7.35c0.05,-0.12 -2.48,-6.18 -6.72,-14.47c-0.02,0 -0.02,-0.05 -0.05,-0.07c-6.66,-13 -12.75,-27.53 -24.18,-37.16c-1.06,-0.94 -11.92,12.52 -15.15,15.15l0.02,-0.01z" fill="#EACB92" id="svg_21"/>
      <path d="m272.61,176.12l-29.55,54.17c0,0 -16.72,-6.05 -17.71,-6.33c-0.07,-0.12 1.36,-6.52 4.09,-15.42c0.02,0 0,-0.05 0.04,-0.06c4.29,-13.97 11.7,-33.98 21.27,-45.47c0.88,-1.12 18.22,11.09 21.85,13.11l0.01,0z" fill="#EACB92" id="svg_22"/>
      <path d="m266.61,158.64c-6.39,-2.89 -13.92,-0.06 -16.81,6.34c-2.89,6.38 -0.06,13.92 6.33,16.81c6.39,2.89 13.92,0.06 16.81,-6.34c2.9,-6.4 0.06,-13.93 -6.33,-16.81z" fill="#AF865E" id="svg_23"/>
      <path d="m232.79,217.2c-5.1,0.98 -8.47,5.91 -7.5,11.02c0.96,5.1 5.89,8.46 11,7.48c5.12,-0.98 8.48,-5.91 7.51,-11.01c-0.97,-5.11 -5.9,-8.46 -11.02,-7.5l0.01,0.01z" fill="#EACB92" id="svg_24"/>
      <path d="m226.06,236.18c3.3,19.83 7.44,31.48 9.37,36.14c0.63,1.66 0.98,2.25 1.29,3.28c1.4,4.04 1.45,8.66 3,12.95c0.86,2.31 1.84,5.58 2.68,7.11c0.41,0.41 1.17,-0.1 0.99,-0.95c-0.38,-1.66 -0.98,-4.09 -1.21,-5.02c-0.09,-0.27 0.19,-0.28 0.36,-0.21c0.17,0.13 1.15,3.7 2.22,6.24c0.62,1.51 1.16,2.6 1.92,2.29c0.74,-0.29 -0.14,-2.9 -0.9,-5.06c-0.51,-1.53 -1.03,-2.88 -0.92,-3.04c0.07,-0.28 0.42,-0.19 0.53,0.12c0.55,1.08 1.32,3.23 2.15,5.36c0.09,0.21 0.17,0.4 0.23,0.6c0.35,0.77 0.63,1.24 0.95,1.45c0.23,0.15 0.45,0.18 0.73,0.17c1.85,-0.67 -1.42,-6.11 -1.76,-8.46c-0.03,-0.24 0.28,-0.43 0.46,-0.13c0.54,0.81 1.83,5.58 2.79,7.48c0.57,1.08 2.27,0.77 1.81,-0.94c-0.62,-2.76 -1.6,-5.91 -2.22,-7.94c-0.72,-2.5 -1.03,-3.64 -0.65,-3.82c0.65,-0.2 1.11,1.14 1.84,2.47c0.9,1.81 2.16,2.21 3.38,1.63c-0.5,-0.92 -1.39,-2.51 -1.99,-4.21c-0.37,-1.1 -1.36,-2.3 -1.78,-3.18c-0.18,-0.37 -1.22,-2.85 -1.44,-3.65c-4.19,-15.34 -4.85,-37.9 -4.77,-41.51c0.12,-5.38 -1.3,-10.39 -1.3,-10.39l-18.64,2.47c0.1,2.39 0.17,4.35 0.89,8.75l-0.01,0z" fill="#EACB92" id="svg_25"/>
      <g id="svg_26" opacity="0.67">
       <path d="m245.1,232.76c0.09,1.41 0.03,5.08 0.14,7.31c0.15,2.8 1.89,24.97 3.42,33.43c-3.96,-7.19 -12.5,-28.7 -9.68,-46.04c-0.04,0.19 0.03,-0.22 0,0c0.15,-0.98 0.08,-0.67 0.28,-1.63c5.05,-23.36 20.43,-46.66 20.43,-46.66l0.94,19.02l-16.47,29.34l0.94,5.23z" fill="#EACB92" id="svg_27"/>
      </g>
      <path d="m337.22,160.66c-4.66,-6.89 -8.86,-10.69 -10.07,-11.17c-0.02,-0.02 -0.04,-0.05 -0.05,-0.06c-5.85,-3.25 -28.66,-7.73 -28.66,-7.73c0,0 -6.12,-0.47 -8.3,-0.4l0.05,1.07c-2.73,-0.03 -10.35,-0.19 -10.35,-0.19c0,0 -22.58,8.29 -28.34,11.7c0,0 -10.86,12.82 -15.5,29.17l22.7,16.42c3.69,20.4 -6.41,51.64 -6.41,77.39c84.04,-38.61 92.36,-17.41 92.36,-17.41c-10.6,-22.71 -23.47,-36.34 -16.47,-66.12l20.26,-11.86c0,0 -5.3,-12.11 -11.2,-20.83l-0.02,0.02z" fill="white" id="svg_28"/>
      <path d="m297.79,124.25l-18.98,0.48l0.44,13.8c0.02,1.06 -5,5.87 -9.55,7.37c-2.96,0.99 2.27,13.63 18.93,13.63c16.67,0 27.24,-14.3 23.48,-15.15c-6.81,-1.51 -13.63,-3.78 -13.63,-3.78l-0.66,-16.36l-0.03,0.01z" fill="#EACB92" id="svg_29"/>
      <path d="m326.08,146.75l-9.03,-2.59c0,0 -60.46,114.23 -62.28,116.84c-0.38,0.56 -1.56,16.56 -1.56,16.56l7.65,-1.16c0,0 63.64,-124.34 65.21,-129.65l0.01,0z" fill="black" id="svg_30"/>
      <path d="m274.7,142.73c0,0 7.32,92.4 19.21,91.01c12.87,-1.52 10.61,-92.37 10.61,-92.37" id="svg_31" stroke="#669198" stroke-miterlimit="10" stroke-width="1.52"/>
      <g id="svg_32" opacity="0.67">
       <path d="m279.24,125.86c0.4,0.12 4.01,16.84 19.23,14.93l-0.71,-16.34l-18.54,1.43l0.02,-0.02z" fill="#EACB92" id="svg_33"/>
      </g>
      <path d="m351.64,317.98c0.26,-15.97 -2.47,-47.16 -2.47,-47.16l-31.27,1.54c0,0 0.44,10.53 8.72,50.67c4.73,22.94 10.25,50.85 13.69,60.93l11.97,-2.25c-1.99,-21.08 -1.05,-37.98 -0.64,-63.72l0,-0.01z" fill="#669198" id="svg_34"/>
      <path d="m349.14,270.76c-0.45,8.72 -7.73,15.38 -16.22,14.93c-8.51,-0.45 -15.05,-7.88 -14.61,-16.59c0.46,-8.7 7.73,-15.39 16.22,-14.93c8.51,0.46 15.04,7.88 14.6,16.58l0.01,0.01z" fill="#669198" id="svg_35"/>
      <path d="m289.13,172.41l-14.9,0c-0.83,0 -1.51,0.68 -1.51,1.52l0,30.21c0,0.84 0.68,1.52 1.51,1.52l14.9,0c0.84,0 1.52,-0.68 1.52,-1.52l0,-30.21c0,-0.84 -0.68,-1.52 -1.52,-1.52z" fill="#9AED66" id="svg_36"/>
      <path d="m318.19,296.29c0.7,-7.29 -0.87,-12.03 -1.56,-15.62c-1.52,-7.71 -9.2,-11.76 -16.75,-9.62c-6.86,1.94 -10.22,7.89 -12.02,19.46c-1.79,11.59 -2.25,32.28 1.3,42.83c4.93,14.63 12.31,60.24 12.33,61.65l10.92,-0.88c0,0 5.3,-92.69 5.79,-97.82l-0.01,0z" fill="#669198" id="svg_37"/>
      <mask height="125" id="mask2_2_3348" maskUnits="userSpaceOnUse" width="33" x="286" y="270">
       <path d="m318.19,296.29c0.33,-2.62 0.7,-5.03 -0.31,-12.97c-0.08,-0.82 -0.23,-1.64 -0.46,-2.46c-2.14,-7.55 -10,-11.95 -17.55,-9.81c-6.86,1.94 -10.22,7.88 -12.02,19.46c-1.79,11.59 -2.25,32.27 1.3,42.83c4.93,14.63 12.3,60.24 12.33,61.65l10.92,-0.88c0,0 5.17,-92.7 5.79,-97.82z" fill="white" id="svg_38"/>
      </mask>
      <g id="svg_39" mask="url(#mask2_2_3348)">
       <path d="m291.63,276.89c-0.75,0.75 5.31,-6.81 17.42,-1.52c10.09,4.42 9.08,33.3 9.08,33.3l12.11,-12.11l3.79,-29.52l-28.02,-3.02l-16.65,2.26l2.26,10.61l0.01,0z" fill="#547B7F" id="svg_40"/>
      </g>
      <path d="m355.6,202.55c3.86,3.47 4.2,9.42 0.73,13.29c-3.47,3.87 -9.42,4.21 -13.29,0.74c-3.88,-3.48 -4.21,-9.42 -0.73,-13.3c3.46,-3.88 9.42,-4.2 13.3,-0.73l-0.01,0z" fill="#EACB92" id="svg_41"/>
      <path d="m349.6,199.61c0,0 -4.99,-1.52 -10.37,-1.48c8.04,-0.05 -17.98,1.35 -41.43,-5.47c-0.79,-0.23 -3.25,-1.32 -3.62,-1.5c-0.87,-0.43 -2.05,-1.44 -3.15,-1.83c-1.68,-0.64 -3.26,-1.55 -4.17,-2.07c-0.59,1.19 -0.21,2.47 1.58,3.4c1.33,0.75 2.65,1.24 2.45,1.88c-0.18,0.37 -1.32,0.04 -3.81,-0.73c-2.02,-0.65 -5.16,-1.7 -7.9,-2.35c-1.72,-0.49 -2.04,1.21 -0.98,1.79c1.89,0.99 6.64,2.37 7.43,2.93c0.31,0.17 0.1,0.47 -0.13,0.44c-2.35,-0.37 -7.74,-3.75 -8.43,-1.9c-0.03,0.26 0,0.49 0.15,0.72c0.22,0.32 0.69,0.63 1.45,0.98c0.19,0.07 0.4,0.16 0.59,0.25c2.12,0.87 4.26,1.67 5.34,2.24c0.3,0.12 0.38,0.46 0.11,0.53c-0.16,0.11 -1.51,-0.43 -3.03,-0.98c-2.16,-0.79 -4.75,-1.71 -5.05,-0.96c-0.32,0.75 0.76,1.31 2.27,1.95c2.53,1.11 6.07,2.14 6.2,2.32c0.08,0.18 0.05,0.47 -0.21,0.36c-0.93,-0.26 -3.34,-0.91 -4.99,-1.3c-0.85,-0.2 -1.36,0.55 -0.97,0.97c1.52,0.88 4.77,1.91 7.08,2.8c4.26,1.64 8.87,1.74 12.9,3.21c1.02,0.34 1.6,0.69 3.26,1.35c4.62,2.02 16.19,6.34 35.98,9.98c4.38,0.81 7.17,1.32 9.54,1.45" fill="#EACB92" id="svg_42"/>
      <path d="m271.14,106.89c2.12,14.21 7.41,27.54 16.69,27.73c8.5,0.17 14.55,-13.82 15.94,-28.13c1.79,-18.5 -6.3,-24.26 -16.57,-24.26c-10.28,0 -18.59,7.65 -16.05,24.66l-0.01,0z" fill="#EACB92" id="svg_43"/>
      <path d="m303.79,104.38c0,0 1.69,-1.53 2.62,0.47c0.24,0.52 0.28,1.37 0.09,4.67c-0.17,2.96 -2.78,3.67 -3.95,2.49c-0.03,-0.04 1.26,-7.62 1.26,-7.62l-0.02,-0.01z" fill="#EACB92" id="svg_44"/>
      <g id="svg_45">
       <path d="m292.38,108.6c0.75,0 1.36,-0.61 1.36,-1.37c0,-0.75 -0.61,-1.36 -1.36,-1.36c-0.75,0 -1.36,0.61 -1.36,1.36c0,0.76 0.61,1.37 1.36,1.37z" fill="#004753" id="svg_46"/>
      </g>
      <g id="svg_47">
       <path d="m277.75,108.6c0.75,0 1.36,-0.61 1.36,-1.37c0,-0.75 -0.61,-1.36 -1.36,-1.36c-0.75,0 -1.36,0.61 -1.36,1.36c0,0.76 0.61,1.37 1.36,1.37z" fill="#004753" id="svg_48"/>
      </g>
      <g id="svg_49" opacity="0.67">
       <path d="m282.54,117.03c3.02,2.27 5.34,0.03 5.34,0.03l-3.57,-1.53c0.06,-0.31 0.44,-9.56 0.49,-9.49l-2.25,10.99l-0.01,0z" fill="#EACB92" id="svg_50"/>
      </g>
      <g id="svg_51" opacity="0.67">
       <path d="m303.31,106.52c0,0 0.05,0.11 0.11,0.09c0.06,-0.03 0.08,-0.09 0.12,-0.14c0.19,-0.25 0.63,-0.2 0.84,0.03c0.22,0.23 0.29,0.56 0.37,0.88c0.1,0.58 0.22,1.19 0.02,1.76c-0.19,0.55 -0.82,1.01 -1.38,0.79" fill="#EACB92" id="svg_52"/>
      </g>
      <path d="m291.57,122.3c-1.24,-0.04 -8.41,0 -8.41,0c0.16,1.53 2.3,2.82 4.32,2.88c1.88,0.06 4.05,-1.5 4.09,-2.88z" fill="white" id="svg_53"/>
      <path d="m266.65,110.33c0,0 11.09,-3.58 17.31,-13.27c6.2,-9.68 4.61,-17.97 4.61,-17.97c0,0 -10.9,-1.88 -17.81,7.08c-5.78,7.53 -4.21,21.21 -4.11,24.16z" fill="#AAB8C1" id="svg_54"/>
      <path d="m311.32,111.09c0,0 -17.25,-6.21 -23.47,-15.89c-6.21,-9.69 -6.06,-15.9 -6.06,-15.9c0,0 18.35,-2.09 25.29,6.88c5.81,7.51 4.34,21.96 4.23,24.92l0.01,-0.01z" fill="#AAB8C1" id="svg_55"/>
      <path d="m208.32,214.03c0,0 2.57,-9.3 5.71,-15.49c2.12,-4.16 9.05,-18.27 12.74,-38.49c0.19,-1.06 0.36,-4.52 0.36,-5.07c0,-1.26 -0.48,-3.2 -0.3,-4.69c0.24,-2.33 0.08,-4.68 0.02,-6.01c1.73,0 2.99,1.18 3.03,3.78c0.11,1.98 -0.11,3.78 0.76,3.9c0.53,0.02 0.82,-1.48 1.37,-4.8c0.41,-2.72 1.01,-6.94 1.83,-10.51c0.42,-2.25 2.57,-1.65 2.64,-0.09c0.05,2.75 -1.1,9.04 -0.91,10.28c0.03,0.46 0.48,0.38 0.6,0.1c0.91,-2.94 0.13,-11.1 2.67,-10.86c0.33,0.12 0.57,0.3 0.74,0.6c0.25,0.45 0.32,1.15 0.29,2.23c-0.03,0.27 -0.04,0.56 -0.05,0.84c-0.23,2.96 -0.54,5.9 -0.47,7.47c-0.05,0.42 0.3,0.71 0.54,0.43c0.21,-0.11 0.36,-1.99 0.6,-4.05c0.33,-2.94 0.76,-6.48 1.8,-6.4c1.06,0.06 1.07,1.64 0.95,3.75c-0.17,3.57 -1.03,8.25 -0.9,8.51c0.16,0.19 0.5,0.32 0.54,-0.04c0.24,-1.22 0.88,-4.37 1.39,-6.52c0.26,-1.08 1.43,-1.25 1.67,-0.54c0.13,2.25 -0.55,6.61 -0.84,9.78c-0.58,5.89 -3.1,11.27 -3.73,16.78c-0.19,1.36 -0.12,2.25 -0.31,4.53c-0.35,6.51 -3.8,21.46 -7.04,37.24c-1.17,5.66 -2.31,9 -4.2,12.01" fill="#7A5334" id="svg_56"/>
      <path d="m188.28,187.62c6.44,16.89 20.47,35.79 26.35,38.87c7.93,4.16 10.54,2.82 15.06,-2.95c4.51,-5.77 -22.53,-44.51 -27.85,-49.68c-4.59,-4.46 -15.52,8.64 -13.56,13.77l0,-0.01z" fill="#7A5334" id="svg_57"/>
      <path d="m198.49,168.56c-11.74,-2.5 -20.02,15.48 -12.64,26.81c8.41,12.91 12.42,16.84 12.42,16.84l13.69,-26.53c0,0 -11.13,-16.63 -13.48,-17.12l0.01,0z" fill="#054752" id="svg_58"/>
      <path d="m160.06,88.28c-0.97,0.12 -1.85,-0.59 -1.98,-1.56l-0.82,-6.89c-0.1,-0.97 0.59,-1.85 1.56,-1.97c0.97,-0.12 1.86,0.59 1.98,1.55l0.82,6.89c0.12,0.98 -0.59,1.86 -1.56,1.98z" fill="#041E21" id="svg_59"/>
      <path d="m154.7,90.41c-0.98,-0.05 -1.74,-0.89 -1.69,-1.87l0.36,-6.92c0.05,-0.98 0.89,-1.74 1.87,-1.69c0.98,0.05 1.74,0.89 1.69,1.87l-0.36,6.93c-0.05,0.97 -0.9,1.73 -1.87,1.68z" fill="#041E21" id="svg_60"/>
      <path d="m165.92,86.3c-0.95,-0.2 -1.58,-1.14 -1.38,-2.09l1.41,-6.8c0.21,-0.95 1.15,-1.58 2.1,-1.37c0.95,0.2 1.58,1.14 1.37,2.09l-1.41,6.8c-0.19,0.95 -1.14,1.58 -2.09,1.37z" fill="#041E21" id="svg_61"/>
      <path d="m162.84,88.21c-0.97,-0.05 -1.73,-0.89 -1.68,-1.87l0.36,-6.93c0.05,-0.98 0.89,-1.73 1.87,-1.69c0.97,0.05 1.73,0.9 1.68,1.87l-0.36,6.93c-0.05,0.98 -0.89,1.74 -1.87,1.69z" fill="#041E21" id="svg_62"/>
      <path d="m172.62,87.1c-0.93,-0.33 -1.41,-1.34 -1.09,-2.27l2.29,-6.55c0.33,-0.93 1.34,-1.41 2.27,-1.09c0.92,0.33 1.41,1.34 1.08,2.27l-2.29,6.55c-0.32,0.93 -1.34,1.41 -2.26,1.09z" fill="#041E21" id="svg_63"/>
      <path d="m170.47,87.33c-0.95,-0.2 -1.58,-1.15 -1.38,-2.1l1.38,-6.8c0.19,-0.95 1.15,-1.57 2.1,-1.38c0.95,0.19 1.58,1.14 1.38,2.1l-1.38,6.79c-0.19,0.95 -1.15,1.58 -2.1,1.39z" fill="#041E21" id="svg_64"/>
      <path d="m174.13,88.83c-0.85,-0.47 -1.16,-1.55 -0.68,-2.41l3.36,-6.07c0.47,-0.86 1.56,-1.17 2.41,-0.7c0.86,0.47 1.17,1.57 0.7,2.41l-3.36,6.07c-0.47,0.86 -1.56,1.17 -2.41,0.69" fill="#041E21" id="svg_65"/>
      <path d="m153.73,105.13c0.12,0.96 -0.56,1.86 -1.53,1.98l-6.88,0.89c-0.96,0.13 -1.86,-0.56 -1.98,-1.53c-0.12,-0.96 0.56,-1.86 1.53,-1.98l6.88,-0.9c0.96,-0.12 1.86,0.57 1.98,1.54z" fill="#041E21" id="svg_66"/>
      <path d="m155.91,110.46c-0.03,0.98 -0.86,1.75 -1.84,1.7l-6.93,-0.27c-0.97,-0.04 -1.74,-0.87 -1.7,-1.85c0.04,-0.97 0.87,-1.74 1.85,-1.7l6.93,0.28c0.97,0.04 1.74,0.87 1.69,1.84z" fill="#041E21" id="svg_67"/>
      <path d="m155,99.15c-0.19,0.96 -1.12,1.59 -2.09,1.4l-6.8,-1.33c-0.97,-0.19 -1.59,-1.12 -1.4,-2.08c0.19,-0.97 1.12,-1.59 2.08,-1.4l6.81,1.32c0.97,0.2 1.59,1.12 1.4,2.09z" fill="#041E21" id="svg_68"/>
      <path d="m153.61,102.34c-0.03,0.98 -0.86,1.75 -1.84,1.7l-6.93,-0.28c-0.97,-0.03 -1.75,-0.86 -1.7,-1.84c0.04,-0.98 0.87,-1.75 1.85,-1.7l6.92,0.28c0.98,0.03 1.75,0.87 1.7,1.84z" fill="#041E21" id="svg_69"/>
      <path d="m155.55,92.09c-0.31,0.93 -1.32,1.43 -2.25,1.12l-6.58,-2.22c-0.93,-0.31 -1.43,-1.32 -1.12,-2.25c0.31,-0.93 1.33,-1.44 2.25,-1.12l6.58,2.21c0.93,0.32 1.44,1.33 1.12,2.26z" fill="#041E21" id="svg_70"/>
      <path d="m153.81,95.89c-0.46,0.86 -1.55,1.19 -2.41,0.73l-6.11,-3.29c-0.86,-0.46 -1.18,-1.54 -0.73,-2.41c0.46,-0.87 1.55,-1.18 2.41,-0.72l6.11,3.28c0.86,0.46 1.18,1.55 0.73,2.41z" fill="#041E21" id="svg_71"/>
      <path d="m159.31,87.28c-0.59,0.78 -1.71,0.94 -2.49,0.35l-5.53,-4.18c-0.79,-0.59 -0.94,-1.71 -0.35,-2.5c0.59,-0.78 1.71,-0.94 2.49,-0.35l5.53,4.18c0.79,0.6 0.94,1.72 0.35,2.5z" fill="#041E21" id="svg_72"/>
      <path d="m156.68,89.53c-0.46,0.86 -1.55,1.18 -2.42,0.73l-6.1,-3.29c-0.86,-0.46 -1.19,-1.55 -0.73,-2.41c0.46,-0.86 1.54,-1.18 2.41,-0.73l6.11,3.29c0.86,0.46 1.18,1.55 0.73,2.41z" fill="#041E21" id="svg_73"/>
      <path d="m178.47,106.42c-0.23,0.95 0.36,1.91 1.32,2.14l6.74,1.6c0.96,0.23 1.92,-0.36 2.15,-1.31c0.23,-0.95 -0.36,-1.92 -1.31,-2.15l-6.75,-1.6c-0.95,-0.23 -1.92,0.36 -2.15,1.32z" fill="#041E21" id="svg_74"/>
      <path d="m175.74,111.49c-0.06,0.97 0.68,1.82 1.66,1.89l6.93,0.45c0.98,0.06 1.82,-0.69 1.89,-1.67c0.06,-0.97 -0.69,-1.82 -1.66,-1.89l-6.93,-0.44c-0.98,-0.06 -1.82,0.68 -1.89,1.66z" fill="#041E21" id="svg_75"/>
      <path d="m177.82,100.34c0.09,0.98 0.95,1.7 1.93,1.62l6.92,-0.62c0.97,-0.08 1.7,-0.95 1.61,-1.93c-0.08,-0.97 -0.95,-1.7 -1.93,-1.61l-6.91,0.61c-0.98,0.09 -1.7,0.96 -1.62,1.93z" fill="#041E21" id="svg_76"/>
      <path d="m178.87,103.66c-0.06,0.97 0.69,1.81 1.66,1.89l6.93,0.44c0.98,0.06 1.82,-0.68 1.89,-1.66c0.06,-0.98 -0.68,-1.82 -1.66,-1.89l-6.93,-0.45c-0.97,-0.06 -1.82,0.69 -1.89,1.67z" fill="#041E21" id="svg_77"/>
      <path d="m178.01,93.26c0.22,0.95 1.17,1.55 2.13,1.35l6.77,-1.52c0.95,-0.22 1.55,-1.17 1.35,-2.12c-0.22,-0.96 -1.17,-1.56 -2.12,-1.35l-6.77,1.52c-0.96,0.21 -1.56,1.16 -1.36,2.12z" fill="#041E21" id="svg_78"/>
      <path d="m179.35,97.22c0.38,0.9 1.41,1.34 2.32,0.96l6.42,-2.63c0.9,-0.38 1.34,-1.41 0.96,-2.32c-0.37,-0.9 -1.41,-1.34 -2.31,-0.96l-6.42,2.64c-0.91,0.37 -1.34,1.41 -0.97,2.31z" fill="#041E21" id="svg_79"/>
      <path d="m174.77,88.07c0.51,0.84 1.61,1.11 2.44,0.61l5.94,-3.59c0.83,-0.51 1.11,-1.61 0.6,-2.44c-0.5,-0.83 -1.6,-1.11 -2.43,-0.6l-5.94,3.59c-0.84,0.51 -1.11,1.6 -0.61,2.43z" fill="#041E21" id="svg_80"/>
      <path d="m177.16,90.59c0.37,0.91 1.41,1.34 2.31,0.97l6.43,-2.64c0.9,-0.38 1.33,-1.41 0.96,-2.32c-0.37,-0.9 -1.41,-1.33 -2.31,-0.96l-6.43,2.64c-0.9,0.37 -1.33,1.41 -0.96,2.31z" fill="#041E21" id="svg_81"/>
      <path d="m176.76,127.38l-25.05,-0.4l-1.7,45.75l26.48,5.58l0.27,-50.93z" fill="#7A5334" id="svg_82"/>
      <path d="m155,152.47l-19.79,8.53c0,0 -0.19,22.06 26.84,23.46c27.03,1.41 30.14,-18.75 30.14,-18.75l-17.61,-12.72l-19.58,-0.52z" fill="#7A5334" id="svg_83"/>
      <g id="svg_84" opacity="0.65">
       <mask height="31" id="mask3_2_3348" maskUnits="userSpaceOnUse" width="28" x="150" y="129">
        <path d="m151.82,129.17l-1.5,28.92l25.91,1.35l1.5,-28.92l-25.91,-1.35z" fill="white" id="svg_85"/>
       </mask>
       <g id="svg_86" mask="url(#mask3_2_3348)">
        <path d="m151.72,130.88c0.59,0.22 -0.6,27.34 24.5,28.54l0.38,-28.96l-24.88,0.42z" fill="#7A5334" id="svg_87"/>
       </g>
      </g>
      <path d="m163.16,143.43c-8.38,-0.43 -14.78,-9.46 -14.34,-17.83l1.46,-27.96c0.37,-7.12 6.49,-12.64 13.6,-12.26l4.57,0.24c7.11,0.37 12.63,6.49 12.26,13.6l-1.45,27.96c-0.44,8.37 -7.74,16.67 -16.11,16.24" fill="#7A5334" id="svg_88"/>
      <path d="m156.72,102.74c1.38,-1.57 3.85,-1.72 5.65,0.47l-5.65,-0.47z" fill="#041E21" id="svg_89"/>
      <path d="m171.18,103.84c1.92,-2.05 4.53,-1.43 5.91,0.39l-5.91,-0.39z" fill="#041E21" id="svg_90"/>
      <path d="m150.72,112.21c0,0 -2.11,-2.98 -3.4,-1.07c-0.33,0.49 -0.31,2.78 -0.21,5.9c0.06,2.05 0.96,3.59 2.37,2.57c0.04,-0.03 1.24,-7.4 1.24,-7.4z" fill="#7A5334" id="svg_91"/>
      <path d="m178.63,113.78c0,0 2.28,-2.86 3.45,-0.88c0.3,0.5 0.15,2.79 -0.11,5.9c-0.17,2.05 -1.17,3.53 -2.51,2.44c-0.03,-0.04 -0.83,-7.46 -0.83,-7.46z" fill="#7A5334" id="svg_92"/>
      <path d="m155.53,109.98c0.92,-1.38 7.27,0.38 8.44,3.21l-8.44,-3.21z" fill="#041E21" id="svg_93"/>
      <path d="m169.6,114.15c1.67,-4.01 6.33,-5.76 7.5,-4.12l-7.5,4.12z" fill="#041E21" id="svg_94"/>
      <g id="svg_95" opacity="0.65">
       <mask height="22" id="mask4_2_3348" maskUnits="userSpaceOnUse" width="10" x="162" y="105">
        <path d="m163.41,105.87l-1.05,20.18l8.3,0.44l1.05,-20.18l-8.3,-0.44z" fill="white" id="svg_96"/>
       </mask>
       <g id="svg_97" mask="url(#mask4_2_3348)">
        <path d="m170.99,120c-0.58,11.21 -8.54,4.07 -8.54,4.07l4.05,0.34c-0.05,-0.32 0.77,-18.41 0.73,-18.33c0,0 4.37,1.97 3.76,13.92z" fill="#7A5334" id="svg_98"/>
       </g>
      </g>
      <path d="m170.38,128.21c-0.1,0.24 -1.82,3.89 -5.47,3.44c-5.6,-0.7 -5.65,-4.35 -5.65,-4.35l11.12,0.9l0,0.01z" fill="white" id="svg_99"/>
      <path d="m148.9,110.96c0,0 2.91,2.71 3.53,-0.94c0.4,-2.33 1.56,-8.96 2.34,-13.46c0.47,-2.71 2.76,-4.73 5.51,-4.87c4.78,-0.25 13.22,-0.12 15.19,2.49c3.67,4.87 -1.06,18.67 4.98,18.13c3.02,-0.28 0.52,-15.48 0.08,-21.48c-0.31,-4.31 -8.05,-8.65 -19.01,-7.88c-8.79,0.62 -12.02,8.49 -12.02,8.49l-0.59,19.52l-0.01,0z" fill="#041E21" id="svg_100"/>
      <g id="svg_101">
       <mask height="4" id="mask5_2_3348" maskUnits="userSpaceOnUse" width="2" x="148" y="113">
        <path d="m148.28,113.38l-0.18,3.4l1.55,0.08l0.18,-3.4l-1.55,-0.08z" fill="white" id="svg_102"/>
       </mask>
       <g id="svg_103" mask="url(#mask5_2_3348)">
        <path d="m149.49,113.6c-0.26,-0.3 -0.78,-0.17 -1.02,0.15c-0.24,0.33 -0.27,0.74 -0.28,1.14c-0.02,0.49 -0.03,1.01 0.22,1.43c0.24,0.42 0.85,0.68 1.24,0.38" fill="#7A5334" id="svg_104"/>
       </g>
      </g>
      <g id="svg_105">
       <mask height="6" id="mask6_2_3348" maskUnits="userSpaceOnUse" width="3" x="179" y="114">
        <path d="m179.98,114.38l-0.24,4.54l1.48,0.08l0.24,-4.55l-1.48,-0.07z" fill="white" id="svg_106"/>
       </mask>
       <g id="svg_107" mask="url(#mask6_2_3348)">
        <path d="m180.12,114.37c0.57,0.26 0.96,0.83 1.11,1.43c0.16,0.6 0.11,1.24 -0.03,1.86c-0.09,0.36 -0.21,0.73 -0.46,0.98c-0.27,0.27 -0.7,0.39 -1.01,0.19" fill="#7A5334" id="svg_108"/>
       </g>
      </g>
      <g id="svg_109">
       <mask height="3" id="mask7_2_3348" maskUnits="userSpaceOnUse" width="7" x="161" y="136">
        <path d="m162.07,136.66l-0.07,1.39l5,0.26l0.07,-1.39l-5,-0.26z" fill="white" id="svg_110"/>
       </mask>
       <g id="svg_111" mask="url(#mask7_2_3348)">
        <path d="m161.99,138.05c0.58,-0.8 1.54,-1.28 2.52,-1.27c0.97,0 1.94,0.51 2.49,1.31" fill="#7A5334" id="svg_112"/>
       </g>
      </g>
      <path d="m199.39,168.86l-16.58,-9.92c0,0 3.1,6.19 -18.36,5.07c-21.46,-1.12 -19.72,-7.56 -19.72,-7.56c0,0 -14.55,4.02 -21.2,7.29c-0.03,0 -0.04,0.02 -0.06,0.06c-1.38,0.45 -7.98,18.22 -9.96,41.81c-2.67,32.04 -1.38,86.17 -1.38,86.17l95.23,7.86c0,0 -2.79,-111.74 -7.97,-130.79l0,0.01z" fill="#054752" id="svg_113"/>
      <path d="m132.14,158.95l9.16,-2.12c0,0 54.44,117.21 56.11,119.92c0.35,0.58 0.25,1.25 0.25,1.25l-6.84,8.14c0,0 -57.39,-121.8 -58.68,-127.19z" fill="black" id="svg_114"/>
      <path d="m135.6,229.1c0,0 4.51,6.19 6.81,11.2c1.54,3.38 6.88,14.66 17.63,26.95c0.55,0.63 2.62,2.45 2.97,2.73c0.79,0.62 2.23,1.28 3.06,2.13c1.33,1.31 2.87,2.37 3.73,2.99c-0.86,1.08 -2.21,1.28 -3.85,0.02c-1.29,-0.91 -2.3,-1.93 -2.8,-1.46c-0.28,0.32 0.51,1.24 2.31,3.23c1.48,1.59 3.82,4.06 5.61,6.33c1.2,1.38 -0.24,2.41 -1.25,1.68c-1.73,-1.33 -5.08,-5.15 -5.94,-5.65c-0.3,-0.21 -0.48,0.12 -0.36,0.32c1.37,2.03 6.83,5.57 5.42,7.03c-0.24,0.14 -0.47,0.19 -0.73,0.15c-0.4,-0.06 -0.88,-0.36 -1.53,-0.91c-0.16,-0.15 -0.33,-0.29 -0.49,-0.45c-1.73,-1.6 -3.39,-3.25 -4.41,-3.99c-0.24,-0.24 -0.59,-0.16 -0.54,0.14c-0.03,0.18 1.05,1.2 2.22,2.38c1.66,1.67 3.65,3.68 3.08,4.28c-0.55,0.63 -1.55,-0.14 -2.79,-1.26c-2.13,-1.87 -4.62,-4.73 -4.85,-4.78c-0.19,0 -0.45,0.16 -0.24,0.36c0.64,0.75 2.28,2.72 3.38,4.09c0.54,0.7 0.07,1.51 -0.5,1.31c-1.47,-1.03 -3.83,-3.61 -5.66,-5.36c-3.38,-3.26 -5.47,-7.49 -8.59,-10.61c-0.75,-0.8 -1.34,-1.2 -2.67,-2.44c-3.86,-3.43 -11.47,-12.96 -19.67,-22.79c-2.94,-3.51 -4.45,-5.88 -5.39,-8.54" fill="#7A5334" id="svg_115"/>
      <path d="m109.79,189.97c-0.94,18.05 4.25,41.02 8.38,46.21c5.58,7 8.5,6.85 14.97,3.38c6.47,-3.46 -2.6,-49.82 -5.39,-56.7c-2.39,-5.93 -17.67,1.63 -17.96,7.11z" fill="#7A5334" id="svg_116"/>
      <path d="m120.38,164.86c-8.76,4.83 -10.33,13.64 -11.57,27.1c-1.42,15.35 -0.71,20.92 -0.71,20.92l33.41,-4.31c0,0 -1.31,-54.65 -21.13,-43.73l0,0.02z" fill="#054752" id="svg_117"/>
      <path d="m65.3,194.29l11.05,34.94l-3.87,32.61c-0.03,0.08 -21.47,6.12 -22.77,6.26c-0.15,-0.11 -3.02,-13.81 -4,-25.81c0.01,-0.02 0,-0.06 0,-0.1c-1.57,-18.82 -1.93,-20.54 4.03,-38.92c0.53,-1.76 10.23,-9.66 15.56,-8.99l0,0.01z" fill="#FCE1D8" id="svg_118"/>
      <path d="m49.37,274.64c4.24,25.49 9.57,40.46 12.05,46.43c0.81,2.14 1.25,2.89 1.66,4.21c1.8,5.2 1.86,11.13 3.86,16.64c1.09,2.96 2.35,7.17 3.44,9.13c0.53,0.53 1.5,-0.12 1.28,-1.21c-0.47,-2.14 -1.26,-5.26 -1.55,-6.44c-0.14,-0.35 0.24,-0.37 0.47,-0.27c0.23,0.16 1.47,4.74 2.84,8.02c0.8,1.93 1.5,3.35 2.46,2.95c0.96,-0.37 -0.17,-3.73 -1.15,-6.5c-0.66,-1.97 -1.32,-3.72 -1.19,-3.91c0.1,-0.35 0.54,-0.24 0.68,0.15c0.72,1.38 1.7,4.14 2.77,6.89c0.11,0.25 0.21,0.5 0.3,0.76c0.44,0.99 0.81,1.59 1.23,1.88c0.29,0.18 0.58,0.24 0.93,0.2c2.38,-0.87 -1.84,-7.84 -2.27,-10.88c-0.02,-0.3 0.35,-0.56 0.58,-0.17c0.69,1.04 2.36,7.17 3.59,9.61c0.73,1.37 2.92,0.98 2.33,-1.22c-0.8,-3.56 -2.05,-7.6 -2.86,-10.21c-0.93,-3.21 -1.33,-4.67 -0.84,-4.9c0.83,-0.27 1.42,1.44 2.37,3.17c1.14,2.31 2.78,2.83 4.34,2.09c-0.63,-1.18 -1.79,-3.23 -2.57,-5.39c-0.47,-1.44 -1.75,-2.97 -2.29,-4.09c-0.23,-0.48 -1.56,-3.66 -1.84,-4.7c-5.39,-19.71 -6.24,-48.69 -6.14,-53.34c0.16,-6.91 -1.67,-13.34 -1.67,-13.34l-23.96,3.17c0.12,3.06 0.21,5.57 1.15,11.24l0,0.03z" fill="#FCE1D8" id="svg_119"/>
      <path d="m148.02,118.16c-1.62,7.62 -5.2,14.79 -12.16,18.28c6.52,2.82 8.4,11.58 6.43,18.4c-3.04,10.44 -12.75,18.01 -23.27,20.78c-10.52,2.77 -21.7,1.38 -32.22,-1.34c-8.16,-2.12 -16.3,-5.15 -22.68,-10.64c-4.79,-4.11 -8.4,-9.47 -10.91,-15.26c-1.7,-3.94 -2.92,-8.19 -2.58,-12.47c0.62,-7.65 6.44,-14.35 13.65,-17.02c7.2,-2.68 15.43,-1.65 22.34,1.71c-5.54,-1 -12.37,-3.05 -14.14,-8.39c-1.77,-5.34 -0.06,-12.58 5.5,-15.27c4.45,-2.14 12.81,-0.44 17.44,2.47c-16.79,-4.29 -10.37,-25.63 5.02,-21.7c10.83,2.76 15.94,3.53 25.74,6.03c21.38,5.46 23.26,27.86 21.85,34.43l-0.01,-0.01z" fill="#F6B241" id="svg_120"/>
      <g id="svg_121">
       <path d="m92.62,135.83c0.23,0.89 0.54,1.82 0.35,2.72c-0.27,1.22 -1.38,2.05 -2.39,2.79c-4.46,3.26 -8.54,7.03 -12.13,11.23c-3.09,3.6 -5.96,7.99 -5.49,12.71c0.47,4.61 4.21,8.46 8.57,10.04c4.36,1.58 9.22,1.2 13.71,0.07c3.97,-1 7.88,-2.65 10.84,-5.5c2.96,-2.86 4.74,-6.73 6.13,-10.62c3.33,-9.34 4.74,-19.36 4.11,-29.24c-0.41,-6.52 -4.27,-21.36 -13.79,-16.57c-6.67,3.37 -11.74,15.4 -9.93,22.37l0.02,0z" fill="#F6B241" id="svg_122"/>
      </g>
      <mask height="137" id="mask8_2_3348" maskUnits="userSpaceOnUse" width="149" x="42" y="154">
       <path d="m42.36,222.37l29.15,0.48c0,0 3.02,15.79 6.07,33.46c2.49,14.43 5.02,30.95 5.7,34.16l34.87,-0.39l0.88,0l0,-0.01l35.74,-1.82c1.45,-8.97 2.99,-43.21 5.85,-67.71l29.9,-2.16c0,0 4.59,-58.14 -32.93,-54.73c-0.22,0.03 -0.41,0.1 -0.6,0.23c-11.97,-4.14 -28.19,-8.73 -28.19,-8.73c0,0 -7.12,-0.64 -12.75,-0.47c-2.83,0.04 -10.72,1.06 -10.72,1.06c0,0 -0.48,0.13 -1.35,0.36c-4.88,1.29 -21.81,5.84 -32.68,9.73c-32.86,-0.7 -28.93,56.55 -28.93,56.55l-0.01,-0.01z" fill="white" id="svg_123"/>
      </mask>
      <g id="svg_124" mask="url(#mask8_2_3348)">
       <path d="m42.36,222.37l29.15,0.48c0,0 3.02,15.79 6.07,33.46c2.49,14.43 5.02,30.95 5.7,34.16l34.87,-0.39l0.88,0l0,-0.01l35.74,-1.82c1.45,-8.97 2.99,-43.21 5.85,-67.71l29.9,-2.16c0,0 4.59,-58.14 -32.93,-54.73c-0.22,0.03 -0.41,0.1 -0.6,0.23c-11.97,-4.14 -28.19,-8.73 -28.19,-8.73c0,0 -7.12,-0.64 -12.75,-0.47c-2.83,0.04 -10.72,1.06 -10.72,1.06c0,0 -0.48,0.13 -1.35,0.36c-4.88,1.29 -21.81,5.84 -32.68,9.73c-32.86,-0.7 -28.93,56.55 -28.93,56.55l-0.01,-0.01z" fill="white" id="svg_125"/>
       <path d="m181.55,158.33c0,2.03 1.65,3.68 3.7,3.68c2.03,0 3.69,-1.65 3.69,-3.68l0,-4.93c0,-2.04 -1.65,-3.69 -3.69,-3.69c-2.04,0 -3.7,1.65 -3.7,3.69l0,4.93z" fill="#054752" id="svg_126"/>
       <path d="m138.35,185.94c0,1.64 1.65,2.98 3.68,2.98c2.04,0 3.69,-1.34 3.69,-2.98l0,-3.96c0,-1.64 -1.65,-2.98 -3.69,-2.98c-2.03,0 -3.68,1.34 -3.68,2.98l0,3.96z" fill="#054752" id="svg_127"/>
       <path d="m124.32,162.82c0,1.64 1.65,2.98 3.7,2.98c2.04,0 3.69,-1.34 3.69,-2.98l0,-3.96c0,-1.64 -1.65,-2.98 -3.69,-2.98c-2.05,0 -3.7,1.34 -3.7,2.98l0,3.96z" fill="#054752" id="svg_128"/>
       <path d="m164.28,181.17c0,1.64 1.65,2.98 3.69,2.98c2.04,0 3.69,-1.34 3.69,-2.98l0,-3.96c0,-1.64 -1.65,-2.98 -3.69,-2.98c-2.04,0 -3.69,1.34 -3.69,2.98l0,3.96z" fill="#054752" id="svg_129"/>
       <path d="m153.67,169.29c0,2.58 1.65,4.68 3.7,4.68c2.04,0 3.7,-2.1 3.7,-4.68l0,-6.24c0,-2.58 -1.65,-4.68 -3.7,-4.68c-2.03,0 -3.7,2.1 -3.7,4.68l0,6.24z" fill="#054752" id="svg_130"/>
       <path d="m181.55,192.75c0,2.04 1.65,3.69 3.7,3.69c2.03,0 3.69,-1.65 3.69,-3.69l0,-4.93c0,-2.03 -1.65,-3.68 -3.69,-3.68c-2.04,0 -3.7,1.65 -3.7,3.68l0,4.93z" fill="#054752" id="svg_131"/>
       <path d="m137.24,215.93c0,1.63 1.65,2.97 3.7,2.97c2.03,0 3.68,-1.34 3.68,-2.97l0,-3.97c0,-1.64 -1.65,-2.98 -3.68,-2.98c-2.05,0 -3.7,1.34 -3.7,2.98l0,3.97z" fill="#054752" id="svg_132"/>
       <path d="m117.54,188.81c0,1.64 1.65,2.98 3.68,2.98c2.05,0 3.7,-1.34 3.7,-2.98l0,-3.96c0,-1.64 -1.65,-2.98 -3.7,-2.98c-2.03,0 -3.68,1.34 -3.68,2.98l0,3.96z" fill="#054752" id="svg_133"/>
       <path d="m164.28,215.6c0,1.64 1.65,2.98 3.69,2.98c2.04,0 3.69,-1.34 3.69,-2.98l0,-3.97c0,-1.63 -1.65,-2.97 -3.69,-2.97c-2.04,0 -3.69,1.34 -3.69,2.97l0,3.97z" fill="#054752" id="svg_134"/>
       <path d="m153.67,203.73c0,2.58 1.65,4.68 3.7,4.68c2.04,0 3.7,-2.1 3.7,-4.68l0,-6.24c0,-2.58 -1.65,-4.68 -3.7,-4.68c-2.03,0 -3.7,2.1 -3.7,4.68l0,6.24z" fill="#054752" id="svg_135"/>
       <path d="m120.77,212.91c0,2.58 1.65,4.68 3.68,4.68c2.05,0 3.7,-2.1 3.7,-4.68l0,-6.24c0,-2.58 -1.65,-4.67 -3.7,-4.67c-2.03,0 -3.68,2.09 -3.68,4.67l0,6.24z" fill="#054752" id="svg_136"/>
       <path d="m100.1,168.72c0,2.04 1.65,3.69 3.69,3.69c2.03,0 3.68,-1.65 3.68,-3.69l0,-4.92c0,-2.04 -1.65,-3.69 -3.68,-3.69c-2.04,0 -3.69,1.65 -3.69,3.69l0,4.92z" fill="#054752" id="svg_137"/>
       <path d="m86.13,172.22c0,2.04 1.65,3.69 3.69,3.69c2.04,0 3.69,-1.65 3.69,-3.69l0,-4.93c0,-2.04 -1.65,-3.69 -3.69,-3.69c-2.04,0 -3.69,1.65 -3.69,3.69l0,4.93z" fill="#054752" id="svg_138"/>
       <path d="m54.7,186.2c0,2.03 1.65,3.68 3.68,3.68c2.04,0 3.69,-1.65 3.69,-3.68l0,-4.93c0,-2.04 -1.65,-3.69 -3.69,-3.69c-2.03,0 -3.68,1.65 -3.68,3.69l0,4.93z" fill="#054752" id="svg_139"/>
       <path d="m100.1,203.68c0,2.04 1.65,3.69 3.69,3.69c2.03,0 3.68,-1.65 3.68,-3.69l0,-4.93c0,-2.03 -1.65,-3.68 -3.68,-3.68c-2.04,0 -3.69,1.65 -3.69,3.68l0,4.93z" fill="#054752" id="svg_140"/>
       <path d="m55.79,215.93c0,1.63 1.65,2.97 3.69,2.97c2.05,0 3.7,-1.34 3.7,-2.97l0,-3.97c0,-1.64 -1.65,-2.98 -3.7,-2.98c-2.04,0 -3.69,1.34 -3.69,2.98l0,3.97z" fill="#054752" id="svg_141"/>
       <path d="m82.83,215.6c0,1.64 1.65,2.98 3.7,2.98c2.04,0 3.69,-1.34 3.69,-2.98l0,-3.97c0,-1.63 -1.65,-2.97 -3.69,-2.97c-2.05,0 -3.7,1.34 -3.7,2.97l0,3.97z" fill="#054752" id="svg_142"/>
       <path d="m72.23,203.73c0,2.58 1.65,4.68 3.69,4.68c2.03,0 3.68,-2.1 3.68,-4.68l0,-6.24c0,-2.58 -1.65,-4.68 -3.68,-4.68c-2.04,0 -3.69,2.1 -3.69,4.68l0,6.24z" fill="#054752" id="svg_143"/>
       <path d="m39.32,212.91c0,2.58 1.65,4.68 3.7,4.68c2.04,0 3.69,-2.1 3.69,-4.68l0,-6.24c0,-2.58 -1.65,-4.67 -3.69,-4.67c-2.05,0 -3.7,2.09 -3.7,4.67l0,6.24z" fill="#054752" id="svg_144"/>
       <path d="m181.55,225.53c0,2.03 1.65,3.69 3.7,3.69c2.03,0 3.69,-1.66 3.69,-3.69l0,-4.93c0,-2.04 -1.65,-3.69 -3.69,-3.69c-2.04,0 -3.7,1.65 -3.7,3.69l0,4.93z" fill="#054752" id="svg_145"/>
       <path d="m138.35,253.13c0,1.64 1.65,2.98 3.68,2.98c2.04,0 3.69,-1.34 3.69,-2.98l0,-3.96c0,-1.64 -1.65,-2.98 -3.69,-2.98c-2.03,0 -3.68,1.34 -3.68,2.98l0,3.96z" fill="#054752" id="svg_146"/>
       <path d="m124.32,234.39c0,1.63 1.65,2.97 3.7,2.97c2.04,0 3.69,-1.34 3.69,-2.97l0,-3.97c0,-1.64 -1.65,-2.98 -3.69,-2.98c-2.05,0 -3.7,1.34 -3.7,2.98l0,3.97z" fill="#054752" id="svg_147"/>
       <path d="m164.28,248.36c0,1.64 1.65,2.98 3.69,2.98c2.04,0 3.69,-1.34 3.69,-2.98l0,-3.96c0,-1.64 -1.65,-2.98 -3.69,-2.98c-2.04,0 -3.69,1.34 -3.69,2.98l0,3.96z" fill="#054752" id="svg_148"/>
       <path d="m153.67,236.49c0,2.58 1.65,4.68 3.7,4.68c2.04,0 3.7,-2.1 3.7,-4.68l0,-6.24c0,-2.58 -1.65,-4.67 -3.7,-4.67c-2.03,0 -3.7,2.09 -3.7,4.67l0,6.24z" fill="#054752" id="svg_149"/>
       <path d="m181.55,259.96c0,2.03 1.65,3.68 3.7,3.68c2.03,0 3.69,-1.65 3.69,-3.68l0,-4.93c0,-2.04 -1.65,-3.69 -3.69,-3.69c-2.04,0 -3.7,1.65 -3.7,3.69l0,4.93z" fill="#054752" id="svg_150"/>
       <path d="m117.54,256.01c0,1.64 1.65,2.98 3.68,2.98c2.05,0 3.7,-1.34 3.7,-2.98l0,-3.96c0,-1.64 -1.65,-2.98 -3.7,-2.98c-2.03,0 -3.68,1.34 -3.68,2.98l0,3.96z" fill="#054752" id="svg_151"/>
       <path d="m153.67,270.92c0,2.58 1.65,4.68 3.7,4.68c2.04,0 3.7,-2.1 3.7,-4.68l0,-6.24c0,-2.58 -1.65,-4.68 -3.7,-4.68c-2.03,0 -3.7,2.1 -3.7,4.68l0,6.24z" fill="#054752" id="svg_152"/>
       <path d="m120.77,280.1c0,2.58 1.65,4.68 3.68,4.68c2.05,0 3.7,-2.1 3.7,-4.68l0,-6.24c0,-2.58 -1.65,-4.67 -3.7,-4.67c-2.03,0 -3.68,2.09 -3.68,4.67l0,6.24z" fill="#054752" id="svg_153"/>
       <path d="m100.1,238.64c0,2.04 1.65,3.69 3.69,3.69c2.03,0 3.68,-1.65 3.68,-3.69l0,-4.93c0,-2.04 -1.65,-3.69 -3.68,-3.69c-2.04,0 -3.69,1.65 -3.69,3.69l0,4.93z" fill="#054752" id="svg_154"/>
       <path d="m56.9,253.13c0,1.64 1.65,2.98 3.7,2.98c2.04,0 3.7,-1.34 3.7,-2.98l0,-3.96c0,-1.64 -1.65,-2.98 -3.7,-2.98c-2.04,0 -3.7,1.34 -3.7,2.98l0,3.96z" fill="#054752" id="svg_155"/>
       <path d="m42.87,230.01c0,1.64 1.66,2.98 3.69,2.98c2.05,0 3.7,-1.34 3.7,-2.98l0,-3.96c0,-1.64 -1.65,-2.98 -3.7,-2.98c-2.03,0 -3.69,1.34 -3.69,2.98l0,3.96z" fill="#054752" id="svg_156"/>
       <path d="m82.83,248.36c0,1.64 1.65,2.98 3.7,2.98c2.04,0 3.69,-1.34 3.69,-2.98l0,-3.96c0,-1.64 -1.65,-2.98 -3.69,-2.98c-2.05,0 -3.7,1.34 -3.7,2.98l0,3.96z" fill="#054752" id="svg_157"/>
       <path d="m72.23,236.49c0,2.58 1.65,4.68 3.69,4.68c2.03,0 3.68,-2.1 3.68,-4.68l0,-6.24c0,-2.58 -1.65,-4.67 -3.68,-4.67c-2.04,0 -3.69,2.09 -3.69,4.67l0,6.24z" fill="#054752" id="svg_158"/>
       <path d="m100.1,273.6c0,2.03 1.65,3.68 3.69,3.68c2.03,0 3.68,-1.65 3.68,-3.68l0,-4.93c0,-2.04 -1.65,-3.69 -3.68,-3.69c-2.04,0 -3.69,1.65 -3.69,3.69l0,4.93z" fill="#054752" id="svg_159"/>
       <path d="m36.09,256.01c0,1.64 1.65,2.98 3.7,2.98c2.04,0 3.69,-1.34 3.69,-2.98l0,-3.96c0,-1.64 -1.65,-2.98 -3.69,-2.98c-2.05,0 -3.7,1.34 -3.7,2.98l0,3.96z" fill="#054752" id="svg_160"/>
       <path d="m72.23,270.92c0,2.58 1.65,4.68 3.69,4.68c2.03,0 3.68,-2.1 3.68,-4.68l0,-6.24c0,-2.58 -1.65,-4.68 -3.68,-4.68c-2.04,0 -3.69,2.1 -3.69,4.68l0,6.24z" fill="#054752" id="svg_161"/>
       <path d="m39.32,280.1c0,2.58 1.65,4.68 3.7,4.68c2.04,0 3.69,-2.1 3.69,-4.68l0,-6.24c0,-2.58 -1.65,-4.67 -3.69,-4.67c-2.05,0 -3.7,2.09 -3.7,4.67l0,6.24z" fill="#054752" id="svg_162"/>
      </g>
      <path d="m124.3,164.92c0,0 0.78,23.8 -0.3,27.9c-1.1,4.11 -2.44,4.99 -5.22,4.99c-2.79,0 -3.61,-2.82 -4.32,-5.19c-0.72,-2.37 -3.85,-26.96 -3.85,-26.96c0,0 2.12,1.7 5.76,1.69c4.29,0 7.94,-2.43 7.94,-2.43l-0.01,0z" fill="#FCE1D8" id="svg_163"/>
      <path d="m71.38,165.3l12.73,-4.21c0,0 63.49,121.41 65.41,124.17c0.41,0.58 0.61,0.39 0.61,0.39l-9.94,10.43c0,0 -67.14,-125.19 -68.81,-130.79l0,0.01z" fill="black" id="svg_164"/>
      <path d="m107.46,131.31l18.82,3.71l2.93,31.37l-27.47,2.31l5.72,-37.39z" fill="#FCE1D8" id="svg_165"/>
      <g id="svg_166">
       <path d="m126.97,141.77c-0.67,0.14 -0.55,7.4 -22.17,7.37l2.46,-15.88l19.71,8.51z" fill="#FCE1D8" id="svg_167"/>
      </g>
      <path d="m102.52,118.38c0.22,16.08 4.06,31.63 14.31,33.23c9.39,1.47 18.19,-13.12 21.89,-28.76c4.77,-20.22 -3.33,-27.81 -14.71,-29.35c-11.38,-1.55 -21.75,5.67 -21.5,24.89l0.01,-0.01z" fill="#FCE1D8" id="svg_168"/>
      <g id="svg_169">
       <path d="m122.32,128.92c-0.02,-0.33 -0.16,-11.67 -0.22,-11.59c0,0 5.34,0.97 4.75,7.57c-0.85,9.59 -9.99,3.88 -9.99,3.88" fill="#FCE1D8" id="svg_170"/>
      </g>
      <g id="svg_171" opacity="0.3">
       <path d="m138.27,111.22c-1.21,-2.03 -8.23,-3.72 -10.41,-1.24l10.41,1.24z" fill="black" id="svg_172"/>
      </g>
      <g id="svg_173" opacity="0.3">
       <path d="m120.62,110.14c-2.48,-3.09 -9.04,-3.62 -10.8,-1.35l10.8,1.35z" fill="black" id="svg_174"/>
      </g>
      <path d="m115.7,118.11c0.08,0 0.15,0 0.22,0c0.53,-0.08 0.88,-0.57 0.8,-1.1c-0.18,-1.14 -1.11,-3.31 -3.28,-3.45c-0.04,0 -0.06,0 -0.1,0c-2.3,-0.08 -3.18,1.61 -3.31,2.52c-0.09,0.53 0.28,1.02 0.81,1.09c0.5,0.09 1.01,-0.27 1.09,-0.79c0.06,-0.29 0.3,-0.95 1.34,-0.9c0.01,0 0.02,0 0.04,0c1.21,0.08 1.5,1.8 1.52,1.83c0.07,0.44 0.44,0.78 0.89,0.8l-0.02,0z" fill="black" id="svg_175"/>
      <path d="m134.86,121.71c0,0 0.11,0 0.17,0c0.53,-0.06 0.92,-0.53 0.86,-1.05c-0.12,-1.17 -0.93,-3.4 -3.14,-3.55c-0.03,0 -0.06,0 -0.09,0c-2.25,-0.08 -3.24,1.6 -3.46,2.5c-0.12,0.52 0.21,1.04 0.72,1.16c0.52,0.12 1.03,-0.2 1.16,-0.71c0.07,-0.26 0.37,-1.06 1.51,-1.02l0.03,0c1.15,0.09 1.35,1.75 1.36,1.82c0.05,0.47 0.44,0.83 0.9,0.86l-0.02,-0.01z" fill="black" id="svg_176"/>
      <path d="m136.57,130.74c0.99,0.39 2.28,-0.54 2.86,-2.06l1.45,-3.76c0.58,-1.5 0.25,-3.06 -0.74,-3.44c-0.99,-0.39 -2.28,0.54 -2.85,2.06l-1.45,3.76c-0.58,1.5 -0.25,3.06 0.73,3.44z" fill="#FCE1D8" id="svg_177"/>
      <path d="m102.14,124.2c1.04,0 1.9,-1.32 1.9,-2.94l0,-4.02c0,-1.62 -0.86,-2.94 -1.9,-2.94c-1.05,0 -1.91,1.32 -1.91,2.94l0,4.02c0,1.62 0.86,2.94 1.91,2.94z" fill="#FCE1D8" id="svg_178"/>
      <path d="m142.42,113.44c-1.11,0.12 -41.45,-3.43 -41.45,-3.43c0,0 5.62,-19.24 21.25,-19.31c32.62,-0.14 20.2,22.74 20.2,22.74z" fill="#F6B241" id="svg_179"/>
      <path d="m125.86,137.77c-0.19,0.28 -3.5,4.45 -8.05,2.76c-6.95,-2.58 -5.92,-7.27 -5.92,-7.27l13.97,4.52l0,-0.01z" fill="white" id="svg_180"/>
      <path d="m141.59,158.92l-12.8,-3.77l-25.18,0.85l-14.33,4.24c0,0 10.51,21.14 27.11,21.14c16.68,0 25.21,-21.76 25.2,-22.45l0,-0.01z" fill="#FCE1D8" id="svg_181"/>
      <g id="svg_182">
       <path d="m66.38,197.86l8.64,43.41l-2.41,19.42l1.28,25.04c0,0 -6.82,-10.53 -13.48,-31.92c-7.53,-24.12 5.96,-55.95 5.96,-55.95l0.01,0z" fill="#FCE1D8" id="svg_183"/>
      </g>
      <path d="m158.08,220.6l-1.57,44.37c0.03,0.09 21.81,4.79 23.1,5.04c0.15,-0.11 3.25,-10.63 5.18,-22.55c-0.03,-0.02 0,-0.06 -0.01,-0.1c3.02,-18.71 2.91,-22.89 2.56,-28.69c-0.02,-0.27 -23.89,1.67 -29.26,1.93z" fill="#FCE1D8" id="svg_184"/>
      <path d="m178.67,277.19c-5.49,25.24 -11.55,39.93 -14.33,45.77c-0.9,2.09 -1.4,2.84 -1.87,4.13c-2.06,5.11 -2.4,11.02 -4.68,16.42c-1.24,2.92 -2.69,7.05 -3.89,8.95c-0.55,0.5 -1.49,-0.19 -1.21,-1.27c0.57,-2.11 1.51,-5.19 1.86,-6.35c0.15,-0.34 -0.23,-0.39 -0.45,-0.3c-0.23,0.15 -1.7,4.67 -3.25,7.88c-0.89,1.89 -1.65,3.27 -2.6,2.82c-0.94,-0.43 0.35,-3.73 1.46,-6.45c0.76,-1.93 1.51,-3.64 1.38,-3.85c-0.07,-0.36 -0.53,-0.26 -0.68,0.12c-0.78,1.36 -1.91,4.05 -3.11,6.75c-0.12,0.26 -0.24,0.5 -0.34,0.75c-0.49,0.96 -0.89,1.54 -1.32,1.82c-0.3,0.17 -0.59,0.2 -0.93,0.17c-2.34,-0.99 2.22,-7.75 2.79,-10.75c0.04,-0.3 -0.32,-0.58 -0.57,-0.19c-0.74,1 -2.71,7.03 -4.06,9.42c-0.8,1.34 -2.97,0.84 -2.27,-1.33c0.96,-3.5 2.42,-7.48 3.35,-10.05c1.08,-3.16 1.55,-4.61 1.08,-4.85c-0.81,-0.3 -1.48,1.37 -2.53,3.05c-1.25,2.26 -2.91,2.68 -4.43,1.88c0.69,-1.15 1.94,-3.14 2.82,-5.27c0.54,-1.41 1.89,-2.87 2.48,-3.96c0.25,-0.47 1.75,-3.59 2.07,-4.61c6.35,-19.42 8.64,-48.33 8.76,-52.97c0.18,-6.9 2.33,-13.24 2.33,-13.24l23.78,4.35c-0.27,3.05 -0.49,5.57 -1.7,11.17l0.06,-0.01z" fill="#FCE1D8" id="svg_185"/>
      <g id="svg_186">
       <path d="m166.05,198.16l-7.97,22.8l-3.84,59.43c0,0 11.58,-6.91 18.23,-28.3c7.53,-24.13 -6.42,-53.93 -6.42,-53.93z" fill="#FCE1D8" id="svg_187"/>
      </g>
      <path d="m390.13,192.07l8.92,87.01c0.03,0.08 24.65,6.54 26.09,6.72c0.15,-0.11 2.31,-14.56 3.61,-27.69c-0.02,-0.02 0,-0.06 0,-0.11c2.05,-20.6 2.54,-48.55 -3.69,-68.79c-0.54,-1.95 -29.07,2.19 -34.93,2.84" fill="#AF865E" id="svg_188"/>
      <path d="m390.13,192.07l8.92,87.01c0.03,0.08 24.65,6.54 26.09,6.72c0.15,-0.11 2.31,-14.56 3.61,-27.69c-0.02,-0.02 0,-0.06 0,-0.11c2.05,-20.6 2.54,-48.55 -3.69,-68.79c-0.54,-1.95 -29.07,2.19 -34.93,2.84" fill="#CD9F6F" id="svg_189"/>
      <path d="m300.47,188.74l-19.8,85.19c-0.05,0.09 -25.28,3.39 -26.73,3.39c-0.14,-0.13 -0.46,-14.74 -0.11,-27.93c0.03,-0.03 0,-0.06 0.03,-0.1c0.56,-20.7 3.59,-48.48 12.31,-67.78c0.79,-1.87 28.57,5.83 34.3,7.22" fill="#CD9F6F" id="svg_190"/>
      <g id="svg_191" opacity="0.4">
       <path d="m292.01,223.82l-11.28,51.81c-0.05,0.09 -23.24,4.67 -23.24,4.67l34.52,-56.49l0,0.01z" fill="#AF865E" id="svg_192"/>
      </g>
      <path d="m253.93,218.36c0,0 4.42,-18.73 8.69,-30.5c7.69,-21.18 23.29,-33.16 33.85,-32.68l0.29,0.31c10.8,-5.25 38.75,-9.32 38.75,-9.32c0,0 6.38,1.17 11.63,1.93c6.19,0.24 13.44,-0.88 13.44,-0.88c0,0 28.35,4.59 44.87,14.85c4.32,1.81 16.92,11.37 22.53,20.54c8.28,13.53 5.87,46.73 5.87,46.73l-37.28,-0.53c-5.2,29.81 -8.75,74.37 -10.48,81.63l-42.21,-1.8l-51.92,-2.35c-1.06,-7.42 0.54,-52.65 -1.53,-82.86l-36.49,-5.06l-0.01,-0.01z" fill="#157b0f" id="svg_193"/>
      <g id="svg_194" opacity="0.27">
       <path d="m400.59,201.72l-10.3,24.5l-5.52,63.4c0,0 11.82,-5.59 20.56,-28.62c9.86,-25.96 -4.73,-59.28 -4.73,-59.28l-0.01,0z" fill="#AF865E" id="svg_195"/>
      </g>
      <g id="svg_196" opacity="0.27">
       <path d="m287.55,196.57l8.04,25.33l-0.27,63.65c0,0 -11.26,-6.65 -17.87,-30.37c-7.47,-26.76 10.09,-58.61 10.09,-58.61l0.01,0z" fill="#AF865E" id="svg_197"/>
      </g>
      <path d="m395.67,228l-9.9,80.06l-13.34,25.39c0,0 -37.34,17.45 -38.49,-9.56c-1.75,-41.47 61.73,-95.9 61.73,-95.9l0,0.01z" fill="#8F405F" id="svg_198" opacity="0.2"/>
      <path d="m385.13,153.47c0,0 -77.94,95 -94.97,146.06l17.53,0.28c0,0 66.25,-103.18 97.07,-138.86c0,0 -11.51,-4.8 -19.64,-7.49l0.01,0.01z" fill="black" id="svg_199"/>
      <path d="m354.19,122.2l3.15,-0.26c6.12,-0.49 10.67,-5.86 10.17,-11.97l-2.43,-29.9c-0.5,-6.11 -5.86,-10.66 -11.98,-10.17l-3.15,0.26c-6.11,0.5 -10.67,5.86 -10.17,11.98l2.44,29.89c0.5,6.12 5.86,10.67 11.97,10.17z" fill="#041E21" id="svg_200"/>
      <path d="m322.74,124.76l5.38,-0.44c5.5,-0.44 9.59,-5.27 9.14,-10.76l-2.62,-32.13c-0.45,-5.5 -5.27,-9.59 -10.76,-9.15l-5.38,0.44c-5.5,0.45 -9.6,5.27 -9.15,10.77l2.62,32.13c0.45,5.5 5.27,9.59 10.77,9.14z" fill="#041E21" id="svg_201"/>
      <path d="m328.59,110.14l5.39,-0.44c5.49,-0.45 9.59,-5.27 9.14,-10.77l-2.62,-32.12c-0.45,-5.5 -5.27,-9.6 -10.77,-9.15l-5.38,0.44c-5.5,0.45 -9.59,5.27 -9.14,10.77l2.62,32.13c0.44,5.49 5.27,9.59 10.76,9.14z" fill="#041E21" id="svg_202"/>
      <path d="m344.16,104.72l3.15,-0.25c6.11,-0.5 10.66,-5.86 10.17,-11.98l-2.44,-29.89c-0.5,-6.12 -5.86,-10.67 -11.98,-10.17l-3.14,0.25c-6.12,0.5 -10.67,5.86 -10.17,11.98l2.43,29.89c0.5,6.12 5.86,10.67 11.98,10.17z" fill="#041E21" id="svg_203"/>
      <path d="m322.88,148.23c0,0 0.17,1.89 1.02,4.36c1.51,4.28 5.12,10.3 13.61,11c0.5,0 0.93,0.07 1.38,-0.02c0,0 0.05,-0.01 0.12,-0.03c0.06,0.04 0.1,0 0.1,0l0.04,0c15.51,0.73 20.03,-7.42 21.05,-14c2.48,-16.12 -2.84,-42.11 -2.84,-42.11l-34.49,12.49l0,20.42l0.02,7.88l-0.01,0.01z" fill="#CD9F6F" id="svg_204"/>
      <path d="m349.73,135.17c-0.46,0.15 -9.4,16.78 -26.55,14.95c0,0 -0.44,-12.4 -0.25,-16.71c0.15,-3.55 1.46,-14.64 1.46,-14.64l25.34,16.4z" fill="#BC9068" id="svg_205"/>
      <path d="m360.52,116.04c0,0 1.58,-23.24 -6.83,-34.92c-12.13,-16.83 -34.09,-7.89 -38,1.98c-5.35,13.48 1.31,40.7 1.31,40.7l43.52,-7.76z" fill="#CD9F6F" id="svg_206"/>
      <path d="m314.02,101.34l1.36,9.67c1.55,16.85 4.32,30.6 18.22,31.53c2.01,0.13 4.15,-0.02 5.46,-0.2l-3.59,-50.46l-3.24,0.24l-4.12,0.36l-5.16,0.38c-3.64,0.35 -7.01,2.31 -8.09,5.4c-0.4,0.86 -0.78,1.87 -0.76,2.85l-0.06,0.23l-0.02,0z" fill="#CD9F6F" id="svg_207"/>
      <path d="m359.34,98.7l0,9.76c0.28,9.44 -1.62,31.02 -15.25,33.9c-1.99,0.42 -3.41,0.54 -4.76,0.53l-4.14,-50.41l4.82,-0.32l4.14,-0.23l5.13,-0.35c3.69,-0.19 7.28,1.29 8.8,4.17c0.5,0.84 1.03,1.76 1.16,2.75l0.09,0.21l0.01,-0.01z" fill="#CD9F6F" id="svg_208"/>
      <path d="m326.19,123.88c3.03,-0.29 20.45,-1.29 20.45,-1.29c-0.13,3.73 -5.17,7.19 -10.05,7.65c-4.58,0.43 -10.06,-3.02 -10.4,-6.36z" fill="white" id="svg_209"/>
      <path d="m330.9,104.88c0,0 0.46,12.87 0.6,13.08c0.69,0.99 5.38,0.85 5.38,0.85c0,0 -5.77,5 -10.92,1.9c-5.18,-3.11 -8.31,-17.18 4.94,-15.83z" fill="#BC9068" id="svg_210"/>
      <path d="m354.43,130.84c0,0 -27.18,1.56 -34.27,2c-0.17,0 5.47,14.07 15.65,13.13c12.18,-1.12 18.62,-15.14 18.62,-15.14l0,0.01z" fill="#736449" id="svg_211"/>
      <path d="m327.7,80.43c0.05,3.26 -0.43,6.76 -2.77,9.19c-2.34,2.42 -7.03,3 -9.1,0.41c-1.03,-1.29 -1.2,-3 -1.26,-4.62c-0.23,-5.64 0.71,-11.88 5.17,-15.7c7.47,-6.41 23.43,-9.43 27.7,1.55c5.01,12.89 -19.68,12.96 -19.74,9.16l0,0.01z" fill="#041E21" id="svg_212"/>
      <path d="m358.26,113.44c0.08,1.47 1.35,2.6 2.82,2.52c1.48,-0.09 2.6,-1.35 2.52,-2.83l-0.21,-3.65c-0.08,-1.48 -1.34,-2.61 -2.82,-2.52c-1.47,0.08 -2.6,1.34 -2.52,2.82l0.21,3.66z" fill="#CD9F6F" id="svg_213"/>
      <path d="m359.26,110.09c1.13,0.17 2.24,1 2.4,2.13c0.15,1.14 -0.99,2.35 -2.09,1.99" fill="#BC9068" id="svg_214"/>
      <path d="m341.83,107.8c0.67,0.04 1.27,-0.44 1.38,-1.12c0,-0.01 0.38,-2.13 1.82,-2.18c1.32,-0.05 1.52,0.83 1.54,1c0.11,0.73 0.8,1.23 1.53,1.12c0.72,-0.11 1.23,-0.8 1.12,-1.53c-0.18,-1.18 -1.3,-3.37 -4.29,-3.27c-2.89,0.11 -4.11,2.94 -4.35,4.43c-0.12,0.72 0.37,1.41 1.11,1.53c0.05,0 0.11,0.01 0.16,0.01l-0.02,0.01z" fill="black" id="svg_215"/>
      <path d="m339.18,95.04c0,0 1.23,-1.31 3.8,-1.59c2.63,-0.28 4.93,1.28 4.95,1.29l1.52,-2.19c-0.12,-0.09 -3.13,-2.14 -6.76,-1.75c-3.66,0.38 -5.46,2.4 -5.53,2.48l2.01,1.76l0.01,0z" fill="#041E21" id="svg_216"/>
      <path d="m319.14,111.34c0.7,0.04 1.32,-0.49 1.39,-1.2c0,-0.09 0.25,-2.1 1.61,-2.16c1.33,-0.07 1.68,0.89 1.76,1.18c0.2,0.7 0.91,1.15 1.62,0.95c0.71,-0.18 1.14,-0.88 0.98,-1.59c-0.28,-1.15 -1.57,-3.33 -4.46,-3.21c-2.96,0.11 -4.03,3.03 -4.17,4.55c-0.07,0.74 0.45,1.39 1.19,1.46c0.02,0 0.05,0 0.07,0l0.01,0.02z" fill="black" id="svg_217"/>
      <path d="m319.06,99.86c0,0 0.86,-1.59 3.25,-2.52c2.46,-0.95 5.1,-0.05 5.13,-0.03l0.9,-2.52c-0.15,-0.05 -3.57,-1.26 -6.98,0.04c-3.43,1.33 -4.65,3.73 -4.7,3.84l2.4,1.18l0,0.01z" fill="#041E21" id="svg_218"/>
      <path d="m344.67,119c-4.72,-0.94 -9.33,-5.16 -8.98,-12.43c0.34,-7.11 5.13,-10.77 9.72,-11.25l0.02,0c0.2,-0.02 4.92,-0.41 8.49,2.65c2.24,1.91 3.5,4.73 3.72,8.37c0.26,3.98 -1.13,7.51 -3.91,9.93c-1.93,1.69 -4.42,2.71 -6.8,2.86c-0.78,0.05 -1.54,0 -2.28,-0.15l0.02,0.02zm0.94,-21.76c-5.23,0.55 -7.79,5.13 -7.99,9.43c-0.21,4.41 2,9.35 7.42,10.43c2.37,0.48 5.29,-0.42 7.42,-2.27c1.64,-1.44 3.53,-4.05 3.26,-8.36c-0.2,-3.08 -1.22,-5.45 -3.04,-7.02c-2.8,-2.41 -6.65,-2.23 -7.05,-2.21l-0.02,0z" fill="#022326" id="svg_219"/>
      <path d="m317.54,120.72c-4.71,-0.94 -9.33,-5.16 -8.98,-12.42c0.34,-7.11 5.14,-10.78 9.73,-11.26l0.01,0c0.21,-0.02 4.94,-0.41 8.51,2.65c2.24,1.92 3.49,4.74 3.72,8.38c0.26,3.97 -1.13,7.5 -3.91,9.93c-1.93,1.68 -4.43,2.71 -6.8,2.85c-0.78,0.05 -1.54,0 -2.28,-0.14l0,0.01zm0.94,-21.75c-5.23,0.54 -7.78,5.12 -7.99,9.42c-0.2,4.41 2,9.35 7.43,10.44c2.37,0.48 5.28,-0.43 7.42,-2.28c1.64,-1.44 3.53,-4.05 3.25,-8.35c-0.19,-3.09 -1.21,-5.45 -3.03,-7.03c-2.8,-2.41 -6.66,-2.23 -7.05,-2.2l-0.03,0z" fill="#022326" id="svg_220"/>
      <path d="m336.02,106.07l-6.82,0.44l0.12,1.92l6.82,-0.43l-0.12,-1.93z" fill="#022326" id="svg_221"/>
      <path d="m335.39,340.28c-37.91,-1.72 -67.34,-33.97 -65.61,-71.88c1.72,-37.91 33.97,-67.33 71.86,-65.61c37.91,1.72 67.34,33.97 65.61,71.88c-1.72,37.91 -33.96,67.33 -71.87,65.61l0.01,0zm5.65,-124.31c-30.63,-1.39 -56.7,22.39 -58.08,53.03c-1.4,30.64 22.39,56.7 53.03,58.09c30.64,1.38 56.7,-22.39 58.08,-53.04c1.4,-30.63 -22.39,-56.69 -53.03,-58.08z" fill="#9AED66" id="svg_222"/>
      <path d="m272.15,239.51c1.72,-6.52 8.27,-15.54 16.81,-15.84c5.73,-0.2 10.71,4.23 10.21,9.23c0,0 3.59,1.41 3.03,5.09c-1.65,10.84 -6.23,8.61 -6.23,8.61c0,0 0.12,0.85 -1.23,1.46c-1.06,0.48 -2.32,0 -2.32,0c0,0 1.67,2.32 0.77,4.26c-0.94,2.05 -2.72,2.78 -2.72,2.78c0,0 0.22,1.53 -2.22,2.69c-2.69,1.26 -6.44,-1.91 -7.77,-2.83c-0.45,-0.32 -1.05,4.36 -1.17,8.04c-7.41,-1.67 -11.2,-8.25 -7.17,-23.49l0.01,0z" fill="#CD9F6F" id="svg_223"/>
      <path d="m290.65,243.62c-1.85,-1.71 -5.58,-3.49 -6.01,-3.68c-0.81,-0.37 -1.78,-0.02 -2.16,0.78c-0.39,0.82 -0.03,1.79 0.78,2.17c1.01,0.47 3.92,1.95 5.16,3.11c1.14,1.06 2.67,3.05 2.68,3.06c0.3,0.4 0.76,0.62 1.22,0.64c0.37,0.01 0.75,-0.1 1.06,-0.34c0.71,-0.54 0.85,-1.56 0.3,-2.29c-0.07,-0.09 -1.71,-2.21 -3.06,-3.47l0.03,0.02z" fill="#BC9068" id="svg_224"/>
      <path d="m288.71,250.67c-3.11,-2.73 -7.25,-2.95 -7.43,-2.96c-0.89,-0.03 -1.65,0.65 -1.7,1.55c-0.04,0.89 0.66,1.66 1.55,1.71c0.03,0 3.19,0.19 5.42,2.14c1.14,1 2.61,2.99 2.64,3.01c0.3,0.41 0.76,0.64 1.24,0.67c0.36,0.01 0.72,-0.09 1.04,-0.32c0.72,-0.53 0.88,-1.55 0.33,-2.27c-0.07,-0.1 -1.7,-2.29 -3.11,-3.53l0.02,0z" fill="#BC9068" id="svg_225"/>
      <path d="m300.77,233.12c0.12,-0.89 -0.51,-1.71 -1.41,-1.83c-0.87,-0.12 -1.71,0.5 -1.83,1.41c-0.1,0.75 -0.47,2.98 -1.05,4.45c-2.22,-3.39 -6.6,-6.45 -7.22,-6.86c-0.75,-0.51 -1.76,-0.31 -2.26,0.42c-0.51,0.75 -0.32,1.76 0.42,2.27c2.5,1.71 6.65,5.26 7.05,7.5c0.59,3.27 -0.09,5.63 -0.1,5.65c-0.26,0.86 0.22,1.78 1.08,2.04c0.14,0.04 0.27,0.06 0.41,0.07c0.73,0.04 1.41,-0.42 1.63,-1.15c0.04,-0.11 0.77,-2.65 0.31,-6.23c0.55,-0.52 1.22,-1.33 1.67,-2.46c0.85,-2.15 1.25,-5.16 1.26,-5.28l0.04,0z" fill="#BC9068" id="svg_226"/>
      <path d="m411.06,245.72c-1.12,-6.65 -6.82,-16.22 -15.3,-17.29c-5.7,-0.72 -11.05,3.24 -11,8.27c0,0 -3.71,1.07 -3.49,4.78c0.67,10.95 5.43,9.15 5.43,9.15c0,0 -0.2,0.83 1.08,1.55c1.01,0.57 2.32,0.22 2.32,0.22c0,0 -1.87,2.16 -1.16,4.17c0.76,2.12 2.46,3.01 2.46,3.01c0,0 -0.38,1.51 1.96,2.88c2.57,1.51 6.58,-1.31 7.99,-2.11c0.48,-0.26 0.65,4.45 0.43,8.13c7.53,-0.99 11.9,-7.21 9.28,-22.76z" fill="#CD9F6F" id="svg_227"/>
      <path d="m396.43,237.82c0.79,-0.43 1.08,-1.43 0.63,-2.22c-0.43,-0.79 -1.43,-1.07 -2.22,-0.62c-0.65,0.36 -5.29,3.01 -7.81,6.18c-0.53,-1.82 -0.63,-4.5 -0.63,-4.52c-0.04,-0.9 -0.8,-1.63 -1.69,-1.57c-0.9,0.04 -1.6,0.8 -1.57,1.69c0,0.13 0.13,3.16 0.79,5.37c0.34,1.17 0.94,2.04 1.43,2.61c-0.77,3.51 -0.28,6.11 -0.25,6.23c0.15,0.74 0.79,1.25 1.52,1.29c0.13,0 0.26,0 0.39,-0.04c0.88,-0.18 1.45,-1.04 1.28,-1.92c0,-0.02 -0.47,-2.44 0.42,-5.64c0.6,-2.19 5.05,-5.35 7.71,-6.83l0,-0.01z" fill="#BC9068" id="svg_228"/>
      <path d="m391.3,253.51c0,0 1.72,-1.86 2.95,-2.81c1.34,-1.04 4.36,-2.24 5.41,-2.63c0.85,-0.3 1.29,-1.24 0.99,-2.08c-0.3,-0.84 -1.23,-1.28 -2.08,-0.99c-0.44,0.16 -4.32,1.58 -6.31,3.11c-1.45,1.12 -3.27,3.1 -3.36,3.18c-0.61,0.66 -0.56,1.69 0.1,2.3c0.29,0.28 0.66,0.42 1.04,0.44c0.46,0.02 0.92,-0.16 1.27,-0.52l-0.01,0z" fill="#BC9068" id="svg_229"/>
      <path d="m401.23,253.06c-0.18,0 -4.31,-0.17 -7.67,2.27c-1.51,1.11 -3.33,3.14 -3.41,3.23c-0.6,0.67 -0.54,1.7 0.14,2.3c0.29,0.25 0.65,0.4 1.01,0.41c0.47,0.02 0.95,-0.16 1.29,-0.54c0.01,-0.03 1.66,-1.86 2.89,-2.76c2.39,-1.74 5.53,-1.65 5.6,-1.64c0.9,0.04 1.67,-0.65 1.7,-1.56c0.04,-0.9 -0.65,-1.66 -1.55,-1.7l0,-0.01z" fill="#BC9068" id="svg_230"/>
     </g>
    </g>
   </g>
  </g>
 </g>
</svg>