<svg width="294" height="43" viewBox="0 0 294 43" fill="none" xmlns="http://www.w3.org/2000/svg">
<path fill-rule="evenodd" clip-rule="evenodd" d="M14.0225 3.94744C14.1214 3.58489 14.4507 3.33337 14.8265 3.33337H26.4932C26.7547 3.33337 27.001 3.45612 27.1585 3.66487C27.316 3.87364 27.3663 4.14421 27.2945 4.39564L24.2647 15H33.1598C33.4832 15 33.7773 15.1871 33.9145 15.4799C34.0517 15.7727 34.007 16.1185 33.8 16.3669L17.1333 36.3669C16.8845 36.6654 16.4624 36.7524 16.1159 36.5764C15.7693 36.4004 15.5905 36.0084 15.6847 35.6312L18.7592 23.3334H9.8265C9.56678 23.3334 9.3219 23.2122 9.16425 23.0059C9.0066 22.7995 8.9542 22.5314 9.02253 22.2807L14.0225 3.94744ZM15.463 5.00004L10.9175 21.6667H19.8265C20.0832 21.6667 20.3255 21.7849 20.4833 21.9872C20.6413 22.1895 20.6972 22.4532 20.635 22.7022L18.1852 32.5012L31.3807 16.6667H23.1598C22.8983 16.6667 22.652 16.544 22.4945 16.3352C22.337 16.1264 22.2867 15.8559 22.3585 15.6044L25.3883 5.00004H15.463Z" fill="#6F8B90"/>
</svg>
