<svg width="476" height="331" viewBox="0 0 476 331" fill="none" xmlns="http://www.w3.org/2000/svg">
<g clip-path="url(#clip0_2_3348)">
<g clip-path="url(#clip1_2_3348)">
<g clip-path="url(#clip2_2_3348)">
<mask id="mask0_2_3348" style="mask-type:luminance" maskUnits="userSpaceOnUse" x="39" y="39" width="398" height="237">
<path d="M39.4641 39.8022V275.621H247.568C250.893 258.233 286.935 232.566 341.835 234.072C397.06 235.603 415.388 263.968 422.763 275.621L436.536 275.404V39.8022H39.4641Z" fill="white"/>
</mask>
<g mask="url(#mask0_2_3348)">
<path opacity="0.1" d="M130.08 152.759C125.091 152.759 121.199 148.409 121.766 143.456C123.151 131.455 129.465 111.078 155.566 102.294C196.198 88.629 294.189 69.831 316.855 77.555C335.87 84.0379 365.742 121.646 370.791 143.035C372.02 148.264 367.959 153.241 362.585 153.229L130.068 152.747L130.08 152.759Z" fill="#96ABC0"/>
<g opacity="0.23">
<path d="M405.495 177.197C404.748 167.352 395.734 155.338 384.251 153.904C374.297 152.663 122.223 153.097 113.439 154.193C101.943 155.627 91.3152 167.641 90.5681 177.486C88.4352 205.574 87.3628 270.09 87.3628 281.489L408.688 281.2C408.688 269.801 407.628 205.273 405.483 177.197H405.495Z" fill="#96ABC0"/>
</g>
<path d="M266.655 105.788L260.606 182.257L318.132 180.739L310.565 100.498L289.044 81.3989L266.655 105.788Z" fill="#9EA8AD"/>
<g style="mix-blend-mode:multiply" opacity="0.2">
<path opacity="0.2" d="M246.736 274.572C247.363 277.717 249.219 280.573 252.291 282.019C252.677 283.031 253.195 284.248 253.316 284.514C253.737 285.393 254.725 286.574 255.099 287.695C255.702 289.394 256.605 290.984 257.087 291.9C255.882 292.479 254.605 292.081 253.713 290.273C252.966 288.936 252.52 287.61 251.87 287.803C251.496 287.972 251.797 289.117 252.52 291.623C253.147 293.647 254.123 296.805 254.738 299.564C255.195 301.275 253.496 301.576 252.93 300.504C251.966 298.6 250.677 293.828 250.134 293.021C249.954 292.72 249.664 292.912 249.677 293.153C250.014 295.515 253.292 300.938 251.436 301.612C251.171 301.637 250.942 301.588 250.713 301.444C250.387 301.215 250.098 300.745 249.761 299.986C249.701 299.781 249.604 299.588 249.532 299.395C248.7 297.25 247.929 295.105 247.375 294.033C247.267 293.732 246.917 293.635 246.845 293.913C246.736 294.069 247.254 295.419 247.773 296.949C248.532 299.106 249.411 301.721 248.664 302.01C247.905 302.323 247.363 301.215 246.748 299.721C245.676 297.178 244.712 293.599 244.531 293.479C244.35 293.406 244.061 293.418 244.17 293.696C244.399 294.623 245.013 297.046 245.375 298.708C245.543 299.564 244.796 300.07 244.387 299.66C243.543 298.13 242.567 294.864 241.711 292.551C240.145 288.261 240.109 283.658 238.711 279.597C238.482 278.838 238.229 278.32 237.855 277.428C240.832 276.874 243.832 275.862 246.724 274.584L246.736 274.572Z" fill="#7D3561"/>
</g>
<path d="M254.545 280.67C251.604 265.113 256.159 247.159 256.81 245.086C256.81 245.086 319.096 251.364 321.916 254.172C327.977 253.412 350.679 249.629 349.173 274.608C349.101 275.85 340.955 296.6 336.304 298.082C324.145 301.926 274.499 301.118 274.487 301.106C265.149 300.359 256.569 291.394 254.545 280.67Z" fill="#669198"/>
<mask id="mask1_2_3348" style="mask-type:luminance" maskUnits="userSpaceOnUse" x="253" y="245" width="94" height="57">
<path d="M254.545 280.67C251.604 265.113 256.159 247.159 256.81 245.086C256.81 245.086 347.655 248.11 346.137 273.102C346.064 274.343 340.943 296.612 336.292 298.082C324.133 301.926 274.487 301.118 274.475 301.106C265.137 300.359 256.557 291.394 254.533 280.67H254.545Z" fill="white"/>
</mask>
<g mask="url(#mask1_2_3348)">
<path d="M248.038 267.415C255.304 281.429 255.304 288.237 272.716 288.237C290.128 288.237 279.524 270.825 303.757 270.825C323.459 270.825 322.687 301.106 322.687 301.106L253.713 302.082L248.05 267.415H248.038Z" fill="#547B7F"/>
</g>
<g style="mix-blend-mode:multiply" opacity="0.5">
<path d="M310.481 200.368L275.632 201.694C270.499 201.826 267.45 199.971 264.004 196.874C263.606 196.524 261.136 223.914 324.64 212.961C324.977 212.9 327.893 189.053 327.893 189.053C327.893 189.053 324.832 200.429 310.481 200.368Z" fill="#004753"/>
</g>
<path d="M312.083 170.147L344.63 214.057C344.691 214.105 357.247 207.141 358.163 206.707C358.211 206.586 355.68 200.525 351.439 192.235C351.415 192.235 351.415 192.187 351.391 192.174C344.727 179.173 338.642 164.64 327.206 155.012C326.146 154.072 315.289 167.532 312.059 170.159L312.083 170.147Z" fill="#EACB92"/>
<path d="M272.607 176.124L243.061 230.289C243.061 230.289 226.335 224.239 225.347 223.962C225.275 223.842 226.709 217.443 229.444 208.538C229.456 208.538 229.444 208.49 229.48 208.478C233.77 194.512 241.181 174.497 250.749 163.013C251.628 161.893 268.968 174.099 272.595 176.124H272.607Z" fill="#EACB92"/>
<path d="M266.607 158.639C260.22 155.747 252.689 158.579 249.797 164.978C246.905 171.364 249.737 178.895 256.135 181.787C262.522 184.679 270.053 181.848 272.945 175.449C275.837 169.05 273.005 161.519 266.607 158.639Z" fill="#AF865E"/>
<path d="M232.794 217.202C227.685 218.178 224.323 223.107 225.287 228.216C226.251 233.325 231.18 236.675 236.289 235.699C241.41 234.723 244.772 229.795 243.796 224.685C242.832 219.576 237.904 216.226 232.782 217.19L232.794 217.202Z" fill="#EACB92"/>
<path d="M226.058 236.181C229.36 256.015 233.505 267.656 235.433 272.319C236.06 273.982 236.409 274.572 236.723 275.597C238.12 279.645 238.169 284.26 239.723 288.55C240.579 290.864 241.555 294.129 242.398 295.66C242.808 296.069 243.567 295.563 243.386 294.708C243.013 293.045 242.41 290.623 242.181 289.695C242.085 289.418 242.374 289.406 242.543 289.478C242.711 289.611 243.688 293.177 244.76 295.72C245.375 297.226 245.917 298.323 246.676 298.009C247.423 297.72 246.543 295.105 245.784 292.949C245.266 291.418 244.748 290.069 244.856 289.912C244.929 289.635 245.278 289.719 245.387 290.032C245.941 291.105 246.712 293.262 247.544 295.395C247.628 295.6 247.712 295.792 247.772 295.985C248.122 296.756 248.399 297.226 248.724 297.443C248.953 297.588 249.17 297.624 249.447 297.612C251.303 296.937 248.026 291.503 247.688 289.153C247.664 288.912 247.965 288.719 248.146 289.02C248.688 289.828 249.978 294.599 250.942 296.503C251.508 297.576 253.207 297.274 252.749 295.563C252.135 292.804 251.146 289.647 250.532 287.622C249.809 285.116 249.496 283.983 249.881 283.803C250.532 283.598 250.99 284.935 251.725 286.273C252.617 288.08 253.882 288.478 255.099 287.9C254.605 286.984 253.713 285.393 253.111 283.694C252.737 282.586 251.749 281.393 251.327 280.513C251.146 280.139 250.11 277.657 249.893 276.862C245.7 261.522 245.037 238.964 245.121 235.349C245.242 229.975 243.82 224.962 243.82 224.962L225.179 227.433C225.275 229.819 225.347 231.783 226.07 236.181H226.058Z" fill="#EACB92"/>
<g style="mix-blend-mode:multiply" opacity="0.67">
<path d="M245.097 232.759C245.194 234.169 245.134 237.844 245.242 240.073C245.387 242.869 247.134 265.041 248.664 273.5C244.7 266.306 236.156 244.797 238.976 227.457C238.94 227.65 239.012 227.24 238.976 227.457C239.133 226.481 239.06 226.794 239.265 225.83C244.314 202.465 259.69 179.173 259.69 179.173L260.63 198.188L244.158 227.529L245.097 232.759Z" fill="#EACB92"/>
</g>
<path d="M337.22 160.664C332.556 153.771 328.363 149.975 327.146 149.493C327.134 149.469 327.11 149.445 327.098 149.433C321.254 146.18 298.443 141.697 298.443 141.697C298.443 141.697 292.321 141.227 290.14 141.299L290.189 142.372C287.465 142.336 279.838 142.179 279.838 142.179C279.838 142.179 257.256 150.469 251.496 153.88C251.496 153.88 240.639 166.701 236 183.053L258.702 199.465C262.389 219.865 252.291 251.111 252.291 276.862C336.328 238.254 344.655 259.45 344.655 259.45C334.051 236.735 321.181 223.107 328.182 193.331L348.438 181.474C348.438 181.474 343.136 169.364 337.244 160.64L337.22 160.664Z" fill="white"/>
<path d="M297.792 124.249L278.813 124.731L279.247 138.528C279.271 139.588 274.246 144.396 269.704 145.902C266.739 146.891 271.969 159.531 288.634 159.531C305.299 159.531 315.867 145.228 312.107 144.384C305.299 142.866 298.479 140.6 298.479 140.6L297.816 124.237L297.792 124.249Z" fill="#EACB92"/>
<path d="M326.085 146.746L317.048 144.155C317.048 144.155 256.593 258.389 254.774 261.004C254.388 261.558 253.207 277.561 253.207 277.561L260.859 276.404C260.859 276.404 324.495 152.06 326.073 146.746H326.085Z" fill="black"/>
<path d="M274.704 142.733C274.704 142.733 282.019 235.133 293.912 233.735C306.781 232.217 304.516 141.372 304.516 141.372" stroke="#669198" stroke-width="1.5183" stroke-miterlimit="10"/>
<g style="mix-blend-mode:multiply" opacity="0.67">
<path d="M279.235 125.863C279.645 125.984 283.248 142.697 298.467 140.793L297.756 124.453L279.223 125.875L279.235 125.863Z" fill="#EACB92"/>
</g>
<path d="M351.644 317.977C351.897 302.01 349.173 270.825 349.173 270.825L317.904 272.355C317.904 272.355 318.337 282.887 326.616 323.026C331.351 345.969 336.87 373.877 340.305 383.962L352.282 381.709C350.294 360.634 351.234 343.727 351.644 317.989V317.977Z" fill="#669198"/>
<path d="M349.137 270.765C348.691 279.477 341.413 286.14 332.918 285.695C324.411 285.237 317.867 277.814 318.313 269.102C318.771 260.402 326.037 253.714 334.533 254.172C343.04 254.63 349.571 262.053 349.125 270.753L349.137 270.765Z" fill="#669198"/>
<path d="M289.128 172.412H274.234C273.396 172.412 272.716 173.092 272.716 173.931V204.14C272.716 204.979 273.396 205.658 274.234 205.658H289.128C289.967 205.658 290.646 204.979 290.646 204.14V173.931C290.646 173.092 289.967 172.412 289.128 172.412Z" fill="#9AED66"/>
<path d="M318.192 296.287C318.891 288.996 317.325 284.261 316.626 280.67C315.108 272.958 307.432 268.909 299.876 271.054C293.02 272.994 289.658 278.935 287.863 290.515C286.067 302.095 285.609 322.785 289.164 333.34C294.092 347.969 301.467 393.578 301.491 394.988L312.408 394.109C312.408 394.109 317.71 301.42 318.205 296.287H318.192Z" fill="#669198"/>
<mask id="mask2_2_3348" style="mask-type:luminance" maskUnits="userSpaceOnUse" x="286" y="270" width="33" height="125">
<path d="M318.193 296.286C318.518 293.672 318.891 291.262 317.879 283.321C317.795 282.501 317.65 281.682 317.421 280.862C315.276 273.307 307.42 268.909 299.865 271.054C293.008 272.994 289.646 278.934 287.851 290.515C286.055 302.095 285.597 322.784 289.152 333.34C294.081 347.969 301.455 393.578 301.479 394.988L312.397 394.108C312.397 394.108 317.566 301.408 318.193 296.286Z" fill="white"/>
</mask>
<g mask="url(#mask2_2_3348)">
<path d="M291.634 276.886C290.875 277.645 296.936 270.078 309.047 275.368C319.145 279.79 318.132 308.674 318.132 308.674L330.243 296.564L334.026 267.041L306.01 264.017L289.357 266.282L291.622 276.886H291.634Z" fill="#547B7F"/>
</g>
<path d="M355.596 202.549C359.464 206.02 359.801 211.973 356.331 215.841C352.861 219.709 346.908 220.046 343.04 216.576C339.16 213.105 338.834 207.165 342.305 203.285C345.775 199.404 351.728 199.079 355.608 202.549H355.596Z" fill="#EACB92"/>
<path d="M349.595 199.609C349.595 199.609 344.606 198.091 339.232 198.127C347.269 198.079 321.253 199.477 297.804 192.656C297.009 192.428 294.55 191.343 294.177 191.162C293.309 190.728 292.128 189.716 291.032 189.331C289.345 188.692 287.766 187.776 286.863 187.258C286.272 188.451 286.646 189.728 288.441 190.656C289.767 191.415 291.092 191.897 290.887 192.536C290.707 192.909 289.574 192.584 287.079 191.813C285.055 191.162 281.922 190.114 279.175 189.463C277.464 188.969 277.138 190.668 278.199 191.247C280.091 192.235 284.838 193.62 285.633 194.175C285.935 194.355 285.73 194.645 285.501 194.621C283.151 194.247 277.765 190.873 277.066 192.717C277.042 192.982 277.066 193.211 277.223 193.44C277.44 193.765 277.909 194.066 278.669 194.416C278.861 194.488 279.066 194.584 279.259 194.669C281.38 195.536 283.525 196.344 284.597 196.91C284.898 197.031 284.983 197.368 284.706 197.44C284.549 197.549 283.199 197.007 281.681 196.464C279.524 195.669 276.933 194.753 276.632 195.5C276.307 196.247 277.391 196.814 278.898 197.452C281.428 198.561 284.971 199.585 285.103 199.766C285.176 199.947 285.152 200.236 284.886 200.127C283.959 199.874 281.549 199.224 279.898 198.826C279.054 198.633 278.536 199.38 278.934 199.802C280.452 200.682 283.705 201.706 286.007 202.598C290.273 204.237 294.876 204.345 298.913 205.815C299.925 206.152 300.515 206.502 302.166 207.165C306.793 209.177 318.361 213.503 338.147 217.142C342.534 217.949 345.317 218.456 347.691 218.588" fill="#EACB92"/>
<path d="M271.137 106.885C273.258 121.104 278.548 134.431 287.827 134.624C296.334 134.792 302.383 120.802 303.769 106.487C305.564 87.9901 297.467 82.2302 287.2 82.2302C276.921 82.2302 268.607 89.882 271.149 106.885H271.137Z" fill="#EACB92"/>
<path d="M303.793 104.378C303.793 104.378 305.48 102.848 306.408 104.848C306.649 105.366 306.685 106.222 306.504 109.523C306.335 112.476 303.721 113.187 302.552 112.006C302.516 111.97 303.805 104.39 303.805 104.39L303.793 104.378Z" fill="#EACB92"/>
<g style="mix-blend-mode:multiply">
<path d="M292.381 108.596C293.133 108.596 293.743 107.986 293.743 107.234C293.743 106.482 293.133 105.872 292.381 105.872C291.629 105.872 291.02 106.482 291.02 107.234C291.02 107.986 291.629 108.596 292.381 108.596Z" fill="#004753"/>
</g>
<g style="mix-blend-mode:multiply">
<path d="M277.753 108.596C278.505 108.596 279.114 107.986 279.114 107.234C279.114 106.482 278.505 105.872 277.753 105.872C277.001 105.872 276.391 106.482 276.391 107.234C276.391 107.986 277.001 108.596 277.753 108.596Z" fill="#004753"/>
</g>
<g style="mix-blend-mode:multiply" opacity="0.67">
<path d="M282.537 117.031C285.561 119.296 287.875 117.055 287.875 117.055L284.308 115.525C284.368 115.223 284.754 105.969 284.802 106.041L282.549 117.031H282.537Z" fill="#EACB92"/>
</g>
<g style="mix-blend-mode:multiply" opacity="0.67">
<path d="M303.311 106.523C303.311 106.523 303.359 106.632 303.419 106.607C303.479 106.583 303.504 106.523 303.54 106.475C303.733 106.222 304.166 106.27 304.383 106.499C304.6 106.728 304.672 107.065 304.745 107.379C304.853 107.957 304.974 108.572 304.769 109.138C304.576 109.692 303.949 110.15 303.395 109.933" fill="#EACB92"/>
</g>
<path d="M291.574 122.297C290.333 122.26 283.163 122.297 283.163 122.297C283.32 123.827 285.465 125.116 287.477 125.177C289.357 125.237 291.526 123.682 291.574 122.297Z" fill="white"/>
<path d="M266.655 110.331C266.655 110.331 277.741 106.752 283.959 97.0638C290.164 87.3756 288.574 79.0852 288.574 79.0852C288.574 79.0852 277.668 77.2054 270.764 86.1706C264.98 93.7019 266.546 107.379 266.655 110.331Z" fill="#AAB8C1"/>
<path d="M311.324 111.09C311.324 111.09 294.069 104.884 287.851 95.1961C281.645 85.5079 281.79 79.3021 281.79 79.3021C281.79 79.3021 300.142 77.2054 307.083 86.1827C312.891 93.6898 311.421 108.138 311.312 111.102L311.324 111.09Z" fill="#AAB8C1"/>
<path d="M208.321 214.033C208.321 214.033 210.887 204.731 214.033 198.537C216.153 194.38 223.082 180.269 226.769 160.049C226.962 158.989 227.131 155.53 227.131 154.976C227.131 153.723 226.649 151.783 226.83 150.289C227.071 147.963 226.914 145.613 226.854 144.276C228.577 144.276 229.842 145.457 229.878 148.059C229.987 150.036 229.77 151.843 230.637 151.964C231.168 151.976 231.457 150.482 232.011 147.156C232.421 144.444 233.023 140.215 233.843 136.648C234.264 134.395 236.409 134.997 236.482 136.564C236.53 139.311 235.385 145.601 235.566 146.842C235.602 147.3 236.048 147.216 236.168 146.939C237.084 143.999 236.301 135.841 238.843 136.082C239.169 136.202 239.41 136.383 239.579 136.684C239.832 137.13 239.904 137.829 239.868 138.914C239.844 139.179 239.832 139.468 239.82 139.745C239.591 142.709 239.277 145.649 239.35 147.216C239.301 147.638 239.651 147.927 239.892 147.65C240.097 147.541 240.253 145.662 240.494 143.601C240.82 140.661 241.253 137.118 242.29 137.202C243.35 137.263 243.362 138.841 243.242 140.95C243.073 144.517 242.205 149.204 242.338 149.457C242.495 149.65 242.844 149.783 242.88 149.421C243.121 148.204 243.76 145.047 244.266 142.902C244.531 141.818 245.7 141.649 245.941 142.36C246.073 144.613 245.387 148.975 245.097 152.144C244.519 158.025 242.001 163.411 241.374 168.918C241.181 170.28 241.253 171.171 241.061 173.449C240.711 179.956 237.265 194.91 234.023 210.695C232.855 216.347 231.71 219.685 229.818 222.697" fill="#7A5334"/>
<path d="M188.282 187.62C194.716 204.514 208.755 223.408 214.635 226.493C222.564 230.65 225.167 229.313 229.685 223.541C234.204 217.769 207.164 179.028 201.838 173.859C197.247 169.4 186.317 182.498 188.282 187.632V187.62Z" fill="#7A5334"/>
<path d="M198.488 168.556C186.751 166.062 178.473 184.041 185.847 195.368C194.258 208.285 198.271 212.214 198.271 212.214L211.96 185.68C211.96 185.68 200.826 169.051 198.476 168.556H198.488Z" fill="#054752"/>
<path d="M160.061 88.2794C159.085 88.3999 158.205 87.6889 158.084 86.7249L157.265 79.8323C157.157 78.8562 157.855 77.9766 158.819 77.8561C159.795 77.7356 160.675 78.4466 160.796 79.4106L161.615 86.3032C161.736 87.2792 161.025 88.1589 160.061 88.2794Z" fill="#041E21"/>
<path d="M154.698 90.4124C153.722 90.3642 152.963 89.5207 153.011 88.5447L153.373 81.6159C153.421 80.6399 154.264 79.8807 155.24 79.9289C156.217 79.9771 156.976 80.8206 156.927 81.7967L156.566 88.7254C156.518 89.7015 155.674 90.4606 154.698 90.4124Z" fill="#041E21"/>
<path d="M165.917 86.3033C164.965 86.0984 164.338 85.1585 164.543 84.2066L165.953 77.4104C166.158 76.4584 167.098 75.8318 168.05 76.0367C169.002 76.2415 169.628 77.1814 169.423 78.1334L168.013 84.9296C167.821 85.8815 166.869 86.5081 165.917 86.3033Z" fill="#041E21"/>
<path d="M162.844 88.2071C161.868 88.1589 161.109 87.3154 161.157 86.3394L161.518 79.4106C161.567 78.4346 162.41 77.6754 163.386 77.7236C164.362 77.7718 165.121 78.6153 165.073 79.5914L164.712 86.5201C164.664 87.4962 163.82 88.2553 162.844 88.2071Z" fill="#041E21"/>
<path d="M172.617 87.0986C171.689 86.7733 171.207 85.7611 171.532 84.8333L173.822 78.278C174.147 77.3502 175.159 76.8682 176.087 77.1936C177.015 77.5189 177.497 78.5311 177.172 79.459L174.882 86.0142C174.557 86.942 173.545 87.424 172.617 87.0986Z" fill="#041E21"/>
<path d="M170.472 87.3274C169.52 87.1346 168.893 86.1827 169.086 85.2307L170.472 78.4345C170.664 77.4826 171.616 76.856 172.568 77.0488C173.52 77.2416 174.147 78.1935 173.954 79.1455L172.568 85.9417C172.376 86.8936 171.424 87.5202 170.472 87.3274Z" fill="#041E21"/>
<path d="M174.135 88.8337C173.279 88.3637 172.966 87.2792 173.448 86.4237L176.81 80.3505C177.28 79.4949 178.365 79.1816 179.22 79.6516C180.076 80.1215 180.389 81.2181 179.919 82.0616L176.557 88.1348C176.087 88.9903 175.003 89.3036 174.147 88.8216" fill="#041E21"/>
<path d="M153.734 105.125C153.855 106.089 153.168 106.993 152.204 107.114L145.323 108.005C144.359 108.126 143.456 107.439 143.335 106.475C143.215 105.511 143.901 104.607 144.865 104.487L151.746 103.595C152.71 103.475 153.614 104.161 153.734 105.125Z" fill="#041E21"/>
<path d="M155.915 110.464C155.879 111.44 155.048 112.211 154.072 112.163L147.143 111.885C146.167 111.849 145.396 111.018 145.444 110.042C145.48 109.066 146.311 108.295 147.287 108.343L154.216 108.62C155.192 108.656 155.963 109.487 155.915 110.464Z" fill="#041E21"/>
<path d="M155 99.1486C154.807 100.113 153.879 100.739 152.915 100.546L146.107 99.2209C145.143 99.0281 144.516 98.1003 144.709 97.1363C144.902 96.1723 145.83 95.5457 146.794 95.7385L153.602 97.064C154.566 97.2568 155.192 98.1846 155 99.1486Z" fill="#041E21"/>
<path d="M153.614 102.342C153.578 103.318 152.746 104.089 151.77 104.041L144.841 103.764C143.865 103.727 143.094 102.896 143.142 101.92C143.178 100.944 144.01 100.173 144.986 100.221L151.915 100.498C152.891 100.534 153.662 101.366 153.614 102.342Z" fill="#041E21"/>
<path d="M155.554 92.0873C155.24 93.0152 154.228 93.5213 153.3 93.208L146.721 90.9908C145.793 90.6775 145.287 89.6653 145.6 88.7374C145.914 87.8096 146.926 87.3035 147.854 87.6168L154.433 89.834C155.361 90.1473 155.867 91.1595 155.554 92.0873Z" fill="#041E21"/>
<path d="M153.807 95.895C153.349 96.7505 152.264 97.0759 151.397 96.618L145.287 93.3283C144.432 92.8704 144.106 91.7859 144.564 90.9183C145.022 90.0507 146.107 89.7374 146.974 90.1953L153.084 93.485C153.939 93.9429 154.265 95.0274 153.807 95.895Z" fill="#041E21"/>
<path d="M159.313 87.2793C158.723 88.0626 157.602 88.2193 156.819 87.6288L151.288 83.4474C150.505 82.857 150.348 81.7364 150.939 80.9531C151.529 80.1699 152.65 80.0132 153.433 80.6036L158.964 84.785C159.747 85.3755 159.904 86.4961 159.313 87.2793Z" fill="#041E21"/>
<path d="M156.675 89.5327C156.217 90.3883 155.132 90.7136 154.265 90.2557L148.155 86.9661C147.3 86.5082 146.974 85.4237 147.432 84.5561C147.89 83.7005 148.975 83.3752 149.842 83.8331L155.952 87.1227C156.807 87.5806 157.132 88.6651 156.675 89.5327Z" fill="#041E21"/>
<path d="M178.473 106.415C178.244 107.367 178.834 108.331 179.786 108.56L186.534 110.162C187.486 110.391 188.45 109.801 188.679 108.849C188.908 107.897 188.318 106.933 187.366 106.704L180.618 105.101C179.666 104.872 178.702 105.463 178.473 106.415Z" fill="#041E21"/>
<path d="M175.738 111.488C175.677 112.464 176.424 113.307 177.4 113.38L184.329 113.826C185.305 113.886 186.149 113.139 186.221 112.163C186.281 111.187 185.534 110.343 184.558 110.271L177.629 109.825C176.653 109.765 175.81 110.512 175.738 111.488Z" fill="#041E21"/>
<path d="M177.822 100.341C177.906 101.318 178.774 102.041 179.75 101.956L186.667 101.342C187.643 101.257 188.366 100.39 188.282 99.4136C188.197 98.4376 187.33 97.7146 186.354 97.7989L179.437 98.4135C178.461 98.4978 177.738 99.3654 177.822 100.341Z" fill="#041E21"/>
<path d="M178.871 103.655C178.81 104.631 179.557 105.475 180.533 105.547L187.462 105.993C188.438 106.053 189.282 105.306 189.354 104.33C189.414 103.354 188.667 102.511 187.691 102.438L180.762 101.992C179.786 101.932 178.943 102.679 178.871 103.655Z" fill="#041E21"/>
<path d="M178.015 93.2562C178.232 94.2082 179.184 94.8107 180.136 94.6058L186.908 93.0875C187.86 92.8706 188.462 91.9187 188.258 90.9667C188.041 90.0148 187.089 89.4123 186.137 89.6171L179.365 91.1354C178.413 91.3523 177.81 92.3043 178.015 93.2562Z" fill="#041E21"/>
<path d="M179.353 97.2205C179.726 98.1242 180.762 98.558 181.666 98.1845L188.089 95.5455C188.993 95.172 189.426 94.1357 189.053 93.2319C188.679 92.3282 187.643 91.8944 186.739 92.2679L180.317 94.9069C179.413 95.2804 178.979 96.3167 179.353 97.2205Z" fill="#041E21"/>
<path d="M174.774 88.0745C175.28 88.9059 176.376 89.1831 177.208 88.677L183.148 85.0861C183.98 84.58 184.257 83.4834 183.751 82.652C183.245 81.8205 182.148 81.5434 181.317 82.0495L175.376 85.6404C174.545 86.1465 174.268 87.243 174.774 88.0745Z" fill="#041E21"/>
<path d="M177.16 90.593C177.533 91.4968 178.569 91.9306 179.473 91.557L185.896 88.9181C186.8 88.5445 187.233 87.5082 186.86 86.6045C186.486 85.7007 185.45 85.2669 184.546 85.6405L178.124 88.2794C177.22 88.653 176.786 89.6893 177.16 90.593Z" fill="#041E21"/>
<path d="M176.762 127.382L151.71 126.984L150.011 172.726L176.485 178.305L176.762 127.382Z" fill="#7A5334"/>
<path d="M155 152.47L135.213 161.001C135.213 161.001 135.021 183.065 162.049 184.462C189.077 185.872 192.186 165.713 192.186 165.713L174.581 152.988L155 152.47Z" fill="#7A5334"/>
<g style="mix-blend-mode:multiply" opacity="0.65">
<mask id="mask3_2_3348" style="mask-type:luminance" maskUnits="userSpaceOnUse" x="150" y="129" width="28" height="31">
<path d="M151.823 129.172L150.318 158.089L176.226 159.438L177.732 130.521L151.823 129.172Z" fill="white"/>
</mask>
<g mask="url(#mask3_2_3348)">
<path d="M151.722 130.876C152.312 131.105 151.119 158.218 176.22 159.423L176.605 130.455L151.722 130.876Z" fill="#7A5334"/>
</g>
</g>
<path d="M163.157 143.432C154.783 142.998 148.384 133.973 148.818 125.598L150.276 97.6422C150.65 90.5207 156.771 85.0018 163.88 85.3753L168.447 85.6163C175.557 85.9899 181.076 92.1113 180.714 99.2208L179.256 127.177C178.822 135.552 171.52 143.854 163.145 143.42" fill="#7A5334"/>
<path d="M156.723 102.739C158.096 101.173 160.567 101.016 162.374 103.209L156.723 102.739Z" fill="#041E21"/>
<path d="M171.183 103.836C173.099 101.788 175.713 102.414 177.087 104.234L171.183 103.836Z" fill="#041E21"/>
<path d="M150.722 112.211C150.722 112.211 148.613 109.234 147.324 111.138C146.986 111.632 147.01 113.922 147.107 117.043C147.167 119.091 148.071 120.634 149.481 119.61C149.517 119.585 150.722 112.211 150.722 112.211Z" fill="#7A5334"/>
<path d="M178.63 113.777C178.63 113.777 180.907 110.921 182.076 112.898C182.377 113.404 182.233 115.693 181.967 118.802C181.799 120.851 180.799 122.333 179.461 121.236C179.425 121.2 178.63 113.777 178.63 113.777Z" fill="#7A5334"/>
<path d="M155.53 109.981C156.446 108.596 162.796 110.355 163.965 113.187L155.53 109.981Z" fill="#041E21"/>
<path d="M169.604 114.151C171.267 110.138 175.93 108.391 177.099 110.03L169.604 114.151Z" fill="#041E21"/>
<g style="mix-blend-mode:multiply" opacity="0.65">
<mask id="mask4_2_3348" style="mask-type:luminance" maskUnits="userSpaceOnUse" x="162" y="105" width="10" height="22">
<path d="M163.407 105.874L162.356 126.054L170.659 126.487L171.71 106.306L163.407 105.874Z" fill="white"/>
</mask>
<g mask="url(#mask4_2_3348)">
<path d="M170.99 119.995C170.412 131.213 162.447 124.068 162.447 124.068L166.495 124.405C166.447 124.092 167.267 106.005 167.23 106.077C167.23 106.077 171.605 108.053 170.99 119.995Z" fill="#7A5334"/>
</g>
</g>
<path d="M170.375 128.213C170.279 128.454 168.556 132.105 164.905 131.647C159.313 130.949 159.265 127.297 159.265 127.297L170.375 128.201V128.213Z" fill="white"/>
<path d="M148.902 110.958C148.902 110.958 151.806 113.669 152.433 110.018C152.83 107.692 153.987 101.065 154.77 96.5579C155.24 93.8466 157.53 91.8343 160.277 91.6897C165.061 91.4366 173.496 91.5692 175.472 94.184C179.136 99.0522 174.412 112.849 180.449 112.307C183.474 112.03 180.967 96.835 180.533 90.8341C180.22 86.5202 172.484 82.1822 161.518 82.9534C152.734 83.568 149.505 91.4366 149.505 91.4366L148.914 110.958H148.902Z" fill="#041E21"/>
<g style="mix-blend-mode:multiply">
<mask id="mask5_2_3348" style="mask-type:luminance" maskUnits="userSpaceOnUse" x="148" y="113" width="2" height="4">
<path d="M148.278 113.382L148.101 116.776L149.654 116.856L149.83 113.463L148.278 113.382Z" fill="white"/>
</mask>
<g mask="url(#mask5_2_3348)">
<path d="M149.493 113.597C149.228 113.295 148.709 113.428 148.468 113.753C148.227 114.079 148.203 114.488 148.191 114.886C148.167 115.38 148.155 115.898 148.408 116.32C148.649 116.742 149.264 116.995 149.649 116.705" fill="#7A5334"/>
</g>
</g>
<g style="mix-blend-mode:multiply">
<mask id="mask6_2_3348" style="mask-type:luminance" maskUnits="userSpaceOnUse" x="179" y="114" width="3" height="6">
<path d="M179.978 114.376L179.741 118.925L181.222 119.002L181.458 114.453L179.978 114.376Z" fill="white"/>
</mask>
<g mask="url(#mask6_2_3348)">
<path d="M180.124 114.368C180.69 114.633 181.076 115.199 181.232 115.802C181.389 116.404 181.341 117.043 181.196 117.657C181.112 118.019 180.991 118.392 180.738 118.645C180.473 118.911 180.039 119.031 179.726 118.826" fill="#7A5334"/>
</g>
</g>
<g style="mix-blend-mode:multiply">
<mask id="mask7_2_3348" style="mask-type:luminance" maskUnits="userSpaceOnUse" x="161" y="136" width="7" height="3">
<path d="M162.069 136.658L161.996 138.053L167.002 138.314L167.075 136.918L162.069 136.658Z" fill="white"/>
</mask>
<g mask="url(#mask7_2_3348)">
<path d="M161.989 138.046C162.567 137.25 163.531 136.768 164.507 136.78C165.483 136.78 166.447 137.287 167.001 138.094" fill="#7A5334"/>
</g>
</g>
<path d="M199.392 168.858L182.811 158.941C182.811 158.941 185.908 165.134 164.447 164.014C142.986 162.893 144.733 156.446 144.733 156.446C144.733 156.446 130.176 160.471 123.525 163.737C123.501 163.737 123.489 163.761 123.465 163.797C122.091 164.255 115.488 182.016 113.511 205.61C110.836 237.651 112.126 291.78 112.126 291.78L207.357 299.636C207.357 299.636 204.573 187.897 199.392 168.846V168.858Z" fill="#054752"/>
<path d="M132.141 158.953L141.299 156.832C141.299 156.832 195.741 274.042 197.415 276.754C197.765 277.332 197.656 277.995 197.656 277.995L190.824 286.141C190.824 286.141 133.43 164.339 132.141 158.953Z" fill="black"/>
<path d="M135.599 229.096C135.599 229.096 140.106 235.289 142.407 240.302C143.95 243.676 149.288 254.955 160.036 267.246C160.591 267.885 162.663 269.704 163.013 269.981C163.796 270.596 165.242 271.259 166.073 272.114C167.399 273.416 168.941 274.476 169.797 275.103C168.941 276.175 167.592 276.38 165.953 275.115C164.663 274.211 163.651 273.187 163.145 273.657C162.868 273.982 163.663 274.898 165.459 276.886C166.941 278.477 169.279 280.947 171.074 283.224C172.267 284.598 170.833 285.634 169.821 284.899C168.086 283.574 164.736 279.754 163.88 279.248C163.579 279.043 163.398 279.368 163.519 279.573C164.892 281.598 170.351 285.14 168.941 286.598C168.7 286.743 168.471 286.791 168.206 286.755C167.809 286.695 167.327 286.393 166.676 285.839C166.519 285.695 166.35 285.55 166.194 285.393C164.459 283.791 162.796 282.14 161.784 281.405C161.543 281.164 161.193 281.236 161.241 281.537C161.205 281.718 162.29 282.742 163.458 283.923C165.121 285.586 167.11 287.598 166.543 288.201C165.989 288.828 164.989 288.056 163.748 286.936C161.615 285.068 159.133 282.212 158.904 282.164C158.711 282.164 158.446 282.321 158.663 282.525C159.301 283.273 160.94 285.237 162.037 286.61C162.579 287.309 162.109 288.117 161.543 287.924C160.072 286.888 157.711 284.309 155.879 282.562C152.505 279.296 150.408 275.066 147.287 271.946C146.54 271.15 145.95 270.753 144.624 269.511C140.756 266.077 133.153 256.546 124.947 246.725C122.006 243.206 120.5 240.844 119.56 238.181" fill="#7A5334"/>
<path d="M109.788 189.969C108.848 208.02 114.041 230.987 118.175 236.181C123.754 243.182 126.67 243.025 133.141 239.555C139.612 236.097 130.538 189.74 127.754 182.86C125.356 176.931 110.077 184.487 109.788 189.969Z" fill="#7A5334"/>
<path d="M120.38 164.857C111.619 169.689 110.053 178.498 108.812 191.958C107.39 207.309 108.101 212.876 108.101 212.876L141.515 208.575C141.515 208.575 140.202 153.916 120.38 164.845V164.857Z" fill="#054752"/>
<path d="M65.2994 194.295L76.3493 229.228L72.4812 261.836C72.4451 261.92 51.0081 267.957 49.7067 268.101C49.5621 267.993 46.6942 254.292 45.7061 242.29C45.7182 242.266 45.7061 242.23 45.7061 242.194C44.1396 223.372 43.7781 221.649 49.7429 203.272C50.2731 201.513 59.9733 193.608 65.2994 194.283V194.295Z" fill="#FCE1D8"/>
<path d="M49.3691 274.645C53.6107 300.13 58.9368 315.097 61.4191 321.073C62.2265 323.206 62.6723 323.965 63.082 325.279C64.8775 330.484 64.9377 336.413 66.938 341.92C68.0346 344.884 69.2878 349.09 70.3843 351.054C70.9145 351.584 71.8785 350.933 71.6616 349.837C71.1917 347.704 70.3964 344.583 70.1072 343.402C69.9746 343.053 70.3482 343.028 70.5771 343.125C70.8061 343.294 72.0472 347.873 73.4209 351.15C74.2162 353.078 74.9151 354.5 75.8791 354.102C76.8431 353.729 75.7104 350.367 74.7344 347.595C74.0716 345.631 73.4089 343.884 73.5414 343.691C73.6378 343.342 74.0837 343.45 74.2162 343.836C74.9392 345.222 75.9153 347.981 76.9877 350.728C77.0962 350.981 77.2046 351.234 77.289 351.488C77.7348 352.476 78.0963 353.078 78.5181 353.367C78.8073 353.548 79.0965 353.608 79.4459 353.572C81.8318 352.705 77.6143 345.728 77.1805 342.691C77.1564 342.39 77.53 342.125 77.7589 342.522C78.4458 343.559 80.1207 349.692 81.3498 352.126C82.0849 353.5 84.2659 353.114 83.6755 350.909C82.8802 347.354 81.627 343.306 80.8196 340.703C79.8918 337.485 79.4941 336.027 79.9761 335.798C80.8076 335.533 81.398 337.244 82.35 338.968C83.4947 341.281 85.1335 341.799 86.688 341.064C86.0614 339.883 84.9046 337.835 84.1213 335.666C83.6514 334.232 82.3741 332.702 81.8318 331.581C81.6029 331.099 80.2653 327.918 79.9882 326.881C74.6018 307.168 73.7463 278.187 73.8547 273.536C74.0114 266.631 72.1798 260.197 72.1798 260.197L48.2244 263.366C48.3449 266.427 48.4292 268.945 49.3691 274.609V274.645Z" fill="#FCE1D8"/>
<path d="M148.023 118.163C146.396 125.779 142.817 132.949 135.864 136.443C142.383 139.263 144.263 148.023 142.287 154.844C139.25 165.279 129.538 172.846 119.018 175.618C108.499 178.389 97.3163 177.004 86.7966 174.28C78.6388 172.159 70.505 169.135 64.1185 163.64C59.3347 159.531 55.7197 154.169 53.2133 148.385C51.5142 144.444 50.2851 140.191 50.6346 135.913C51.2491 128.261 57.0693 121.562 64.2752 118.886C71.4811 116.211 79.7112 117.236 86.6159 120.598C81.0849 119.597 74.2526 117.549 72.4812 112.211C70.7099 106.873 72.421 99.6305 77.976 96.9434C82.4345 94.7985 90.7852 96.4975 95.4244 99.4136C78.6267 95.1238 85.0494 73.7833 100.437 77.7116C111.27 80.471 116.379 81.2422 126.176 83.7366C147.565 89.1952 149.445 111.596 148.035 118.175L148.023 118.163Z" fill="#F6B241"/>
<g style="mix-blend-mode:multiply">
<path d="M92.6167 135.829C92.8456 136.72 93.1589 137.648 92.9661 138.552C92.701 139.769 91.5924 140.6 90.5802 141.336C86.1217 144.601 82.0368 148.373 78.4459 152.566C75.3611 156.169 72.4932 160.555 72.9631 165.279C73.4331 169.894 77.1686 173.738 81.5307 175.317C85.8928 176.895 90.7489 176.522 95.2436 175.389C99.208 174.389 103.124 172.738 106.077 169.894C109.041 167.026 110.824 163.158 112.21 159.266C115.536 149.927 116.946 139.914 116.319 130.033C115.909 123.514 112.053 108.668 102.534 113.464C95.8581 116.826 90.7851 128.864 92.6046 135.829H92.6167Z" fill="#F6B241"/>
</g>
<mask id="mask8_2_3348" style="mask-type:luminance" maskUnits="userSpaceOnUse" x="42" y="154" width="149" height="137">
<path d="M42.3561 222.372L71.5051 222.854C71.5051 222.854 74.5296 238.639 77.5783 256.305C80.0726 270.74 82.6031 287.261 83.2779 290.466L118.151 290.081H119.03V290.069L154.771 288.249C156.217 279.284 157.759 245.038 160.615 220.54L190.523 218.383C190.523 218.383 195.114 160.242 157.59 163.652C157.373 163.676 157.181 163.749 156.988 163.881C145.022 159.736 128.803 155.145 128.803 155.145C128.803 155.145 121.681 154.506 116.054 154.675C113.222 154.723 105.329 155.735 105.329 155.735C105.329 155.735 104.847 155.868 103.98 156.097C99.0996 157.386 82.1693 161.941 71.3002 165.833C38.4399 165.134 42.3682 222.384 42.3682 222.384L42.3561 222.372Z" fill="white"/>
</mask>
<g mask="url(#mask8_2_3348)">
<path d="M42.3561 222.372L71.5051 222.854C71.5051 222.854 74.5296 238.639 77.5783 256.305C80.0726 270.74 82.6031 287.261 83.2779 290.466L118.151 290.081H119.03V290.069L154.771 288.249C156.217 279.284 157.759 245.038 160.615 220.54L190.523 218.383C190.523 218.383 195.114 160.242 157.59 163.652C157.373 163.676 157.181 163.749 156.988 163.881C145.022 159.736 128.803 155.145 128.803 155.145C128.803 155.145 121.681 154.506 116.054 154.675C113.222 154.723 105.329 155.735 105.329 155.735C105.329 155.735 104.847 155.868 103.98 156.097C99.0996 157.386 82.1693 161.941 71.3002 165.833C38.4399 165.134 42.3682 222.384 42.3682 222.384L42.3561 222.372Z" fill="white"/>
<path d="M181.546 158.326C181.546 160.362 183.197 162.013 185.245 162.013C187.281 162.013 188.944 160.362 188.944 158.326V153.398C188.944 151.361 187.294 149.71 185.245 149.71C183.209 149.71 181.546 151.361 181.546 153.398V158.326Z" fill="#054752"/>
<path d="M138.346 185.944C138.346 187.583 139.997 188.921 142.034 188.921C144.07 188.921 145.721 187.583 145.721 185.944V181.98C145.721 180.341 144.07 179.004 142.034 179.004C139.997 179.004 138.346 180.341 138.346 181.98V185.944Z" fill="#054752"/>
<path d="M124.32 162.821C124.32 164.459 125.971 165.797 128.019 165.797C130.056 165.797 131.707 164.459 131.707 162.821V158.856C131.707 157.217 130.056 155.88 128.019 155.88C125.971 155.88 124.32 157.217 124.32 158.856V162.821Z" fill="#054752"/>
<path d="M164.278 181.173C164.278 182.812 165.929 184.149 167.965 184.149C170.014 184.149 171.665 182.812 171.665 181.173V177.208C171.665 175.569 170.014 174.232 167.965 174.232C165.929 174.232 164.278 175.569 164.278 177.208V181.173Z" fill="#054752"/>
<path d="M153.674 169.292C153.674 171.87 155.325 173.967 157.373 173.967C159.41 173.967 161.073 171.87 161.073 169.292V163.05C161.073 160.471 159.422 158.374 157.373 158.374C155.337 158.374 153.674 160.471 153.674 163.05V169.292Z" fill="#054752"/>
<path d="M181.546 192.753C181.546 194.789 183.197 196.44 185.245 196.44C187.281 196.44 188.944 194.789 188.944 192.753V187.824C188.944 185.788 187.294 184.137 185.245 184.137C183.209 184.137 181.546 185.788 181.546 187.824V192.753Z" fill="#054752"/>
<path d="M137.238 215.925C137.238 217.564 138.889 218.901 140.937 218.901C142.974 218.901 144.624 217.564 144.624 215.925V211.96C144.624 210.322 142.974 208.984 140.937 208.984C138.889 208.984 137.238 210.322 137.238 211.96V215.925Z" fill="#054752"/>
<path d="M117.536 188.812C117.536 190.451 119.187 191.789 121.223 191.789C123.272 191.789 124.923 190.451 124.923 188.812V184.848C124.923 183.209 123.272 181.872 121.223 181.872C119.187 181.872 117.536 183.209 117.536 184.848V188.812Z" fill="#054752"/>
<path d="M164.278 215.599C164.278 217.238 165.929 218.576 167.965 218.576C170.014 218.576 171.665 217.238 171.665 215.599V211.635C171.665 209.996 170.014 208.659 167.965 208.659C165.929 208.659 164.278 209.996 164.278 211.635V215.599Z" fill="#054752"/>
<path d="M153.674 203.73C153.674 206.309 155.325 208.406 157.373 208.406C159.41 208.406 161.073 206.309 161.073 203.73V197.488C161.073 194.91 159.422 192.813 157.373 192.813C155.337 192.813 153.674 194.91 153.674 197.488V203.73Z" fill="#054752"/>
<path d="M120.765 212.912C120.765 215.491 122.416 217.588 124.453 217.588C126.501 217.588 128.152 215.491 128.152 212.912V206.671C128.152 204.092 126.501 201.995 124.453 201.995C122.416 201.995 120.765 204.092 120.765 206.671V212.912Z" fill="#054752"/>
<path d="M100.1 168.725C100.1 170.762 101.75 172.412 103.787 172.412C105.823 172.412 107.474 170.762 107.474 168.725V163.797C107.474 161.76 105.823 160.109 103.787 160.109C101.75 160.109 100.1 161.76 100.1 163.797V168.725Z" fill="#054752"/>
<path d="M86.1338 172.22C86.1338 174.256 87.7846 175.907 89.8211 175.907C91.8575 175.907 93.5084 174.256 93.5084 172.22V167.291C93.5084 165.255 91.8575 163.604 89.8211 163.604C87.7846 163.604 86.1338 165.255 86.1338 167.291V172.22Z" fill="#054752"/>
<path d="M54.6953 186.198C54.6953 188.234 56.3462 189.885 58.3826 189.885C60.4191 189.885 62.0699 188.234 62.0699 186.198V181.269C62.0699 179.233 60.4191 177.582 58.3826 177.582C56.3462 177.582 54.6953 179.233 54.6953 181.269V186.198Z" fill="#054752"/>
<path d="M100.1 203.682C100.1 205.719 101.75 207.369 103.787 207.369C105.823 207.369 107.474 205.719 107.474 203.682V198.754C107.474 196.717 105.823 195.066 103.787 195.066C101.75 195.066 100.1 196.717 100.1 198.754V203.682Z" fill="#054752"/>
<path d="M55.7917 215.925C55.7917 217.564 57.4426 218.901 59.479 218.901C61.5275 218.901 63.1784 217.564 63.1784 215.925V211.96C63.1784 210.322 61.5275 208.984 59.479 208.984C57.4426 208.984 55.7917 210.322 55.7917 211.96V215.925Z" fill="#054752"/>
<path d="M82.832 215.599C82.832 217.238 84.4829 218.576 86.5314 218.576C88.5678 218.576 90.2187 217.238 90.2187 215.599V211.635C90.2187 209.996 88.5678 208.659 86.5314 208.659C84.4829 208.659 82.832 209.996 82.832 211.635V215.599Z" fill="#054752"/>
<path d="M72.228 203.73C72.228 206.309 73.8789 208.406 75.9153 208.406C77.9518 208.406 79.6026 206.309 79.6026 203.73V197.488C79.6026 194.91 77.9518 192.813 75.9153 192.813C73.8789 192.813 72.228 194.91 72.228 197.488V203.73Z" fill="#054752"/>
<path d="M39.3196 212.912C39.3196 215.491 40.9704 217.588 43.0189 217.588C45.0554 217.588 46.7062 215.491 46.7062 212.912V206.671C46.7062 204.092 45.0554 201.995 43.0189 201.995C40.9704 201.995 39.3196 204.092 39.3196 206.671V212.912Z" fill="#054752"/>
<path d="M181.546 225.529C181.546 227.565 183.197 229.216 185.245 229.216C187.281 229.216 188.944 227.565 188.944 225.529V220.6C188.944 218.564 187.294 216.913 185.245 216.913C183.209 216.913 181.546 218.564 181.546 220.6V225.529Z" fill="#054752"/>
<path d="M138.346 253.135C138.346 254.774 139.997 256.112 142.034 256.112C144.07 256.112 145.721 254.774 145.721 253.135V249.171C145.721 247.532 144.07 246.195 142.034 246.195C139.997 246.195 138.346 247.532 138.346 249.171V253.135Z" fill="#054752"/>
<path d="M124.32 234.386C124.32 236.024 125.971 237.362 128.019 237.362C130.056 237.362 131.707 236.024 131.707 234.386V230.421C131.707 228.782 130.056 227.445 128.019 227.445C125.971 227.445 124.32 228.782 124.32 230.421V234.386Z" fill="#054752"/>
<path d="M164.278 248.364C164.278 250.002 165.929 251.34 167.965 251.34C170.014 251.34 171.665 250.002 171.665 248.364V244.399C171.665 242.76 170.014 241.423 167.965 241.423C165.929 241.423 164.278 242.76 164.278 244.399V248.364Z" fill="#054752"/>
<path d="M153.674 236.494C153.674 239.073 155.325 241.17 157.373 241.17C159.41 241.17 161.073 239.073 161.073 236.494V230.252C161.073 227.674 159.422 225.577 157.373 225.577C155.337 225.577 153.674 227.674 153.674 230.252V236.494Z" fill="#054752"/>
<path d="M181.546 259.956C181.546 261.992 183.197 263.643 185.245 263.643C187.281 263.643 188.944 261.992 188.944 259.956V255.027C188.944 252.991 187.294 251.34 185.245 251.34C183.209 251.34 181.546 252.991 181.546 255.027V259.956Z" fill="#054752"/>
<path d="M117.536 256.015C117.536 257.654 119.187 258.992 121.223 258.992C123.272 258.992 124.923 257.654 124.923 256.015V252.051C124.923 250.412 123.272 249.074 121.223 249.074C119.187 249.074 117.536 250.412 117.536 252.051V256.015Z" fill="#054752"/>
<path d="M153.674 270.921C153.674 273.5 155.325 275.597 157.373 275.597C159.41 275.597 161.073 273.5 161.073 270.921V264.679C161.073 262.101 159.422 260.004 157.373 260.004C155.337 260.004 153.674 262.101 153.674 264.679V270.921Z" fill="#054752"/>
<path d="M120.765 280.103C120.765 282.682 122.416 284.779 124.453 284.779C126.501 284.779 128.152 282.682 128.152 280.103V273.861C128.152 271.283 126.501 269.186 124.453 269.186C122.416 269.186 120.765 271.283 120.765 273.861V280.103Z" fill="#054752"/>
<path d="M100.1 238.639C100.1 240.676 101.75 242.326 103.787 242.326C105.823 242.326 107.474 240.676 107.474 238.639V233.711C107.474 231.674 105.823 230.023 103.787 230.023C101.75 230.023 100.1 231.674 100.1 233.711V238.639Z" fill="#054752"/>
<path d="M56.9004 253.135C56.9004 254.774 58.5512 256.112 60.5997 256.112C62.6362 256.112 64.2991 254.774 64.2991 253.135V249.171C64.2991 247.532 62.6482 246.195 60.5997 246.195C58.5633 246.195 56.9004 247.532 56.9004 249.171V253.135Z" fill="#054752"/>
<path d="M42.8743 230.011C42.8743 231.65 44.5251 232.988 46.5616 232.988C48.6101 232.988 50.2609 231.65 50.2609 230.011V226.047C50.2609 224.408 48.6101 223.071 46.5616 223.071C44.5251 223.071 42.8743 224.408 42.8743 226.047V230.011Z" fill="#054752"/>
<path d="M82.832 248.364C82.832 250.002 84.4829 251.34 86.5314 251.34C88.5678 251.34 90.2187 250.002 90.2187 248.364V244.399C90.2187 242.76 88.5678 241.423 86.5314 241.423C84.4829 241.423 82.832 242.76 82.832 244.399V248.364Z" fill="#054752"/>
<path d="M72.228 236.494C72.228 239.073 73.8789 241.17 75.9153 241.17C77.9518 241.17 79.6026 239.073 79.6026 236.494V230.252C79.6026 227.674 77.9518 225.577 75.9153 225.577C73.8789 225.577 72.228 227.674 72.228 230.252V236.494Z" fill="#054752"/>
<path d="M100.1 273.596C100.1 275.633 101.75 277.284 103.787 277.284C105.823 277.284 107.474 275.633 107.474 273.596V268.668C107.474 266.631 105.823 264.98 103.787 264.98C101.75 264.98 100.1 266.631 100.1 268.668V273.596Z" fill="#054752"/>
<path d="M36.0901 256.015C36.0901 257.654 37.7409 258.992 39.7894 258.992C41.8259 258.992 43.4767 257.654 43.4767 256.015V252.051C43.4767 250.412 41.8259 249.074 39.7894 249.074C37.7409 249.074 36.0901 250.412 36.0901 252.051V256.015Z" fill="#054752"/>
<path d="M72.228 270.921C72.228 273.5 73.8789 275.597 75.9153 275.597C77.9518 275.597 79.6026 273.5 79.6026 270.921V264.679C79.6026 262.101 77.9518 260.004 75.9153 260.004C73.8789 260.004 72.228 262.101 72.228 264.679V270.921Z" fill="#054752"/>
<path d="M39.3196 280.103C39.3196 282.682 40.9704 284.779 43.0189 284.779C45.0554 284.779 46.7062 282.682 46.7062 280.103V273.861C46.7062 271.283 45.0554 269.186 43.0189 269.186C40.9704 269.186 39.3196 271.283 39.3196 273.861V280.103Z" fill="#054752"/>
</g>
<path d="M124.296 164.917C124.296 164.917 125.079 188.716 123.995 192.825C122.898 196.934 121.561 197.814 118.777 197.814C115.994 197.814 115.174 194.994 114.463 192.62C113.74 190.247 110.607 165.665 110.607 165.665C110.607 165.665 112.728 167.364 116.367 167.352C120.657 167.352 124.308 164.917 124.308 164.917H124.296Z" fill="#FCE1D8"/>
<path d="M71.3845 165.303L84.1093 161.085C84.1093 161.085 147.601 282.501 149.517 285.261C149.926 285.839 150.131 285.646 150.131 285.646L140.19 296.082C140.19 296.082 73.0474 170.894 71.3845 165.291V165.303Z" fill="black"/>
<path d="M107.462 131.31L126.284 135.021L129.213 166.388L101.739 168.701L107.462 131.31Z" fill="#FCE1D8"/>
<g style="mix-blend-mode:multiply">
<path d="M126.971 141.77C126.296 141.914 126.417 149.168 104.799 149.144L107.257 133.262L126.971 141.77Z" fill="#FCE1D8"/>
</g>
<path d="M102.522 118.38C102.739 134.455 106.583 150.012 116.825 151.614C126.224 153.084 135.021 138.492 138.72 122.851C143.492 102.631 135.394 95.0396 124.007 93.4972C112.632 91.9548 102.257 99.1727 102.51 118.392L102.522 118.38Z" fill="#FCE1D8"/>
<g style="mix-blend-mode:multiply">
<path d="M122.32 128.924C122.296 128.587 122.163 117.248 122.103 117.332C122.103 117.332 127.441 118.296 126.851 124.899C125.995 134.491 116.861 128.78 116.861 128.78" fill="#FCE1D8"/>
</g>
<g opacity="0.3">
<path d="M138.274 111.223C137.057 109.186 130.044 107.499 127.863 109.981L138.274 111.223Z" fill="black"/>
</g>
<g opacity="0.3">
<path d="M120.621 110.138C118.138 107.053 111.583 106.523 109.824 108.789L120.621 110.138Z" fill="black"/>
</g>
<path d="M115.704 118.115C115.777 118.115 115.849 118.115 115.921 118.115C116.451 118.031 116.801 117.537 116.717 117.007C116.536 115.874 115.608 113.705 113.439 113.56C113.403 113.56 113.379 113.56 113.343 113.56C111.041 113.476 110.161 115.175 110.029 116.079C109.944 116.609 110.306 117.103 110.836 117.175C111.342 117.26 111.848 116.898 111.933 116.38C111.993 116.091 112.234 115.428 113.27 115.476C113.282 115.476 113.294 115.476 113.306 115.476C114.523 115.561 114.813 117.284 114.825 117.308C114.897 117.754 115.271 118.091 115.716 118.115H115.704Z" fill="black"/>
<path d="M134.864 121.706C134.864 121.706 134.972 121.706 135.033 121.706C135.563 121.646 135.948 121.176 135.888 120.658C135.768 119.489 134.96 117.26 132.755 117.115C132.719 117.115 132.695 117.115 132.659 117.115C130.405 117.031 129.417 118.706 129.2 119.609C129.08 120.128 129.405 120.646 129.923 120.766C130.442 120.887 130.948 120.573 131.08 120.055C131.152 119.802 131.454 118.995 132.586 119.043H132.623C133.767 119.127 133.972 120.79 133.984 120.863C134.032 121.333 134.418 121.694 134.876 121.718L134.864 121.706Z" fill="black"/>
<path d="M136.575 130.744C137.563 131.129 138.853 130.201 139.431 128.683L140.877 124.924C141.455 123.417 141.13 121.863 140.142 121.477C139.154 121.092 137.864 122.019 137.286 123.538L135.84 127.297C135.262 128.804 135.587 130.358 136.575 130.744Z" fill="#FCE1D8"/>
<path d="M102.136 124.201C103.184 124.201 104.04 122.875 104.04 121.26V117.236C104.04 115.621 103.184 114.295 102.136 114.295C101.088 114.295 100.232 115.621 100.232 117.236V121.26C100.232 122.875 101.088 124.201 102.136 124.201Z" fill="#FCE1D8"/>
<path d="M142.419 113.44C141.311 113.56 100.967 110.006 100.967 110.006C100.967 110.006 106.595 90.7739 122.223 90.7016C154.843 90.557 142.419 113.44 142.419 113.44Z" fill="#F6B241"/>
<path d="M125.863 137.769C125.67 138.046 122.356 142.215 117.813 140.528C110.86 137.95 111.885 133.262 111.885 133.262L125.863 137.781V137.769Z" fill="white"/>
<path d="M141.588 158.916L128.791 155.145L103.606 156L89.2788 160.242C89.2788 160.242 99.7864 181.378 116.391 181.378C133.069 181.378 141.6 159.615 141.588 158.928V158.916Z" fill="#FCE1D8"/>
<g style="mix-blend-mode:multiply">
<path d="M66.3838 197.862L75.0237 241.266L72.6137 260.691L73.891 285.731C73.891 285.731 67.0707 275.199 60.407 253.81C52.8758 229.686 66.3718 197.862 66.3718 197.862H66.3838Z" fill="#FCE1D8"/>
</g>
<path d="M158.084 220.601L156.506 264.969C156.542 265.065 178.316 269.765 179.606 270.006C179.762 269.897 182.859 259.377 184.787 247.46C184.763 247.436 184.787 247.4 184.775 247.364C187.8 228.65 187.691 224.469 187.342 218.673C187.318 218.395 163.447 220.335 158.084 220.601Z" fill="#FCE1D8"/>
<path d="M178.666 277.187C173.183 302.432 167.122 317.121 164.338 322.965C163.435 325.05 162.941 325.797 162.471 327.086C160.41 332.196 160.073 338.112 157.795 343.51C156.554 346.427 155.096 350.56 153.903 352.464C153.349 352.958 152.409 352.271 152.686 351.186C153.264 349.078 154.204 346.005 154.554 344.836C154.698 344.499 154.325 344.45 154.096 344.535C153.867 344.691 152.397 349.21 150.854 352.415C149.963 354.307 149.204 355.693 148.252 355.235C147.312 354.813 148.601 351.512 149.71 348.788C150.469 346.86 151.216 345.149 151.095 344.944C151.023 344.583 150.565 344.679 150.409 345.065C149.625 346.415 148.505 349.114 147.3 351.813C147.179 352.066 147.059 352.307 146.962 352.56C146.468 353.524 146.071 354.102 145.637 354.38C145.335 354.548 145.046 354.584 144.709 354.548C142.371 353.56 146.926 346.8 147.504 343.8C147.541 343.498 147.179 343.221 146.926 343.607C146.191 344.607 144.215 350.644 142.865 353.03C142.07 354.368 139.901 353.874 140.6 351.705C141.564 348.198 143.022 344.221 143.95 341.655C145.034 338.486 145.504 337.04 145.034 336.799C144.215 336.497 143.552 338.172 142.504 339.847C141.251 342.113 139.588 342.534 138.069 341.727C138.756 340.582 140.009 338.594 140.889 336.461C141.431 335.051 142.781 333.593 143.371 332.497C143.624 332.027 145.119 328.906 145.444 327.894C151.794 308.469 154.084 279.561 154.204 274.922C154.385 268.017 156.53 261.679 156.53 261.679L180.305 266.029C180.039 269.078 179.823 271.596 178.606 277.199L178.666 277.187Z" fill="#FCE1D8"/>
<g style="mix-blend-mode:multiply">
<path d="M166.049 198.163L158.084 220.962L154.24 280.393C154.24 280.393 165.821 273.476 172.472 252.087C180.003 227.963 166.049 198.163 166.049 198.163Z" fill="#FCE1D8"/>
</g>
<path d="M390.131 192.066L399.048 279.079C399.084 279.164 423.702 285.622 425.136 285.803C425.293 285.695 427.45 271.235 428.751 258.112C428.727 258.088 428.751 258.052 428.751 258.004C430.8 237.398 431.294 209.454 425.064 189.21C424.522 187.258 395.987 191.403 390.131 192.054" fill="#AF865E"/>
<path d="M390.131 192.066L399.048 279.079C399.084 279.164 423.702 285.622 425.136 285.803C425.293 285.695 427.45 271.235 428.751 258.112C428.727 258.088 428.751 258.052 428.751 258.004C430.8 237.398 431.294 209.454 425.064 189.21C424.522 187.258 395.987 191.403 390.131 192.054" fill="#CD9F6F"/>
<path d="M300.467 188.74L280.669 273.934C280.621 274.018 255.388 277.32 253.942 277.32C253.797 277.187 253.484 262.583 253.834 249.388C253.858 249.364 253.834 249.328 253.858 249.292C254.424 228.59 257.449 200.814 266.173 181.51C266.956 179.643 294.743 187.343 300.467 188.728" fill="#CD9F6F"/>
<g style="mix-blend-mode:multiply" opacity="0.4">
<path d="M292.008 223.818L280.729 275.633C280.681 275.717 257.485 280.296 257.485 280.296L292.008 223.806V223.818Z" fill="#AF865E"/>
</g>
<path d="M253.93 218.359C253.93 218.359 258.352 199.634 262.618 187.861C270.306 166.677 285.911 154.699 296.466 155.181L296.756 155.494C307.564 150.241 335.508 146.168 335.508 146.168C335.508 146.168 341.895 147.337 347.137 148.096C353.33 148.337 360.584 147.216 360.584 147.216C360.584 147.216 388.926 151.807 405.447 162.074C409.773 163.881 422.365 173.437 427.98 182.607C436.258 196.139 433.848 229.337 433.848 229.337L396.566 228.807C391.372 258.618 387.817 303.179 386.094 310.445L343.883 308.638L291.96 306.288C290.899 298.865 292.502 253.642 290.429 223.432L253.942 218.371L253.93 218.359Z" fill="#2ED1FF"/>
<g style="mix-blend-mode:multiply" opacity="0.27">
<path d="M400.591 201.718L390.288 226.216L384.769 289.623C384.769 289.623 396.59 284.032 405.326 261.004C415.195 235.037 400.603 201.718 400.603 201.718H400.591Z" fill="#AF865E"/>
</g>
<g style="mix-blend-mode:multiply" opacity="0.27">
<path d="M287.55 196.573L295.587 221.902L295.322 285.55C295.322 285.55 284.055 278.898 277.452 255.184C269.981 228.421 287.538 196.573 287.538 196.573H287.55Z" fill="#AF865E"/>
</g>
<path opacity="0.2" d="M395.674 227.999L385.769 308.059L372.43 333.449C372.43 333.449 335.087 350.897 333.942 323.893C332.195 282.417 395.674 227.987 395.674 227.987V227.999Z" fill="#8F405F"/>
<path d="M385.13 153.47C385.13 153.47 307.191 248.472 290.164 299.528L307.685 299.805C307.685 299.805 373.936 196.633 404.76 160.953C404.76 160.953 393.252 156.145 385.118 153.458L385.13 153.47Z" fill="black"/>
<path d="M354.195 122.201L357.342 121.944C363.458 121.446 368.011 116.084 367.513 109.968L365.076 80.0748C364.578 73.9592 359.216 69.4056 353.1 69.9041L349.954 70.1606C343.838 70.6591 339.284 76.0209 339.783 82.1365L342.22 112.03C342.718 118.146 348.08 122.699 354.195 122.201Z" fill="#041E21"/>
<path d="M322.737 124.762L328.118 124.324C333.616 123.875 337.711 119.054 337.262 113.556L334.644 81.4283C334.195 75.9296 329.374 71.8353 323.876 72.2835L318.495 72.7221C312.996 73.1703 308.902 77.9913 309.35 83.4901L311.969 115.617C312.417 121.116 317.238 125.21 322.737 124.762Z" fill="#041E21"/>
<path d="M328.594 110.14L333.975 109.701C339.474 109.253 343.568 104.432 343.12 98.9335L340.501 66.8063C340.053 61.3075 335.232 57.2132 329.733 57.6614L324.352 58.1C318.854 58.5482 314.759 63.3692 315.207 68.868L317.826 100.995C318.274 106.494 323.095 110.588 328.594 110.14Z" fill="#041E21"/>
<path d="M344.158 104.722L347.305 104.466C353.421 103.967 357.974 98.6055 357.476 92.4899L355.039 62.5965C354.541 56.4809 349.179 51.9273 343.063 52.4258L339.916 52.6823C333.801 53.1808 329.247 58.5426 329.746 64.6583L332.182 94.5516C332.681 100.667 338.043 105.221 344.158 104.722Z" fill="#041E21"/>
<path d="M322.88 148.228C322.88 148.228 323.049 150.12 323.904 152.59C325.41 156.868 329.025 162.893 337.509 163.592C338.015 163.592 338.437 163.664 338.894 163.568C338.894 163.568 338.935 163.56 339.015 163.544C339.075 163.58 339.111 163.544 339.111 163.544H339.147C354.656 164.267 359.175 156.121 360.199 149.542C362.681 133.419 357.355 107.427 357.355 107.427L322.868 119.923V140.336L322.892 148.216L322.88 148.228Z" fill="#CD9F6F"/>
<path d="M349.727 135.166C349.27 135.323 340.328 151.952 323.181 150.12C323.181 150.12 322.735 137.721 322.928 133.407C323.085 129.864 324.386 118.766 324.386 118.766L349.727 135.166Z" fill="#BC9068"/>
<path d="M360.524 116.043C360.524 116.043 362.103 92.7982 353.692 81.1217C341.558 64.2879 319.603 73.229 315.686 83.0979C310.336 96.5819 317 123.803 317 123.803L360.524 116.043Z" fill="#CD9F6F"/>
<path d="M314.023 101.342L315.385 111.006C316.927 127.864 319.699 141.613 333.604 142.541C335.605 142.673 337.75 142.516 339.063 142.336L335.472 91.8823L332.231 92.1233L328.11 92.4848L322.952 92.8584C319.313 93.2078 315.939 95.172 314.855 98.2568C314.457 99.1244 314.083 100.125 314.095 101.113L314.035 101.342H314.023Z" fill="#CD9F6F"/>
<path d="M359.343 98.7027V108.463C359.62 117.898 357.717 139.48 344.088 142.36C342.1 142.782 340.678 142.902 339.328 142.89L335.195 92.4849L340.015 92.1596L344.148 91.9306L349.282 91.5812C352.969 91.3884 356.56 92.8705 358.078 95.7505C358.584 96.5939 359.114 97.5098 359.235 98.4979L359.331 98.7147L359.343 98.7027Z" fill="#CD9F6F"/>
<path d="M326.194 123.875C329.218 123.586 346.643 122.586 346.643 122.586C346.51 126.321 341.473 129.78 336.593 130.238C332.014 130.671 326.531 127.225 326.194 123.875Z" fill="white"/>
<path d="M330.905 104.884C330.905 104.884 331.363 117.754 331.496 117.959C332.195 118.947 336.882 118.814 336.882 118.814C336.882 118.814 331.11 123.815 325.965 120.706C320.783 117.597 317.65 103.535 330.905 104.884Z" fill="#BC9068"/>
<path d="M354.427 130.84C354.427 130.84 327.254 132.395 320.157 132.84C319.988 132.84 325.627 146.915 335.81 145.975C347.992 144.854 354.427 130.828 354.427 130.828V130.84Z" fill="#736449"/>
<path d="M327.7 80.4348C327.748 83.6883 327.266 87.1949 324.929 89.6169C322.591 92.039 317.903 92.6174 315.831 90.0266C314.795 88.7373 314.626 87.0262 314.566 85.4115C314.337 79.7721 315.277 73.5302 319.735 69.7103C327.206 63.2997 343.172 60.2752 347.438 71.2648C352.451 84.1462 327.76 84.2185 327.7 80.4228V80.4348Z" fill="#041E21"/>
<path d="M358.259 113.437C358.343 114.912 359.606 116.04 361.081 115.956C362.556 115.872 363.684 114.608 363.601 113.133L363.393 109.476C363.309 108.001 362.045 106.873 360.57 106.957C359.095 107.041 357.968 108.304 358.051 109.779L358.259 113.437Z" fill="#CD9F6F"/>
<path d="M359.259 110.09C360.392 110.259 361.5 111.09 361.657 112.223C361.814 113.355 360.669 114.572 359.572 114.211" fill="#BC9068"/>
<path d="M341.835 107.801C342.498 107.837 343.1 107.355 343.208 106.68C343.208 106.668 343.594 104.547 345.028 104.499C346.354 104.451 346.546 105.33 346.57 105.499C346.679 106.234 347.366 106.728 348.101 106.62C348.824 106.511 349.33 105.824 349.221 105.089C349.041 103.908 347.92 101.715 344.932 101.824C342.04 101.932 340.823 104.764 340.582 106.246C340.461 106.969 340.955 107.656 341.69 107.776C341.738 107.776 341.799 107.788 341.847 107.788L341.835 107.801Z" fill="black"/>
<path d="M339.184 95.0396C339.184 95.0396 340.413 93.7262 342.98 93.449C345.606 93.1719 347.908 94.7263 347.932 94.7384L349.45 92.5453C349.33 92.4609 346.317 90.4124 342.69 90.798C339.027 91.1836 337.232 93.196 337.159 93.2803L339.172 95.0396H339.184Z" fill="#041E21"/>
<path d="M319.145 111.343C319.844 111.38 320.458 110.849 320.53 110.138C320.53 110.054 320.784 108.042 322.145 107.981C323.471 107.909 323.82 108.873 323.904 109.162C324.097 109.861 324.808 110.307 325.519 110.114C326.23 109.934 326.664 109.235 326.495 108.524C326.218 107.367 324.929 105.186 322.037 105.306C319.084 105.415 318.012 108.343 317.867 109.861C317.795 110.596 318.325 111.247 319.06 111.319C319.084 111.319 319.109 111.319 319.133 111.319L319.145 111.343Z" fill="black"/>
<path d="M319.06 99.8597C319.06 99.8597 319.916 98.2691 322.314 97.3413C324.772 96.3893 327.411 97.2931 327.435 97.3051L328.339 94.7867C328.194 94.7385 324.772 93.5335 321.362 94.8349C317.928 96.1604 316.711 98.5583 316.662 98.6668L319.06 99.8477V99.8597Z" fill="#041E21"/>
<path d="M344.666 118.995C339.955 118.055 335.34 113.838 335.689 106.571C336.026 99.4619 340.822 95.7987 345.413 95.3167H345.425C345.63 95.3047 350.354 94.907 353.921 97.9677C356.162 99.8837 357.415 102.703 357.644 106.342C357.897 110.319 356.511 113.85 353.728 116.272C351.8 117.959 349.306 118.983 346.932 119.128C346.148 119.176 345.389 119.128 344.654 118.983L344.666 118.995ZM345.606 97.2448C340.377 97.787 337.822 102.366 337.617 106.668C337.412 111.078 339.617 116.019 345.04 117.103C347.414 117.585 350.33 116.681 352.463 114.826C354.101 113.392 355.993 110.777 355.716 106.475C355.523 103.39 354.499 101.016 352.68 99.4499C349.884 97.0399 346.028 97.2207 345.63 97.2448H345.606Z" fill="#022326"/>
<path d="M317.542 120.718C312.83 119.778 308.215 115.561 308.565 108.295C308.902 101.185 313.698 97.5218 318.289 97.0398H318.301C318.506 97.0157 323.241 96.6301 326.808 99.6908C329.05 101.607 330.303 104.426 330.532 108.066C330.785 112.042 329.399 115.573 326.615 117.995C324.687 119.682 322.193 120.706 319.819 120.851C319.036 120.899 318.277 120.851 317.542 120.706V120.718ZM318.482 98.9678C313.252 99.5101 310.697 104.089 310.493 108.391C310.288 112.801 312.493 117.742 317.915 118.826C320.289 119.308 323.205 118.404 325.338 116.549C326.977 115.115 328.869 112.5 328.592 108.198C328.399 105.113 327.375 102.752 325.555 101.173C322.759 98.763 318.903 98.9437 318.506 98.9678H318.482Z" fill="#022326"/>
<path d="M336.016 106.074L329.198 106.508L329.32 108.432L336.138 107.998L336.016 106.074Z" fill="#022326"/>
<path d="M335.388 340.281C297.479 338.558 268.053 306.312 269.776 268.403C271.499 230.494 303.745 201.068 341.642 202.791C379.551 204.514 408.977 236.76 407.254 274.669C405.531 312.578 373.285 342.004 335.376 340.281H335.388ZM341.04 215.973C310.408 214.576 284.344 238.362 282.959 269.005C281.561 299.637 305.347 325.701 335.991 327.086C366.634 328.472 392.686 304.698 394.072 274.054C395.469 243.423 371.683 217.359 341.04 215.973Z" fill="#9AED66"/>
<path d="M272.15 239.507C273.873 232.988 280.416 223.975 288.959 223.673C294.695 223.468 299.672 227.903 299.166 232.904C299.166 232.904 302.757 234.313 302.202 237.989C300.551 248.834 295.972 246.604 295.972 246.604C295.972 246.604 296.093 247.448 294.743 248.063C293.683 248.545 292.418 248.063 292.418 248.063C292.418 248.063 294.093 250.376 293.189 252.316C292.249 254.365 290.466 255.1 290.466 255.1C290.466 255.1 290.695 256.63 288.248 257.787C285.561 259.052 281.814 255.883 280.476 254.955C280.03 254.642 279.428 259.317 279.307 263.005C271.897 261.33 268.113 254.75 272.138 239.507H272.15Z" fill="#CD9F6F"/>
<path d="M290.646 243.616C288.803 241.905 285.067 240.134 284.645 239.941C283.826 239.567 282.862 239.917 282.476 240.724C282.091 241.544 282.452 242.508 283.26 242.893C284.272 243.363 287.176 244.845 288.417 246.002C289.562 247.063 291.092 249.051 291.104 249.063C291.405 249.46 291.863 249.677 292.321 249.701C292.695 249.713 293.068 249.605 293.382 249.364C294.093 248.822 294.225 247.798 293.683 247.075C293.611 246.978 291.972 244.857 290.622 243.604L290.646 243.616Z" fill="#BC9068"/>
<path d="M288.706 250.666C285.597 247.942 281.464 247.725 281.283 247.713C280.392 247.677 279.633 248.364 279.584 249.256C279.536 250.147 280.235 250.919 281.127 250.967C281.163 250.967 284.32 251.16 286.549 253.112C287.694 254.112 289.164 256.1 289.188 256.124C289.489 256.534 289.947 256.763 290.429 256.787C290.791 256.799 291.152 256.703 291.466 256.474C292.189 255.943 292.345 254.919 291.803 254.196C291.731 254.1 290.104 251.907 288.694 250.666H288.706Z" fill="#BC9068"/>
<path d="M300.768 233.121C300.889 232.229 300.262 231.41 299.358 231.289C298.491 231.169 297.647 231.795 297.527 232.699C297.43 233.446 297.057 235.675 296.479 237.145C294.261 233.759 289.875 230.699 289.261 230.289C288.513 229.783 287.501 229.976 286.995 230.711C286.489 231.458 286.682 232.47 287.417 232.976C289.923 234.687 294.069 238.242 294.466 240.483C295.057 243.749 294.382 246.111 294.37 246.135C294.105 246.99 294.587 247.906 295.454 248.171C295.587 248.207 295.719 248.231 295.864 248.243C296.587 248.28 297.274 247.822 297.491 247.087C297.527 246.978 298.262 244.436 297.804 240.857C298.346 240.339 299.021 239.531 299.467 238.399C300.322 236.254 300.72 233.241 300.732 233.121H300.768Z" fill="#BC9068"/>
<path d="M411.062 245.725C409.941 239.073 404.242 229.505 395.758 228.433C390.059 227.71 384.709 231.674 384.757 236.699C384.757 236.699 381.045 237.772 381.274 241.483C381.937 252.425 386.697 250.629 386.697 250.629C386.697 250.629 386.504 251.461 387.781 252.184C388.794 252.75 390.095 252.4 390.095 252.4C390.095 252.4 388.227 254.557 388.938 256.57C389.697 258.691 391.396 259.582 391.396 259.582C391.396 259.582 391.023 261.089 393.36 262.462C395.927 263.968 399.94 261.149 401.35 260.353C401.832 260.088 402 264.8 401.783 268.475C409.315 267.487 413.677 261.269 411.062 245.725Z" fill="#CD9F6F"/>
<path d="M396.433 237.82C397.217 237.386 397.506 236.386 397.06 235.603C396.626 234.807 395.626 234.53 394.843 234.976C394.192 235.338 389.553 237.989 387.034 241.158C386.504 239.338 386.396 236.663 386.396 236.639C386.36 235.735 385.6 235.012 384.709 235.072C383.805 235.109 383.106 235.868 383.142 236.759C383.142 236.892 383.275 239.917 383.925 242.134C384.275 243.303 384.865 244.17 385.359 244.737C384.588 248.255 385.082 250.846 385.106 250.966C385.263 251.714 385.902 252.22 386.625 252.256C386.757 252.256 386.89 252.256 387.022 252.22C387.902 252.039 388.468 251.183 388.3 250.304C388.3 250.28 387.83 247.858 388.721 244.664C389.324 242.471 393.77 239.314 396.433 237.832V237.82Z" fill="#BC9068"/>
<path d="M391.3 253.509C391.3 253.509 393.023 251.653 394.252 250.701C395.59 249.665 398.614 248.46 399.663 248.074C400.506 247.773 400.952 246.833 400.651 245.99C400.35 245.146 399.422 244.712 398.566 245.002C398.132 245.158 394.252 246.58 392.264 248.11C390.806 249.231 388.986 251.207 388.902 251.292C388.288 251.954 388.336 252.979 388.998 253.593C389.288 253.87 389.661 254.015 390.035 254.027C390.505 254.051 390.963 253.87 391.312 253.509H391.3Z" fill="#BC9068"/>
<path d="M401.229 253.063C401.048 253.063 396.915 252.894 393.565 255.328C392.047 256.437 390.227 258.474 390.155 258.558C389.553 259.233 389.613 260.257 390.288 260.859C390.577 261.112 390.938 261.257 391.3 261.269C391.77 261.293 392.252 261.112 392.589 260.727C392.601 260.703 394.252 258.871 395.481 257.967C397.867 256.232 401.012 256.317 401.085 256.329C401.976 256.365 402.747 255.678 402.784 254.774C402.82 253.87 402.133 253.111 401.229 253.075V253.063Z" fill="#BC9068"/>
</g>
</g>
</g>
</g>
<defs>
<clipPath id="clip0_2_3348">
<rect y="0.699951" width="476" height="330.17" rx="8" fill="white"/>
</clipPath>
<clipPath id="clip1_2_3348">
<rect width="476" height="330.17" fill="white" transform="translate(0 0.699951)"/>
</clipPath>
<clipPath id="clip2_2_3348">
<rect width="475.975" height="330.17" fill="white" transform="translate(0.0124512 0.699951)"/>
</clipPath>
</defs>
</svg>
