<?xml version="1.0"?>
<svg width="76" height="48" xmlns="http://www.w3.org/2000/svg" xmlns:svg="http://www.w3.org/2000/svg">
 <defs>
  <clipPath id="clip0_2_4252">
   <rect fill="white" height="44" id="svg_1" rx="22" width="44" x="2" y="2"/>
  </clipPath>
  <clipPath id="clip1_2_4252">
   <rect fill="white" height="44" id="svg_2" transform="translate(2 2)" width="44"/>
  </clipPath>
  <clipPath id="clip2_2_4252">
   <rect fill="white" height="44" id="svg_3" transform="translate(2 2)" width="44"/>
  </clipPath>
 </defs>
 <g class="layer">
  <title>Layer 1</title>
  <path clip-rule="evenodd" d="m65.29,20.29c0.39,-0.39 1.03,-0.39 1.42,0c0.39,0.39 0.39,1.03 0,1.42l-6,6c-0.39,0.39 -1.03,0.39 -1.42,0l-6,-6c-0.39,-0.39 -0.39,-1.03 0,-1.42c0.39,-0.39 1.03,-0.39 1.42,0l5.29,5.3l5.29,-5.3z" fill="#1bba0d" fill-rule="evenodd" id="svg_4" transform="matrix(1 0 0 1 0 0)"/>
  <rect height="46" id="svg_5" rx="23" stroke="white" stroke-width="2" width="46" x="1" y="1"/>
  <g clip-path="url(#clip0_2_4252)" id="svg_6">
   <g clip-path="url(#clip1_2_4252)" id="svg_7">
    <g clip-path="url(#clip2_2_4252)" id="svg_8">
     <mask height="44" id="mask0_2_4252" maskUnits="userSpaceOnUse" width="44" x="2" y="2">
      <path d="m46,2l-44,0l0,44l44,0l0,-44z" fill="white" id="svg_9"/>
     </mask>
     <g id="svg_10" mask="url(#mask0_2_4252)">
      <path d="m24,46c12.15,0 22,-9.85 22,-22c0,-12.15 -9.85,-22 -22,-22c-12.15,0 -22,9.85 -22,22c0,12.15 9.85,22 22,22z" fill="#E6F7FE" id="svg_11"/>
      <path clip-rule="evenodd" d="m24,28.58c2.17,0 4.8,0.23 6.98,0.69c3.57,0.5 6.03,2.88 7.09,6.48c-3.36,4.02 -8.42,6.58 -14.07,6.58c-5.67,0 -10.73,-2.57 -14.09,-6.6c1.01,-3.48 3.37,-5.72 7.11,-6.46c2.18,-0.46 4.81,-0.69 6.98,-0.69zm0,-19.25c4.05,0 7.33,3.29 7.33,7.34l0,1.83c0,4.05 -3.28,7.33 -7.33,7.33c-4.05,0 -7.33,-3.28 -7.33,-7.33l0,-1.83c0,-4.05 3.28,-7.34 7.33,-7.34z" fill="#11aa06" fill-rule="evenodd" id="svg_12" stroke="#11aa06"/>
     </g>
    </g>
   </g>
  </g>
 </g>
</svg>