<svg width="294" height="43" viewBox="0 0 294 43" fill="none" xmlns="http://www.w3.org/2000/svg">
<path fill-rule="evenodd" clip-rule="evenodd" d="M6.97753 6.07676C5.49251 6.81926 4.89128 7.69084 4.89128 8.40578C4.89128 9.12071 5.49251 9.99229 6.97753 10.7348C8.41269 11.4524 10.4537 11.9203 12.7536 11.9203C15.0535 11.9203 17.0945 11.4524 18.5297 10.7348C20.0147 9.99229 20.6159 9.12071 20.6159 8.40578C20.6159 7.69084 20.0147 6.81926 18.5297 6.07676C17.0945 5.35916 15.0535 4.89128 12.7536 4.89128C10.4537 4.89128 8.41269 5.35916 6.97753 6.07676ZM6.23218 4.58604C7.94421 3.73003 10.251 3.22461 12.7536 3.22461C15.2562 3.22461 17.563 3.73003 19.275 4.58604C20.9372 5.41714 22.2825 6.71946 22.2825 8.40578C22.2825 8.42646 22.2824 8.44708 22.282 8.46763C22.2824 8.47826 22.2825 8.48894 22.2825 8.49968V14.2025C22.2825 14.7321 22.1499 15.2238 21.9164 15.675C23.4449 15.129 25.2852 14.8189 27.2459 14.8189C29.7484 14.8189 32.0552 15.3243 33.7672 16.1803C35.4294 17.0114 36.7747 18.3137 36.7747 20C36.7747 20.0367 36.7742 20.0732 36.7729 20.1095C36.7742 20.1284 36.7747 20.1472 36.7747 20.1664V25.7969C36.7747 25.8344 36.774 25.8719 36.7729 25.909C36.774 25.9282 36.7747 25.9475 36.7747 25.9672V31.5944C36.7747 33.2807 35.4295 34.583 33.7674 35.414C32.0554 36.27 29.7485 36.7754 27.2459 36.7754C24.743 36.7754 22.4362 36.27 20.7242 35.414C19.062 34.583 17.7169 33.2807 17.7169 31.5944V30.2417C16.2679 30.7122 14.5683 30.9779 12.7536 30.9779C10.2509 30.9779 7.94401 30.4725 6.23201 29.6165C4.56981 28.7855 3.22461 27.4832 3.22461 25.7969V20.1664C3.22461 20.1474 3.22526 20.1284 3.22651 20.1097C3.22526 20.0734 3.22461 20.0369 3.22461 20V14.3672C3.22461 14.3483 3.22524 14.3296 3.22648 14.311C3.22524 14.275 3.22461 14.2389 3.22461 14.2025V8.49968C3.22461 8.48894 3.22483 8.47826 3.22523 8.46763C3.22481 8.44708 3.22461 8.42646 3.22461 8.40578C3.22461 6.71946 4.56998 5.41714 6.23218 4.58604ZM35.108 22.98C34.7045 23.2982 34.2492 23.5787 33.7672 23.8197C32.0552 24.6757 29.7484 25.1812 27.2459 25.1812C24.7432 25.1812 22.4364 24.6757 20.7244 23.8197C20.2424 23.5787 19.787 23.2982 19.3835 22.98V25.7969C19.3835 26.5119 19.9847 27.3834 21.4695 28.1259C22.9047 28.8434 24.9457 29.3112 27.2459 29.3112C29.5459 29.3112 31.5869 28.8434 33.022 28.1259C34.5069 27.3834 35.108 26.5119 35.108 25.7969V22.98ZM17.7187 20.1095C17.7174 20.0732 17.7169 20.0367 17.7169 20C17.7169 19.4705 17.8495 18.9789 18.083 18.5277C16.5546 19.0735 14.7142 19.3837 12.7536 19.3837C10.2509 19.3837 7.94401 18.8784 6.23201 18.0224C5.75011 17.7814 5.29484 17.5009 4.89128 17.1829V20C4.89128 20.7152 5.49248 21.5867 6.97736 22.3292C8.41246 23.0467 10.4534 23.5145 12.7536 23.5145C14.652 23.5145 16.3646 23.1945 17.7169 22.6765V20.1664C17.7169 20.1472 17.7175 20.1284 17.7187 20.1095ZM33.7674 29.6165C34.2494 29.3757 34.7045 29.095 35.108 28.777V31.5944C35.108 32.3094 34.5069 33.1809 33.022 33.9234C31.5869 34.6409 29.5459 35.1087 27.2459 35.1087C24.9457 35.1087 22.9047 34.6409 21.4695 33.9234C19.9847 33.1809 19.3835 32.3094 19.3835 31.5944V28.777C19.787 29.095 20.2424 29.3757 20.7242 29.6165C22.4362 30.4725 24.743 30.9779 27.2459 30.9779C29.7485 30.9779 32.0554 30.4725 33.7674 29.6165ZM17.7169 25.7969C17.7169 25.8344 17.7175 25.8719 17.7189 25.909C17.7175 25.9282 17.7169 25.9475 17.7169 25.9672V28.4749C16.3659 28.9922 14.6524 29.3112 12.7536 29.3112C10.4534 29.3112 8.41246 28.8434 6.97736 28.1259C5.49248 27.3834 4.89128 26.5119 4.89128 25.7969V22.9804C5.29484 23.2984 5.75011 23.579 6.23201 23.8199C7.94401 24.6759 10.2509 25.1812 12.7536 25.1812C14.5689 25.1812 16.2678 24.9145 17.7169 24.4435V25.7969ZM19.275 12.2255C19.757 11.9845 20.2124 11.7039 20.6159 11.3858V14.2025C20.6159 14.9176 20.0147 15.7892 18.5299 16.5316C17.0947 17.2492 15.0538 17.717 12.7536 17.717C10.4534 17.717 8.41246 17.2492 6.97736 16.5316C5.49248 15.7892 4.89128 14.9176 4.89128 14.2025V11.3858C5.29489 11.7039 5.75021 11.9845 6.23218 12.2255C7.94421 13.0815 10.251 13.5869 12.7536 13.5869C15.2562 13.5869 17.563 13.0815 19.275 12.2255ZM19.3835 20C19.3835 19.285 19.9847 18.4135 21.4697 17.671C22.9049 16.9534 24.9459 16.4855 27.2459 16.4855C29.5457 16.4855 31.5867 16.9534 33.0219 17.671C34.5069 18.4135 35.108 19.285 35.108 20C35.108 20.7149 34.5069 21.5865 33.0219 22.329C31.5867 23.0467 29.5457 23.5145 27.2459 23.5145C24.9459 23.5145 22.9049 23.0467 21.4697 22.329C19.9847 21.5865 19.3835 20.7149 19.3835 20Z" fill="#6F8B90"/>
</svg>
