<svg width="476" height="321" viewBox="0 0 476 321" fill="none" xmlns="http://www.w3.org/2000/svg">
<g clip-path="url(#clip0_2_3253)">
<g clip-path="url(#clip1_2_3253)">
<path d="M87.5355 43.8091H388.464C391.544 43.8091 394.593 44.4156 397.437 45.5939C400.282 46.7723 402.867 48.4994 405.044 50.6767C407.222 52.8541 408.949 55.4389 410.127 58.2837C411.306 61.1285 411.912 64.1776 411.912 67.2567V215.052H64.0981V67.2567C64.0981 61.0398 66.5671 55.0774 70.9621 50.6804C75.3572 46.2834 81.3185 43.8118 87.5355 43.8091Z" fill="white"/>
<path d="M412.968 216.107H63.0325V66.3048C63.0379 60.0593 65.5206 54.0711 69.9359 49.654C74.3511 45.2368 80.3382 42.7515 86.5836 42.7433H389.416C395.662 42.7515 401.649 45.2368 406.064 49.654C410.479 54.0711 412.962 60.0593 412.968 66.3048V216.107ZM65.1951 213.986H410.805V66.3048C410.799 60.6229 408.54 55.1753 404.522 51.1576C400.505 47.1399 395.057 44.8804 389.375 44.8749H86.5836C80.9089 44.8913 75.4719 47.1557 71.4632 51.1722C67.4544 55.1887 65.2006 60.6301 65.1951 66.3048V213.986Z" fill="#054752"/>
<path d="M376.037 69.3365H166.353C156.518 69.3365 148.545 77.3072 148.545 87.1396C148.545 96.9719 156.518 104.943 166.353 104.943H376.037C385.872 104.943 393.845 96.9719 393.845 87.1396C393.845 77.3072 385.872 69.3365 376.037 69.3365Z" fill="#EDEDED"/>
<path d="M366.072 80.3671H200.811C197.067 80.3671 194.033 83.3992 194.033 87.1396C194.033 90.8799 197.067 93.9121 200.811 93.9121H366.072C369.815 93.9121 372.85 90.8799 372.85 87.1396C372.85 83.3992 369.815 80.3671 366.072 80.3671Z" fill="#F53F5B"/>
<path fill-rule="evenodd" clip-rule="evenodd" d="M151.701 54.198C153.006 54.9861 154.1 56.0799 154.888 57.3851L186.407 109.92C187.676 112.036 188.053 114.57 187.455 116.964C186.857 119.358 185.334 121.417 183.22 122.689C181.77 123.552 180.116 124.009 178.429 124.013H115.391C113.745 124.011 112.13 123.572 110.709 122.742C109.287 121.912 108.112 120.72 107.301 119.288C106.49 117.856 106.073 116.235 106.093 114.589C106.113 112.943 106.568 111.332 107.413 109.92L138.932 57.3851C140.204 55.2706 142.263 53.7473 144.657 53.1498C147.051 52.5522 149.585 52.9292 151.701 54.198Z" fill="#F53F5B"/>
<path fill-rule="evenodd" clip-rule="evenodd" d="M151.08 59.9823C152.212 60.6644 153.161 61.6128 153.843 62.7451L181.088 108.161C181.824 109.38 182.223 110.773 182.243 112.197C182.263 113.621 181.904 115.025 181.202 116.265C180.501 117.504 179.482 118.535 178.251 119.251C177.02 119.967 175.621 120.343 174.197 120.34H119.665C118.244 120.336 116.849 119.955 115.623 119.237C114.396 118.519 113.382 117.488 112.684 116.25C111.986 115.012 111.628 113.612 111.647 112.191C111.667 110.77 112.062 109.379 112.794 108.161L140.05 62.7451C140.592 61.8393 141.308 61.0494 142.156 60.4203C143.005 59.7913 143.968 59.3355 144.993 59.0789C146.017 58.8224 147.082 58.7701 148.126 58.9251C149.171 59.0801 150.174 59.4393 151.08 59.9823ZM142.802 64.4007L115.557 109.816C115.102 110.565 114.862 111.424 114.864 112.3C114.864 112.934 114.989 113.562 115.232 114.147C115.475 114.733 115.831 115.265 116.279 115.713C116.728 116.161 117.261 116.516 117.847 116.758C118.434 116.999 119.062 117.123 119.696 117.122H174.197C175.071 117.119 175.928 116.884 176.68 116.439C177.775 115.777 178.563 114.71 178.873 113.469C179.183 112.228 178.99 110.915 178.336 109.816L151.08 64.4007C150.677 63.7179 150.107 63.1484 149.424 62.7451C148.881 62.4183 148.279 62.2019 147.652 62.1083C147.024 62.0146 146.385 62.0456 145.77 62.1994C145.155 62.3531 144.576 62.6267 144.067 63.0045C143.557 63.3822 143.128 63.8567 142.802 64.4007ZM146.941 101.652C147.516 101.652 148.078 101.823 148.556 102.142C149.035 102.462 149.407 102.916 149.627 103.447C149.847 103.978 149.905 104.563 149.793 105.127C149.681 105.691 149.404 106.209 148.997 106.616C148.59 107.022 148.072 107.299 147.508 107.412C146.944 107.524 146.36 107.466 145.828 107.246C145.297 107.026 144.843 106.653 144.523 106.175C144.204 105.697 144.033 105.135 144.033 104.56C144.033 103.789 144.34 103.049 144.885 102.504C145.43 101.958 146.17 101.652 146.941 101.652ZM146.941 78.1837C147.688 78.1837 148.403 78.4802 148.931 79.0081C149.459 79.5359 149.756 80.2518 149.756 80.9982C149.756 80.9982 149.756 81.1017 149.756 81.1535L148.897 96.4472C148.897 96.9577 148.694 97.4472 148.333 97.8082C147.972 98.1691 147.483 98.3719 146.972 98.3719C146.462 98.3719 145.972 98.1691 145.611 97.8082C145.25 97.4472 145.047 96.9577 145.047 96.4472L144.158 81.1535C144.115 80.4128 144.368 79.6856 144.86 79.1309C145.353 78.5763 146.045 78.2394 146.786 78.1941L146.941 78.1837Z" fill="white"/>
<path d="M65.2881 138.365H411.902V140.487H65.2881V138.365Z" fill="#054752"/>
<path d="M87.7736 80.7811C93.0541 80.7811 97.3348 76.5004 97.3348 71.2199C97.3348 65.9394 93.0541 61.6587 87.7736 61.6587C82.4931 61.6587 78.2124 65.9394 78.2124 71.2199C78.2124 76.5004 82.4931 80.7811 87.7736 80.7811Z" fill="#054752"/>
<path d="M83.4377 76.6523C83.2991 76.6531 83.1617 76.626 83.0337 76.5727C82.9057 76.5194 82.7897 76.4409 82.6927 76.3418C82.5909 76.2452 82.5099 76.1288 82.4545 75.9998C82.3992 75.8709 82.3706 75.732 82.3706 75.5916C82.3706 75.4513 82.3992 75.3124 82.4545 75.1834C82.5099 75.0545 82.5909 74.9381 82.6927 74.8414L91.3536 66.1805C91.5526 65.9815 91.8224 65.8698 92.1038 65.8698C92.3852 65.8698 92.6551 65.9815 92.854 66.1805C93.053 66.3795 93.1648 66.6493 93.1648 66.9307C93.1648 67.2121 93.053 67.4819 92.854 67.6809L84.1931 76.3418C84.0948 76.4421 83.9772 76.5214 83.8473 76.5747C83.7175 76.6281 83.5781 76.6545 83.4377 76.6523Z" fill="white"/>
<path d="M92.0989 76.6523C91.9585 76.6545 91.8191 76.6281 91.6893 76.5747C91.5594 76.5214 91.4418 76.4421 91.3435 76.3418L82.6826 67.6809C82.4836 67.4819 82.3718 67.2121 82.3718 66.9307C82.3718 66.6493 82.4836 66.3795 82.6826 66.1805C82.8815 65.9815 83.1514 65.8698 83.4328 65.8698C83.7142 65.8698 83.984 65.9815 84.183 66.1805L92.8439 74.8414C92.9457 74.9381 93.0267 75.0545 93.0821 75.1834C93.1374 75.3124 93.166 75.4513 93.166 75.5916C93.166 75.732 93.1374 75.8709 93.0821 75.9998C93.0267 76.1288 92.9457 76.2452 92.8439 76.3418C92.7469 76.4409 92.6309 76.5194 92.5029 76.5727C92.3749 76.626 92.2375 76.6531 92.0989 76.6523Z" fill="white"/>
<path d="M377.237 162.134H91.1881C87.4449 162.134 84.4104 165.166 84.4104 168.906C84.4104 172.647 87.4449 175.679 91.1881 175.679H377.237C380.98 175.679 384.015 172.647 384.015 168.906C384.015 165.166 380.98 162.134 377.237 162.134Z" fill="#EDEDED"/>
<path d="M224.175 186.037H91.1881C87.4449 186.037 84.4104 189.069 84.4104 192.809C84.4104 196.55 87.4449 199.582 91.1881 199.582H224.175C227.919 199.582 230.953 196.55 230.953 192.809C230.953 189.069 227.919 186.037 224.175 186.037Z" fill="#EDEDED"/>
</g>
</g>
<defs>
<clipPath id="clip0_2_3253">
<rect y="0.0800781" width="476" height="258.69" rx="8" fill="white"/>
</clipPath>
<clipPath id="clip1_2_3253">
<rect width="476" height="258.69" fill="white" transform="translate(0 0.0800781)"/>
</clipPath>
</defs>
</svg>
