<?xml version="1.0"?>
<svg width="476" height="332" xmlns="http://www.w3.org/2000/svg" xmlns:svg="http://www.w3.org/2000/svg">
 <defs>
  <clipPath id="clip0_2_2942">
   <rect fill="white" height="331.08" id="svg_1" rx="8" width="476"/>
  </clipPath>
  <clipPath id="clip1_2_2942">
   <rect fill="white" height="331.08" id="svg_2" width="476"/>
  </clipPath>
  <clipPath id="clip2_2_2942">
   <rect fill="white" height="331.08" id="svg_3" transform="translate(0.00634766)" width="475.99"/>
  </clipPath>
 </defs>
 <g class="layer">
  <title>Layer 1</title>
  <g clip-path="url(#clip0_2_2942)" id="svg_4">
   <g clip-path="url(#clip1_2_2942)" id="svg_5">
    <g clip-path="url(#clip2_2_2942)" id="svg_6">
     <path d="m0.01,-1.44l475.98,0l0,333l-475.98,0l0,-333z" fill="#1a8711" id="svg_7"/>
     <path d="m140.31,61.9c-4,1.97 -7.55,4.73 -10.44,8.12c-2.9,3.39 -5.07,7.33 -6.39,11.59c-1.32,4.26 -1.76,8.74 -1.29,13.17c0.47,4.43 1.83,8.72 4.01,12.61c31,56.33 119,202.48 166.02,139.43c120.53,-161.79 -76.77,-219.37 -151.91,-184.92z" fill="white" id="svg_8" opacity="0.25"/>
     <path d="m231.09,137.81c-3.55,-1.06 -5.28,3.07 -5.28,3.07c-3.5,9.38 -5.92,19.14 -7.19,29.07l0,2.5c0,0 0.38,1.82 2.11,1.34c0.96,-0.19 2.11,-3.26 2.11,-3.26c16.98,-32.53 10.84,-31.96 8.35,-32.63l-0.1,-0.09zm-13.43,43.08c0,-0.09 -0.68,1.92 -1.35,2.69c-0.09,0.19 0,1.44 -0.48,2.3l0.48,1.64c0.19,0.57 -0.29,1.05 -0.29,1.05l-1.92,-2.69l0.39,-2.68l0.19,-3.17c0,0 0.77,-0.67 1.92,-0.38c0.96,0.29 1.06,1.15 1.06,1.24z" fill="#F9CCB2" id="svg_9"/>
     <path d="m221.01,180.7l0.48,-2.3c0.58,-1.92 0.29,-5.76 0.58,-6.72c0.19,-0.86 0.48,-2.11 -1.06,-2.59c-1.82,-0.58 -2.2,1.54 -2.2,1.54l-0.58,1.72c-0.57,1.44 -2.88,5.19 -3.55,7.39c0,0 0.19,1.25 1.15,1.44c1.15,0.39 1.92,-0.67 1.92,-0.67c0.19,-0.19 0.38,-0.57 0.87,-0.57c0.67,0.28 0.95,0.95 0.95,1.43c-0.48,1.92 -0.38,2.02 0,2.31c0.1,-0.19 1.16,-2.11 1.44,-2.98z" fill="#F9CCB2" id="svg_10"/>
     <path d="m217.85,180.03c0,0 -0.29,1.92 -0.77,2.69c-0.1,0.29 0.19,1.44 0,2.4l0.86,1.44c0.29,0.57 -0.19,1.05 -0.19,1.05l-2.4,-2.2l-0.29,-2.6l-0.38,-3.07c0,0 0.58,-0.96 1.82,-0.77c0.77,0 1.35,0.97 1.35,0.97l0,0.09zm24.76,-49.52l-10.18,19.48l-8.44,-1.92c-0.1,-1.44 -0.1,-1.63 0.57,-4.12c2.42,-6.69 5.99,-12.89 10.56,-18.33c0.38,-0.58 5.95,3.93 7.49,4.8m28.5,-0.29c3.74,-0.67 4.8,3.65 4.8,3.65c2.2,8.15 4.03,23.99 3.64,29.75l-0.38,2.49c0,0 -0.48,1.73 -2.21,1.05c-0.86,-0.28 -1.73,-3.45 -1.73,-3.45c-12.76,-34.36 -6.71,-33.11 -4.12,-33.59l0,0.1zm8.06,44.43c0,-0.19 0.48,1.92 0.96,2.69c0.1,0.29 0,1.53 0.19,2.4l-0.67,1.63c-0.29,0.57 0.19,1.05 0.19,1.05l2.21,-2.39l0,-2.79l0.19,-3.07c0,0 -0.67,-0.86 -1.92,-0.67c-0.96,0.19 -1.15,1.06 -1.15,1.15z" fill="#F9CCB2" id="svg_11"/>
     <path d="m275.91,173.89c-0.2,-0.58 -0.2,-1.92 -0.29,-2.3c-0.29,-1.92 0.48,-5.76 0.29,-6.72c-0.1,-0.96 -0.2,-2.21 1.44,-2.5c1.82,-0.28 1.91,1.92 1.91,1.92l0.39,1.73c0.38,1.44 2.11,5.37 2.59,7.68c0,0 -0.29,1.24 -1.25,1.34c-1.24,0.19 -1.92,-0.96 -1.92,-0.96c-0.09,-0.19 -0.19,-0.67 -0.67,-0.58c-0.77,0.1 -1.25,0.68 -1.15,1.25c0.29,1.92 0.1,2.02 -0.38,2.21c0,-0.1 -0.77,-2.11 -0.96,-3.07z" fill="#F9CCB2" id="svg_12"/>
     <path d="m279.07,173.6c0,0 0.1,1.92 0.39,2.88c0.09,0.19 -0.29,1.34 -0.2,2.3l-1.05,1.35c-0.38,0.48 0,0.96 0,0.96l2.69,-1.73l0.57,-2.69l0.77,-2.88c0,0 -0.48,-0.96 -1.63,-1.05c-0.77,0 -1.54,0.76 -1.54,0.86zm-18.42,-52.2l7.67,20.63l8.64,-0.87c0.19,-1.44 0.29,-1.63 0,-4.22c-1.15,-6.72 -4.8,-13.63 -8.35,-19.48c-0.29,-0.57 -6.33,3.26 -7.96,3.84" fill="#F9CCB2" id="svg_13"/>
     <path d="m257.19,261.99c-0.67,-0.58 -1.24,-0.29 -1.24,0.76c0,0.96 -0.58,1.15 -1.06,1.15c-2.21,0.2 -2.4,-0.86 -2.4,-0.86c0,0 -1.15,3.65 0.58,4.03l5.28,0.67c2.49,0.29 4.79,0.68 4.98,-0.57c0,-0.67 -2.11,-1.54 -3.83,-2.98l-2.31,-2.2zm-113.33,-85.41c0.19,-1.44 0.29,-2.02 0.57,-1.92c0.29,0 0.29,0.67 0.29,1.53c0,1.06 0.58,1.54 1.25,1.54l0,-2.5l-0.1,-1.92l0.1,-2.11c1.53,-8.25 4.8,-18.14 5.76,-19.86c1.24,-2.5 2.11,-12.77 2.11,-12.77l-7.1,-1.91c-0.48,1.15 -2.21,7.38 -2.88,9.59c-1.99,6.33 -3.28,12.87 -3.84,19.48l0,1.92c-0.29,2.21 -1.34,4.51 -1.54,6.91l-0.38,4.03c0.1,0.29 0.58,0.19 0.67,-0.29l0.58,-2.68l0.29,0l-0.39,3.55c0,0.86 0,1.44 0.39,1.53c0.38,0 0.57,-1.44 0.76,-2.68c0,-0.87 0.1,-1.64 0.19,-1.64c0.1,-0.19 0.29,0 0.29,0.1l-0.19,3.07l0,1.35l0.38,0.19c0.96,0.09 0.68,-3.27 1.06,-4.42c0,-0.19 0.29,-0.19 0.29,0c0,0.48 -0.39,3.07 -0.39,4.23c0,0.67 0.97,0.95 1.06,0c0.38,-1.54 0.58,-3.27 0.77,-4.32z" fill="#FFCCC1" id="svg_14"/>
     <path d="m156.24,140.49l5.95,-16.31l-2.11,-1.06l4.99,-22.26c0,0 -7.1,0.96 -10.08,3.93c-4.8,4.8 -7,13.25 -7.68,15.93c-2.06,6.03 -3.16,12.35 -3.26,18.72" fill="#4FACAE" id="svg_15"/>
     <g id="svg_16" opacity="0.24">
      <mask height="43" id="mask0_2_2942" maskUnits="userSpaceOnUse" width="11" x="145" y="121">
       <path d="m145.87,121.49l9.98,0l0,41.84l-9.98,0l0,-41.84z" fill="white" id="svg_17"/>
      </mask>
      <g id="svg_18" mask="url(#mask0_2_2942)">
       <path d="m147.79,129.84c0.29,-2.49 5.38,-8.35 5.38,-8.35l2.78,0.67l-2.21,19.1l-7.2,-0.77c0,0 0,-0.96 1.16,-10.65" fill="#A13F60" id="svg_19"/>
      </g>
     </g>
     <path d="m200.38,114.87l-11.61,49.04l-2.11,0l-33.59,-1.06l4.13,-37.04l0.48,-4.41l0.19,-1.44l0.29,-2.88l0.67,-6.72l0.96,-8.16l0.19,0l8.64,-2.2l5.08,-1.25l4.42,0.96c8.34,2.15 16.03,6.34 22.36,12.19l-0.1,2.87l0,0.1z" fill="#4FACAE" id="svg_20"/>
     <path d="m182.34,100.76c0,0 -4.03,5.86 -11.61,4.8c-7.58,-0.96 -1.15,-5.76 -1.15,-5.76l4.22,-1.24l8.64,2.2l-0.1,0z" fill="#FFCCC1" id="svg_21"/>
     <path d="m169.19,171.78c2.88,7.96 3.36,15.35 2.69,21.88c-0.71,7.41 -2.93,14.59 -6.53,21.11l-0.76,1.25c0,0 -11.9,1.15 -12.09,-3.17l-0.68,-41.55c1.54,-0.19 16.7,0.96 17.37,0.38" fill="#162D38" id="svg_22"/>
     <path d="m189.35,170.82c0.76,5.18 0.57,8.25 1.91,21.88c0.58,7.68 0.58,20.15 0.58,20.15c0,0 -12,2.59 -12.67,1.44c-5.18,-8.83 -13.53,-43.66 -13.53,-43.66c1.44,-0.48 23.23,0.76 23.71,0.09" fill="#162D38" id="svg_23"/>
     <path d="m189.15,163.62c0,0 1.25,13.24 0.48,16.89c-0.86,3.74 -16.22,6.81 -20.15,5.09c-0.57,-0.29 -17.75,-13.44 -17.75,-13.44l1.73,-10.07l35.69,1.53z" fill="#162D38" id="svg_24"/>
     <path d="m194.14,262.56c-0.96,-0.67 -1.72,-0.29 -1.63,1.15c0,1.25 -0.67,1.54 -1.34,1.63c-2.88,0.48 -3.26,-0.96 -3.26,-0.96c0,0 -1.25,5.09 1.15,5.38c0.96,0.19 4.22,0.38 7.19,0.48c3.36,0.09 6.53,0.48 6.72,-1.35c0,-0.76 -2.97,-1.82 -5.47,-3.55l-3.36,-2.88" fill="#004553" id="svg_25"/>
     <path d="m193.47,264.67l-0.19,0l0,-0.29l1.54,-1.44l0.28,0l0,0.29l-1.63,1.44zm1.35,0.87l-0.29,0l0,-0.2l1.44,-1.44l0.28,0l0,0.29l-1.53,1.35m1.25,0.86l-0.19,0l0,-0.29l1.34,-1.25l0.29,0l0,0.2l-1.35,1.34m1.25,0.86l-0.29,0l0,-0.19l1.25,-1.34l0.29,0l0,0.29l-1.25,1.24z" fill="white" id="svg_26"/>
     <path d="m190.31,107.77c4.51,-1.73 8.44,0.57 10.17,5.09c1.73,4.5 0.67,9.5 -3.84,11.22c-1.08,0.42 -2.24,0.62 -3.4,0.59c-1.16,-0.03 -2.3,-0.29 -3.37,-0.76c-1.06,-0.47 -2.01,-1.15 -2.81,-1.99c-0.8,-0.85 -1.43,-1.84 -1.84,-2.92c-0.42,-1.07 -0.62,-2.2 -0.59,-3.35c0.02,-1.14 0.28,-2.26 0.74,-3.31c0.46,-1.04 1.13,-1.99 1.96,-2.77c0.83,-0.79 1.81,-1.4 2.88,-1.8" fill="#E0B2A8" id="svg_27"/>
     <path d="m157,261.79c0.97,-0.67 1.73,-0.38 1.73,1.15c0,1.25 0.68,1.44 1.35,1.54c2.88,0.29 3.26,-0.96 3.26,-0.96c0,0 1.44,4.8 -0.96,5.28l-7.1,0.86c-3.36,0.19 -6.53,0.77 -6.72,-1.05c0,-0.87 2.88,-1.92 5.18,-3.84l3.26,-2.88" fill="#004553" id="svg_28"/>
     <path d="m157.87,263.9l0.1,0l0,-0.28l-1.64,-1.35l-0.19,0l0,0.29l1.63,1.34l0.1,0zm-1.25,0.96l0.19,0l0,-0.28l-1.53,-1.35l-0.29,0l0,0.29l1.54,1.34l0.09,0zm-1.15,0.96l0,-0.28l-1.34,-1.25c0,-0.1 -0.19,-0.1 -0.19,0c-0.1,0 -0.1,0.19 0,0.19l1.34,1.25l0.09,0m-1.15,1.05l0.1,-0.09l0,-0.29l-1.25,-1.15l-0.29,0l0,0.19l1.25,1.25l0.19,0" fill="white" id="svg_29"/>
     <path d="m179.94,213.04c0,0 -1.92,9.31 -0.96,18.14c0.86,8.83 5.09,24.18 6.43,29.75l7.58,-0.48c0.19,-4.8 -1.15,-47.5 -1.15,-47.5l-11.9,0l0,0.09z" fill="#162D38" id="svg_30"/>
     <g id="svg_31" opacity="0.24">
      <mask height="5" id="mask1_2_2942" maskUnits="userSpaceOnUse" width="7" x="184" y="215">
       <path d="m184.64,215.73l5.38,0l0,4.22l-5.38,0l0,-4.22z" fill="white" id="svg_32"/>
      </mask>
      <g id="svg_33" mask="url(#mask1_2_2942)">
       <path d="m184.64,216.4l5.38,-0.67c0,0 -0.39,3.74 -1.92,4.13c-2.88,0.67 -3.46,-3.46 -3.46,-3.46z" fill="#A13F60" id="svg_34"/>
      </g>
     </g>
     <path d="m169.1,237.32c-0.1,-7.96 -3.84,-22.36 -3.84,-22.36l-12.76,-2.3c0,0 4.12,45.29 5.18,49.9l7.29,-0.96c1.92,-7.48 4.22,-19 4.13,-24.28z" fill="#162D38" id="svg_35"/>
     <g id="svg_36" opacity="0.24">
      <mask height="6" id="mask2_2_2942" maskUnits="userSpaceOnUse" width="8" x="154" y="219">
       <path d="m154.13,219.28l7.1,0l0,5.18l-7.1,0l0,-5.18z" fill="white" id="svg_37"/>
      </mask>
      <g id="svg_38" mask="url(#mask2_2_2942)">
       <path d="m154.03,219.95l7.1,-0.67c0,0 -1.05,5.09 -2.97,5.18c-3.17,0.29 -4.13,-4.51 -4.13,-4.51z" fill="#A13F60" id="svg_39"/>
      </g>
     </g>
     <g id="svg_40" opacity="0.24">
      <mask height="40" id="mask3_2_2942" maskUnits="userSpaceOnUse" width="9" x="163" y="175">
       <path d="m163.91,175.04l7.97,0l0,39.63l-7.97,0l0,-39.63z" fill="white" id="svg_41"/>
      </mask>
      <g id="svg_42" mask="url(#mask3_2_2942)">
       <path d="m169.19,175.04l2.69,18.62c-0.7,7.41 -2.93,14.59 -6.53,21.11c-4.79,-25.81 3.84,-39.73 3.84,-39.73z" fill="#A13F60" id="svg_43"/>
      </g>
     </g>
     <g id="svg_44" opacity="0.24">
      <mask height="11" id="mask4_2_2942" maskUnits="userSpaceOnUse" width="32" x="158" y="162">
       <path d="m158.73,162.56l31,0l0,9.98l-31,0l0,-9.98z" fill="white" id="svg_45"/>
      </mask>
      <g id="svg_46" mask="url(#mask4_2_2942)">
       <path d="m189.15,163.53l-30.42,-0.97c0,0 25.05,11.14 30.9,9.89c0.48,-0.1 -0.48,-8.92 -0.48,-8.92z" fill="#A13F60" id="svg_47"/>
      </g>
     </g>
     <path d="m206.72,138c2.68,0 4.99,2.21 4.99,4.89c0.01,0.99 -0.26,1.97 -0.8,2.8c-0.53,0.83 -1.31,1.49 -2.22,1.88c-0.91,0.39 -1.91,0.51 -2.89,0.32c-0.97,-0.18 -1.87,-0.64 -2.58,-1.34c-0.71,-0.69 -1.19,-1.58 -1.39,-2.55c-0.2,-0.97 -0.11,-1.98 0.27,-2.9c0.37,-0.92 1.01,-1.7 1.83,-2.25c0.83,-0.56 1.79,-0.85 2.79,-0.85z" fill="#FFCCC1" id="svg_48"/>
     <g id="svg_49" opacity="0.24">
      <mask height="30" id="mask5_2_2942" maskUnits="userSpaceOnUse" width="11" x="184" y="120">
       <path d="m184.84,120.05l9.78,0l0,29.46l-9.78,0l0,-29.46z" fill="white" id="svg_50"/>
      </mask>
      <g id="svg_51" mask="url(#mask5_2_2942)">
       <path d="m194.62,138.86l-7.29,-18.81c0,0 -7.87,17.28 4.32,29.46c0.19,0.29 2.88,-10.55 2.88,-10.55" fill="#A13F60" id="svg_52"/>
      </g>
     </g>
     <path d="m208.25,125.04c0,0 4.13,11.14 4.32,15.36l-11.8,1.92l-6.91,-9.22l-0.39,-0.48c-4,-4.94 -7.6,-10.2 -10.75,-15.73l-0.57,-15.94c0,0 20.25,4.13 26.2,24l-0.1,0.09z" fill="#4FACAE" id="svg_53"/>
     <path d="m168.14,88.86l10.55,0.1c0,0 1.63,4.8 1.44,13.72c0,0.39 -9.11,2.98 -9.11,2.98l-2.88,-16.8z" fill="#FFCCC1" id="svg_54"/>
     <path d="m165.07,80.23c0.28,0.57 0.57,1.34 0.57,1.82c0,0.96 -0.57,2.02 -0.57,2.59c0.19,4.7 -0.96,4.22 -0.48,5.95c0.29,1.25 1.92,1.34 4.7,1.92c2.01,0.38 7,-1.92 7.87,-2.21c3.84,-1.72 5.18,-9.11 5.18,-12.18c0,-6.34 -5.18,-7.11 -9.02,-6.43c-1.88,0.32 -3.64,1.15 -5.09,2.4c-2.2,1.91 -3.26,5.75 -3.07,6.14" fill="#FFCCC1" id="svg_55"/>
     <path d="m168.91,80.32c-0.2,-0.29 -1.83,-1.24 -3.36,-0.19l3.36,0.19z" fill="black" id="svg_56"/>
     <g id="svg_57">
      <mask height="2" id="mask6_2_2942" maskUnits="userSpaceOnUse" width="2" x="166" y="81">
       <path d="m166.7,81.47l1.05,0l0,1.06l-1.05,0l0,-1.06z" fill="white" id="svg_58"/>
      </mask>
      <g id="svg_59" mask="url(#mask6_2_2942)">
       <path d="m167.66,81.57c-0.05,-0.05 -0.11,-0.09 -0.18,-0.12c-0.06,-0.02 -0.14,-0.04 -0.21,-0.04c-0.07,0 -0.14,0.02 -0.2,0.04c-0.07,0.03 -0.13,0.07 -0.18,0.12c-0.05,0.05 -0.09,0.11 -0.12,0.18c-0.02,0.06 -0.04,0.13 -0.04,0.2c0,0.08 0.02,0.15 0.04,0.21c0.03,0.07 0.07,0.13 0.12,0.18c0.09,0.1 0.21,0.16 0.35,0.17c0.14,0.01 0.27,-0.03 0.37,-0.12c0.1,-0.09 0.16,-0.22 0.17,-0.35c0.01,-0.14 -0.03,-0.27 -0.12,-0.37" fill="#004754" id="svg_60"/>
      </g>
     </g>
     <path d="m165.83,80.9c-0.76,2.21 -1.72,3.26 -1.92,4.13c-0.09,0.19 1.16,0.38 1.25,0.38l0.58,-4.51m8.44,11.9c-0.28,0 1.16,5.76 -4.12,7.39l-1.25,-7.78l5.37,0.29l0,0.1z" fill="#FFCCC1" id="svg_61"/>
     <path d="m164.88,77.06c0,0 4.41,-11.23 16.02,-4.89c5.28,2.87 3.26,10.94 -1.25,17.75c-0.09,0.1 -2.78,0.48 -3.45,-0.67c-0.86,-1.44 -1.06,-6.62 -1.06,-6.62l-2.97,0.67c0,0 -0.39,-3.74 -0.96,-3.84c-5.47,-1.54 -6.24,-2.4 -6.24,-2.4" fill="black" id="svg_62"/>
     <path d="m175.43,81.57c0,0 0.19,2.21 -0.86,2.59c-0.67,0.29 -1.35,0 -1.35,0c0,0 0.39,3.17 2.12,2.5c1.72,-0.68 0.09,-5.09 0.09,-5.09z" fill="#FFCCC1" id="svg_63"/>
     <path d="m173.32,82.34c0,0 0.96,-1.92 1.92,-1.15c0.77,0.76 0.48,2.88 -1.25,2.88c-0.96,0 -1.15,-0.29 -1.15,-0.29l0.48,-1.44z" fill="#FFCCC1" id="svg_64"/>
     <path d="m174.18,82.34c0,-0.29 0.48,-0.48 0.67,-0.19l0,0.28c0,0.2 0,0.39 -0.19,0.58c-0.19,0.19 -0.38,0.1 -0.48,0l0,-0.67zm-9.11,4.03c0,0 1.44,0.29 1.44,0.57c-0.1,0.48 -1.54,0.58 -1.54,0.58l0.1,-1.25l0,0.1z" fill="#FFCCC1" id="svg_65"/>
     <path d="m165.07,85.31c0,0 3.26,0.19 3.26,1.25l-3.26,-0.19l0,-0.96l0,-0.1z" fill="black" id="svg_66"/>
     <path d="m172.07,83.3c0.19,-0.1 0,6.33 -3.16,6.62c-3.27,0.19 -4.32,-0.29 -4.32,-0.29c0,0 -2.12,3.17 -1.25,3.84c0.86,0.86 5.18,1.92 7.29,0.38c4.9,-3.64 2.69,-11.51 2.69,-11.51l-1.25,0.96z" fill="black" id="svg_67"/>
     <path d="m211.13,164.1c-0.38,0.1 -0.58,0.58 -0.48,0.96l0.96,2.88l0.48,3.36c1.54,-0.39 1.54,0 2.97,-0.39l-0.57,-3.74l-0.19,-2.78c0,-0.48 -0.48,-1.15 -0.96,-0.96l-2.21,0.67z" fill="white" id="svg_68"/>
     <path d="m212.38,171.01c-0.48,0.1 -0.96,0.58 -0.96,1.15l-0.96,4.51c0,0.67 -0.29,1.73 -0.1,2.5l0,2.4c0,0.48 0.58,0.76 0.96,0.38c0.39,-0.38 0.48,-0.86 0.48,-1.63c0,-1.06 -0.09,-1.92 0.29,-2.11c0.29,0 0.38,0.76 0.77,2.49l0.96,5.57c0.28,1.15 1.24,0.77 1.24,0c0,-1.44 -0.67,-4.8 -0.57,-5.47c0,-0.19 0.19,-0.19 0.29,0c0.38,1.25 0.28,4.61 0.96,5.47c0.28,0.29 0.67,0.19 0.76,-0.19c0.2,-0.2 0.2,-0.58 0.2,-1.15l0,-0.39l-0.39,-3.93c0,-0.29 0,-0.39 0.19,-0.29l0.39,2.11c0.19,1.63 0.48,3.45 0.96,3.36c0.48,0 0.48,-0.86 0.38,-1.92c-0.19,-1.92 -0.67,-4.41 -0.57,-4.51c0,-0.1 0.19,-0.19 0.28,0c0,0.67 0.48,2.3 0.68,3.45c0.19,0.58 0.76,0.58 0.86,0.2c0,-1.16 -0.39,-3.46 -0.58,-5.09c-0.28,-2.69 -1.92,-4.22 -2.68,-6.53c-0.2,-0.57 -0.77,-0.96 -1.35,-0.96l-2.49,0.58zm-2.4,-6.05l-7.68,-19.86c-0.29,-0.58 0.29,-0.96 0.67,-0.67c1.83,1.82 4.03,3.84 5.86,2.69c0.31,-0.21 0.59,-0.48 0.8,-0.79c0.22,-0.32 0.37,-0.67 0.44,-1.04l0.77,-3.26l0,-0.29c0.1,-0.67 0.96,-0.67 1.15,0l3.36,22.07c0,0.1 0,0.29 -0.19,0.29l-4.8,0.96l-0.38,-0.1z" fill="#171B1E" id="svg_69"/>
     <path d="m230.71,200.95l2.68,30.52c0,0 5.38,1.53 7.49,0.67c2.88,-1.15 4.8,-31 4.8,-31l-14.97,-0.19z" fill="#E7C1A8" id="svg_70"/>
     <path d="m242.61,239.72c0.09,-4.6 -1.15,-10.94 -1.15,-10.94c0,0 -2.98,1.35 -4.13,1.54l-3.84,-0.77c0,0 -0.96,5.76 -1.06,10.27c-0.19,5.85 1.44,17.56 2.31,21.59l4.22,-3.65c1.25,-7.96 3.65,-13.72 3.65,-18.04z" fill="#E7C1A8" id="svg_71"/>
     <g id="svg_72" opacity="0.16">
      <mask height="5" id="mask7_2_2942" maskUnits="userSpaceOnUse" width="7" x="234" y="230">
       <path d="m234.45,230.13l6.14,0l0,4.6l-6.14,0l0,-4.6z" fill="white" id="svg_73"/>
      </mask>
      <g id="svg_74" mask="url(#mask7_2_2942)">
       <path d="m240.69,230.13c0,0 -1.35,2.87 -3.55,2.39c-0.96,-0.19 -2.69,-2.39 -2.69,-2.39c0,0 -0.38,4.5 3.45,4.5c2.6,0 2.79,-4.5 2.79,-4.5z" fill="#8D415F" id="svg_75"/>
      </g>
     </g>
     <path d="m238.96,257.19c0,0 1.34,4.22 1.15,6.24c-0.1,2.01 0.1,3.35 -2.21,2.97c-2.3,-0.29 -3.36,-3.26 -3.36,-3.26l0,-5.95l4.42,-0.1l0,0.1z" fill="#E7C1A8" id="svg_76"/>
     <path d="m240.21,262.46c0,0 1.25,6.15 -1.54,6.43c-3.26,0.39 -3.64,-0.67 -3.93,-2.39c-0.39,-1.83 0,-3.56 0,-3.56c0,0 0.19,1.54 1.25,1.54c1.91,0 3.64,0 3.83,-0.38c0.29,-0.39 0.39,-1.64 0.39,-1.64z" fill="#004553" id="svg_77"/>
     <path d="m247.41,186.56c1.34,4.03 3.93,11.61 5.75,15.54c0.58,1.15 1.92,1.92 3.17,1.83l1.73,-0.1c0.96,-0.1 1.92,-0.67 2.4,-1.54c1.44,-2.11 3.26,-7.67 3.26,-21.78c0,-2.5 -2.5,-4.03 -4.7,-2.88l-9.98,5.09c-0.68,0.35 -1.22,0.92 -1.51,1.62c-0.3,0.7 -0.34,1.49 -0.12,2.22z" fill="#D9BD98" id="svg_78"/>
     <path d="m255.27,203.45l3.84,-0.2l1.15,16.51l-3.83,0.29l-1.16,-16.6zm-2.3,54.7l1.25,-17.95l3.84,0.19l-1.16,18.04l-3.93,-0.28z" fill="white" id="svg_79"/>
     <path d="m255.65,254.94l-0.77,-0.06c-1.48,-0.1 -2.76,1.02 -2.87,2.5l-0.01,0.19c-0.11,1.48 1.01,2.76 2.49,2.87l0.77,0.05c1.48,0.1 2.76,-1.01 2.86,-2.49l0.02,-0.19c0.1,-1.49 -1.01,-2.77 -2.49,-2.87z" fill="#171B1E" id="svg_80"/>
     <path d="m258.56,202.95l-2.88,0.2c-0.68,0.05 -1.2,0.65 -1.15,1.33c0.04,0.69 0.64,1.21 1.33,1.16l2.87,-0.2c0.69,-0.05 1.21,-0.64 1.16,-1.33c-0.05,-0.69 -0.65,-1.21 -1.33,-1.16z" fill="#171B1E" id="svg_81"/>
     <path d="m258.44,262.75c-0.86,-0.76 -1.63,-0.38 -1.73,1.15c0,1.16 -0.67,1.35 -1.34,1.44c-2.88,0.29 -3.26,-1.05 -3.26,-1.05c0,0 -1.54,4.8 0.77,5.37c0.95,0.19 4.22,0.67 7.19,0.96c3.36,0.29 6.43,0.96 6.72,-0.96c0,-0.77 -2.88,-1.92 -5.09,-3.84l-3.26,-3.07z" fill="#004553" id="svg_82"/>
     <path d="m257.58,264.86l-0.2,0l0,-0.28l1.73,-1.35l0.29,0l0,0.29l-1.73,1.34m1.15,0.96l-0.19,0l0,-0.28l1.54,-1.25l0.29,0l0,0.19l-1.54,1.34m1.15,0.96l-0.19,0l0,-0.28l1.44,-1.25l0.19,0l0,0.29l-1.44,1.24zm1.15,1.92l-0.19,-0.09l0,-0.29l1.35,-1.15l0.19,0l0,0.28l-1.25,1.16" fill="white" id="svg_83"/>
     <path d="m257.48,241.45l-2.4,-0.19c-2.2,-0.1 -3.93,-1.92 -3.64,-3.84l1.24,-7.49l0,-0.48l-0.09,-7.67c0,-1.92 1.82,-3.46 4.12,-3.27l2.31,0.1c2.3,0.19 4.03,1.92 3.64,3.84l-1.24,7.58l0,0.48l0.19,7.68c0,1.91 -1.92,3.45 -4.13,3.26z" fill="#171B1E" id="svg_84"/>
     <path d="m249.04,118.71c-1.16,0.38 -8.07,0.96 -8.07,0.96c0,0 5.96,30.9 12.38,31.28c6.43,0.29 13.15,-33.01 13.15,-33.01l-17.46,0.77z" fill="#E7C1A8" id="svg_85"/>
     <path d="m236.85,111.13c-1.3,-0.33 -2.56,-0.81 -3.74,-1.44c-2.21,-1.25 -2.69,-4.03 -1.73,-6.05c1.63,-3.45 4.12,-2.01 7,-6.24c1.63,-2.39 5.76,-9.21 14.4,-9.11c8.83,0 12.86,6.72 14.39,9.11c2.88,4.32 5.38,2.88 7.01,6.34c0.96,2.01 0.48,4.8 -1.73,6.04c-1.21,0.64 -2.5,1.13 -3.84,1.44c-0.48,0.1 -1.15,0.48 -1.15,0.96c1.25,0.48 5.47,0.68 5.28,5.09c-0.29,5.56 -9.02,5.18 -11.52,4.51c-1.29,-0.31 -2.5,-0.91 -3.55,-1.74c-1.04,-0.82 -1.89,-1.87 -2.49,-3.06c-0.96,-1.82 -0.1,-0.09 -1.06,1.63c-1.34,2.4 -7.1,3.07 -9.79,3.17c-2.68,0 -11.22,0.96 -11.51,-4.61c-0.19,-4.41 4.03,-4.6 5.28,-4.99c0,-0.57 -0.68,-0.96 -1.25,-0.96" fill="#E9B455" id="svg_86"/>
     <mask height="28" id="mask8_2_2942" maskUnits="userSpaceOnUse" width="23" x="235" y="95">
      <path d="m235.7,99.04l15.35,-3.84l5.95,23.8l-15.35,3.83l-5.95,-23.79z" fill="white" id="svg_87"/>
     </mask>
     <g id="svg_88" mask="url(#mask8_2_2942)">
      <g id="svg_89">
       <path d="m241.07,113.43c0.5,-0.67 1.16,-1.2 1.92,-1.54c-1.6,-2.5 -2.15,-5.53 -1.53,-8.44c0.57,-2.88 2.39,-5.37 4.79,-7l-0.19,2.11c2.11,0 4.13,1.05 5.47,2.68c1.35,1.64 2.02,3.75 2.4,5.76c0.38,2.88 0.19,5.76 -0.48,8.64c-0.57,1.92 -0.86,2.69 -2.21,4.03c-2.2,2.11 -5.66,2.01 -8.44,0.77c-2.21,-1.06 -3.65,-4.61 -1.83,-7.01" fill="#FFE68A" id="svg_90"/>
      </g>
     </g>
     <path d="m248.36,108.83l8.83,0.38l3.27,19.19l-13.05,3.17l0.95,-22.74z" fill="#E7C1A8" id="svg_91"/>
     <g id="svg_92">
      <mask height="13" id="mask9_2_2942" maskUnits="userSpaceOnUse" width="14" x="245" y="107">
       <path d="m245.77,110.36l10.08,-2.59l2.21,8.73l-10.08,2.59l-2.21,-8.73z" fill="white" id="svg_93"/>
      </mask>
      <g id="svg_94" mask="url(#mask9_2_2942)">
       <path d="m256.9,112.28c-0.28,0 0,5.56 -8.92,6.53l0.38,-9.12l8.54,2.49l0,0.1z" fill="#E7C1A8" id="svg_95"/>
      </g>
     </g>
     <path d="m244.72,102.68c0.96,9.5 3.16,10.56 8.54,10.94c3.74,0.29 8.63,-4.89 8.63,-10.94c0,-6.04 -3.16,-10.94 -8.63,-10.94c-5.38,0 -9.21,4.99 -8.64,11.04" fill="#E7C1A8" id="svg_96"/>
     <path d="m259.5,101.44c-0.58,-0.68 -3.56,-0.96 -4.23,0l4.23,0zm-8.93,0.09c-0.96,-0.96 -4.13,-0.67 -4.6,0.19l4.6,-0.19z" fill="#E9B455" id="svg_97"/>
     <g id="svg_98">
      <mask height="2" id="mask10_2_2942" maskUnits="userSpaceOnUse" width="2" x="256" y="103">
       <path d="m256.43,103.36l1.15,-0.29l0.29,1.15l-1.16,0.29l-0.28,-1.15z" fill="white" id="svg_99"/>
      </mask>
      <g id="svg_100" mask="url(#mask10_2_2942)">
       <path d="m257.67,103.36c-0.06,-0.07 -0.13,-0.12 -0.22,-0.16c-0.08,-0.03 -0.17,-0.05 -0.26,-0.05c-0.09,0 -0.18,0.02 -0.26,0.05c-0.08,0.04 -0.15,0.09 -0.22,0.16c-0.08,0.14 -0.13,0.31 -0.13,0.47c0,0.17 0.05,0.34 0.13,0.48c0.29,0.2 0.67,0.2 0.96,0c0.09,-0.14 0.13,-0.31 0.13,-0.48c0,-0.16 -0.04,-0.33 -0.13,-0.47z" fill="#004754" id="svg_101"/>
      </g>
     </g>
     <g id="svg_102">
      <mask height="3" id="mask11_2_2942" maskUnits="userSpaceOnUse" width="2" x="247" y="102">
       <path d="m247.41,103.36l1.15,-0.39l0.28,1.25l-1.15,0.29l-0.28,-1.15z" fill="white" id="svg_103"/>
      </mask>
      <g id="svg_104" mask="url(#mask11_2_2942)">
       <path d="m248.56,103.36c-0.07,-0.07 -0.14,-0.12 -0.22,-0.16c-0.09,-0.03 -0.17,-0.05 -0.26,-0.05c-0.09,0 -0.18,0.02 -0.26,0.05c-0.09,0.04 -0.16,0.09 -0.22,0.16c-0.09,0.14 -0.13,0.31 -0.13,0.47c0,0.17 0.04,0.34 0.13,0.48c0.28,0.2 0.67,0.2 0.96,0c0.28,-0.28 0.28,-0.67 0,-0.95z" fill="#004754" id="svg_105"/>
      </g>
     </g>
     <path d="m261.13,106.14l1.25,0c0.28,0 0.57,-0.29 0.57,-0.58l0,-2.88c0,-0.38 -0.29,-0.67 -0.57,-0.67l-1.35,0c-0.29,0 -0.57,0.29 -0.57,0.58l0,2.88c0,0.38 0.28,0.67 0.57,0.67m-16.5,0l1.15,0c0.38,0 0.67,-0.29 0.67,-0.67l0,-2.88c0,-0.29 -0.29,-0.58 -0.67,-0.58l-1.15,0c-0.39,0 -0.68,0.29 -0.68,0.58l0,2.88c0,0.38 0.29,0.67 0.68,0.67z" fill="#E7C1A8" id="svg_106"/>
     <path d="m245.29,92.41c0.39,-1.05 1.35,-1.91 2.31,-2.39c1.58,-0.83 3.36,-1.19 5.14,-1.05c1.78,0.13 3.49,0.76 4.93,1.81l2.11,1.83c1.73,1.44 1.92,4.41 0.29,6.04c-1.72,1.54 -4.8,1.15 -5.95,-0.77c-0.38,-0.67 -0.57,-1.53 -1.05,-2.2c-0.58,-0.67 -1.54,-1.15 -2.21,-0.67c-0.58,0.48 -0.58,1.44 -0.96,2.11c-0.48,0.96 -1.92,1.05 -2.88,0.48c-0.9,-0.72 -1.52,-1.75 -1.73,-2.88c-0.23,-0.75 -0.23,-1.56 0,-2.31z" fill="#E9B455" id="svg_107"/>
     <g id="svg_108">
      <mask height="7" id="mask12_2_2942" maskUnits="userSpaceOnUse" width="6" x="249" y="100">
       <path d="m250,101.34l2.88,-0.67l1.24,5.18l-2.88,0.77l-1.24,-5.28z" fill="white" id="svg_109"/>
      </mask>
      <g id="svg_110" mask="url(#mask12_2_2942)">
       <path d="m250.57,103.55c0,3.64 3.55,2.3 3.55,2.3l-1.63,-0.67l0.19,-4.42c0,0 -1.92,0 -2.01,2.79" fill="#E7C1A8" id="svg_111"/>
      </g>
     </g>
     <path d="m258.92,117.27l-7.1,13.63c-1.92,-5.47 -3.84,-10.08 -3.84,-12.09c0,0 -12.86,0 -15.35,2.3c-1.92,1.63 3.36,27.83 3.45,40.88c0,4.03 3.93,9.21 7.97,9.5c14.2,0.86 17.27,1.82 18.13,-2.11c2.11,-9.02 7.68,-32.82 8.54,-41.75c0.87,-8.82 -1.24,-11.51 -11.9,-10.36l0.1,0z" fill="#ADEBFD" id="svg_112"/>
     <path d="m234.74,120.53c-3.27,-0.19 -7.87,7.97 -9.02,14.59l-1.44,9.79l14.78,0.96c0,0 6.81,-24.57 -4.32,-25.34z" fill="#ADEBFD" id="svg_113"/>
     <path d="m271.59,84.83c0,0 -0.1,0.2 -0.19,0l0.19,0z" fill="#E7C1A8" id="svg_114"/>
     <path d="m263.53,117.37c-3.17,0.76 -5.18,9.98 -4.32,16.5c0.4,3.31 0.88,6.6 1.44,9.89l17.66,-1.73c0,0 -3.94,-27.26 -14.88,-24.76" fill="#ADEBFD" id="svg_115"/>
     <path d="m264.2,161.41l2.59,23.9c0.38,4.32 0.96,8.64 1.73,12.95l3.07,16.7l-48.37,0l0,-4.03c0,-16.22 5.66,-34.35 12.86,-49.8c4.03,0.96 5.09,0.96 14.01,0.96c8.93,0 8.93,0 14.21,-0.58l-0.1,-0.1z" fill="#0A4752" id="svg_116"/>
     <g id="svg_117">
      <mask height="4" id="mask13_2_2942" maskUnits="userSpaceOnUse" width="5" x="250" y="107">
       <path d="m250.09,109.02l4.32,-1.16l0.38,1.54l-4.31,1.06l-0.39,-1.44z" fill="white" id="svg_118"/>
      </mask>
      <g id="svg_119" mask="url(#mask13_2_2942)">
       <path d="m254.7,109.02c-0.1,0.57 -2.21,0.57 -2.21,0.57c0,0 -2.11,0 -2.21,-0.57l4.42,0z" fill="#E7C1A8" id="svg_120"/>
      </g>
     </g>
     <path d="m80.33,126.87c-3.65,-0.96 -5.28,3.07 -5.28,3.07c-3.17,7.87 -7,23.32 -7.2,29.07l0,2.5c0,0 0.29,1.82 2.02,1.34c0.96,-0.19 2.21,-3.26 2.21,-3.26c16.89,-32.53 10.74,-31.96 8.25,-32.63l0,-0.09zm-13.44,43.08c0,-0.09 -0.76,1.92 -1.34,2.69c-0.19,0.19 -0.1,1.44 -0.58,2.3l0.58,1.64c0.19,0.57 -0.38,1.05 -0.38,1.05l-1.92,-2.69l0.38,-2.68l0.29,-3.17c0,0 0.67,-0.67 1.92,-0.38c0.96,0.29 0.96,1.15 0.96,1.24l0.09,0z" fill="#F9CCB2" id="svg_121"/>
     <path d="m70.16,169.76l0.57,-2.3c0.48,-1.82 0.19,-5.76 0.48,-6.62c0.29,-0.96 0.48,-2.21 -0.96,-2.69c-1.92,-0.48 -2.3,1.54 -2.3,1.54l-0.48,1.82c-0.67,1.34 -2.88,5.09 -3.55,7.29c0,0 0.1,1.25 1.05,1.54c0.36,0.08 0.72,0.06 1.06,-0.06c0.34,-0.12 0.64,-0.33 0.86,-0.61c0.2,-0.29 0.39,-0.67 0.96,-0.67c0.58,0.28 0.96,0.95 0.96,1.43c-0.57,1.92 -0.48,2.02 0,2.31l1.35,-2.88l0,-0.1z" fill="#F9CCB2" id="svg_122"/>
     <path d="m67.09,169.09c0,0 -0.39,1.92 -0.77,2.78c-0.19,0.2 0.19,1.44 0,2.31c-0.1,0.09 0.38,0.76 0.77,1.44c0.28,0.57 -0.1,1.05 -0.1,1.05l-2.49,-2.11l-0.2,-2.69l-0.38,-3.07c0,0 0.58,-0.96 1.73,-0.77c0.76,0 1.44,0.97 1.44,1.06zm24.76,-49.52l-10.27,19.48l-8.54,-1.92c0,-1.44 0,-1.63 0.57,-4.12c1.92,-6.53 6.53,-12.96 10.56,-18.33c0.48,-0.58 6.04,3.93 7.58,4.8m37.91,9.02c3.74,-0.96 5.18,3.26 5.18,3.26c2.69,7.96 5.75,23.7 5.66,29.46l-0.1,2.5c0,0 -0.48,1.72 -2.2,1.24c-0.87,-0.28 -1.92,-3.36 -1.92,-3.36c-15.26,-33.39 -9.22,-32.53 -6.62,-33.1zm11.22,43.66c0,-0.09 0.68,1.92 1.15,2.69c0.2,0.19 0,1.53 0.39,2.4l-0.58,1.63c-0.19,0.58 0.29,0.96 0.29,0.96l2.02,-2.5l-0.2,-2.78l0,-3.07c0,0 -0.76,-0.77 -1.92,-0.48c-1.05,0.19 -1.15,1.15 -1.15,1.15z" fill="#F9CCB2" id="svg_123"/>
     <path d="m137.62,171.78l-0.38,-2.31c-0.48,-1.91 0,-5.75 -0.29,-6.71c-0.19,-0.96 -0.39,-2.11 1.25,-2.5c1.82,-0.48 2.11,1.63 2.11,1.63l0.48,1.73c0.48,1.44 2.49,5.28 3.16,7.58c0,0 -0.19,1.25 -1.15,1.35c-1.24,0.28 -1.92,-0.77 -1.92,-0.77c-0.19,-0.29 -0.38,-0.67 -0.96,-0.58c-0.57,0.19 -0.96,0.77 -0.96,1.35c0.39,1.92 0.29,2.01 -0.19,2.2c0,-0.09 -0.96,-2.11 -1.15,-2.88l0,-0.09z" fill="#F9CCB2" id="svg_124"/>
     <path d="m140.69,171.3c0,0 0.29,1.92 0.67,2.78c0.1,0.19 -0.29,1.44 0,2.3c0,0.1 -0.67,0.77 -0.96,1.44c-0.38,0.48 0,0.96 0,0.96l2.6,-1.92l0.38,-2.68l0.57,-2.98c0,0 -0.57,-0.96 -1.72,-0.96c-0.87,0 -1.54,0.96 -1.54,0.96l0,0.1zm-22.17,-50.77l9.22,19.96l8.63,-1.44c0,-1.44 0.1,-1.63 -0.48,-4.22c-2.07,-6.78 -5.32,-13.15 -9.59,-18.81c-0.39,-0.57 -6.14,3.65 -7.68,4.51" fill="#F9CCB2" id="svg_125"/>
     <path d="m334.44,124.08l-0.48,-4.41l-0.19,-1.54l-0.28,-2.88l-0.77,-6.91l-0.87,-8.25l-0.28,0l-8.74,-2.21l-5.18,-1.24l-17.66,4.03l-10.17,9.02l0.77,3.26l11.8,49.81l2.11,-0.1l34.17,-0.96l-4.23,-37.62z" fill="#560E3B" id="svg_126"/>
     <path d="m308.82,98.65c0,0 4.13,5.95 11.81,4.99c7.67,-0.96 1.24,-5.95 1.24,-5.95l-4.22,-1.24l-8.83,2.2z" fill="#CC8F4D" id="svg_127"/>
     <path d="m322.26,170.72c-2.5,7.12 -3.44,14.7 -2.76,22.21c0.68,7.52 2.96,14.8 6.69,21.36l0.67,1.34c0,0 12.09,1.15 12.29,-3.16l0.67,-42.23c-1.54,-0.09 -16.99,0.96 -17.66,0.48" fill="#004754" id="svg_128"/>
     <path d="m301.82,169.67c-0.96,5.27 -0.68,8.44 -1.92,22.36c-0.67,7.67 -0.67,20.44 -0.67,20.44c0,0 12.18,2.59 12.85,1.44c5.28,-9.02 13.73,-44.34 13.73,-44.34c-1.44,-0.48 -23.51,0.77 -23.99,0.1z" fill="#004754" id="svg_129"/>
     <path d="m302.01,162.47c0,0 -1.25,13.43 -0.48,17.08c0.86,3.84 16.41,7.01 20.44,5.18c0.58,-0.19 17.95,-13.62 17.95,-13.62l-1.64,-10.18l-36.27,1.54z" fill="#004754" id="svg_130"/>
     <path d="m296.92,262.85c0.96,-0.67 1.73,-0.29 1.63,1.25c0,1.24 0.68,1.53 1.35,1.63c2.88,0.48 3.36,-0.96 3.36,-0.96c0,0 1.24,5.08 -1.15,5.47c-1.06,0.09 -4.32,0.38 -7.39,0.48c-3.36,0 -6.63,0.38 -6.72,-1.44c0,-0.77 2.97,-1.83 5.47,-3.65l3.45,-2.88" fill="#004553" id="svg_131"/>
     <path d="m297.59,265.06l0.2,0l0,-0.29l-1.54,-1.54l-0.29,0l0,0.29l1.63,1.44m-1.24,0.96l0.19,0l0,-0.29l-1.54,-1.44l-0.19,0l0,0.29l1.44,1.44m-1.25,0.86l0.19,0l0,-0.28l-1.34,-1.35l-0.19,0l0,0.29l1.34,1.34zm-1.34,0.96l0.29,0l0,-0.29l-1.25,-1.34l-0.19,0l0,0.29l1.15,1.25" fill="white" id="svg_132"/>
     <path d="m307.48,119l-9.02,-6.14l-1.63,-1.06c-1.31,-0.91 -2.66,-1.78 -4.03,-2.59l-0.87,1.15c-5.83,8.53 -9.76,18.22 -11.51,28.41l-0.29,1.63c-0.1,0.63 -0.16,1.27 -0.19,1.92l9.21,4.31l11.9,-17.94l5.76,-8.64l0.57,-0.96l0.1,-0.09z" fill="#E0B2A8" id="svg_133"/>
     <path d="m300.76,105.75c-1.09,-0.41 -2.26,-0.61 -3.44,-0.57c-1.17,0.03 -2.32,0.3 -3.39,0.78c-1.07,0.48 -2.03,1.17 -2.84,2.02c-0.8,0.85 -1.43,1.86 -1.84,2.96c-0.6,2.14 -0.37,4.42 0.63,6.4c1.01,1.98 2.71,3.52 4.79,4.31c2.07,0.79 4.37,0.78 6.43,-0.03c2.07,-0.81 3.76,-2.36 4.75,-4.35c0.43,-1.09 0.64,-2.25 0.62,-3.43c-0.02,-1.17 -0.28,-2.32 -0.75,-3.39c-0.48,-1.08 -1.16,-2.04 -2.01,-2.85c-0.85,-0.8 -1.85,-1.43 -2.95,-1.85z" fill="#E0B2A8" id="svg_134"/>
     <path d="m334.64,262.08c-0.96,-0.67 -1.73,-0.38 -1.73,1.15c0,1.25 -0.77,1.54 -1.44,1.63c-2.88,0.29 -3.26,-1.05 -3.26,-1.05c0,0 -1.44,4.99 0.96,5.47c0.96,0.19 4.22,0.57 7.19,0.77c3.46,0.28 6.63,0.76 6.72,-0.96c0.19,-0.96 -2.88,-2.02 -5.18,-4.03l-3.26,-2.88" fill="#004553" id="svg_135"/>
     <path d="m333.77,264.29l-0.19,0l0,-0.29l1.63,-1.44l0.29,0l0,0.29l-1.63,1.34l-0.1,0m1.16,1.06l-0.1,0l0,-0.29l1.54,-1.34l0.28,0l0,0.19l-1.53,1.34l-0.19,0m1.24,1.06l0,-0.1c-0.19,0 -0.19,-0.19 0,-0.29l1.35,-1.24l0.28,0l0,0.28l-1.43,1.25l-0.2,0m1.25,0.96l-0.1,0l0,-0.29l1.35,-1.24l0.19,0l0,0.28l-1.25,1.25l-0.19,0z" fill="white" id="svg_136"/>
     <path d="m311.32,212.56c0,0 1.92,9.6 1.05,18.43c-0.96,8.92 -5.27,24.66 -6.71,30.32l-7.59,-0.57c-0.19,-4.8 1.16,-48.27 1.16,-48.27l12.09,0l0,0.09z" fill="#004754" id="svg_137"/>
     <g id="svg_138" opacity="0.24">
      <mask height="5" id="mask14_2_2942" maskUnits="userSpaceOnUse" width="6" x="301" y="215">
       <path d="m301.14,215.35l5.48,0l0,4.31l-5.48,0l0,-4.31z" fill="white" id="svg_139"/>
      </mask>
      <g id="svg_140" mask="url(#mask14_2_2942)">
       <path d="m306.52,216.02l-5.38,-0.67c0,0 0.29,3.84 1.92,4.22c2.88,0.67 3.46,-3.55 3.46,-3.55z" fill="#A13F60" id="svg_141"/>
      </g>
     </g>
     <path d="m322.35,237.23c0,-8.07 3.84,-22.65 3.84,-22.65l13.05,-2.3c0,0 -4.31,45.87 -5.28,50.66l-7.48,-0.95c-1.92,-7.68 -4.22,-19.39 -4.13,-24.76z" fill="#004754" id="svg_142"/>
     <g id="svg_143" opacity="0.24">
      <mask height="7" id="mask15_2_2942" maskUnits="userSpaceOnUse" width="8" x="330" y="218">
       <path d="m330.42,218.99l7.19,0l0,5.28l-7.19,0l0,-5.28z" fill="white" id="svg_144"/>
      </mask>
      <g id="svg_145" mask="url(#mask15_2_2942)">
       <path d="m337.61,219.66l-7.19,-0.67c0,0 1.05,5.09 2.97,5.28c3.26,0.19 4.22,-4.61 4.22,-4.61z" fill="#A13F60" id="svg_146"/>
      </g>
     </g>
     <g id="svg_147" opacity="0.24">
      <mask height="41" id="mask16_2_2942" maskUnits="userSpaceOnUse" width="9" x="319" y="174">
       <path d="m319.48,174.08l8.15,0l0,40.21l-8.15,0l0,-40.21z" fill="white" id="svg_148"/>
      </mask>
      <g id="svg_149" mask="url(#mask16_2_2942)">
       <path d="m322.26,174.08l-2.78,18.91c0.95,10.55 4.98,18.42 6.71,21.3c4.8,-26.1 -3.93,-40.21 -3.93,-40.21z" fill="#A13F60" id="svg_150"/>
      </g>
     </g>
     <g id="svg_151" opacity="0.24">
      <mask height="11" id="mask17_2_2942" maskUnits="userSpaceOnUse" width="32" x="301" y="161">
       <path d="m301.43,161.41l31.38,0l0,10.08l-31.38,0l0,-10.08z" fill="white" id="svg_152"/>
      </mask>
      <g id="svg_153" mask="url(#mask17_2_2942)">
       <path d="m302.01,162.37l30.8,-0.96c0,0 -25.43,11.23 -31.28,9.98c-0.48,0 0.48,-9.02 0.48,-9.02z" fill="#A13F60" id="svg_154"/>
      </g>
     </g>
     <path d="m280.42,173.6c0.19,-1.44 0.28,-2.01 0.57,-2.01c0.29,0 0.29,0.76 0.29,1.63c0,1.05 0.58,1.53 1.34,1.53l0,-2.49l-0.19,-1.92l0,-2.21c1.44,-8.44 6.05,-19.67 6.91,-21.4c1.25,-2.59 1.63,-5.37 1.63,-5.37l-9.59,-2.88c-2.73,7.83 -4.38,16 -4.9,24.28c-0.09,0.96 0,1.24 -0.19,1.92c-0.19,2.2 -1.15,4.51 -1.34,7c-0.1,1.25 -0.39,3.07 -0.29,4.03c0.09,0.29 0.57,0.29 0.77,-0.19c0.23,-0.93 0.45,-1.85 0.67,-2.78l-0.29,3.55c0,0.96 0,1.53 0.48,1.53c0.38,0 0.58,-1.44 0.67,-2.68c0,-0.87 0.1,-1.64 0.19,-1.64c0.1,-0.19 0.29,0 0.2,0.1l0,3.17l-0.1,0.38l0.1,0.96l0.38,0.19c0.96,0 0.67,-3.36 0.96,-4.6l0.29,0c0,0.57 -0.39,3.26 -0.29,4.31c0,0.68 0.96,0.96 1.06,0c0.38,-1.53 0.57,-3.26 0.67,-4.41z" fill="#CC8F4D" id="svg_155"/>
     <g id="svg_156" opacity="0.24">
      <mask height="31" id="mask18_2_2942" maskUnits="userSpaceOnUse" width="11" x="296" y="118">
       <path d="m296.44,118.33l9.89,0l0,29.84l-9.89,0l0,-29.84z" fill="white" id="svg_157"/>
      </mask>
      <g id="svg_158" mask="url(#mask18_2_2942)">
       <path d="m296.44,136.46l7.39,-19.09c0,0 7.97,17.46 -4.32,29.84c-0.28,0.29 -3.07,-10.75 -3.07,-10.75z" fill="#A13F60" id="svg_159"/>
      </g>
     </g>
     <path d="m285.5,118.33c0.87,-1.83 4.03,-8.93 5.38,-11.14c2.11,-3.26 9.11,-7.77 13.72,-7.19l7.29,13.24l-0.28,0.57c-1.92,3.84 -6.72,11.52 -9.41,14.69c-0.19,0.19 -0.96,1.92 -1.92,2.78l-9.21,13.34l-6.43,16.41l-7.97,-0.38c-1.05,-18.62 8.83,-42.23 8.83,-42.23" fill="#560E3B" id="svg_160"/>
     <path d="m323.31,86.56l-10.75,0.19c0,0 -1.63,4.8 -1.43,13.92c0,0.38 9.3,2.97 9.3,2.97l2.88,-17.08z" fill="#CC8F4D" id="svg_161"/>
     <path d="m312.37,77.92c-0.47,-0.4 -1.07,-0.63 -1.69,-0.67c-0.62,-0.03 -1.24,0.14 -1.76,0.48" fill="black" id="svg_162"/>
     <g id="svg_163">
      <mask height="2" id="mask19_2_2942" maskUnits="userSpaceOnUse" width="2" x="310" y="79">
       <path d="m310.17,79.17l1.05,0l0,1.06l-1.05,0l0,-1.06z" fill="white" id="svg_164"/>
      </mask>
      <g id="svg_165" mask="url(#mask19_2_2942)">
       <path d="m311.03,79.27c-0.11,-0.1 -0.24,-0.15 -0.38,-0.15c-0.15,0 -0.28,0.05 -0.39,0.15c-0.19,0.19 -0.19,0.57 0,0.77c0.29,0.19 0.58,0.19 0.77,0c0.19,-0.2 0.19,-0.58 0,-0.77z" fill="#004754" id="svg_166"/>
      </g>
     </g>
     <path d="m309.21,78.5c-0.77,2.3 -1.73,3.36 -2.02,4.22c0,0.19 1.25,0.39 1.44,0.39l0.58,-4.61zm7.96,12.09c0.29,0 -1.15,5.95 4.22,7.49l1.25,-7.87l-5.47,0.38z" fill="#CC8F4D" id="svg_167"/>
     <path d="m308.25,74.66c0,0 4.51,-11.42 16.31,-4.99c5.28,2.88 3.26,11.13 -1.34,18.04c0,0.1 -2.79,0.48 -3.46,-0.67c-0.96,-1.44 -1.15,-6.72 -1.15,-6.72l-3.07,0.58c0,0 -0.29,-3.74 -0.96,-3.84c-5.47,-1.54 -6.33,-2.4 -6.33,-2.4z" fill="black" id="svg_168"/>
     <path d="m319,79.27c0,0 0.19,2.2 -0.96,2.59c-0.68,0.29 -1.35,0 -1.35,0c0,0 0.39,3.26 2.11,2.49c1.83,-0.67 0.2,-5.08 0.2,-5.08z" fill="#CC8F4D" id="svg_169"/>
     <path d="m316.79,80.03c0,0 0.96,-1.91 1.92,-1.15c0.86,0.77 0.48,2.88 -1.25,2.88c-0.96,0 -1.15,-0.29 -1.15,-0.29l0.48,-1.44z" fill="#CC8F4D" id="svg_170"/>
     <path d="m317.65,80.03c0,-0.38 0.48,-0.57 0.67,-0.19l0,0.29c0,0.19 0,0.38 -0.19,0.48c-0.19,0.1 -0.38,0.19 -0.48,0l0,-0.58zm32.63,92.71c-0.19,-1.44 -0.29,-2.11 -0.48,-2.11c-0.38,0 -0.29,0.86 -0.38,1.63c0,1.15 -0.58,1.63 -1.35,1.53c0,-0.48 0.19,-1.53 0.1,-2.49l0.19,-1.92l-0.1,-2.11c-1.51,-7.4 -3.83,-14.61 -6.9,-21.5c-0.78,-1.71 -1.33,-3.52 -1.64,-5.37l9.7,-2.88c0.47,1.15 0.96,2.11 1.53,4.51c1.84,6.44 2.97,13.07 3.36,19.77l0,1.92c0.29,2.3 1.25,4.6 1.44,7c0.1,1.35 0.38,3.17 0.29,4.13c-0.1,0.29 -0.58,0.19 -0.67,-0.29c-0.27,-0.89 -0.53,-1.79 -0.77,-2.69c0,0 0.29,2.02 0.29,3.55c0,0.87 0,1.54 -0.39,1.54c-0.48,0 -0.57,-1.44 -0.77,-2.69c0,-0.96 0,-1.63 -0.19,-1.73c0,-0.09 -0.19,0 -0.19,0.2l0.1,3.16l0,0.29l-0.1,0.96l-0.29,0.19c-1.05,0.1 -0.67,-3.26 -0.96,-4.51c-0.09,-0.09 -0.29,-0.19 -0.38,0c0,0.58 0.38,3.17 0.29,4.32c0,0.67 -0.96,0.96 -1.06,0l-0.67,-4.41z" fill="#CC8F4D" id="svg_171"/>
     <path d="m345.29,117.37l-0.1,0c-0.86,-1.73 -3.93,-8.93 -5.37,-11.14c-2.11,-3.26 -9.12,-7.77 -13.63,-7.19l-7.39,13.14l0.29,0.68c1.92,3.83 8.45,11.7 11.13,14.87l0.39,0.58l9.11,15.35l6.34,16.31l8.06,-0.28c0.96,-18.72 -8.83,-42.23 -8.83,-42.23m-263.71,106.72c0.02,0.59 0.16,1.17 0.41,1.71c0.25,0.53 0.61,1.02 1.04,1.42c0.44,0.4 0.95,0.71 1.51,0.91c0.56,0.21 1.15,0.3 1.74,0.27c0.59,-0.02 1.17,-0.16 1.71,-0.41c0.54,-0.25 1.02,-0.61 1.42,-1.04c0.4,-0.44 0.71,-0.95 0.92,-1.51c0.2,-0.56 0.29,-1.15 0.27,-1.74c-0.05,-1.2 -0.58,-2.32 -1.46,-3.13c-0.88,-0.81 -2.05,-1.24 -3.24,-1.19c-1.2,0.05 -2.33,0.58 -3.14,1.46c-0.81,0.88 -1.23,2.05 -1.18,3.25z" fill="#560E3B" id="svg_172"/>
     <path d="m81.67,224.94l9.12,-0.48c0,0 2.21,6.91 1.73,12.09c-0.77,9.79 -7.68,24.57 -8.45,26.39l-1.73,-3.26l-0.67,-34.74zm18.04,-41.74c0.48,17.94 -9.21,41.26 -9.21,41.26l-8.83,-0.77l2.31,-44.72c0,0 15.64,0.58 15.73,4.23zm20.25,1.24l-2.3,31c0,0 -6.14,1.82 -8.64,0.96c-3.36,-1.15 -6.24,-32.53 -6.24,-32.53l17.18,0.57z" fill="#560E3B" id="svg_173"/>
     <path d="m108.64,214.96c-0.04,1.2 0.4,2.36 1.22,3.23c0.82,0.88 1.95,1.39 3.14,1.43c1.2,0.04 2.36,-0.4 3.24,-1.22c0.87,-0.82 1.38,-1.95 1.42,-3.15c0.02,-0.59 -0.08,-1.18 -0.29,-1.74c-0.21,-0.55 -0.52,-1.06 -0.93,-1.49c-0.41,-0.43 -0.89,-0.78 -1.43,-1.03c-0.54,-0.24 -1.12,-0.37 -1.72,-0.39c-0.59,-0.02 -1.18,0.08 -1.73,0.28c-0.56,0.21 -1.07,0.53 -1.5,0.93c-0.43,0.41 -0.78,0.9 -1.02,1.44c-0.25,0.54 -0.38,1.12 -0.4,1.71z" fill="#560E3B" id="svg_174"/>
     <path d="m108.73,217.94c0.06,0.62 0.24,1.23 0.55,1.78c0.3,0.56 0.71,1.04 1.22,1.42c0.5,0.38 1.07,0.65 1.68,0.8c0.61,0.14 1.25,0.16 1.87,0.05c0.62,-0.12 1.2,-0.36 1.72,-0.72c0.52,-0.35 0.96,-0.81 1.29,-1.34c0.33,-0.54 0.55,-1.14 0.64,-1.76c0.08,-0.63 0.04,-1.26 -0.14,-1.86c-0.31,-1.08 -1,-2 -1.96,-2.59c-0.95,-0.59 -2.09,-0.81 -3.19,-0.6c-1.1,0.2 -2.09,0.81 -2.77,1.7c-0.68,0.89 -1,2 -0.91,3.12z" fill="#560E3B" id="svg_175"/>
     <path d="m107.3,227.44c-0.2,-4.99 1.05,-12 1.05,-12c0,0 3.46,1.34 4.8,1.54l4.32,-0.96c0,0 1.25,6.33 1.53,11.32c-0.06,9.48 -0.83,18.94 -2.3,28.31l-4.13,0.67c-1.63,-8.63 -5.08,-23.99 -5.27,-28.79" fill="#560E3B" id="svg_176"/>
     <g id="svg_177" opacity="0.18">
      <mask height="7" id="mask20_2_2942" maskUnits="userSpaceOnUse" width="8" x="109" y="216">
       <path d="m109.41,216.88l7,0l0.19,5.18l-7.1,0.2l-0.09,-5.38z" fill="white" id="svg_178"/>
      </mask>
      <g id="svg_179" mask="url(#mask20_2_2942)">
       <path d="m109.41,216.88c0,0 1.44,3.36 4.03,2.69c0.96,-0.29 2.88,-2.78 2.88,-2.78c0,0 0.67,5.18 -3.75,5.27c-2.88,0 -3.26,-5.08 -3.26,-5.08" fill="#8D415F" id="svg_180"/>
      </g>
     </g>
     <path d="m103.46,164.48c0,0 4.51,9.6 -1.63,20.45c0,0 -18.43,5.08 -17.85,-5.96c0.57,-9.11 5.08,-19.28 5.08,-19.28l14.4,4.79z" fill="#560E3B" id="svg_181"/>
     <path d="m113.63,161.51c0,0 7.01,9.02 6.33,23.03l-18.13,0.39l-1.44,-4.32l-2.02,-18.52l15.35,-0.58l-0.09,0z" fill="#560E3B" id="svg_182"/>
     <path d="m88.58,254.02c-0.58,2.44 -1.03,4.9 -1.34,7.39l0,6.72c0,0 -0.86,0.48 -1.73,0.19c-0.19,-0.67 -0.19,-1.63 -0.19,-1.63c-1.25,0.96 -1.63,2.49 -4.51,3.36c-4.7,1.53 -9.6,-0.48 -7.68,-2.31c1.73,-1.82 7.2,-5.56 7.3,-6.14c0.09,-0.38 -0.2,-3.84 -0.58,-7.87c-0.58,-5.76 5.37,-3.26 8.64,0.29m21.59,-0.67c0.49,2.47 0.84,4.97 1.05,7.48l0,6.72c0,0 0.68,0.48 1.64,0.29l0.19,-1.63c1.24,0.96 1.53,2.49 4.32,3.55c4.7,1.63 9.59,-0.29 7.86,-2.11c-1.63,-1.92 -7,-5.76 -7.19,-6.43c0,-0.39 0.29,-3.84 0.86,-7.78c0.29,-2.59 -0.77,-3.55 -2.21,-3.55c-1.91,0 -4.6,1.64 -6.52,3.55" fill="#162D38" id="svg_183"/>
     <mask height="22" id="mask21_2_2942" maskUnits="userSpaceOnUse" width="16" x="110" y="249">
      <path d="m110.08,253.35c0.49,2.47 0.84,4.97 1.05,7.48l0,6.72c0,0 0.68,0.48 1.64,0.29l0.19,-1.63c1.24,0.96 1.53,2.49 4.32,3.55c4.7,1.63 9.59,-0.29 7.86,-2.11c-1.63,-1.92 -7,-5.76 -7.19,-6.43c0,-0.39 0.28,-3.84 0.86,-7.78c0.29,-2.59 -0.77,-3.55 -2.21,-3.55c-1.91,0 -4.6,1.64 -6.52,3.55" fill="white" id="svg_184"/>
     </mask>
     <g id="svg_185" mask="url(#mask21_2_2942)">
      <path d="m119.29,254.21c-2.21,-2.68 -1.92,-3.84 -5.76,-1.25c-1.74,1 -3.41,2.12 -4.99,3.36" fill="#162D38" id="svg_186"/>
     </g>
     <path d="m95.3,79.65c0,0 4.51,-7.39 11.8,-5.66c7.3,1.73 11.14,7.68 6.82,16.31c-4.23,8.54 -9.12,9.89 -12.67,7.87c-3.55,-1.92 -7.97,-11.51 -6.05,-18.52" fill="#014754" id="svg_187"/>
     <path d="m120.73,109.21c-1.06,-0.96 -5.76,-2.98 -8.64,-4.03l-0.96,-0.29c0,0 -8.63,-1.06 -10.74,-1.06l-4.32,0.1l-5.57,1.25c-2.78,0.67 -9.88,0.57 -16.12,21.88c0,0.29 5.09,1.25 10.36,3.84c1.25,9.88 -5.47,33.58 -4.99,35.89c0,0 10.08,4.32 21.79,4.32c11.71,0 22.84,-3.65 22.84,-3.65c0.57,-3.17 -8.35,-30.04 -6.24,-38.39l4.51,1.15c4.51,-3.64 11.52,-7.86 7.29,-10.94" fill="#162D38" id="svg_188"/>
     <path d="m90.21,107.67c0.04,1.99 0.63,3.92 1.73,5.57c1.92,2.88 5.18,4.89 9.02,4.89c1.62,0.02 3.22,-0.33 4.68,-1.03c1.46,-0.69 2.74,-1.72 3.74,-2.99c1.01,-1.27 1.7,-2.75 2.04,-4.33c0.33,-1.59 0.3,-3.23 -0.09,-4.79l-2.4,-0.68l-2.31,-0.38l-0.28,0c-0.89,-0.15 -1.79,-0.25 -2.69,-0.29l-3.17,0c-1.15,0 -2.4,0 -3.55,0.19l-0.09,0c-0.62,0.07 -1.23,0.17 -1.83,0.29l-0.57,0.1l-1.35,0.29l-1.25,0.38l-1.34,0.29c-0.15,0.79 -0.22,1.59 -0.19,2.4" fill="#F8CDC2" id="svg_189"/>
     <path d="m105.86,92.22l-9.7,2.88l0,8.64c0,0.57 1.64,4.41 4.61,4.51l0.67,0c4.13,-0.29 4.32,-4.32 4.32,-4.32l0,-11.71l0.1,0z" fill="#F8CDC2" id="svg_190"/>
     <g id="svg_191" opacity="0.18">
      <mask height="8" id="mask22_2_2942" maskUnits="userSpaceOnUse" width="10" x="96" y="95">
       <path d="m96.16,95.77l8.93,0l0,6.91l-8.93,0l0,-6.91z" fill="white" id="svg_192"/>
      </mask>
      <g id="svg_193" mask="url(#mask22_2_2942)">
       <path d="m105.09,96.16c-0.19,0.09 -1.54,7.29 -8.93,6.52l0,-6.71l8.93,0.28l0,-0.09z" fill="#8D415F" id="svg_194"/>
      </g>
     </g>
     <path d="m94.05,84.74c0,-0.29 0.48,-2.11 0.67,-2.4c0.39,-0.96 1.44,-2.21 2.5,-2.21l7.1,0c1.15,0 1.73,1.34 2.11,2.21l0.39,4.12l0.96,0.39l-0.1,2.88c-0.1,2.88 -2.11,8.83 -6.14,9.4l-0.96,0c-0.39,0 -0.96,0.1 -1.54,0c-4.03,-0.48 -4.51,-6.81 -4.7,-9.59l-0.19,-2.88l-0.1,-1.92z" fill="#F8CDC2" id="svg_195"/>
     <g id="svg_196" opacity="0.18">
      <mask height="7" id="mask23_2_2942" maskUnits="userSpaceOnUse" width="6" x="95" y="87">
       <path d="m95.3,87.42l5.18,0l0,5.95l-5.18,0l0,-5.95z" fill="white" id="svg_197"/>
      </mask>
      <g id="svg_198" mask="url(#mask23_2_2942)">
       <path d="m98.75,87.52l-0.09,4.51c0.19,0.38 1.82,0.48 1.82,0.48c0,0 -2.11,1.54 -3.84,0.38c-1.72,-1.24 -2.49,-6.14 2.02,-5.37" fill="#8D415F" id="svg_199"/>
      </g>
     </g>
     <path d="m103.94,88.86l-0.48,0.39c-0.39,0 -1.25,0.19 -1.73,-0.39c0,0 0.29,-0.28 0.86,-0.38c0.58,0 1.16,0 1.35,0.38zm-6.24,0.2l-0.58,0.38c-0.48,0.1 -1.15,0 -1.63,-0.38c0,0 0.39,-0.39 0.96,-0.39c0.29,0 0.86,0 1.25,0.39z" fill="#004754" id="svg_200"/>
     <path d="m104.61,90.21c0,1.53 0.77,3.45 2.59,2.88c1.25,-0.58 2.49,-1.25 2.49,-2.88c0,-1.63 -1.15,-2.69 -2.49,-2.69c-1.34,0 -2.5,1.25 -2.5,2.78" fill="#F8CDC2" id="svg_201"/>
     <path d="m107.49,78.5c-8.83,0 11.99,-9.79 13.91,-3.26c1.92,6.52 -2.88,10.74 -1.24,19.19c1.63,8.45 9.78,5.85 5.75,14.4c-3.84,8.44 -5.08,11.7 -5.08,11.7c0,0 0.57,-3.84 -2.98,-12.09c-3.65,-8.16 -7.96,-5.47 -6.24,-12.86c1.64,-7.29 2.59,-17.08 -4.22,-17.08" fill="#014754" id="svg_202"/>
     <path d="m96.07,78.6c0,10.26 8.25,7.67 9.59,9.11c1.44,1.54 1.06,4.61 1.06,4.61c0,0 3.84,-5.95 -1.34,-12c-3.27,-3.84 -9.31,-1.72 -9.31,-1.72z" fill="#014754" id="svg_203"/>
     <path d="m105.66,84.07c0,0 -7.19,-2.79 -8.92,0c-1.73,2.78 -0.96,4.51 -4.13,6.91c0,0 1.35,-1.73 0,-5.47c-1.92,-5.38 4.13,-8.83 7.87,-7.01c3.84,1.82 5.18,5.57 5.18,5.57z" fill="#014754" id="svg_204"/>
     <path d="m101.54,94.81c-0.1,0.48 -2.21,0.58 -2.21,0.58c0,0 -2.02,0 -2.21,-0.67l2.59,0.09l1.83,0z" fill="#E7C1A8" id="svg_205"/>
     <path d="m369.76,133.49c-3.17,-1.35 -5.09,2.2 -5.09,2.2c-3.64,6.72 -8.63,20.44 -9.4,25.63l-0.29,2.21c0,0 0.1,1.72 1.73,1.43c0.86,0 2.3,-2.68 2.3,-2.68c18.52,-27.83 12.96,-27.83 10.75,-28.79zm-16.51,37.62c0.1,-0.1 -0.76,1.53 -1.44,2.2c-0.19,0.19 -0.28,1.35 -0.67,2.11l0.29,1.54c0.1,0.58 -0.38,0.96 -0.38,0.96l-1.44,-2.69l0.57,-2.4l0.48,-2.88c0,0 0.77,-0.48 1.83,0c0.96,0.29 0.86,1.06 0.76,1.16z" fill="#F9CCB2" id="svg_206"/>
     <path d="m356.32,171.2l0.68,-1.92c0.67,-1.63 0.76,-5.18 1.15,-6.04c0.38,-0.87 0.67,-1.92 -0.67,-2.5c-1.54,-0.67 -2.21,1.15 -2.21,1.15c-0.13,0.55 -0.36,1.07 -0.67,1.54c-0.67,1.25 -2.98,4.41 -3.84,6.33c0,0 0,1.15 0.77,1.44c1.05,0.39 1.92,-0.38 1.92,-0.38c0.09,-0.29 0.38,-0.58 0.76,-0.48c0.58,0.29 0.96,0.96 0.77,1.34c-0.67,1.73 -0.57,1.82 -0.19,2.11l1.53,-2.49l0,-0.1z" fill="#F9CCB2" id="svg_207"/>
     <path d="m353.54,170.34c0,0 -0.48,1.63 -0.96,2.4c-0.09,0.19 0,1.34 -0.28,2.11l0.67,1.34c0.19,0.58 -0.2,0.96 -0.2,0.96l-2.01,-2.21l0,-5.08c0,0 0.57,-0.77 1.63,-0.58c0.67,0.19 1.15,1.06 1.15,1.15l0,-0.09zm27.35,-42.32l-11.13,16.6l-7.49,-2.59c0,-1.25 0,-1.44 0.97,-3.65c2.83,-5.8 6.66,-11.07 11.32,-15.54c0.48,-0.48 4.99,4.22 6.33,5.18zm23.61,5.66c3.26,-0.86 4.61,2.88 4.61,2.88c2.49,7.39 5.18,21.59 5.18,26.87l-0.1,2.3c0,0 -0.38,1.54 -1.92,1.06c-0.86,-0.19 -1.92,-3.07 -1.92,-3.07c-13.72,-30.33 -8.25,-29.56 -5.85,-30.14l0,0.1zm10.08,39.73c0,-0.1 0.67,1.73 1.15,2.4c0.09,0.19 0,1.44 0.38,2.21l-0.57,1.44c-0.2,0.57 0.28,0.95 0.28,0.95l1.92,-2.3l-0.29,-2.49l0,-2.88c0,0 -0.67,-0.67 -1.82,-0.39c-0.96,0.2 -0.96,0.96 -0.96,0.96l-0.09,0.1z" fill="#F9CCB2" id="svg_208"/>
     <path d="m411.7,173.03c-0.2,-0.49 -0.29,-1.64 -0.39,-2.12c-0.38,-1.63 0,-5.18 -0.19,-6.04c-0.19,-0.87 -0.38,-1.92 1.06,-2.31c1.63,-0.47 1.92,1.44 1.92,1.44l0.48,1.64c0.48,1.34 2.3,4.79 2.87,6.9c0,0 -0.19,1.16 -1.05,1.25c-1.15,0.2 -1.82,-0.67 -1.82,-0.67c-0.1,-0.29 -0.29,-0.67 -0.68,-0.67c-0.67,0.19 -0.96,0.77 -0.96,1.25c0.39,1.82 0.29,1.92 -0.19,2.11c0,-0.19 -0.86,-1.92 -1.05,-2.78z" fill="#F9CCB2" id="svg_209"/>
     <path d="m414.58,172.55c0,0 0.19,1.72 0.57,2.59c0,0.19 -0.29,1.24 -0.09,2.11l-0.96,1.25c-0.2,0.47 0.19,0.96 0.19,0.96l2.3,-1.83l0.29,-2.4l0.57,-2.68c0,0 -0.57,-0.96 -1.63,-0.87c-0.67,0 -1.34,0.87 -1.34,0.96l0.1,-0.09zm-20.16,-46.16l8.26,18.23l7.77,-1.34c0.19,-1.25 0.19,-1.54 -0.29,-3.84c-1.89,-6.16 -4.85,-11.94 -8.73,-17.08c-0.38,-0.48 -5.66,3.35 -7.1,4.03" fill="#F9CCB2" id="svg_210"/>
     <path d="m365.63,223.98c0.03,1.2 0.53,2.34 1.39,3.16c0.87,0.83 2.02,1.28 3.22,1.26c1.2,-0.03 2.33,-0.53 3.16,-1.39c0.83,-0.87 1.28,-2.02 1.25,-3.22c-0.02,-1.21 -0.53,-2.36 -1.4,-3.19c-0.87,-0.84 -2.04,-1.3 -3.25,-1.27c-1.21,0.02 -2.36,0.53 -3.19,1.4c-0.84,0.87 -1.3,2.04 -1.27,3.25" fill="#162D38" id="svg_211"/>
     <path d="m365.63,224.66l9.12,-0.2c0,0 2.02,6.91 1.44,12.19c-0.96,9.69 -8.25,24.37 -9.02,26.1l-1.73,-3.26l0.29,-34.83l-0.1,0zm19,-41.27c0.1,17.95 -10.07,41.07 -10.07,41.07l-8.93,-0.96l3.46,-44.72c0,0 15.54,0.96 15.54,4.61zm20.35,1.82l-3.17,30.9c0,0 -6.24,1.64 -8.63,0.67c-3.36,-1.24 -5.38,-32.62 -5.38,-32.62l17.08,0.96" fill="#162D38" id="svg_212"/>
     <path d="m392.79,215.44c-0.06,1.2 0.35,2.37 1.15,3.26c0.8,0.89 1.93,1.43 3.12,1.49c1.2,0.07 2.37,-0.35 3.26,-1.15c0.89,-0.8 1.43,-1.92 1.49,-3.12c0.07,-1.2 -0.35,-2.37 -1.15,-3.26c-0.8,-0.89 -1.92,-1.42 -3.12,-1.49c-1.19,-0.06 -2.37,0.35 -3.26,1.15c-0.89,0.8 -1.42,1.93 -1.49,3.12z" fill="#162D38" id="svg_213"/>
     <path d="m392.79,218.42c0.1,0.58 0.31,1.14 0.62,1.65c0.31,0.5 0.72,0.94 1.2,1.29c0.48,0.35 1.02,0.6 1.6,0.73c0.58,0.14 1.18,0.16 1.76,0.07c0.59,-0.1 1.15,-0.3 1.66,-0.62c0.5,-0.31 0.94,-0.72 1.29,-1.2c0.35,-0.48 0.6,-1.02 0.73,-1.6c0.14,-0.58 0.16,-1.18 0.07,-1.76c-0.19,-1.19 -0.85,-2.24 -1.82,-2.95c-0.97,-0.7 -2.18,-0.99 -3.36,-0.79c-1.19,0.19 -2.25,0.84 -2.95,1.81c-0.7,0.97 -0.99,2.18 -0.8,3.37z" fill="#162D38" id="svg_214"/>
     <path d="m391.16,227.82c0,-4.99 1.44,-11.99 1.44,-11.99c0,0 3.36,1.43 4.7,1.72l4.42,-0.86c0,0 0.96,6.33 1.15,11.32c0.29,6.43 -1.92,23.8 -2.98,28.22l-4.03,0.67c-1.44,-8.73 -4.6,-24.28 -4.7,-29.08z" fill="#162D38" id="svg_215"/>
     <g id="svg_216" opacity="0.18">
      <mask height="6" id="mask24_2_2942" maskUnits="userSpaceOnUse" width="8" x="393" y="217">
       <path d="m393.46,217.36l7.1,0l0,5.28l-7.1,0l0,-5.28z" fill="white" id="svg_217"/>
      </mask>
      <g id="svg_218" mask="url(#mask24_2_2942)">
       <path d="m393.46,217.36c0,0 1.44,3.36 4.03,2.78c1.06,-0.28 3.07,-2.68 3.07,-2.68c0,0 0.49,5.18 -3.93,5.18c-2.97,0 -3.17,-5.28 -3.17,-5.28z" fill="#8D415F" id="svg_219"/>
      </g>
     </g>
     <path d="m388.86,164.87c0,0 4.32,9.6 -2.11,20.34c0,0 -18.62,4.61 -17.66,-6.43c0.77,-9.11 5.47,-19.19 5.47,-19.19l14.3,5.28z" fill="#162D38" id="svg_220"/>
     <path d="m371.58,112.86c-1.34,-0.35 -2.63,-0.87 -3.83,-1.54c-2.21,-1.25 -2.6,-4.03 -1.64,-6.05c1.64,-3.35 4.13,-1.91 7.01,-6.23c1.53,-2.4 5.66,-9.22 14.39,-9.02c8.83,-0.1 12.86,6.71 14.4,9.11c2.88,4.23 5.37,2.88 7,6.24c0.96,2.02 0.48,4.8 -1.72,6.05c-1.22,0.64 -2.51,1.12 -3.84,1.44c-0.48,0.19 -1.25,0.47 -1.15,1.05c1.24,0.48 5.47,0.58 5.28,4.99c-0.39,5.66 -9.03,5.28 -11.62,4.61c-1.27,-0.33 -2.47,-0.93 -3.49,-1.76c-1.03,-0.82 -1.87,-1.86 -2.46,-3.04c-0.96,-1.92 -0.09,-0.19 -1.15,1.63c-1.25,2.4 -7,2.97 -9.69,3.07c-2.69,0.1 -11.32,0.96 -11.52,-4.6c-0.29,-4.42 4.03,-4.51 5.19,-5c0,-0.57 -0.58,-0.86 -1.16,-0.95z" fill="black" id="svg_221"/>
     <path d="m399.22,162.18c0,0 6.72,9.12 5.76,23.03l-18.23,0l-1.25,-4.32l-1.63,-18.61l15.35,-0.19l0,0.09z" fill="#162D38" id="svg_222"/>
     <path d="m406.23,120.92c-0.96,-0.68 -6.24,-3.55 -8.93,-4.42l-0.96,-0.29c0,0 -7.77,-0.96 -9.69,-0.96l-3.93,0.1l-5.09,1.15c-2.5,0.58 -9.02,0.48 -14.68,19.87c0,0.29 4.6,1.15 9.4,3.55c1.15,9.02 -4.99,30.51 -4.6,32.63c0,0 9.3,3.83 19.96,3.83c10.65,0 20.72,-3.16 20.72,-3.16c0.58,-2.88 -7.67,-27.45 -5.66,-35.03l7.68,0.67c0.96,-8.06 -0.48,-15.06 -4.22,-17.85" fill="#004754" id="svg_223"/>
     <path d="m377.44,118.71c-0.01,1.8 0.49,3.56 1.44,5.09c1.72,2.68 4.8,4.51 8.25,4.51c1.47,0.01 2.93,-0.31 4.26,-0.95c1.33,-0.63 2.5,-1.57 3.41,-2.73c0.9,-1.16 1.53,-2.51 1.84,-3.96c0.3,-1.44 0.26,-2.93 -0.1,-4.36l-2.12,-0.58l-2.2,-0.38l-0.2,0l-1.15,-0.19l-1.92,0l-1.34,-0.1l-0.77,0l-3.36,0.19c-0.58,0.05 -1.16,0.15 -1.72,0.29l-0.58,0.1l-1.15,0.29l-1.25,0.28l-1.15,0.29c-0.19,0.67 -0.19,1.44 -0.19,2.21z" fill="#F8CDC2" id="svg_224"/>
     <path d="m391.54,104.7l-8.82,2.59l0,7.96c0,0.48 1.53,3.84 4.22,4.03l0.77,0c3.64,-0.28 3.93,-3.93 3.93,-3.93l0,-10.75l-0.1,0.1z" fill="#F8CDC2" id="svg_225"/>
     <g id="svg_226" opacity="0.18">
      <mask height="8" id="mask25_2_2942" maskUnits="userSpaceOnUse" width="9" x="382" y="107">
       <path d="m382.81,107.96l8.16,0l0,6.34l-8.16,0l0,-6.34z" fill="white" id="svg_227"/>
      </mask>
      <g id="svg_228" mask="url(#mask25_2_2942)">
       <path d="m390.97,108.34c-0.19,0 -1.44,6.53 -8.16,5.86l0,-6.24l8.16,0.38z" fill="#8D415F" id="svg_229"/>
      </g>
     </g>
     <path d="m380.8,97.88c0,-0.28 0.48,-1.91 0.67,-2.2c0.29,-0.77 1.25,-1.92 2.21,-1.92l3.16,0l0.96,-0.1l2.4,0c0.96,0 1.54,1.25 1.92,2.02l0.29,3.84l0.96,0.28l-0.19,2.59c0,2.6 -1.92,8.07 -5.47,8.64l-2.31,0c-3.64,-0.48 -4.12,-6.24 -4.32,-8.83l-0.19,-2.59l-0.09,-1.73z" fill="#F8CDC2" id="svg_230"/>
     <g id="svg_231" opacity="0.18">
      <mask height="6" id="mask26_2_2942" maskUnits="userSpaceOnUse" width="6" x="381" y="100">
       <path d="m381.95,100.28l4.8,0l0,5.38l-4.8,0l0,-5.38z" fill="white" id="svg_232"/>
      </mask>
      <g id="svg_233" mask="url(#mask26_2_2942)">
       <path d="m385.12,100.38l-0.1,4.13c0.19,0.38 1.63,0.38 1.63,0.38c0,0 -1.92,1.53 -3.45,0.38c-1.54,-1.05 -2.31,-5.56 1.92,-4.89z" fill="#8D415F" id="svg_234"/>
      </g>
     </g>
     <path d="m389.82,101.72l-0.48,0.2c-0.29,0.09 -1.06,0.19 -1.54,-0.29c0,0 0.29,-0.29 0.77,-0.29c0.57,-0.1 1.06,0 1.25,0.29m-5.67,0.09l-0.57,0.39c-0.38,0.19 -0.96,0.09 -1.44,-0.29c0,0 0.38,-0.38 0.96,-0.38c0.19,0 0.67,0 0.96,0.38" fill="black" id="svg_235"/>
     <path d="m390.49,102.88c0,1.43 0.67,3.16 2.3,2.49c1.15,-0.38 2.21,-1.06 2.21,-2.49c0,-1.44 -0.96,-2.5 -2.21,-2.5c-1.25,0 -2.3,1.15 -2.3,2.5z" fill="#F8CDC2" id="svg_236"/>
     <path d="m382.72,92.32c0,9.31 7.48,6.91 8.63,8.25c1.35,1.44 0.96,4.22 0.96,4.22c0,0 3.55,-5.47 -1.15,-10.94c-2.88,-3.45 -8.44,-1.53 -8.44,-1.53z" fill="black" id="svg_237"/>
     <path d="m391.45,97.31c0,0 -6.62,-2.5 -8.16,0c-1.53,2.49 -0.96,4.03 -3.74,6.24c0,0 1.25,-1.54 0,-4.99c-1.73,-4.8 3.74,-8.06 7.2,-6.43c3.45,1.72 4.7,5.18 4.7,5.18z" fill="black" id="svg_238"/>
     <path d="m371.78,253.92c-0.77,3.27 -1.35,6.24 -1.44,7.3l-0.29,6.72c0,0 -0.77,0.48 -1.63,0.28c-0.19,-0.77 -0.19,-1.72 -0.19,-1.72c-1.25,0.95 -1.64,2.49 -4.52,3.26c-4.79,1.44 -9.59,-0.67 -7.67,-2.5c1.72,-1.72 7.29,-5.37 7.48,-5.95l-0.38,-7.87c-0.48,-5.75 5.37,-3.07 8.64,0.48zm21.59,0c0.42,2.45 0.71,4.92 0.86,7.39l-0.29,6.72c0,0 0.77,0.48 1.73,0.39l0.29,-1.73c1.15,1.05 1.44,2.59 4.22,3.64c4.61,1.73 9.6,0 7.97,-1.91c-1.73,-1.92 -7.01,-5.96 -7.1,-6.53l0.95,-7.87c0.39,-2.49 -0.57,-3.46 -2.11,-3.46c-1.92,0 -4.6,1.44 -6.52,3.27" fill="#073E44" id="svg_239"/>
     <mask height="22" id="mask27_2_2942" maskUnits="userSpaceOnUse" width="16" x="393" y="250">
      <path d="m393.37,253.92c0.42,2.45 0.71,4.92 0.86,7.39l-0.29,6.72c0,0 0.77,0.48 1.73,0.39l0.29,-1.73c1.15,1.05 1.44,2.59 4.22,3.64c4.61,1.73 9.6,0 7.97,-1.91c-1.73,-1.92 -7.01,-5.96 -7.1,-6.53l0.95,-7.87c0.39,-2.49 -0.57,-3.46 -2.11,-3.46c-1.92,0 -4.6,1.44 -6.52,3.27" fill="white" id="svg_240"/>
     </mask>
     <g id="svg_241" mask="url(#mask27_2_2942)">
      <path d="m402.48,254.88c-2.11,-2.78 -1.72,-3.84 -5.75,-1.44l-4.99,3.27" fill="#073E44" id="svg_242"/>
     </g>
     <path d="m387.03,107.39c0,0.28 -1.15,0.28 -1.15,0.28c0,0 -1.15,0 -1.25,-0.28l2.4,0z" fill="white" id="svg_243"/>
     <mask height="10" id="mask28_2_2942" maskUnits="userSpaceOnUse" width="11" x="254" y="130">
      <path d="m263.81,130.99c-0.25,-0.29 -0.56,-0.52 -0.91,-0.69c-0.35,-0.16 -0.72,-0.26 -1.11,-0.28c-0.38,-0.01 -0.77,0.05 -1.13,0.18c-0.36,0.13 -0.69,0.34 -0.97,0.6l0,0.1c-0.28,-0.27 -0.61,-0.49 -0.97,-0.63c-0.36,-0.15 -0.74,-0.22 -1.13,-0.21c-0.39,0 -0.77,0.08 -1.13,0.23c-0.35,0.16 -0.68,0.38 -0.95,0.65c-0.27,0.28 -0.48,0.61 -0.63,0.97c-0.14,0.36 -0.21,0.74 -0.21,1.13c0.01,0.39 0.09,0.77 0.24,1.13c0.15,0.36 0.37,0.68 0.65,0.95l3.84,4.03l4.03,-3.84l0.29,-0.19c0.27,-0.27 0.49,-0.59 0.64,-0.94c0.15,-0.36 0.23,-0.74 0.23,-1.12c0,-0.39 -0.08,-0.77 -0.23,-1.12c-0.15,-0.36 -0.37,-0.68 -0.64,-0.95l0.09,0z" fill="white" id="svg_244"/>
     </mask>
     <g id="svg_245" mask="url(#mask28_2_2942)">
      <path d="m253.35,133.97l12.37,0.43l-0.19,5.56l-12.37,-0.43l0.19,-5.56z" fill="#FFFF49" id="svg_246"/>
     </g>
     <mask height="10" id="mask29_2_2942" maskUnits="userSpaceOnUse" width="11" x="254" y="130">
      <path d="m263.81,130.99c-0.25,-0.29 -0.56,-0.52 -0.91,-0.69c-0.35,-0.16 -0.72,-0.26 -1.11,-0.28c-0.38,-0.01 -0.77,0.05 -1.13,0.18c-0.36,0.13 -0.69,0.34 -0.97,0.6l0,0.1c-0.28,-0.27 -0.61,-0.49 -0.97,-0.63c-0.36,-0.15 -0.74,-0.22 -1.13,-0.21c-0.39,0 -0.77,0.08 -1.13,0.23c-0.35,0.16 -0.68,0.38 -0.95,0.65c-0.27,0.28 -0.48,0.61 -0.63,0.97c-0.14,0.36 -0.21,0.74 -0.21,1.13c0.01,0.39 0.09,0.77 0.24,1.13c0.15,0.36 0.37,0.68 0.65,0.95l3.84,4.03l4.03,-3.84l0.29,-0.19c0.27,-0.27 0.49,-0.59 0.64,-0.94c0.15,-0.36 0.23,-0.74 0.23,-1.12c0,-0.39 -0.08,-0.77 -0.23,-1.12c-0.15,-0.36 -0.37,-0.68 -0.64,-0.95l0.09,0z" fill="white" id="svg_247"/>
     </mask>
     <g id="svg_248" mask="url(#mask29_2_2942)">
      <path d="m253.54,128.3l12.38,0.43l-0.21,5.95l-12.37,-0.43l0.2,-5.95z" fill="#005F9F" id="svg_249"/>
     </g>
     <path d="m312.76,89.92c0.09,0 2.2,6.33 8.35,6.91l1.44,-6.33l0.57,-4.52l-10.36,3.84l0,0.1z" fill="#8D415F" id="svg_250" opacity="0.28"/>
     <path d="m307.29,71.01c-0.39,0 -0.19,5.09 0.38,8.55c0.29,2.11 1.92,1.72 1.92,1.72l3.36,-10.36l-5.76,0l0.1,0.09z" fill="black" id="svg_251"/>
     <path d="m325.42,80.8c0,6.53 -3.16,11.71 -8.63,11.71c-5.47,0 -8.45,-5.37 -8.45,-11.9c0,-6.52 3.17,-11.71 8.54,-11.71c5.38,0 8.64,5.47 8.64,11.9l-0.1,0z" fill="#CC8F4D" id="svg_252"/>
     <path d="m310.55,78.5c0.29,-1.54 3.36,-1.63 4.03,-0.67l-4.03,0.67zm9.02,-0.96c0.96,-1.06 4.03,-0.58 4.32,0.96l-4.32,-0.96z" fill="black" id="svg_253"/>
     <path d="m308.53,79.94l-0.28,0c-0.59,0 -1.06,0.47 -1.06,1.05l0,2.31c0,0.58 0.47,1.05 1.06,1.05l0.28,0c0.59,0 1.06,-0.47 1.06,-1.05l0,-2.31c0,-0.58 -0.47,-1.05 -1.06,-1.05z" fill="#CC8F4D" id="svg_254"/>
     <path d="m325.14,79.94l-0.29,0c-0.58,0 -1.06,0.47 -1.06,1.05l0,2.31c0,0.58 0.48,1.05 1.06,1.05l0.29,0c0.58,0 1.05,-0.47 1.05,-1.05l0,-2.31c0,-0.58 -0.47,-1.05 -1.05,-1.05z" fill="#CC8F4D" id="svg_255"/>
     <g id="svg_256">
      <path d="m315.06,82.63c-0.1,4.31 3.84,2.4 3.84,2.4l-1.73,-0.77l0.19,-4.8c0,0 -2.2,0.19 -2.3,3.17z" fill="#F8CDC2" id="svg_257"/>
     </g>
     <g id="svg_258">
      <path d="m308.34,81.28c0,0 -1.15,0.96 0,1.63l0,-1.63zm16.8,0l0,1.83c0,0 0.48,0 0.67,-0.77c0.19,-0.96 -0.67,-1.06 -0.67,-1.06z" fill="#F8CDC2" id="svg_259"/>
     </g>
     <path d="m325.04,76.2l-13.43,-4.99c0,0 -3.17,-1.06 -2.6,-5.09c0.58,-4.03 6.05,-1.44 9.31,0.58c3.33,2.23 5.73,5.61 6.72,9.5zm-2.78,3.74c0,0 -0.1,0.29 -0.58,0.38c-0.29,0.19 -1.34,0.29 -1.82,-0.29c0,0 0.29,-0.38 0.96,-0.47c0.57,0 1.25,0 1.44,0.47l0,-0.09zm-8.45,0.19l-0.57,0.38c-0.29,0.1 -0.6,0.12 -0.9,0.07c-0.3,-0.05 -0.59,-0.17 -0.83,-0.35c0,0 0.38,-0.48 1.15,-0.48c0.19,0 0.77,0 1.15,0.48l0,-0.1z" fill="black" id="svg_260"/>
     <g id="svg_261">
      <mask height="4" id="mask30_2_2942" maskUnits="userSpaceOnUse" width="6" x="314" y="85">
       <path d="m314.77,87.14l4.42,-1.16l0.38,1.54l-4.32,1.06l-0.48,-1.44z" fill="white" id="svg_262"/>
      </mask>
      <g id="svg_263" mask="url(#mask30_2_2942)">
       <path d="m314.96,87.52c0.1,-0.58 2.21,-0.58 2.21,-0.58c0,0 2.02,0 2.21,0.58l-4.42,0z" fill="#E7C1A8" id="svg_264"/>
      </g>
     </g>
    </g>
   </g>
  </g>
 </g>
</svg>