<svg width="162" height="48" viewBox="0 0 162 48" fill="none" xmlns="http://www.w3.org/2000/svg">
<g clip-path="url(#clip0_2_4218)">
<path d="M31.2182 24.3133C30.4188 19.4955 25.8603 16.2548 21.0641 17.0758L22.4684 9.0066L17.3158 8.08842C16.8837 9.06061 14.9393 13.4895 13.9995 18.4585C15.9115 19.7548 17.3158 21.8072 17.7371 24.2917C18.1691 26.9166 17.413 29.4767 15.8359 31.3779C16.2248 31.8532 16.6676 32.2853 17.1645 32.6741C19.1629 34.2512 21.5934 34.867 23.9699 34.4673C28.7985 33.6679 32.0391 29.1094 31.2074 24.3133H31.2182Z" fill="#054752"/>
<path d="M13.9132 19.0202L14.0213 18.4801C12.1849 17.227 9.91643 16.6653 7.56156 17.0542L8.96584 8.9958L3.82402 8.08842C3.37032 9.09302 1.29631 13.8136 0.410532 18.9986C-0.30241 23.1898 -0.270004 27.6835 1.92283 30.8486C2.40893 31.5291 2.98145 32.1448 3.67278 32.6849C5.68199 34.2621 8.12327 34.8778 10.4997 34.4781C12.6818 34.1216 14.529 32.9658 15.836 31.3995L15.4255 30.8594C13.2219 27.7051 13.1895 23.2114 13.9132 19.031V19.0202Z" fill="#2DBEFF"/>
<path d="M17.7479 24.3133C17.3159 21.8288 15.9116 19.7764 14.0104 18.4801L13.9024 19.0202C13.2002 23.2114 13.2326 27.7051 15.4363 30.8702L15.836 31.4103C17.4131 29.4659 18.1908 26.9166 17.7371 24.2809L17.7479 24.3133Z" fill="#9EF769"/>
<path d="M134.919 32.7173H131.851C131.743 32.7173 131.668 32.7714 131.635 32.8578C131.203 34.0028 130.598 34.9534 129.734 35.6231C128.87 36.2713 127.757 36.6601 126.31 36.6601C124.333 36.6601 122.745 35.796 121.665 34.3485C120.585 32.8902 119.98 30.8702 119.98 28.5585C119.98 26.2252 120.574 24.2052 121.665 22.7686C122.745 21.3319 124.344 20.4677 126.31 20.4677C127.746 20.4677 128.848 20.8458 129.712 21.5047C130.577 22.1744 131.171 23.125 131.614 24.2377C131.646 24.3241 131.722 24.3889 131.83 24.3889H134.908C134.951 24.3889 135.016 24.3673 135.049 24.3241C135.092 24.2917 135.113 24.2377 135.113 24.1728V24.1188C134.627 22.0448 133.623 20.3381 132.132 19.1498C130.641 17.9616 128.697 17.2703 126.277 17.2703C123.469 17.2703 120.984 18.4261 119.202 20.4029C117.42 22.3905 116.339 25.2098 116.339 28.5909C116.339 31.972 117.42 34.8022 119.202 36.779C120.984 38.7774 123.469 39.9116 126.288 39.9116C128.708 39.9116 130.674 39.2419 132.175 38.0428C133.666 36.8546 134.681 35.1262 135.146 33.0198V32.9658C135.146 32.901 135.124 32.8578 135.081 32.8038C135.059 32.7714 134.995 32.7498 134.93 32.7498L134.919 32.7173ZM161.849 23.6219C161.633 23.5787 161.33 23.5355 160.909 23.5355C160.542 23.5355 160.088 23.5679 159.57 23.6651C159.137 23.7516 158.673 23.9244 158.241 24.162C157.809 24.3997 157.377 24.7237 156.988 25.1126C156.772 25.3287 156.556 25.5987 156.361 25.9012L156.221 26.1172V24.0216C156.221 23.892 156.113 23.784 156.005 23.784H153.067C152.959 23.784 152.851 23.892 152.851 24.0216V39.3607C152.851 39.4687 152.959 39.5767 153.067 39.5767H156.026C156.156 39.5767 156.264 39.4687 156.264 39.3607V31.9072C156.264 31.043 156.372 30.3085 156.556 29.7035C156.75 29.0986 157.042 28.6233 157.42 28.2561C157.82 27.8888 158.262 27.6079 158.781 27.4243C159.386 27.2082 160.045 27.1434 160.617 27.1434C161.049 27.1434 161.482 27.1866 161.73 27.2298H161.762C161.892 27.2298 161.978 27.1434 161.978 27.0138V23.8596C162.011 23.7516 161.935 23.6435 161.816 23.6219H161.849ZM98.1917 17.2487H98.1377L95.1671 17.7672C95.059 17.7888 94.951 17.8752 94.951 17.9832V39.3499C94.951 39.4795 95.059 39.5875 95.1995 39.5875H98.1917C98.2997 39.5875 98.4077 39.4795 98.4077 39.3499V17.4863C98.4077 17.3567 98.2997 17.2487 98.1593 17.2487H98.1917ZM92.0668 29.9304C91.6348 29.0446 91.0298 28.2885 90.2845 27.6619L90.0684 27.4999C89.7444 27.2515 89.3879 27.0246 89.0098 26.8518L88.9018 26.7978L88.9774 26.7221C89.3231 26.3225 89.6256 25.858 89.8416 25.3611C90.1657 24.6373 90.3277 23.892 90.3277 23.1142C90.3277 22.2717 90.1549 21.4939 89.8308 20.7378C89.5067 19.9816 89.0422 19.3551 88.4589 18.815C87.9188 18.3181 87.2707 17.9292 86.5361 17.6483C85.8016 17.3675 84.8834 17.2162 83.8032 17.2162H77.2571C77.1275 17.2162 77.0194 17.3243 77.0194 17.4647V39.3391C77.0194 39.4687 77.1275 39.5767 77.2571 39.5767H85.3371C86.4929 39.5767 87.4543 39.4471 88.2321 39.1878C88.9882 38.9286 89.6904 38.5397 90.2845 38.0536C91.019 37.4379 91.624 36.6709 92.0668 35.7852C92.1749 35.5691 92.2505 35.3855 92.3261 35.191L92.3585 35.1046L92.4125 34.9534C92.6286 34.2837 92.7582 33.5815 92.7582 32.847C92.7366 31.7884 92.5097 30.7946 92.056 29.9088L92.0668 29.9304ZM80.5085 20.5325H83.2523C84.1165 20.5325 84.7646 20.6081 85.1967 20.7486C85.6072 20.9106 85.9312 21.1266 86.1689 21.3967C86.6334 21.9152 86.871 22.5201 86.871 23.2331C86.871 23.9244 86.655 24.5293 86.1689 25.0478C85.9312 25.3179 85.6288 25.5339 85.1967 25.6959C84.8942 25.804 84.4405 25.8688 83.9004 25.912H80.4761V20.5325H80.5085ZM88.9342 34.1C88.7614 34.5321 88.5237 34.8994 88.2213 35.2234C87.8756 35.5475 87.4651 35.8284 86.9574 36.0228C86.4497 36.2064 85.7044 36.3145 84.7106 36.3145H80.4977V29.2174H84.7106C85.7044 29.2174 86.4389 29.3255 86.9466 29.5091C87.4327 29.7035 87.854 29.9736 88.1889 30.3085C88.4913 30.6325 88.729 30.9998 88.9126 31.4103C89.0963 31.81 89.1827 32.2745 89.1827 32.739C89.1827 33.225 89.0963 33.6787 88.9126 34.1H88.9342ZM112.483 25.0694C111.338 24.0216 109.761 23.5031 107.795 23.5031C106.023 23.5031 104.576 23.9352 103.474 24.7994C102.502 25.5231 101.8 26.4521 101.422 27.5539C101.378 27.6619 101.454 27.8024 101.584 27.824L104.371 28.3101C104.479 28.3317 104.554 28.2777 104.587 28.202C105.159 26.9382 106.228 26.3225 107.806 26.3225C108.886 26.3225 109.707 26.6141 110.29 27.2082C110.873 27.8024 111.154 28.5909 111.154 29.5847V30.1464C109.696 29.7143 108.302 29.4983 107.006 29.4983C105.17 29.4983 103.636 29.952 102.415 30.881C101.205 31.81 100.579 33.117 100.579 34.7914C100.579 36.3901 101.151 37.6431 102.264 38.5505C103.377 39.4579 104.716 39.9116 106.293 39.9116C108.302 39.9116 109.966 39.3283 111.176 38.1184V39.3283C111.176 39.4795 111.305 39.5983 111.446 39.5983H114.017C114.157 39.5983 114.276 39.4903 114.276 39.3391V29.3687C114.244 27.5323 113.66 26.1064 112.494 25.0694H112.483ZM109.869 35.8716C109.005 36.5953 107.957 36.9518 106.704 36.9518C105.786 36.9518 105.083 36.7358 104.587 36.3253C104.111 35.9148 103.863 35.3531 103.863 34.6401C103.863 33.8624 104.187 33.2791 104.792 32.8902C105.397 32.5013 106.196 32.2961 107.168 32.2961C108.389 32.2961 109.728 32.5121 111.165 32.9442C111.165 34.208 110.733 35.1694 109.869 35.8608V35.8716ZM58.1157 17.2487H58.0724L55.0911 17.7672C54.983 17.7888 54.875 17.8752 54.875 17.9832V39.3499C54.875 39.4795 54.983 39.5875 55.1235 39.5875H58.1157C58.2237 39.5875 58.3317 39.4795 58.3317 39.3499V17.4863C58.3317 17.3567 58.2237 17.2487 58.0941 17.2487H58.1157ZM51.9584 29.9304C51.5263 29.0446 50.943 28.2885 50.1977 27.6619L49.9816 27.4999C49.6576 27.2515 49.3011 27.0246 48.923 26.8518L48.815 26.7978L48.8906 26.7221C49.2363 26.3225 49.5387 25.858 49.7548 25.3611C50.0789 24.6373 50.2409 23.892 50.2409 23.1142C50.2409 22.2717 50.0789 21.4939 49.7548 20.7378C49.4307 19.9816 48.9662 19.3551 48.3829 18.815C47.8428 18.3181 47.1947 17.9292 46.4817 17.6483C45.7472 17.3675 44.829 17.2162 43.7488 17.2162H37.2135C37.0839 17.2162 36.9758 17.3243 36.9758 17.4647V39.3391C36.9758 39.4687 37.0839 39.5767 37.2135 39.5767H45.2611C46.4169 39.5767 47.3783 39.4471 48.1561 39.1878C48.9122 38.9286 49.6144 38.5397 50.2085 38.0536C50.943 37.4379 51.5479 36.6709 51.9908 35.7852C52.0989 35.5691 52.1745 35.3855 52.2501 35.191L52.2825 35.1046C52.2825 35.0614 52.3041 34.9966 52.3257 34.9534C52.5417 34.2837 52.6714 33.5815 52.6714 32.847C52.6498 31.7884 52.4229 30.7946 51.9692 29.9088L51.9584 29.9304ZM40.4001 20.5325H43.1655C44.0296 20.5325 44.6778 20.6081 45.1099 20.7486C45.5203 20.9106 45.8444 21.1266 46.0821 21.3967C46.5465 21.9152 46.7842 22.5201 46.7842 23.2331C46.7842 23.9244 46.5682 24.5293 46.0821 25.0478C45.8444 25.3179 45.5419 25.5339 45.1099 25.6959C44.8074 25.804 44.3537 25.8688 43.8136 25.912H40.4001V20.5325ZM48.8582 34.1C48.6746 34.5321 48.4261 34.8994 48.1345 35.2234C47.7888 35.5475 47.3783 35.8284 46.8706 36.0228C46.3629 36.2064 45.6176 36.3145 44.6238 36.3145H40.4109V29.2174H44.6238C45.6284 29.2174 46.3737 29.3255 46.8706 29.5091C47.3783 29.7035 47.7996 29.9736 48.1345 30.3085C48.4369 30.6325 48.6746 30.9998 48.8582 31.4103C49.0418 31.81 49.1283 32.2745 49.1283 32.739C49.1283 33.225 49.0202 33.6787 48.8474 34.1H48.8582ZM72.4069 25.0694C71.2511 24.0216 69.674 23.5031 67.708 23.5031C65.9472 23.5031 64.4997 23.9352 63.3871 24.7994C62.4149 25.5231 61.7236 26.4521 61.3347 27.5539C61.3023 27.6619 61.3779 27.8024 61.5075 27.824L64.2837 28.3101C64.3917 28.3317 64.4997 28.2777 64.5321 28.202C65.0939 26.9382 66.1525 26.3225 67.7404 26.3225C68.7882 26.3225 69.62 26.6141 70.2033 27.2082C70.7866 27.8024 71.0891 28.5909 71.0891 29.5847V30.1464C69.6092 29.7143 68.2157 29.4983 66.9194 29.4983C65.0831 29.4983 63.5491 29.952 62.3285 30.881C61.0863 31.81 60.4921 33.117 60.4921 34.7914C60.4921 36.3901 61.0322 37.6431 62.1449 38.5505C63.2575 39.4579 64.597 39.9116 66.1741 39.9116C68.1941 39.9116 69.8468 39.3283 71.0675 38.1184V39.3283C71.0675 39.4795 71.1755 39.5983 71.3159 39.5983H73.8868C74.038 39.5983 74.1569 39.4903 74.1569 39.3391V29.3687C74.1245 27.5323 73.5519 26.1064 72.3853 25.0694H72.4069ZM69.7712 35.8716C68.907 36.5953 67.8268 36.9518 66.5846 36.9518C65.6664 36.9518 64.9642 36.7358 64.4673 36.3253C63.9704 35.9148 63.7112 35.3531 63.7112 34.6401C63.7112 33.8624 64.0352 33.2791 64.651 32.8902C65.2667 32.5013 66.0552 32.2961 67.0274 32.2961C68.2589 32.2961 69.5984 32.5121 71.0242 32.9442C71.0458 34.208 70.6138 35.1694 69.7496 35.8608L69.7712 35.8716ZM148.692 25.0694C147.536 24.0216 145.959 23.5031 143.993 23.5031C142.243 23.5031 140.795 23.9352 139.672 24.7994C138.7 25.5231 138.019 26.4521 137.62 27.5539C137.598 27.6619 137.674 27.8024 137.803 27.824L140.59 28.3101C140.698 28.3317 140.774 28.2777 140.806 28.202C141.379 26.9382 142.448 26.3225 144.025 26.3225C145.084 26.3225 145.916 26.6141 146.51 27.2082C147.082 27.8024 147.374 28.5909 147.374 29.5847V30.1464C145.905 29.7143 144.511 29.4983 143.215 29.4983C141.379 29.4983 139.845 29.952 138.624 30.881C137.404 31.81 136.788 33.117 136.788 34.7914C136.788 36.3901 137.35 37.6431 138.462 38.5505C139.575 39.4579 140.914 39.9116 142.491 39.9116C144.522 39.9116 146.164 39.3283 147.396 38.1184V39.3283C147.396 39.4795 147.504 39.5983 147.655 39.5983H150.226C150.366 39.5983 150.485 39.4903 150.485 39.3391V29.3687C150.442 27.5323 149.858 26.1064 148.703 25.0694H148.692ZM146.045 35.8716C145.181 36.5953 144.144 36.9518 142.891 36.9518C141.973 36.9518 141.271 36.7358 140.774 36.3253C140.298 35.9148 140.05 35.3531 140.05 34.6401C140.05 33.8624 140.374 33.2791 140.979 32.8902C141.595 32.5013 142.383 32.2961 143.355 32.2961C144.587 32.2961 145.948 32.5121 147.352 32.9442C147.352 34.208 146.92 35.1694 146.056 35.8608L146.045 35.8716Z" fill="#054752"/>
</g>
<defs>
<clipPath id="clip0_2_4218">
<rect width="162" height="32" fill="white" transform="translate(0 8)"/>
</clipPath>
</defs>
</svg>
