<?xml version="1.0"?>
<svg width="236" height="40" xmlns="http://www.w3.org/2000/svg" xmlns:svg="http://www.w3.org/2000/svg">
 <defs>
  <clipPath id="clip0_2_3810">
   <rect fill="white" height="36" id="svg_1" transform="translate(0 0.700195)" width="36"/>
  </clipPath>
 </defs>
 <g class="layer">
  <title>Layer 1</title>
  <g clip-path="url(#clip0_2_3810)" id="svg_2" transform="matrix(1 0 0 1 0 0)">
   <path clip-rule="evenodd" d="m18,0.7c-9.95,0 -18,8.1 -18,18.11c0,9.04 6.58,16.54 15.2,17.89l0,-12.66l-4.58,0l0,-5.23l4.56,0l0,-3.99c0,-4.53 2.7,-7.05 6.81,-7.05c1.96,0 4.02,0.36 4.02,0.36l0,4.45l-2.25,0c-2.25,0 -2.94,1.4 -2.94,2.84l0,3.39l4.98,0l-0.8,5.25l-4.2,0l0,12.64c8.63,-1.35 15.2,-8.85 15.2,-17.89c0,-9.99 -8.05,-18.11 -18,-18.11z" fill="#157b0f" fill-rule="evenodd" id="svg_3"/>
  </g>
  <path d="m93,9.95c-1.12,0.5 -2.25,0.88 -3.5,1c1.25,-0.75 2.25,-2 2.75,-3.38c-1.25,0.75 -2.5,1.26 -3.87,1.5c-0.57,-0.63 -1.27,-1.13 -2.04,-1.47c-0.78,-0.35 -1.62,-0.53 -2.46,-0.52c-1.63,0 -3.18,0.64 -4.33,1.79c-1.15,1.15 -1.8,2.71 -1.8,4.33c0,0.5 0,1 0.13,1.38c-5.25,-0.26 -9.75,-2.75 -12.75,-6.5c-0.63,0.99 -0.88,2 -0.88,3.12c0,2.13 1.12,4 2.75,5.13c-1,0 -2,-0.25 -2.75,-0.75l0,0.12c0,3 2.13,5.5 4.87,6c-0.49,0.12 -0.99,0.25 -1.62,0.25c-0.37,0 -0.75,0 -1.12,-0.13c0.75,2.51 3,4.26 5.74,4.26c-2.12,1.62 -4.74,2.62 -7.62,2.62c-0.5,0 -1,0 -1.5,-0.13c2.75,1.76 6,2.76 9.38,2.76c11.37,0 17.5,-9.38 17.5,-17.5l0,-0.75c1.25,-0.88 2.25,-2 3.12,-3.13z" fill="#157b0f" id="svg_4" transform="matrix(1 0 0 1 0 0)"/>
  <path d="m152.75,12.7c0,0 -0.25,-2.13 -1.25,-3c-1.12,-1.25 -2.37,-1.25 -3,-1.25c-4.25,-0.25 -10.5,-0.25 -10.5,-0.25c0,0 -6.25,0 -10.5,0.25c-0.62,0.13 -1.87,0.13 -3,1.25c-0.87,0.87 -1.25,3 -1.25,3c0,0 -0.25,2.37 -0.25,4.88l0,2.25c0,2.37 0.25,4.87 0.25,4.87c0,0 0.25,2.13 1.25,3c1.13,1.25 2.63,1.13 3.25,1.25c2.38,0.25 10.25,0.25 10.25,0.25c0,0 6.25,0 10.5,-0.37c0.63,-0.13 1.88,-0.13 3,-1.25c0.88,-0.88 1.25,-3 1.25,-3c0,0 0.25,-2.38 0.25,-4.88l0,-2.25c0,-2.38 -0.25,-4.75 -0.25,-4.75zm-17.87,9.87l0,-8.37l8.12,4.25l-8.12,4.12z" fill="#157b0f" id="svg_5" transform="matrix(1 0 0 1 0 0)"/>
  <path d="m198,6.4c4,0 4.48,0.02 6.06,0.09c1.71,0.08 3.29,0.42 4.51,1.64c1.22,1.22 1.56,2.8 1.64,4.51c0.07,1.58 0.09,2.06 0.09,6.06c0,4.01 -0.02,4.48 -0.09,6.06c-0.08,1.71 -0.42,3.29 -1.64,4.51c-1.22,1.22 -2.8,1.56 -4.51,1.64c-1.58,0.07 -2.06,0.09 -6.06,0.09c-4.01,0 -4.48,-0.02 -6.06,-0.09c-1.71,-0.08 -3.29,-0.42 -4.51,-1.64c-1.22,-1.22 -1.56,-2.8 -1.64,-4.51c-0.07,-1.58 -0.09,-2.06 -0.09,-6.06c0,-4.01 0.02,-4.48 0.09,-6.07c0.08,-1.7 0.42,-3.29 1.64,-4.5c1.22,-1.22 2.8,-1.56 4.51,-1.64c1.58,-0.07 2.06,-0.09 6.06,-0.09zm0,-2.7c-4.08,0 -4.59,0.02 -6.18,0.09c-2.44,0.11 -4.58,0.71 -6.3,2.43c-1.72,1.72 -2.32,3.86 -2.43,6.3c-0.07,1.59 -0.09,2.11 -0.09,6.18c0,4.08 0.02,4.59 0.09,6.18c0.11,2.44 0.71,4.58 2.43,6.3c1.72,1.72 3.86,2.32 6.3,2.43c1.59,0.07 2.11,0.09 6.18,0.09c4.07,0 4.59,-0.02 6.18,-0.09c2.44,-0.11 4.58,-0.71 6.3,-2.43c1.72,-1.72 2.32,-3.86 2.43,-6.3c0.07,-1.59 0.09,-2.11 0.09,-6.18c0,-4.07 -0.02,-4.59 -0.09,-6.18c-0.11,-2.44 -0.71,-4.58 -2.43,-6.3c-1.72,-1.72 -3.86,-2.32 -6.3,-2.43c-1.59,-0.07 -2.11,-0.09 -6.18,-0.09z" fill="#157b0f" id="svg_6"/>
  <path d="m198,11c-1.02,-0.02 -2.03,0.17 -2.98,0.55c-0.95,0.38 -1.81,0.95 -2.54,1.67c-0.72,0.71 -1.3,1.57 -1.69,2.51c-0.4,0.94 -0.6,1.95 -0.6,2.97c0,1.02 0.2,2.03 0.6,2.97c0.39,0.95 0.97,1.8 1.69,2.52c0.73,0.71 1.59,1.28 2.54,1.66c0.95,0.38 1.96,0.57 2.98,0.55c2.03,-0.02 3.96,-0.85 5.38,-2.29c1.42,-1.44 2.22,-3.39 2.22,-5.41c0,-2.02 -0.8,-3.97 -2.22,-5.41c-1.42,-1.44 -3.36,-2.26 -5.38,-2.29zm0,12.7c-1.33,0 -2.6,-0.53 -3.53,-1.46c-0.94,-0.94 -1.47,-2.21 -1.47,-3.54c0,-1.33 0.53,-2.6 1.47,-3.53c0.93,-0.94 2.2,-1.47 3.53,-1.47c1.33,0 2.6,0.53 3.53,1.47c0.94,0.93 1.47,2.2 1.47,3.53c0,1.33 -0.53,2.6 -1.47,3.54c-0.93,0.93 -2.2,1.46 -3.53,1.46z" fill="#157b0f" id="svg_7"/>
  <path d="m206.01,12.49c0.99,0 1.8,-0.8 1.8,-1.8c0,-0.99 -0.81,-1.8 -1.8,-1.8c-1,0 -1.8,0.81 -1.8,1.8c0,1 0.8,1.8 1.8,1.8z" fill="#157b0f" id="svg_8"/>
 </g>
</svg>