<?xml version="1.0" encoding="utf-8"?>
<svg width="1024" height="823" viewBox="0 0 1024 823" fill="none" xmlns="http://www.w3.org/2000/svg">
  <g clip-path="url(#clip0_2_3844)">
    <g clip-path="url(#clip1_2_3844)">
      <g clip-path="url(#clip2_2_3844)">
        <path d="M-511.75 0H1535.75V491.4H-511.75V0Z" fill="url(#paint0_linear_2_3844)"/>
        <mask id="mask0_2_3844" style="mask-type:luminance" maskUnits="userSpaceOnUse" x="-512" y="0" width="2048" height="819">
          <path d="M-511.75 0H1535.75V819H-511.75V0Z" fill="white"/>
        </mask>
        <g mask="url(#mask0_2_3844)">
          <path d="M-24.6499 412.121C-24.6499 412.121 43.0098 408.978 98.8656 389.312C98.8656 389.312 153.124 406.623 183.837 412.121C214.549 417.618 275.094 408.978 293.982 418.417C293.982 418.417 333.315 442.813 355.346 445.167C377.377 447.522 408.847 449.099 429.301 438.093C449.756 427.088 453.687 434.152 463.085 438.093C472.483 442.035 484.328 452.252 514.273 431.009C544.217 409.766 556.748 402.682 570.917 407.401C585.085 412.121 612.614 434.94 690.501 455.395C768.388 475.849 815.593 438.871 815.593 438.871C815.593 438.871 825.032 428.634 850.206 428.634C875.38 428.634 954.055 425.491 954.055 425.491L562.256 685.913L61.0994 512.827L-24.6499 412.121Z" fill="#5b8c58"/>
          <path d="M1675.5 58.8759C1675.5 58.8759 1592.11 183.968 1520.52 191.841C1520.52 191.841 1487.47 199.703 1483.54 211.507C1479.61 223.311 1470.95 239.046 1456 239.834C1441.05 240.622 1411.98 253.204 1382.83 239.834C1353.69 226.464 1320.68 227.242 1296.29 246.12C1271.91 264.998 1162.54 335.79 1109.87 358.63C1057.2 381.47 1034.35 365.704 1034.35 365.704C1034.35 365.704 678.738 586.783 517.457 663.093L679.526 777.958L1547.3 720.526L1722.75 670.177L1675.5 58.8759Z" fill="#6ca168"/>
          <path d="M-520.298 162.776C-520.298 162.776 -457.358 155.61 -413.306 176.894C-369.254 198.178 -240.221 297.266 -189.873 312.244C-139.525 327.221 -96.2406 326.402 -68.712 342.137C-41.1833 357.872 -3.40698 398.781 50.8722 425.532C105.151 452.283 437.952 643.458 581.175 647.389L562.256 685.912L48.5176 675.675L-342.493 423.925L-520.298 162.776Z" fill="#6ca168"/>
          <path d="M-692.206 -51.6584C-692.206 -51.6584 -651.256 -70.5364 -625.335 -51.6584C-599.414 -32.7805 -477.424 252.027 -171.384 437.694C-171.384 437.694 32.7826 566.328 142.907 583.64C253.032 600.951 333.325 662.315 432.424 652.866C531.523 643.417 609.44 670.177 650.349 670.177C691.259 670.177 1074.41 659.162 1074.41 659.162L1346.62 650.511L371.081 777.958H-691.807L-692.206 -51.6584Z" fill="#73c26e"/>
          <path d="M-711.484 696.15C-711.484 696.15 -402.311 740.99 220.815 731.551L151.579 757.514L-263.818 767.751L-716.981 761.465L-711.484 696.15Z" fill="#1c8c15"/>
          <path d="M485.157 720.525C485.157 720.525 405.694 707.155 375.012 710.288C344.33 713.421 181.472 735.462 181.472 735.462C181.472 735.462 147.688 739.403 83.9189 737.827C83.9189 737.827 47.7294 737.827 20.9788 742.546C-5.77185 747.266 -149.742 759.08 -182 758.292C-214.259 757.503 -703.611 751.207 -703.611 751.207V777.958L-228.417 808.67L362.43 784.254L500.892 748.853L485.157 720.525Z" fill="#2b9e24"/>
          <path d="M127.981 736.26C127.981 736.26 114.601 739.414 119.32 744.133C124.04 748.853 136.632 751.207 131.124 755.937C125.616 760.667 108.305 765.376 68.9722 767.731C29.6397 770.085 -196.947 774.815 -196.947 774.815L-388.9 779.534L-816.101 777.958V795.269L-270.892 785.83L-86.0031 780.323L73.702 774.027C73.702 774.027 130.346 769.307 136.642 763.011C142.938 756.715 137.43 749.641 134.277 748.064C131.124 746.488 122.484 744.921 122.484 742.557C122.484 740.192 127.981 736.26 127.981 736.26Z" fill="#CDDADC"/>
          <path d="M1703.04 522.266C1703.04 522.266 840.767 667.035 527.643 706.388C527.643 706.388 352.203 733.138 321.511 751.228C290.819 769.317 463.884 755.937 463.884 755.937C463.884 755.937 265.624 777.958 58.7141 788.185C-148.196 798.412 -692.626 788.185 -692.626 788.185V801.596L22.5245 829.913L1691.99 824.405L1703.04 522.266Z" fill="#12750c"/>
          <path d="M1709.33 816.512L574.848 808.64H20.1904L-208.72 802.354H-692.595L-691.807 868.437L-178.857 877.088C-178.857 877.088 91.0032 888.891 312.86 911.711C534.717 934.53 897.421 954.196 974.51 1039.95C1051.6 1125.7 869.872 1223.26 869.872 1223.26H1691.24L1709.33 816.512Z" fill="#1c8c15"/>
          <path d="M1034.63 739.342C1034.63 734.049 1029.09 729.749 1022.24 729.749C1020.49 729.744 1018.76 730.034 1017.12 730.609C1015.3 728.568 1013.01 727.007 1010.44 726.066C1007.88 725.125 1005.12 724.832 1002.41 725.214C999.706 725.596 997.136 726.641 994.931 728.255C992.727 729.87 990.955 732.004 989.774 734.469C989.232 734.383 988.684 734.338 988.136 734.336C985.564 734.261 983.067 735.208 981.191 736.969C979.314 738.73 978.212 741.162 978.124 743.734H1033.26C1034.15 742.438 1034.62 740.91 1034.63 739.342Z" fill="#D3E2E4"/>
          <path d="M473.681 766.103C473.681 760.831 468.163 756.561 461.396 756.561C459.654 756.55 457.922 756.837 456.277 757.411C454.47 755.381 452.189 753.829 449.638 752.893C447.086 751.956 444.343 751.665 441.652 752.044C438.96 752.422 436.404 753.46 434.211 755.064C432.017 756.669 430.253 758.79 429.076 761.24C428.541 761.157 428 761.116 427.459 761.117C424.901 761.045 422.418 761.988 420.553 763.738C418.687 765.489 417.589 767.907 417.498 770.464H472.33C473.204 769.177 473.674 767.659 473.681 766.103ZM195.027 748.044C195.027 745.28 192.129 743.038 188.567 743.038C187.657 743.036 186.753 743.188 185.895 743.488C184.946 742.425 183.748 741.613 182.409 741.125C181.07 740.637 179.631 740.487 178.22 740.69C176.809 740.892 175.471 741.441 174.323 742.287C173.176 743.132 172.256 744.248 171.644 745.536C171.363 745.494 171.079 745.474 170.794 745.474C169.457 745.446 168.162 745.943 167.187 746.857C166.211 747.772 165.632 749.032 165.573 750.368H194.31C194.775 749.682 195.025 748.873 195.027 748.044ZM362.184 726.801C362.184 724.047 359.297 721.805 355.735 721.805C354.825 721.802 353.921 721.955 353.063 722.256C352.113 721.193 350.914 720.381 349.574 719.893C348.235 719.405 346.795 719.255 345.384 719.458C343.972 719.66 342.633 720.209 341.485 721.054C340.336 721.9 339.415 723.016 338.802 724.303C338.524 724.258 338.244 724.235 337.963 724.231C336.624 724.203 335.327 724.701 334.351 725.618C333.375 726.535 332.797 727.797 332.741 729.135H361.509C361.962 728.442 362.197 727.629 362.184 726.801Z" fill="#D3E2E4"/>
          <path d="M933.744 639.598V662.049" stroke="#054752" stroke-width="4.095" stroke-miterlimit="10"/>
          <path d="M946.95 623.013H946.295C945.691 618.478 941.422 614.956 936.252 614.956C934.313 614.912 932.402 615.423 930.744 616.43C929.086 617.437 927.75 618.897 926.895 620.638C926.205 620.122 925.411 619.763 924.568 619.585C923.725 619.407 922.854 619.414 922.014 619.606C921.174 619.799 920.387 620.171 919.705 620.699C919.024 621.226 918.466 621.895 918.069 622.66C917.673 623.425 917.447 624.267 917.408 625.127C917.37 625.988 917.519 626.847 917.845 627.644C918.171 628.441 918.667 629.158 919.299 629.744C919.93 630.331 920.681 630.773 921.5 631.04C920.831 632.216 920.478 633.546 920.476 634.899C920.48 636.229 920.818 637.536 921.459 638.701C922.1 639.865 923.024 640.85 924.146 641.564C925.268 642.277 926.551 642.697 927.878 642.785C929.204 642.873 930.532 642.625 931.737 642.065C933.497 643.22 935.56 643.826 937.665 643.806C942.067 643.806 945.763 641.328 946.705 637.991H946.94C947.926 637.991 948.901 637.797 949.812 637.42C950.722 637.042 951.55 636.49 952.246 635.793C952.943 635.096 953.496 634.269 953.873 633.358C954.25 632.448 954.444 631.472 954.444 630.487C954.444 629.501 954.25 628.525 953.873 627.615C953.496 626.705 952.943 625.877 952.246 625.18C951.55 624.484 950.722 623.931 949.812 623.554C948.901 623.177 947.926 622.983 946.94 622.983L946.95 623.013Z" fill="#2E5862"/>
          <path d="M985.669 630.159V652.61" stroke="#054752" stroke-width="4.095" stroke-miterlimit="10"/>
          <path d="M998.875 613.574H998.22C997.616 609.029 993.347 605.517 988.177 605.517C986.238 605.473 984.326 605.984 982.668 606.991C981.01 607.998 979.675 609.458 978.82 611.199C977.784 610.385 976.503 609.945 975.185 609.95C973.767 609.955 972.397 610.467 971.322 611.393C970.248 612.32 969.54 613.6 969.326 615.002C969.112 616.404 969.407 617.837 970.157 619.041C970.906 620.246 972.062 621.142 973.414 621.57C972.745 622.746 972.392 624.076 972.39 625.429C972.394 626.759 972.732 628.066 973.373 629.231C974.014 630.396 974.939 631.38 976.06 632.094C977.182 632.808 978.465 633.228 979.792 633.315C981.118 633.403 982.446 633.156 983.652 632.596C985.411 633.75 987.475 634.356 989.579 634.336C993.992 634.336 997.677 631.848 998.619 628.521H998.855C999.863 628.558 1000.87 628.392 1001.81 628.032C1002.75 627.672 1003.61 627.125 1004.34 626.425C1005.07 625.725 1005.64 624.886 1006.04 623.958C1006.43 623.029 1006.64 622.031 1006.64 621.022C1006.64 620.013 1006.43 619.015 1006.04 618.086C1005.64 617.158 1005.07 616.319 1004.34 615.619C1003.61 614.919 1002.75 614.372 1001.81 614.012C1000.87 613.652 999.863 613.486 998.855 613.523L998.875 613.574Z" fill="#2E5862"/>
          <path d="M1046.08 604.135H1045.42C1044.82 599.59 1040.55 596.078 1035.38 596.078C1033.44 596.033 1031.53 596.543 1029.88 597.548C1028.22 598.553 1026.88 600.011 1026.02 601.75C1025.34 601.216 1024.54 600.839 1023.69 600.647C1022.84 600.455 1021.96 600.452 1021.11 600.638C1020.26 600.824 1019.46 601.195 1018.76 601.725C1018.07 602.254 1017.5 602.929 1017.1 603.702C1016.7 604.474 1016.47 605.326 1016.44 606.197C1016.4 607.067 1016.55 607.935 1016.89 608.739C1017.22 609.543 1017.73 610.264 1018.38 610.85C1019.02 611.436 1019.79 611.873 1020.62 612.131C1019.95 613.307 1019.6 614.637 1019.6 615.99C1019.6 617.32 1019.94 618.627 1020.58 619.792C1021.22 620.957 1022.14 621.941 1023.27 622.655C1024.39 623.369 1025.67 623.789 1027 623.877C1028.32 623.964 1029.65 623.717 1030.86 623.157C1032.62 624.312 1034.68 624.917 1036.78 624.897C1041.19 624.897 1044.88 622.409 1045.82 619.082H1046.06C1047.07 619.119 1048.07 618.953 1049.02 618.593C1049.96 618.233 1050.82 617.686 1051.54 616.986C1052.27 616.286 1052.85 615.447 1053.24 614.519C1053.64 613.59 1053.84 612.592 1053.84 611.583C1053.84 610.574 1053.64 609.576 1053.24 608.648C1052.85 607.719 1052.27 606.88 1051.54 606.18C1050.82 605.48 1049.96 604.933 1049.02 604.573C1048.07 604.213 1047.07 604.047 1046.06 604.084L1046.08 604.135Z" fill="#2E5862"/>
          <path opacity="0.4" d="M376.65 505.139L901.465 505.139C904.852 505.139 907.597 502.393 907.597 499.006V397.543C907.597 394.156 904.852 391.41 901.465 391.41L376.65 391.41C373.263 391.41 370.518 394.156 370.518 397.543V499.006C370.518 502.393 373.263 505.139 376.65 505.139Z" fill="white"/>
          <path d="M840.307 436.393L850.123 436.524C850.123 436.524 851.61 440.958 851.384 449.244C851.384 449.591 842.933 451.991 842.933 451.991L840.307 436.393Z" fill="#DDB68D"/>
          <path d="M837.508 428.456C837.731 428.983 837.877 429.539 837.942 430.108C837.942 430.977 837.412 431.977 837.429 432.498C837.621 436.846 836.629 436.428 837.003 438.019C837.281 439.21 838.812 439.271 841.35 439.758C843.228 440.123 847.88 438.019 848.645 437.706C852.122 436.107 853.496 429.256 853.496 426.456C853.496 420.57 848.645 419.875 845.063 420.518C843.336 420.811 841.72 421.565 840.385 422.7C838.316 424.491 837.342 428.021 837.508 428.456Z" fill="#DDB68D"/>
          <path d="M841.055 428.499C840.621 428.124 840.077 427.902 839.505 427.867C838.933 427.833 838.365 427.988 837.89 428.308" fill="black"/>
          <g style="mix-blend-mode:multiply">
            <path d="M839.49 430.551C839.754 430.551 839.968 430.337 839.968 430.073C839.968 429.809 839.754 429.595 839.49 429.595C839.225 429.595 839.011 429.809 839.011 430.073C839.011 430.337 839.225 430.551 839.49 430.551Z" fill="#014753"/>
          </g>
          <path d="M838.125 429.038C837.585 430.352 836.978 431.638 836.308 432.89C836.255 433.029 837.438 433.22 837.577 433.22C837.716 433.22 838.125 429.038 838.125 429.038Z" fill="#DDB68D"/>
          <g style="mix-blend-mode:multiply" opacity="0.67">
            <path d="M845.863 440.028C845.671 440.132 846.958 445.462 842.055 446.922L840.881 439.654L845.863 440.028Z" fill="#DDB68D"/>
          </g>
          <g style="mix-blend-mode:multiply">
            <path d="M837.473 434.072C837.473 434.072 838.759 434.394 838.733 434.629C838.681 435.115 837.377 435.168 837.377 435.168L837.473 434.072Z" fill="#DDB68D"/>
          </g>
          <path d="M837.403 433.098C837.403 433.098 840.455 433.342 840.455 434.342C840.455 434.403 837.473 434.072 837.473 434.072L837.403 433.098ZM837.299 425.534C837.299 425.534 841.342 415.101 852.079 420.918C856.982 423.578 855.104 431.09 850.923 437.437C850.862 437.524 848.393 437.845 847.749 436.785C846.958 435.463 846.732 430.655 846.732 430.655L843.967 431.238C843.967 431.238 843.637 427.812 843.098 427.665C838.09 426.256 837.299 425.534 837.299 425.534Z" fill="black"/>
          <g style="mix-blend-mode:multiply" opacity="0.67">
            <path d="M847.071 429.699C847.071 429.699 847.245 431.69 846.289 432.055C845.874 432.195 845.425 432.195 845.01 432.055C845.01 432.055 845.35 434.985 846.949 434.333C848.549 433.681 847.071 429.699 847.071 429.699Z" fill="#DDB68D"/>
          </g>
          <path d="M845.115 430.386C845.115 430.386 845.984 428.586 846.81 429.325C847.008 429.545 847.139 429.817 847.188 430.108C847.238 430.4 847.204 430.699 847.09 430.972C846.976 431.245 846.788 431.48 846.546 431.65C846.304 431.821 846.019 431.919 845.723 431.933C844.767 431.933 844.68 431.707 844.68 431.707L845.115 430.386Z" fill="#DDB68D"/>
          <g style="mix-blend-mode:multiply">
            <path d="M845.863 430.412C845.864 430.34 845.887 430.27 845.929 430.211C845.971 430.153 846.03 430.108 846.098 430.084C846.166 430.059 846.239 430.056 846.309 430.074C846.379 430.092 846.441 430.131 846.489 430.186V430.264C846.501 430.342 846.501 430.421 846.489 430.499C846.487 430.587 846.468 430.674 846.432 430.755C846.396 430.835 846.344 430.908 846.28 430.968C846.214 431.028 846.129 431.06 846.041 431.06C845.953 431.06 845.867 431.028 845.802 430.968L845.863 430.412Z" fill="#DDB68D"/>
          </g>
          <path d="M833.76 458.007C835.699 454.59 842.263 446.887 842.263 446.887L850.957 445.444C850.957 445.444 857.217 449.878 858.782 457.268C858.843 457.546 858.234 465.31 858.234 465.31H831.934C831.934 465.31 833.708 458.094 833.76 458.007Z" fill="#DDB68D"/>
          <path d="M851.001 443.914L840.107 449.478L833.595 458.103L831.856 465.458H858.339L858.93 456.634C858.93 456.634 856.652 449.956 853.079 447.261L851.001 443.914Z" fill="#1D6D75"/>
          <path d="M851.253 443.384L840.063 449.565L852.427 445.444L851.253 443.384Z" fill="#054752"/>
          <path d="M843.602 467.814L834.769 459.572L843.602 452.808L849.784 454.573L851.253 460.163L843.602 467.814Z" fill="#054752"/>
          <path d="M834.769 459.572L843.602 467.814L843.011 468.406L834.177 460.163L834.769 459.572Z" fill="#005156"/>
          <path d="M759.225 429.686C759.225 429.686 760.564 435.998 756.912 439.084C749.783 445.118 756.304 451.604 762.129 450.117C767.954 448.631 766.128 436.493 766.128 436.493L759.225 429.686Z" fill="#F1890E"/>
          <g style="mix-blend-mode:multiply">
            <path d="M760.616 431.338C760.616 431.338 760.973 436.989 758.356 440.945C755.182 445.744 758.564 450.613 761.32 450.335C761.859 450.274 766.824 443.857 766.824 443.857C766.824 443.857 761.894 431.312 760.616 431.338Z" fill="#F5B240"/>
          </g>
          <path d="M760.642 435.563L766.45 435.381C768.613 438.54 769.691 442.318 769.519 446.144C769.519 446.414 762.72 448.344 762.72 448.344L760.642 435.563Z" fill="#F9CFC4"/>
          <path d="M768.675 449.422C768.675 449.422 769.232 453.247 765.911 459.916C762.589 466.584 750.522 475.357 749.713 475.565C744.019 477.252 743.871 472.67 745.062 470.349C746.062 468.366 748.705 463.967 755.834 455.212C759.129 451.169 764.789 445.631 768.675 449.422Z" fill="#F9CFC4"/>
          <path d="M759.833 464.245C759.833 464.245 752.417 464.906 752.417 460.542C752.417 458.22 752.6 459.794 758.721 451.082" fill="#E9CA91"/>
          <path d="M729.63 491.023C729.299 491.744 728.9 492.431 728.439 493.075C728.316 493.739 728.144 494.393 727.926 495.031C728.022 495.542 728.147 496.047 728.3 496.544C728.332 496.706 728.319 496.873 728.26 497.027C728.202 497.181 728.101 497.315 727.969 497.414L726.517 494.805L726.882 492.501L727.195 489.806C727.414 489.635 727.679 489.533 727.956 489.513C728.234 489.493 728.51 489.556 728.752 489.693C729.199 490.013 729.511 490.487 729.63 491.023ZM756.834 453.76C758.277 452.178 761.894 443.44 761.894 443.44L770.014 443.066C770.014 443.066 775.153 448.126 775.883 452.16C776.308 454.936 776.344 457.757 775.987 460.542H757.634C757.634 460.542 756.764 453.873 756.834 453.76Z" fill="#F9CFC4"/>
          <g style="mix-blend-mode:multiply" opacity="0.69">
            <path d="M764.641 437.189C764.928 438.528 764.067 443.04 762.033 443.762L760.781 436.389L764.641 437.189Z" fill="#F9CFC4"/>
          </g>
          <path d="M758.434 429.851C758.529 431.312 758.538 432.503 758.538 433.485V434.224C758.538 437.485 758.364 437.928 761.077 438.38C762.598 438.641 766.589 436.424 766.91 435.867C768.093 433.877 769.745 431.068 769.745 428.973C769.779 428.123 769.64 427.276 769.335 426.482C769.03 425.688 768.566 424.965 767.972 424.357C767.378 423.749 766.665 423.268 765.879 422.945C765.092 422.622 764.248 422.464 763.398 422.478C762.398 422.56 761.44 422.915 760.627 423.504C759.815 424.092 759.179 424.892 758.79 425.817C758.173 427.791 758.321 427.991 758.434 429.851Z" fill="#F9CFC4"/>
          <g style="mix-blend-mode:multiply">
            <path d="M761.459 428.999C761.361 428.912 761.25 428.841 761.129 428.79C760.959 428.722 760.78 428.675 760.598 428.651C760.016 428.586 759.427 428.628 758.86 428.773C758.634 428.825 758.547 428.486 758.764 428.434C759.403 428.272 760.066 428.231 760.72 428.312C761.094 428.358 761.446 428.508 761.737 428.747C761.903 428.903 761.65 429.147 761.485 428.999H761.459Z" fill="#EDB6AB"/>
          </g>
          <g style="mix-blend-mode:multiply">
            <path d="M760.233 430.39C760.445 430.39 760.616 430.219 760.616 430.008C760.616 429.796 760.445 429.625 760.233 429.625C760.022 429.625 759.851 429.796 759.851 430.008C759.851 430.219 760.022 430.39 760.233 430.39Z" fill="#014753"/>
          </g>
          <path d="M758.694 429.477C758.625 429.573 758.034 430.773 757.677 431.277C757.425 431.625 757.677 431.66 758.06 431.764L758.677 431.877C759.086 431.912 758.694 429.477 758.694 429.477Z" fill="#F9CFC4"/>
          <path d="M758.825 434.224C759.019 434.213 759.205 434.143 759.36 434.026C759.515 433.908 759.631 433.747 759.694 433.564L758.825 433.485V434.224Z" fill="white"/>
          <path d="M764.711 424.243C764.607 424.243 764.415 425.348 763.442 425.356C760.373 425.356 757.451 424.487 758.225 421.487C758.686 419.748 760.833 419.479 764.241 420.574C768.928 422.052 771.605 424.826 772.127 426.33C773.005 428.764 764.711 424.243 764.711 424.243Z" fill="#F1890E"/>
          <path d="M761.946 423.07C761.81 424.801 762.22 426.531 763.12 428.017C763.746 429.016 767.102 429.825 767.189 431.381C767.189 432.155 766.05 433.355 765.98 434.346C765.441 441.423 764.833 449.822 774.414 450.456C780.439 450.856 783.786 448.77 782.908 442.232C782.604 440.015 779.708 437.632 774.961 436.928C773.901 436.772 773.031 431.859 772.727 428.46C772.56 426.83 771.817 425.313 770.632 424.183C770.632 424.183 764.555 421.374 761.946 423.07Z" fill="#F1890E"/>
          <g style="mix-blend-mode:multiply" opacity="0.69">
            <path d="M767.563 430.66C767.563 430.781 768.71 434.598 766.067 435.528C765.789 435.624 765.884 432.92 765.884 432.92L767.563 430.66Z" fill="#F9CFC4"/>
          </g>
          <path d="M765.702 431.025C765.702 431.025 766.745 429.782 767.38 430.373C768.015 430.964 766.867 433.207 766.145 432.981C765.424 432.755 765.398 432.355 765.398 432.355L765.702 431.025Z" fill="#F9CFC4"/>
          <g style="mix-blend-mode:multiply">
            <path d="M766.189 431.129C766.274 431.071 766.378 431.047 766.48 431.06C766.583 431.072 766.677 431.122 766.745 431.199C766.78 431.254 766.8 431.317 766.806 431.381C766.823 431.451 766.826 431.523 766.814 431.593C766.802 431.663 766.775 431.73 766.737 431.79C766.696 431.848 766.635 431.889 766.566 431.905C766.497 431.921 766.425 431.911 766.363 431.877" fill="#F9CFC4"/>
          </g>
          <path d="M681.846 436.598L691.627 436.737C691.627 436.737 693.114 441.154 692.888 449.413C692.888 449.752 684.463 452.152 684.463 452.152L681.846 436.598Z" fill="#FACCA3"/>
          <path d="M675.5 457.464C677.438 454.038 684.003 446.344 684.003 446.344L692.697 444.892C692.697 444.892 698.957 449.326 700.522 456.725C700.582 457.003 699.974 464.767 699.974 464.767H673.674C673.674 464.767 675.447 457.551 675.5 457.464ZM678.551 438.311C678.829 439.432 680.351 439.493 682.898 439.971H682.959C683.328 440.023 683.703 440.023 684.072 439.971C684.787 439.863 685.493 439.703 686.185 439.493C687.535 439.079 688.861 438.591 690.158 438.032C693.636 436.511 695.001 430.025 695.001 427.373C695.001 421.8 690.167 421.139 686.593 421.748C684.887 422.021 683.28 422.734 681.933 423.817C679.873 425.495 678.899 428.843 679.064 429.251C679.285 429.749 679.432 430.276 679.499 430.816C679.499 431.686 678.969 432.555 678.986 433.077V433.52C679.099 437.189 678.195 436.859 678.551 438.311Z" fill="#FACCA3"/>
          <path opacity="0.47" d="M682.568 428.729C682.135 428.356 681.592 428.136 681.022 428.101C680.452 428.067 679.886 428.22 679.412 428.538" fill="#95ABBD"/>
          <g style="mix-blend-mode:multiply">
            <path d="M681.029 430.781C681.293 430.781 681.507 430.567 681.507 430.303C681.507 430.039 681.293 429.825 681.029 429.825C680.765 429.825 680.551 430.039 680.551 430.303C680.551 430.567 680.765 430.781 681.029 430.781Z" fill="#014753"/>
          </g>
          <path d="M679.673 429.277C679.132 430.585 678.526 431.865 677.856 433.111C677.856 433.251 678.986 433.442 679.125 433.442C679.524 432.937 679.787 432.338 679.89 431.703C679.954 430.888 679.881 430.068 679.673 429.277Z" fill="#FACCA3"/>
          <g style="mix-blend-mode:multiply" opacity="0.67">
            <path d="M687.385 440.223C687.185 440.328 688.48 445.64 683.585 447.1L682.42 439.893L687.385 440.223Z" fill="#FACCA3"/>
          </g>
          <g style="mix-blend-mode:multiply">
            <path d="M679.021 434.285C679.021 434.285 680.299 434.607 680.273 434.842C680.221 435.328 678.925 435.372 678.925 435.372L679.021 434.285Z" fill="#FACCA3"/>
          </g>
          <g style="mix-blend-mode:multiply" opacity="0.47">
            <path d="M678.551 438.311C678.829 439.432 680.351 439.493 682.898 439.971H684.072C684.509 439.951 684.945 439.905 685.376 439.832C685.667 439.777 685.942 439.662 686.185 439.493C687.924 438.328 687.984 434.859 687.984 434.859L679.029 433.355V433.52C679.099 437.189 678.195 436.859 678.551 438.311Z" fill="#95ABBD"/>
          </g>
          <path d="M688.097 426.921C688.097 426.921 679.855 427.304 678.708 426.243C677.56 425.182 674.004 419.157 680.142 419.157C683.897 419.218 687.491 420.689 690.21 423.278L688.097 426.921Z" fill="#F5B240"/>
          <path d="M692.775 443.371L681.881 448.935L675.369 457.551L673.63 464.915H700.113L700.704 456.081C700.704 456.081 698.426 449.413 694.853 446.718L692.775 443.371Z" fill="#73c26e"/>
          <path d="M692.992 442.84L681.803 449.022L694.166 444.901L692.992 442.84Z" fill="white"/>
          <path d="M681.472 423.713C681.472 423.713 686.785 416.853 694.635 421.531C699.409 424.382 697.296 431.503 692.027 437.58C691.949 437.667 689.68 437.128 689.045 436.067C688.254 434.746 688.306 430.851 688.306 430.851L685.541 431.425C685.541 431.425 684.828 428.39 684.672 427.86C684.081 425.617 681.472 423.713 681.472 423.713Z" fill="#F5B240"/>
          <g style="mix-blend-mode:multiply" opacity="0.67">
            <path d="M688.584 429.929C688.584 429.929 688.767 431.912 687.811 432.277C687.396 432.417 686.947 432.417 686.532 432.277C686.532 432.277 686.872 435.198 688.471 434.555C690.071 433.911 688.584 429.929 688.584 429.929Z" fill="#FACCA3"/>
          </g>
          <path d="M686.637 430.616C686.637 430.616 687.506 428.816 688.323 429.555C688.524 429.774 688.659 430.046 688.71 430.339C688.762 430.631 688.728 430.933 688.614 431.207C688.5 431.481 688.309 431.717 688.065 431.887C687.821 432.056 687.534 432.152 687.237 432.164C686.298 432.164 686.202 431.938 686.202 431.938L686.637 430.616Z" fill="#FACCA3"/>
          <g style="mix-blend-mode:multiply">
            <path d="M687.385 430.642C687.385 430.312 687.828 430.147 688.002 430.416V430.494C688.019 430.572 688.019 430.652 688.002 430.729C688.001 430.817 687.983 430.903 687.949 430.984C687.915 431.065 687.865 431.138 687.802 431.199C687.736 431.258 687.651 431.291 687.563 431.291C687.474 431.291 687.389 431.258 687.324 431.199L687.385 430.642Z" fill="#FACCA3"/>
          </g>
          <path opacity="0.3" d="M692.045 457.777C692.045 457.777 692.34 461.559 689.906 463.75C687.028 466.358 674.882 477.304 674.161 477.521C669.092 479.052 669.457 474.418 670.509 472.305C671.561 470.192 673.648 464.689 677.682 460.455C681.281 456.681 688.063 450.117 692.045 457.777Z" fill="#8F4160"/>
          <path d="M672.509 476.687C670.5 477.234 669.961 476.009 669.961 476.009C667.762 469.514 665.397 461.124 664.041 456.968C663.923 456.437 663.862 455.895 663.858 455.351L666.605 453.778C680.012 471.957 674.517 476.13 672.509 476.687ZM664.562 448.735C664.432 448.043 664.228 447.366 663.954 446.718C663.974 446.12 663.957 445.522 663.902 444.927C664.084 444.5 664.293 444.085 664.528 443.684C664.59 443.553 664.614 443.407 664.595 443.264C664.577 443.12 664.517 442.985 664.423 442.875L662.615 444.875L662.467 446.953L662.189 449.343C662.376 449.52 662.607 449.643 662.858 449.698C663.109 449.753 663.371 449.739 663.615 449.656C663.847 449.616 664.062 449.506 664.231 449.342C664.4 449.177 664.515 448.966 664.562 448.735Z" fill="#FACCA3"/>
          <path d="M667.031 448.978C667.11 449.422 667.031 450.361 667.084 450.717C667.223 452.117 666.866 452.543 666.718 455.273C666.553 458.238 664.11 457.759 663.902 456.542C663.832 456.151 663.849 455.595 663.754 455.203C663.123 453.339 662.586 451.444 662.145 449.526C662.145 449.526 662.45 448.578 663.197 448.448C663.458 448.38 663.735 448.396 663.986 448.494C664.238 448.593 664.451 448.768 664.597 448.996C664.675 449.222 664.745 449.517 665.127 449.465C665.666 449.291 665.832 448.978 665.84 448.387C665.762 447.126 666.11 446.692 666.449 446.7C666.44 447.109 666.936 448.291 667.031 448.978Z" fill="#FACCA3"/>
          <path d="M664.597 449.43C664.592 448.722 664.525 448.015 664.397 447.318C664.537 446.745 664.639 446.165 664.701 445.579C664.969 445.197 665.259 444.831 665.571 444.483C665.658 444.367 665.709 444.228 665.719 444.083C665.728 443.937 665.695 443.793 665.623 443.666L663.458 445.266L662.902 447.274L662.145 449.569C662.26 449.79 662.438 449.972 662.656 450.091C662.875 450.21 663.123 450.262 663.371 450.239C663.87 450.14 664.31 449.85 664.597 449.43ZM691.462 457.186C691.462 457.186 691.749 460.976 689.315 463.159C686.437 465.767 674.291 476.713 673.569 476.93C668.501 478.46 668.866 473.835 669.918 471.714C670.97 469.592 673.056 464.098 677.091 459.863C680.69 456.099 687.471 449.526 691.462 457.186Z" fill="#FACCA3"/>
          <path d="M685.341 467.262L676.508 459.029L685.341 452.256L691.523 454.021L692.992 459.611L685.341 467.262Z" fill="#599456"/>
          <path d="M676.508 459.029L685.341 467.262L684.75 467.853L675.917 459.611L676.508 459.029Z" fill="white"/>
          <g style="mix-blend-mode:multiply">
            <path d="M608.889 446.357C608.889 446.357 614.81 446.418 614.662 454.182C614.592 457.859 613.549 472.605 613.184 473.205C610.654 477.404 608.159 474.518 607.628 472.335C607.185 470.51 606.35 462.415 605.75 456.894C605.411 453.504 604.594 445.983 608.889 446.357Z" fill="#CD904D"/>
          </g>
          <path d="M601.316 447.035L605.89 441.619C605.89 441.619 617.774 443.514 620.4 449.809C624.686 460.094 624.617 476.482 624.617 476.482L607.794 476.7L601.316 447.035Z" fill="#CD904D"/>
          <path d="M596.804 441.201L602.629 436.854C602.629 436.854 607.524 442.74 608.019 444.21C608.115 444.47 601.403 447.496 601.403 447.496L596.804 441.201Z" fill="#CD904D"/>
          <path d="M593.161 433.177C593.161 433.611 593.587 434.211 593.526 434.472C593.418 435.174 593.457 435.89 593.639 436.576C594.561 440.054 594.1 439.819 594.665 441.027C595.091 441.897 596.109 442.462 598.143 442.384C599.63 442.332 602.568 439.089 603.081 438.663C605.463 436.698 605.246 430.925 604.751 428.673C603.699 423.917 599.908 424.282 597.308 425.482C593.431 427.23 593.066 431.507 593.161 433.177Z" fill="#CD904D"/>
          <g style="mix-blend-mode:multiply">
            <path d="M595.595 432.672C595.261 432.515 594.887 432.459 594.521 432.512C594.155 432.565 593.812 432.723 593.535 432.968" fill="#CD904D"/>
          </g>
          <path d="M594.726 435.307C594.933 435.307 595.1 435.128 595.1 434.907C595.1 434.686 594.933 434.507 594.726 434.507C594.52 434.507 594.352 434.686 594.352 434.907C594.352 435.128 594.52 435.307 594.726 435.307Z" fill="#014753"/>
          <path d="M593.587 433.49C592.787 435.594 592.622 436.341 593.013 436.567C593.161 436.648 593.327 436.69 593.496 436.69C593.664 436.69 593.83 436.648 593.978 436.567C594.257 436.359 593.631 433.455 593.587 433.49Z" fill="#CD904D"/>
          <g style="mix-blend-mode:multiply" opacity="0.67">
            <path d="M600.386 441.401C600.282 441.471 601.403 444.375 600.386 446.218L597.613 442.384L600.386 441.401Z" fill="#CD904D"/>
          </g>
          <g style="mix-blend-mode:multiply" opacity="0.67">
            <path d="M596.891 440.071C595.5 440.436 594.865 438.141 595.004 437.802" stroke="#CD904D" stroke-width="0.886808" stroke-miterlimit="10"/>
          </g>
          <g style="mix-blend-mode:multiply" opacity="0.67">
            <path d="M594.039 435.055C594.14 435.32 594.3 435.56 594.506 435.755C594.712 435.951 594.96 436.098 595.23 436.185C595.761 436.35 596.856 436.185 596.969 435.315" fill="#CD904D"/>
          </g>
          <path d="M595.265 437.506C594.822 437.098 594.144 436.637 593.587 436.872V439.245L596.126 439.019C595.958 438.456 595.664 437.938 595.265 437.506Z" fill="#A9B7C0"/>
          <path d="M606.281 441.68C606.281 441.68 618.748 443.731 621.061 449.843C623.057 455.527 624.228 461.468 624.539 467.484C625.243 477.787 624.365 476.422 624.365 476.422L607.541 476.639L601.351 448.009C601.351 448.009 606.915 445.218 606.281 441.68Z" fill="#054752"/>
          <g style="mix-blend-mode:multiply">
            <path d="M613.784 446.148C613.784 446.148 618.444 449.8 613.619 455.869C611.332 458.746 601.542 469.823 600.89 470.075C596.326 471.875 596.1 468.058 597.004 466.006C597.769 464.267 602.021 457.312 604.898 452.6C606.637 449.722 610.55 443.253 613.784 446.148Z" fill="#CD904D"/>
          </g>
          <path d="M613.81 446.148C613.81 446.148 618.47 449.8 613.645 455.869C611.358 458.746 601.568 469.823 600.916 470.075C596.352 471.875 596.126 468.058 597.039 466.006C597.795 464.267 602.055 457.312 604.924 452.6C606.663 449.722 610.628 443.253 613.81 446.148Z" fill="#01353A"/>
          <g style="mix-blend-mode:multiply" opacity="0.67">
            <path d="M600.508 433.968C600.508 433.968 600.995 435.541 600.342 436.02C600.06 436.213 599.719 436.305 599.377 436.28C599.377 436.28 600.151 438.584 601.247 437.758C602.342 436.933 600.508 433.968 600.508 433.968Z" fill="#CD904D"/>
          </g>
          <path d="M590.492 429.247C589.881 428.904 589.38 428.395 589.045 427.78C588.709 427.165 588.554 426.468 588.597 425.769C588.652 425.073 588.896 424.405 589.302 423.837C589.708 423.269 590.26 422.822 590.901 422.544C591.362 422.34 591.869 422.262 592.37 422.318C593.5 422.483 594.309 423.491 595.369 423.926C595.585 423.574 595.9 423.293 596.274 423.118C596.648 422.944 597.065 422.883 597.473 422.944C597.881 423.01 598.27 423.158 598.62 423.377C598.969 423.597 599.271 423.884 599.508 424.222C599.656 424.43 599.821 424.665 600.073 424.691C600.27 424.679 600.459 424.613 600.621 424.5C601.106 424.323 601.631 424.289 602.135 424.402C602.639 424.514 603.1 424.768 603.464 425.135C605.003 426.447 606.941 427.247 605.915 431.351C605.411 433.316 605.211 434.681 604.594 436.611C602.794 437.254 600.456 437.02 600.812 434.524C600.447 434.794 599.073 434.168 598.725 433.855C598.378 433.542 598.465 429.308 595.248 429.003C593.526 428.856 592.283 430.221 590.492 429.247Z" fill="#A9B7C0"/>
          <path d="M599.151 434.898C599.151 434.898 599.517 433.272 600.247 433.716C600.977 434.159 600.969 436.054 600.247 435.968C599.836 435.929 599.438 435.802 599.082 435.594L599.151 434.898Z" fill="#CD904D"/>
          <g style="mix-blend-mode:multiply">
            <path d="M599.725 434.776C599.664 434.507 599.969 434.289 600.151 434.481C600.157 434.498 600.157 434.516 600.151 434.533C600.184 434.589 600.205 434.651 600.212 434.715C600.239 434.858 600.214 435.006 600.143 435.133C600.105 435.192 600.046 435.234 599.979 435.252C599.911 435.27 599.839 435.261 599.777 435.228L599.725 434.776Z" fill="#CD904D"/>
          </g>
          <path d="M516.343 430.042C515.744 430.825 515.022 431.512 514.344 432.233C513.266 433.39 509.936 435.928 509.997 438.989C510.058 444.023 513.474 444.936 515.796 445.075C516.422 445.223 517.07 445.255 517.708 445.17C518.682 444.857 520.821 443.944 521.369 443.092C523.194 440.275 520.499 435.111 521.369 431.877C521.821 430.138 522.612 426.382 520.291 425.591C519.918 425.452 519.507 425.455 519.136 425.597C518.765 425.74 518.458 426.012 518.274 426.365C517.535 427.573 517.23 428.903 516.343 430.042Z" fill="black"/>
          <path d="M517.222 431.764L523.142 431.868C525.197 435.187 526.112 439.085 525.751 442.971C525.751 443.249 518.726 444.875 518.726 444.875L517.222 431.764Z" fill="#947347"/>
          <g style="mix-blend-mode:multiply" opacity="0.64">
            <path d="M522.281 432.798C522.116 432.868 522.099 437.728 518.03 438.728L517.161 432.077L522.281 432.798Z" fill="#947347"/>
          </g>
          <path d="M515.448 425.669C515.761 426.956 515.213 427.547 515.178 428.382C514.978 432.485 514.465 433.989 517.517 434.659C519.047 434.998 523.212 432.92 523.603 432.398C524.899 430.425 526.724 427.643 526.829 425.513C526.905 424.651 526.804 423.783 526.533 422.962C526.262 422.141 525.827 421.383 525.253 420.736C524.679 420.089 523.979 419.566 523.196 419.199C522.413 418.832 521.564 418.628 520.699 418.601C519.678 418.631 518.684 418.941 517.827 419.497C516.97 420.054 516.282 420.836 515.839 421.757C515.091 423.704 515.005 423.852 515.448 425.669Z" fill="#947347"/>
          <g style="mix-blend-mode:multiply">
            <path d="M518.265 425.391C518.035 425.138 517.731 424.964 517.395 424.895C516.98 424.843 516.559 424.843 516.143 424.895C516.103 424.886 516.067 424.864 516.041 424.831C516.015 424.799 516 424.759 516 424.717C516 424.676 516.015 424.635 516.041 424.603C516.067 424.571 516.103 424.548 516.143 424.539C516.602 424.503 517.063 424.523 517.517 424.6C517.892 424.694 518.23 424.897 518.491 425.182C518.523 425.216 518.541 425.261 518.54 425.307C518.539 425.354 518.52 425.398 518.487 425.43C518.453 425.462 518.408 425.48 518.362 425.479C518.315 425.478 518.271 425.459 518.239 425.426L518.265 425.391Z" fill="#947347"/>
          </g>
          <path d="M517.074 426.486C517.29 426.486 517.465 426.311 517.465 426.095C517.465 425.879 517.29 425.704 517.074 425.704C516.858 425.704 516.682 425.879 516.682 426.095C516.682 426.311 516.858 426.486 517.074 426.486Z" fill="black"/>
          <path d="M515.491 425.643C515.307 426.294 515.013 426.908 514.622 427.46C514.283 427.93 514.874 428.399 515.309 428.425H515.196C516.726 427.521 515.491 425.643 515.491 425.643Z" fill="#947347"/>
          <g style="mix-blend-mode:multiply">
            <path d="M515.491 428.843C516.016 429.149 516.511 429.504 516.969 429.903C516.743 430.773 515.431 430.773 515.431 430.773C515.431 430.773 514.239 430.434 515.022 429.782C515.318 429.529 514.657 428.99 515.491 428.843Z" fill="#573A22"/>
          </g>
          <path d="M526.22 443.875C526.22 443.875 526.785 447.7 523.455 454.369C520.125 461.037 508.075 469.818 507.258 470.018C501.563 471.705 501.416 467.132 502.607 464.802C503.607 462.819 506.258 458.42 513.387 449.674C516.683 445.622 522.334 440.084 526.22 443.875Z" fill="#947347"/>
          <path d="M534.097 455.212L529.255 474.504L514.813 474.644L513.353 454.96L534.097 455.212Z" fill="#E9CA91"/>
          <path d="M517.352 458.707C517.352 458.707 509.927 459.359 509.927 454.995C509.927 452.673 510.119 454.256 516.239 445.535" fill="#E9CA91"/>
          <path d="M529.706 439.91C527.968 441.786 525.558 442.898 523.003 443.005C518.839 443.101 517.908 441.458 517.908 441.458L517.039 443.197L509.97 453.873C509.97 453.873 508.484 457.307 513.683 458.707L514.857 474.617L529.298 474.47C529.298 474.47 535.914 455.734 534.61 449.178C533.306 442.623 529.75 439.875 529.75 439.875" fill="white"/>
          <path d="M531.845 444.37C531.845 444.37 536.47 448.013 533.94 455.021C532.471 459.107 526.846 475.635 526.22 476.2C521.829 480.208 519.699 476.156 519.743 473.505C519.743 471.288 519.873 461.481 522.273 455.369C524.177 450.509 526.698 442.658 531.845 444.37Z" fill="#947347"/>
          <path d="M532.889 460.029C532.889 460.029 538.496 444.848 531.071 443.979C524.507 443.205 521.021 457.081 521.021 457.081L532.889 460.029Z" fill="white"/>
          <path d="M538.218 445.701C536.679 446.179 535.01 445.701 533.506 445.144C531.86 444.526 530.259 443.794 528.715 442.953C528.107 442.666 527.565 442.254 527.124 441.745C526.693 441.075 526.431 440.312 526.359 439.519C526.049 438.492 526.117 437.388 526.55 436.406C526.796 436.035 527.124 435.725 527.508 435.5C527.892 435.276 528.323 435.143 528.767 435.111C531.784 434.798 535.323 437.232 537.549 439.102C538.488 439.884 540 441.058 540.366 442.24C540.818 443.727 539.6 445.275 538.218 445.701Z" fill="black"/>
          <path d="M540 433.537C540.882 433.773 541.657 434.3 542.2 435.033C542.466 435.603 542.583 436.231 542.539 436.859C542.587 437.498 542.461 438.137 542.174 438.71C541.897 439.085 541.531 439.383 541.108 439.579C540.686 439.775 540.222 439.862 539.757 439.832C537.262 439.832 535.193 438.006 532.915 436.989C531.883 436.618 530.88 436.17 529.915 435.65C529.435 435.386 529.031 435.003 528.743 434.536C528.455 434.07 528.293 433.537 528.272 432.99C528.55 427.26 537.792 432.685 540 433.537Z" fill="black"/>
          <path d="M525.394 426.739C525.899 427.148 526.497 427.428 527.135 427.553C527.773 427.679 528.432 427.647 529.054 427.46C529.307 428.709 529.82 429.89 530.56 430.926C531.3 431.963 532.251 432.832 533.349 433.477C533.94 433.9 534.628 434.169 535.349 434.259C535.969 434.272 536.586 434.166 537.166 433.946C537.899 433.761 538.586 433.426 539.184 432.964C539.783 432.502 540.279 431.922 540.644 431.259C540.849 430.784 540.938 430.267 540.906 429.75C540.874 429.233 540.72 428.732 540.458 428.285C540.195 427.839 539.831 427.461 539.395 427.182C538.959 426.902 538.464 426.73 537.949 426.678C537.079 426.591 536.14 426.869 535.253 426.678C534.33 426.472 533.494 425.983 532.862 425.278C531.88 424.295 530.915 421.974 530.115 420.844C527.281 416.801 524.36 418.14 522.977 418.236C519.804 418.557 523.429 425.121 525.394 426.739Z" fill="black"/>
          <path d="M521.49 422.2C521.256 422.2 515.405 423.243 513.796 420.774C512.275 418.453 514.231 414.906 518.395 415.427C523.464 416.053 528.324 419.861 528.828 422.209C529.654 426.052 521.49 422.2 521.49 422.2Z" fill="black"/>
          <path d="M516.7 420.07C516.7 420.07 518.7 427.669 521.256 427.338C523.812 427.008 524.16 422.704 524.16 422.704L516.7 420.07Z" fill="black"/>
          <path d="M518.665 421.244C518.665 421.244 523.612 424.869 522.142 429.529C519.447 438.024 521.986 442.988 526.49 444.657C530.993 446.327 537.288 446.257 537.41 445.692C537.531 445.127 530.185 422.957 530.185 422.957L518.665 421.244Z" fill="black"/>
          <path d="M521.43 427.347C521.43 427.347 522.456 426.13 523.012 426.765C523.568 427.399 522.812 429.599 522.143 429.303C521.757 429.136 521.395 428.919 521.064 428.66L521.43 427.347Z" fill="#947347"/>
          <g style="mix-blend-mode:multiply">
            <path d="M522.143 427.408C522.182 427.38 522.226 427.361 522.273 427.351C522.32 427.34 522.368 427.34 522.415 427.349C522.462 427.358 522.507 427.376 522.547 427.403C522.587 427.429 522.621 427.464 522.647 427.504C522.678 427.563 522.696 427.628 522.699 427.695C522.723 427.837 522.692 427.983 522.612 428.104C522.594 428.132 522.571 428.156 522.544 428.175C522.517 428.194 522.486 428.207 522.453 428.213C522.421 428.22 522.387 428.22 522.355 428.213C522.322 428.206 522.291 428.192 522.264 428.173" fill="#947347"/>
          </g>
          <path d="M423.518 480.321C423.022 482.712 419.736 482.633 419.736 482.633C413.25 480.329 405.886 477.217 401.765 475.678C400.991 475.4 400.826 475.026 400.374 474.809L400.843 471.661C423.535 472.418 423.944 478.269 423.518 480.321Z" fill="#CD8F4D"/>
          <g style="mix-blend-mode:multiply">
            <path d="M395.601 470.157C394.97 469.831 394.305 469.575 393.619 469.392C393.436 469.392 392.801 468.584 392.175 468.314C391.957 467.901 391.76 467.478 391.584 467.045C391.519 466.915 391.418 466.807 391.293 466.733C391.168 466.659 391.025 466.622 390.88 466.627L391.341 469.297L392.88 470.696L394.618 472.435C394.873 472.399 395.113 472.295 395.312 472.132C395.511 471.97 395.662 471.756 395.749 471.514C395.861 471.298 395.907 471.054 395.881 470.813C395.855 470.572 395.757 470.343 395.601 470.157Z" fill="#CD8F4D"/>
          </g>
          <path d="M397.322 468.366C397.722 468.584 398.426 469.236 398.739 469.41C399.931 470.183 400.044 470.722 402.104 472.539C404.347 474.513 402.443 476.139 401.356 475.548C401 475.356 400.583 475.009 400.209 474.826C398.346 474.169 396.518 473.417 394.731 472.574C394.58 472.358 394.482 472.108 394.447 471.847C394.413 471.585 394.441 471.318 394.531 471.07C394.64 470.821 394.825 470.613 395.059 470.476C395.294 470.338 395.565 470.279 395.836 470.305C396.053 470.383 396.34 470.514 396.54 470.183C396.636 469.963 396.647 469.716 396.572 469.488C396.496 469.26 396.339 469.068 396.131 468.949C395.088 468.218 394.957 467.679 395.175 467.419C395.462 467.671 396.722 468.01 397.322 468.366Z" fill="#CD8F4D"/>
          <path d="M396.166 470.566C395.604 470.13 395.004 469.743 394.375 469.41C394.201 469.34 393.732 468.453 393.167 468.071C393.088 468.01 393.01 467.314 392.845 466.706C392.808 466.564 392.731 466.436 392.623 466.337C392.515 466.238 392.381 466.173 392.236 466.149L392.149 468.862L393.384 470.549L394.732 472.574C394.977 472.62 395.231 472.592 395.46 472.493C395.689 472.394 395.884 472.228 396.018 472.018C396.248 471.57 396.301 471.051 396.166 470.566ZM437.081 460.724C437.081 460.724 437.95 464.436 435.907 466.993C433.464 470.009 424.109 482.859 420.579 482.477C415.293 481.903 417.31 480.825 418.015 478.565C418.719 476.304 419.927 470.514 423.231 465.68C426.231 461.35 431.917 453.76 437.081 460.724Z" fill="#CD8F4D"/>
          <path d="M443.793 462.898C443.793 462.898 445.445 466.871 443.593 470.088C441.402 473.87 432.186 489.954 431.491 490.441C426.57 493.866 425.335 488.754 425.726 486.094C426.118 483.433 426.422 476.8 429.274 470.827C431.83 465.515 436.811 456.073 443.793 462.898Z" fill="#CD904D"/>
          <path d="M443.402 470.549L437.029 490.058L420.449 490.189L419.119 470.931L443.402 470.549Z" fill="#CD904D"/>
          <path d="M439.367 497.161C439.489 497.414 442.619 501.795 443.002 505.734C443.384 509.672 439.324 514.837 439.324 514.837L423.361 515.011L421.483 503.96L420.614 489.824L437.046 490.05C437.664 492.468 438.44 494.844 439.367 497.161ZM426.761 444.77L436.003 444.901C436.003 444.901 437.403 449.117 437.194 456.942C437.194 457.255 429.23 459.55 429.23 459.55L426.761 444.77Z" fill="#CD904D"/>
          <path d="M420.753 464.515C422.588 461.289 428.787 454.012 428.787 454.012L437.02 452.638C437.02 452.638 442.932 456.829 444.419 463.819C444.471 464.089 443.906 471.427 443.906 471.427H419.041C419.041 471.427 420.675 464.602 420.753 464.515ZM424.153 437.319C424.366 437.815 424.506 438.339 424.57 438.876C424.57 439.745 424.066 440.614 424.083 441.127C424.266 445.24 423.327 444.831 423.675 446.344C423.944 447.457 425.413 447.518 427.778 447.996C429.517 448.343 433.925 446.387 434.647 446.066C437.968 444.553 439.228 438.093 439.228 435.467C439.228 429.912 434.647 429.26 431.273 429.868C429.646 430.143 428.123 430.852 426.865 431.92C424.874 433.589 423.953 436.945 424.153 437.319Z" fill="#CD904D"/>
          <path d="M427.43 437.354C427.023 436.998 426.509 436.787 425.969 436.756C425.429 436.724 424.894 436.874 424.448 437.18" fill="black"/>
          <g style="mix-blend-mode:multiply">
            <path d="M425.978 439.293C426.228 439.293 426.431 439.09 426.431 438.841C426.431 438.591 426.228 438.389 425.978 438.389C425.729 438.389 425.526 438.591 425.526 438.841C425.526 439.09 425.729 439.293 425.978 439.293Z" fill="#014753"/>
          </g>
          <path d="M424.692 437.876C424.174 439.113 423.593 440.323 422.953 441.501C422.953 441.632 424.022 441.805 424.153 441.805C424.283 441.805 424.692 437.876 424.692 437.876Z" fill="#CD904D"/>
          <g style="mix-blend-mode:multiply" opacity="0.67">
            <path d="M431.977 448.248C431.795 448.335 433.012 453.36 428.387 454.742L427.282 447.926L431.977 448.248Z" fill="#CD904D"/>
          </g>
          <path d="M426.378 432.598C426.378 432.598 431.404 426.112 438.82 430.538C443.341 433.224 441.341 439.971 436.333 445.709C436.264 445.787 434.116 445.283 433.516 444.275C432.76 443.031 432.812 439.371 432.812 439.371L430.204 439.919C430.204 439.919 429.534 437.05 429.404 436.554C428.865 434.415 426.378 432.598 426.378 432.598Z" fill="black"/>
          <g style="mix-blend-mode:multiply" opacity="0.67">
            <path d="M433.116 438.493C433.116 438.493 433.29 440.362 432.386 440.71C431.993 440.839 431.57 440.839 431.177 440.71C431.177 440.71 431.499 443.475 433.012 442.857C434.525 442.24 433.116 438.493 433.116 438.493Z" fill="#CD904D"/>
          </g>
          <path d="M431.282 439.136C431.282 439.136 432.151 437.441 432.873 438.137C433.07 438.342 433.204 438.601 433.257 438.881C433.31 439.161 433.28 439.451 433.171 439.715C433.062 439.978 432.879 440.204 432.644 440.366C432.409 440.527 432.132 440.616 431.847 440.623C430.978 440.623 430.865 440.414 430.865 440.414L431.282 439.136Z" fill="#CD904D"/>
          <g style="mix-blend-mode:multiply">
            <path d="M431.978 439.162C431.978 439.095 432 439.03 432.039 438.975C432.078 438.92 432.133 438.879 432.196 438.856C432.26 438.834 432.329 438.831 432.393 438.848C432.458 438.866 432.517 438.902 432.56 438.954C432.565 438.977 432.565 439 432.56 439.023C432.577 439.098 432.577 439.175 432.56 439.249C432.557 439.417 432.488 439.576 432.369 439.693C432.306 439.747 432.226 439.776 432.143 439.776C432.06 439.776 431.98 439.747 431.917 439.693L431.978 439.162ZM424.074 442.614C424.074 442.614 425.292 442.918 425.266 443.136C425.213 443.596 423.988 443.64 423.988 443.64L424.074 442.614Z" fill="#CD904D"/>
          </g>
          <path d="M420.571 432.755C420.623 432.249 420.872 431.783 421.264 431.458C421.655 431.133 422.159 430.975 422.666 431.016C423.074 431.077 423.457 431.286 423.866 431.355C424.068 431.413 424.284 431.395 424.474 431.306C424.664 431.216 424.816 431.061 424.9 430.868C425.005 430.52 424.779 430.173 424.7 429.825C424.654 429.392 424.766 428.958 425.015 428.601C425.264 428.245 425.634 427.991 426.057 427.886C426.926 427.634 427.795 428.312 428.665 428.269C431.273 428.138 433.551 427.512 436.559 429.512L433.334 432.12C433.525 432.033 433.638 432.346 433.612 432.564C433.391 433.79 432.726 434.892 431.743 435.659C431.251 436.107 430.652 436.422 430.004 436.572C425.709 437.311 428.908 432.85 425.057 434.155C423.944 434.789 423.266 435.32 422.283 435.024C421.784 434.893 421.344 434.598 421.033 434.187C420.723 433.775 420.56 433.27 420.571 432.755Z" fill="black"/>
          <path d="M437.724 452.795L426.335 456.69L420.562 464.515L419.119 470.54L421.231 499.665L438.872 495.588L437.011 489.789L444.236 470.131C444.236 470.131 445.932 462.819 442.497 458.455C439.063 454.09 437.742 452.804 437.742 452.804" fill="#FF595A"/>
          <path d="M438.011 452.673L425.961 457.194L438.011 452.673Z" fill="#ED6A5E"/>
          <path opacity="0.67" d="M406.13 477.347C431.847 477.347 427.63 483.859 427.222 486.189L406.13 477.347Z" fill="#CD904D"/>
          <path d="M400.331 486.502C400.729 486.501 401.119 486.397 401.466 486.201C401.812 486.005 402.102 485.723 402.308 485.383C402.514 485.042 402.629 484.655 402.642 484.257C402.655 483.859 402.566 483.465 402.382 483.112L393.453 466.106C393.312 465.837 393.119 465.599 392.885 465.404C392.651 465.21 392.382 465.064 392.091 464.974C391.801 464.884 391.496 464.852 391.194 464.88C390.891 464.908 390.597 464.995 390.328 465.136C390.059 465.278 389.821 465.471 389.626 465.705C389.432 465.938 389.286 466.208 389.196 466.498C389.106 466.789 389.074 467.094 389.102 467.396C389.13 467.699 389.217 467.993 389.358 468.262L398.287 485.259C398.482 485.633 398.776 485.946 399.136 486.165C399.496 486.384 399.909 486.501 400.331 486.502Z" fill="#022327"/>
          <path opacity="0.12" d="M442.298 461.289C442.298 461.863 444.906 466.714 440.22 477.356C435.307 488.441 420.971 493.397 420.971 493.397L420.562 488.58L442.298 461.289Z" fill="#022327"/>
          <path d="M428.022 487.372C427.543 490.102 423.822 490.128 423.822 490.128C416.389 487.746 407.938 484.477 403.217 482.903C402.348 482.607 402.13 482.19 401.617 481.973L402.035 478.391C427.752 478.452 428.43 485.059 428.022 487.372ZM396.036 476.878C395.314 476.527 394.556 476.259 393.775 476.078C393.566 476.078 392.819 475.209 392.097 474.904C391.831 474.45 391.593 473.979 391.384 473.496C391.305 473.351 391.186 473.231 391.041 473.151C390.897 473.071 390.732 473.034 390.567 473.044L391.184 476.043L392.984 477.582L394.984 479.46C395.272 479.411 395.541 479.283 395.761 479.091C395.982 478.9 396.146 478.651 396.236 478.373C396.352 478.132 396.395 477.861 396.359 477.596C396.324 477.33 396.211 477.08 396.036 476.878Z" fill="#CD8F4D"/>
          <path d="M397.931 474.783C398.383 475.017 399.2 475.704 399.565 475.921C400.948 476.747 401.096 477.356 403.495 479.338C406.103 481.503 404.008 483.407 402.748 482.816C402.339 482.607 401.878 482.225 401.417 482.042C400.27 481.538 396.896 480.634 395.14 479.677C394.961 479.438 394.842 479.159 394.794 478.864C394.745 478.569 394.769 478.266 394.862 477.982C394.978 477.697 395.18 477.456 395.441 477.292C395.701 477.128 396.007 477.05 396.314 477.069C396.566 477.156 396.888 477.286 397.105 476.904C397.205 476.65 397.209 476.367 397.114 476.111C397.019 475.854 396.834 475.641 396.592 475.513C395.392 474.739 395.227 474.122 395.462 473.818C395.818 474.061 397.201 474.409 397.931 474.783Z" fill="#CD8F4D"/>
          <path d="M396.688 477.313C396.029 476.834 395.328 476.418 394.592 476.069C394.392 475.991 393.827 475.009 393.175 474.583C393.007 474.081 392.867 473.57 392.758 473.052C392.71 472.895 392.619 472.754 392.494 472.646C392.369 472.538 392.217 472.468 392.054 472.444V475.513L393.514 477.382L395.105 479.634C395.385 479.677 395.671 479.637 395.928 479.518C396.185 479.398 396.401 479.206 396.549 478.964C396.804 478.452 396.854 477.861 396.688 477.313ZM440.672 462.915C440.672 462.915 442.132 466.984 440.115 470.122C437.733 473.817 428.813 489.441 424.753 489.441C418.727 489.441 420.866 487.98 421.379 485.346C421.892 482.712 422.544 476.043 425.726 470.183C428.552 464.949 434.021 455.699 440.672 462.915Z" fill="#CD8F4D"/>
          <path d="M425.022 471.053L436.272 477.139C436.272 477.139 446.705 462.958 441.019 460.072C435.333 457.185 428.152 456.942 425.022 471.053Z" fill="#FF595A"/>
          <path d="M436.62 475.93L425.239 470.314C424.057 469.723 423.005 471.505 424.196 472.096L435.577 477.713C436.768 478.295 437.811 476.521 436.62 475.93Z" fill="white"/>
          <path d="M438.933 454.334C438.933 454.334 421.284 460.42 419.806 468.749C418.936 473.374 419.423 474.052 419.423 474.052C421.307 469.574 424.3 465.65 428.122 462.65C431.943 459.65 436.466 457.674 441.263 456.907" fill="#022327"/>
          <path d="M436.837 450.517L430.369 454.812L429.108 459.107L439.48 454.308L436.837 450.517ZM427.126 454.516L426.257 456.777L427.326 459.829L428.926 457.133L427.126 454.516Z" fill="white"/>
          <path d="M369.555 496.549C369.555 499.344 369.555 501.986 369.637 504.443C369.719 509.101 369.822 513.083 369.975 516.144C369.995 518.232 370.197 520.315 370.579 522.368C372.985 530.507 385.004 530.507 385.004 530.507H857.352C857.862 530.509 858.372 530.475 858.877 530.405L905.55 523.72C908.184 523.321 910.587 521.988 912.318 519.963C914.049 517.938 914.994 515.358 914.979 512.694V392.731C915.003 389.955 913.98 387.272 912.116 385.216C910.251 383.159 907.68 381.88 904.915 381.633C904.636 381.618 904.355 381.618 904.076 381.633L832.997 381.306L801.547 381.152L743.194 380.876L565.133 380.026L506.779 379.75C443.04 379.453 396.306 379.238 391.331 379.238C380.069 379.238 374.531 385.104 372.125 388.964C371.067 390.665 370.49 392.621 370.456 394.625V397.389C376.322 397.307 442.979 396.775 442.979 397.809H441.597L441.259 456.91C413.761 462.049 396.49 494.809 369.555 496.549ZM467.313 458.507L467.651 398.648H609.952C610.496 398.817 611.062 398.903 611.631 398.904H740.481C741.053 398.902 741.622 398.816 742.17 398.648H827.663C828.21 398.817 828.78 398.903 829.352 398.904H884.297C884.863 398.904 885.426 398.818 885.966 398.648H899.018V458.507H467.313ZM396.234 403.378C393.13 403.408 390.164 404.667 387.986 406.879C385.808 409.092 384.596 412.077 384.615 415.182V426.177C384.596 429.281 385.808 432.267 387.986 434.479C390.164 436.692 393.13 437.951 396.234 437.981V403.378Z" fill="#FF595A"/>
          <path opacity="0.45" d="M722.77 489.926H771.725C775.542 489.926 778.636 486.832 778.636 483.015C778.636 479.199 775.542 476.105 771.725 476.105H722.77C718.953 476.105 715.859 479.199 715.859 483.015C715.859 486.832 718.953 489.926 722.77 489.926Z" fill="white"/>
          <path opacity="0.45" d="M544.76 489.926H593.716C597.532 489.926 600.626 486.832 600.626 483.015C600.626 479.199 597.532 476.105 593.716 476.105H544.76C540.943 476.105 537.85 479.199 537.85 483.015C537.85 486.832 540.943 489.926 544.76 489.926Z" fill="white"/>
          <path opacity="0.45" d="M605.888 390.274V392.618C605.895 393.851 606.296 395.048 607.033 396.036C607.77 397.024 608.804 397.749 609.983 398.106C610.527 398.271 611.093 398.354 611.662 398.351H740.511C741.266 398.355 742.014 398.21 742.712 397.923C743.409 397.637 744.044 397.215 744.578 396.682C745.112 396.149 745.535 395.515 745.823 394.818C746.11 394.12 746.257 393.373 746.255 392.618V390.274C746.249 388.753 745.642 387.297 744.566 386.222C743.49 385.148 742.032 384.544 740.511 384.541H611.621C610.102 384.546 608.647 385.152 607.573 386.226C606.499 387.3 605.894 388.755 605.888 390.274ZM823.599 390.274V392.618C823.596 393.373 823.743 394.12 824.031 394.818C824.318 395.515 824.741 396.149 825.275 396.682C825.809 397.215 826.444 397.637 827.142 397.923C827.84 398.21 828.587 398.355 829.342 398.351H884.287C884.852 398.354 885.415 398.272 885.955 398.106C887.134 397.747 888.167 397.022 888.904 396.034C889.641 395.047 890.042 393.85 890.05 392.618V390.274C890.045 388.755 889.439 387.3 888.365 386.226C887.291 385.152 885.836 384.546 884.317 384.541H829.373C828.617 384.538 827.868 384.684 827.169 384.971C826.47 385.258 825.835 385.679 825.298 386.212C824.762 386.744 824.336 387.377 824.045 388.074C823.753 388.771 823.601 389.518 823.599 390.274Z" fill="white"/>
          <path d="M801.547 381.623H743.224V374.57H801.547V381.623Z" fill="#FF595A"/>
          <path d="M832.649 381.674H905.97V374.508C905.979 373.372 905.765 372.245 905.339 371.192C904.913 370.139 904.283 369.18 903.487 368.37C902.69 367.56 901.742 366.915 900.696 366.472C899.65 366.028 898.527 365.795 897.391 365.786H847.647L832.649 381.674Z" fill="#FF595A"/>
          <path d="M841.934 377.457H896.193V373.925C896.193 372.789 895.742 371.699 894.94 370.895C894.138 370.091 893.05 369.638 891.914 369.635H849.428L841.934 377.457Z" fill="#054752"/>
          <path d="M565.163 381.623H506.84V374.57H565.163V381.623Z" fill="#FF595A"/>
          <path d="M885.955 398.106H827.602C828.149 398.271 828.719 398.354 829.291 398.351H884.236C884.818 398.36 885.398 398.277 885.955 398.106ZM742.159 398.106H609.942C610.486 398.271 611.052 398.354 611.621 398.351H740.47C741.042 398.353 741.612 398.27 742.159 398.106Z" fill="white"/>
          <g style="mix-blend-mode:multiply" opacity="0.45">
            <path d="M533.622 528.071V506.992C533.622 501.807 531.565 496.835 527.903 493.165C524.241 489.495 519.273 487.428 514.088 487.418H496.214C491.022 487.418 486.044 489.48 482.373 493.151C478.702 496.822 476.64 501.8 476.64 506.992V528.071H533.622Z" fill="#044752"/>
          </g>
          <path d="M479.015 516.472C478.564 521.512 479.617 526.572 482.042 531.014C484.466 535.455 488.153 539.078 492.635 541.425C497.118 543.772 502.196 544.738 507.228 544.2C512.259 543.662 517.018 541.645 520.903 538.403C524.789 535.161 527.626 530.84 529.056 525.987C530.487 521.133 530.446 515.964 528.94 511.133C527.434 506.303 524.53 502.027 520.594 498.846C516.659 495.665 511.869 493.723 506.83 493.263C503.475 492.934 500.088 493.276 496.866 494.268C493.644 495.26 490.651 496.884 488.063 499.044C485.474 501.203 483.341 503.857 481.788 506.849C480.234 509.841 479.292 513.112 479.015 516.472Z" fill="#054752"/>
          <path d="M501.312 491.902C503.188 491.679 505.082 491.652 506.963 491.82L507.598 491.902L504.527 518.765L501.312 491.902ZM507.772 545.474C505.892 545.692 503.996 545.719 502.111 545.556L501.476 545.474L504.547 518.611L507.772 545.474Z" fill="#054752"/>
          <path d="M477.776 521.928C477.554 520.052 477.526 518.159 477.694 516.277C477.694 516.062 477.694 515.847 477.766 515.632L504.639 518.703L477.776 521.928ZM531.298 515.438C531.525 517.313 531.553 519.207 531.38 521.089C531.38 521.304 531.38 521.519 531.308 521.734L504.445 518.662L531.298 515.438Z" fill="#054752"/>
          <path d="M521.183 497.461C522.681 498.628 524.054 499.949 525.278 501.402L525.677 501.904L504.465 518.734L521.183 497.461ZM487.901 539.875C486.397 538.713 485.024 537.391 483.806 535.933L483.406 535.431L504.567 518.601L487.901 539.875Z" fill="#054752"/>
          <path d="M483.376 502.026C484.549 500.533 485.87 499.161 487.317 497.931L487.829 497.532L504.65 518.703L483.376 502.026ZM525.749 535.309C524.582 536.807 523.26 538.18 521.808 539.404L521.296 539.803L504.475 518.632L525.749 535.309Z" fill="#054752"/>
          <path d="M512.041 492.772C513.857 493.302 515.614 494.019 517.282 494.911L517.835 495.239L504.527 518.785L512.041 492.772ZM497.033 544.553C495.216 544.032 493.462 543.314 491.801 542.413C491.608 542.318 491.42 542.212 491.238 542.096L504.547 518.55L497.033 544.553Z" fill="#054752"/>
          <path d="M478.646 511.158C479.177 509.345 479.894 507.592 480.786 505.927L481.103 505.364L504.65 518.673L478.646 511.158ZM530.468 526.177C529.938 527.99 529.221 529.743 528.329 531.408L528.011 531.971L504.465 518.662L530.468 526.177Z" fill="#054752"/>
          <path d="M527.592 504.698C528.571 506.316 529.377 508.031 529.997 509.817L530.192 510.431L504.445 518.703L527.592 504.698Z" fill="#054752"/>
          <path d="M481.482 532.637C480.503 531.019 479.696 529.304 479.076 527.518L478.882 526.904L504.629 518.632L481.482 532.637Z" fill="#054752"/>
          <path d="M490.542 495.608C492.161 494.633 493.877 493.827 495.661 493.202L496.275 493.007L504.547 518.755L490.542 495.608ZM518.511 541.728C516.89 542.697 515.175 543.5 513.392 544.123L512.778 544.318L504.506 518.57L518.511 541.728Z" fill="#054752"/>
          <g style="mix-blend-mode:multiply" opacity="0.49">
            <path d="M481.963 530.702C483.588 533.796 485.831 536.524 488.553 538.716C491.275 540.909 494.418 542.519 497.788 543.447C501.157 544.375 504.681 544.602 508.142 544.112C511.603 543.623 514.926 542.429 517.906 540.603C520.886 538.777 523.46 536.359 525.468 533.498C527.476 530.637 528.874 527.395 529.578 523.971C530.282 520.548 530.275 517.016 529.558 513.595C528.841 510.175 527.43 506.937 525.411 504.084L511.631 512.51L495.722 522.276L481.963 530.702Z" fill="#004553"/>
          </g>
          <path d="M489.692 517.424C489.428 520.357 490.038 523.302 491.447 525.888C492.855 528.474 494.999 530.584 497.606 531.953C500.214 533.321 503.168 533.886 506.097 533.576C509.025 533.266 511.796 532.094 514.059 530.21C516.322 528.326 517.975 525.813 518.811 522.99C519.647 520.166 519.626 517.158 518.753 514.346C517.88 511.534 516.193 509.043 513.905 507.189C511.617 505.336 508.831 504.202 505.898 503.931C503.948 503.75 501.981 503.957 500.11 504.538C498.24 505.118 496.502 506.062 494.997 507.316C493.491 508.569 492.248 510.107 491.338 511.841C490.428 513.576 489.869 515.473 489.692 517.424Z" fill="white"/>
          <path d="M504.107 523.495C502.86 523.377 501.71 522.775 500.904 521.818C500.098 520.86 499.7 519.624 499.797 518.376C499.88 517.459 500.228 516.586 500.799 515.863C501.369 515.14 502.137 514.599 503.01 514.305C503.882 514.01 504.822 513.976 505.713 514.206C506.605 514.436 507.41 514.92 508.032 515.599C508.654 516.278 509.064 517.124 509.214 518.032C509.364 518.941 509.247 519.873 508.877 520.716C508.506 521.559 507.899 522.277 507.128 522.781C506.358 523.285 505.458 523.554 504.537 523.556L504.107 523.495ZM501.199 518.468C501.147 519.127 501.291 519.786 501.613 520.363C501.935 520.94 502.421 521.408 503.009 521.71C503.597 522.011 504.261 522.132 504.917 522.057C505.573 521.982 506.193 521.715 506.697 521.288C507.202 520.862 507.569 520.295 507.753 519.661C507.936 519.026 507.928 518.351 507.728 517.721C507.529 517.092 507.148 516.535 506.633 516.121C506.118 515.707 505.492 515.455 504.834 515.397H504.526C503.688 515.399 502.881 515.716 502.265 516.284C501.649 516.853 501.269 517.632 501.199 518.468Z" fill="#054752"/>
          <path d="M705.11 514.158H695.497V510.155H705.11V514.158Z" fill="#054752"/>
          <path d="M586.293 514.158H576.68V510.155H586.293V514.158Z" fill="#054752"/>
          <path d="M404.445 514.158H394.832V510.155H404.445V514.158Z" fill="#054752"/>
          <path d="M379.066 502.139C379.066 502.139 378.912 509.735 378.114 510.872C376.609 513.032 373.231 513.82 369.33 513.636V502.139H379.066Z" fill="#054752"/>
          <path d="M384.615 414.363V425.184C384.623 428.262 385.85 431.212 388.028 433.388C390.205 435.563 393.156 436.788 396.234 436.793V402.753C393.156 402.759 390.205 403.983 388.028 406.159C385.85 408.335 384.623 411.285 384.615 414.363Z" fill="white"/>
          <path d="M384.615 415.182V426.177C384.596 429.281 385.808 432.267 387.986 434.479C390.164 436.692 393.13 437.951 396.234 437.981V403.378C393.13 403.408 390.164 404.667 387.986 406.879C385.808 409.092 384.596 412.077 384.615 415.182Z" fill="#FF595A"/>
          <path d="M909.328 501.023H914.753C915.522 501.023 916.146 500.4 916.146 499.631V458.517C916.146 457.748 915.522 457.125 914.753 457.125H909.328C908.559 457.125 907.935 457.748 907.935 458.517V499.631C907.935 500.4 908.559 501.023 909.328 501.023Z" fill="#054752"/>
          <g style="mix-blend-mode:multiply" opacity="0.45">
            <path d="M841.095 528.071V506.992C841.095 501.8 839.032 496.822 835.362 493.151C831.691 489.48 826.712 487.418 821.521 487.418H803.687C798.496 487.418 793.517 489.48 789.846 493.151C786.175 496.822 784.113 501.8 784.113 506.992V528.071H841.095Z" fill="#044752"/>
          </g>
          <path d="M786.529 516.031C786.08 521.071 787.135 526.131 789.561 530.571C791.987 535.011 795.674 538.633 800.157 540.979C804.64 543.324 809.718 544.288 814.749 543.749C819.78 543.21 824.538 541.191 828.423 537.949C832.307 534.707 835.143 530.386 836.572 525.532C838.002 520.679 837.961 515.51 836.454 510.68C834.948 505.85 832.043 501.575 828.108 498.394C824.172 495.214 819.383 493.272 814.344 492.813C810.988 492.484 807.6 492.826 804.377 493.819C801.155 494.812 798.162 496.436 795.573 498.597C792.985 500.758 790.852 503.412 789.299 506.405C787.746 509.398 786.804 512.671 786.529 516.031Z" fill="#054752"/>
          <path d="M808.816 491.461C810.695 491.239 812.592 491.212 814.477 491.379L815.112 491.461L812.041 518.325L808.816 491.461Z" fill="#054752"/>
          <path d="M815.286 544.993C813.406 545.212 811.509 545.236 809.624 545.065C809.409 545.065 809.205 545.014 808.99 544.993L812.061 518.13L815.286 544.993Z" fill="#054752"/>
          <path d="M785.29 521.457C785.063 519.582 785.035 517.687 785.208 515.806C785.208 515.591 785.259 515.376 785.28 515.161L812.153 518.233L785.29 521.457Z" fill="#054752"/>
          <path d="M838.811 514.997C839.039 516.873 839.067 518.767 838.893 520.649C838.893 520.864 838.893 521.079 838.822 521.293L811.948 518.222L838.811 514.997Z" fill="#054752"/>
          <path d="M828.687 497.02C830.187 498.186 831.56 499.507 832.782 500.962L833.181 501.463L812 518.294L828.687 497.02ZM795.415 539.434C793.914 538.269 792.542 536.948 791.32 535.493L790.921 534.991L812.092 518.161L795.415 539.434Z" fill="#054752"/>
          <path d="M790.839 501.586C792.006 500.088 793.327 498.715 794.78 497.491C794.944 497.348 795.118 497.225 795.292 497.092L812.112 518.263L790.839 501.586Z" fill="#054752"/>
          <path d="M833.263 534.868C832.093 536.365 830.772 537.737 829.321 538.963L828.81 539.363L812 518.151L833.263 534.868Z" fill="#054752"/>
          <path d="M819.555 492.332C821.371 492.864 823.127 493.581 824.797 494.471L825.349 494.799L812.041 518.345L819.555 492.332ZM804.547 544.113C802.727 543.592 800.97 542.874 799.305 541.973L798.752 541.656L812.061 518.11L804.547 544.113Z" fill="#054752"/>
          <path d="M786.16 510.718C786.69 508.905 787.407 507.152 788.3 505.487L788.617 504.924L812.163 518.232L786.16 510.718ZM837.941 525.736C837.409 527.549 836.692 529.302 835.802 530.968L835.484 531.531L811.938 518.222L837.941 525.736Z" fill="#054752"/>
          <path d="M835.105 504.258C836.085 505.875 836.891 507.591 837.511 509.377L837.706 509.991L812 518.263L835.105 504.258ZM788.996 532.166C788.017 530.549 787.21 528.833 786.59 527.047L786.396 526.433L812.143 518.161L788.996 532.166Z" fill="#054752"/>
          <path d="M798.087 495.167C799.706 494.193 801.422 493.386 803.206 492.762L803.82 492.567L812.081 518.314L798.087 495.167Z" fill="#054752"/>
          <path d="M826.015 541.277C824.397 542.256 822.682 543.063 820.896 543.683L820.282 543.877L812 518.13L826.015 541.277Z" fill="#054752"/>
          <g style="mix-blend-mode:multiply" opacity="0.49">
            <path d="M789.477 530.262C791.107 533.347 793.352 536.065 796.074 538.249C798.796 540.432 801.936 542.035 805.301 542.958C808.666 543.88 812.185 544.103 815.64 543.613C819.095 543.123 822.412 541.929 825.388 540.107C828.363 538.284 830.934 535.871 832.94 533.017C834.947 530.162 836.347 526.926 837.054 523.509C837.762 520.092 837.761 516.567 837.053 513.15C836.344 509.733 834.943 506.498 832.935 503.644L819.166 512.069L803.257 521.836L789.477 530.262Z" fill="#004553"/>
          </g>
          <path d="M797.207 516.984C796.941 519.918 797.552 522.865 798.961 525.452C800.371 528.039 802.516 530.15 805.125 531.518C807.734 532.886 810.691 533.449 813.62 533.137C816.55 532.825 819.321 531.651 821.583 529.764C823.845 527.877 825.497 525.361 826.33 522.535C827.163 519.709 827.138 516.699 826.261 513.887C825.383 511.075 823.69 508.586 821.398 506.735C819.106 504.885 816.316 503.756 813.382 503.49C809.448 503.135 805.533 504.357 802.5 506.887C799.467 509.418 797.563 513.049 797.207 516.984Z" fill="white"/>
          <path d="M811.621 523.054C810.374 522.94 809.222 522.338 808.415 521.38C807.608 520.422 807.211 519.184 807.311 517.936C807.394 517.019 807.742 516.146 808.313 515.423C808.883 514.7 809.651 514.159 810.524 513.864C811.396 513.57 812.336 513.536 813.227 513.766C814.119 513.996 814.924 514.48 815.546 515.159C816.168 515.838 816.578 516.684 816.728 517.592C816.878 518.5 816.761 519.433 816.391 520.276C816.02 521.119 815.413 521.836 814.643 522.34C813.872 522.845 812.972 523.114 812.051 523.116L811.621 523.054ZM808.703 518.017C808.652 518.676 808.795 519.334 809.117 519.911C809.439 520.487 809.924 520.956 810.511 521.258C811.098 521.559 811.762 521.68 812.418 521.606C813.074 521.532 813.693 521.265 814.198 520.84C814.703 520.414 815.07 519.849 815.255 519.215C815.439 518.581 815.432 517.907 815.235 517.277C815.037 516.647 814.657 516.09 814.144 515.675C813.63 515.26 813.005 515.007 812.348 514.946H812.041C811.202 514.951 810.395 515.268 809.777 515.836C809.16 516.404 808.777 517.182 808.703 518.017Z" fill="#054752"/>
          <path d="M884.501 398.689H826.148C826.691 398.858 827.257 398.944 827.827 398.945H882.771C883.358 398.949 883.941 398.863 884.501 398.689ZM740.695 398.689H608.488C609.028 398.859 609.591 398.945 610.157 398.945H739.006C739.579 398.945 740.148 398.859 740.695 398.689Z" fill="white"/>
          <path opacity="0.4" d="M364.775 474.631L337.01 449.938L299.203 434.51H211.263L191.208 449.938V466.144L286.867 476.945H335.465L364.775 474.631Z" fill="white"/>
          <path d="M290.287 466.431C290.287 466.431 288.863 469.871 290.461 472.635C292.354 475.911 300.309 489.803 300.923 490.223C305.162 493.181 306.226 488.769 305.899 486.486C305.571 484.203 305.295 478.46 302.827 473.3C300.626 468.693 296.316 460.524 290.287 466.431Z" fill="#CE914D"/>
          <path d="M290.624 473.034L296.132 489.895L310.454 489.997L311.601 473.372L290.624 473.034Z" fill="#CE914D"/>
          <path d="M294.115 496.027C294.013 496.242 291.3 500.03 290.972 503.429C290.645 506.828 294.156 511.302 294.156 511.302L307.936 511.445L309.564 501.904L310.342 489.69L296.142 489.885C295.599 491.974 294.922 494.025 294.115 496.027ZM305.008 450.798L297.023 450.911C297.023 450.911 295.815 454.514 295.999 461.261C295.999 461.537 302.878 463.493 302.878 463.493L305.008 450.798Z" fill="#CE914D"/>
          <path d="M310.188 467.854C308.612 465.059 303.247 458.773 303.247 458.773L296.142 457.616C292.982 460.018 290.729 463.422 289.754 467.27C289.754 467.495 290.194 473.832 290.194 473.832H311.693C311.693 473.832 310.239 467.905 310.188 467.854ZM307.25 444.307C307.066 444.735 306.945 445.186 306.892 445.649C306.892 446.386 307.332 447.174 307.311 447.594C307.158 451.146 307.967 450.798 307.66 452.088C307.434 453.061 306.185 453.112 304.117 453.521C302.592 453.818 298.804 452.129 298.19 451.853C295.313 450.542 294.228 444.973 294.228 442.7C294.228 437.899 298.18 437.336 301.097 437.858C302.504 438.099 303.819 438.715 304.906 439.639C306.207 440.875 307.036 442.526 307.25 444.307Z" fill="#CE914D"/>
          <path d="M304.425 444.369C304.777 444.061 305.221 443.879 305.688 443.851C306.155 443.823 306.618 443.951 307.004 444.215" fill="black"/>
          <g style="mix-blend-mode:multiply">
            <path d="M305.673 446.048C305.888 446.048 306.062 445.874 306.062 445.659C306.062 445.444 305.888 445.27 305.673 445.27C305.459 445.27 305.284 445.444 305.284 445.659C305.284 445.874 305.459 446.048 305.673 446.048Z" fill="#004753"/>
          </g>
          <path d="M306.789 444.809C307.225 445.881 307.72 446.926 308.274 447.942C308.274 448.065 307.352 448.218 307.25 448.218C307.046 447.089 306.893 445.952 306.789 444.809Z" fill="#CE914D"/>
          <g style="mix-blend-mode:multiply" opacity="0.67">
            <path d="M300.493 453.757C300.647 453.839 299.592 458.179 303.565 459.367L304.527 453.48L300.493 453.757Z" fill="#CE914D"/>
          </g>
          <g style="mix-blend-mode:multiply">
            <path d="M307.322 448.914C307.322 448.914 306.298 449.17 306.298 449.365C306.298 449.754 307.393 449.795 307.393 449.795L307.322 448.914Z" fill="#CE914D"/>
          </g>
          <path d="M310.321 440.397C310.282 439.955 310.07 439.546 309.73 439.26C309.39 438.974 308.951 438.834 308.509 438.871C308.151 438.923 307.823 439.107 307.485 439.158C307.31 439.202 307.124 439.184 306.96 439.108C306.796 439.032 306.664 438.901 306.584 438.738C306.503 438.441 306.697 438.145 306.759 437.837C306.799 437.465 306.703 437.091 306.489 436.784C306.274 436.477 305.955 436.258 305.591 436.169C304.875 435.954 304.097 436.527 303.349 436.496C301.138 436.384 299.132 435.841 296.531 437.571L299.326 439.823C299.152 439.752 299.05 440.018 299.08 440.202C299.266 441.264 299.843 442.218 300.698 442.874C301.115 443.268 301.632 443.54 302.193 443.663C305.899 444.307 303.134 440.458 306.462 441.615C307.424 442.158 308.007 442.639 308.857 442.383C309.29 442.267 309.671 442.007 309.937 441.646C310.203 441.285 310.339 440.845 310.321 440.397Z" fill="black"/>
          <path d="M305.325 440.274C305.325 440.274 300.995 434.674 294.586 438.493C290.686 440.817 292.405 446.683 296.736 451.597C297.672 451.494 298.538 451.053 299.172 450.358C299.817 449.283 299.777 446.13 299.777 446.13L302.029 446.601L302.715 443.693C303.235 442.325 304.142 441.137 305.325 440.274Z" fill="black"/>
          <g style="mix-blend-mode:multiply" opacity="0.67">
            <path d="M299.51 445.331C299.51 445.331 299.367 446.949 300.145 447.246C300.477 447.357 300.837 447.357 301.169 447.246C301.169 447.246 300.892 449.631 299.592 449.109C298.292 448.587 299.51 445.331 299.51 445.331Z" fill="#CE914D"/>
          </g>
          <path d="M301.108 445.905C301.108 445.905 300.37 444.441 299.726 445.045C299.557 445.223 299.445 445.446 299.401 445.687C299.357 445.928 299.383 446.177 299.477 446.403C299.572 446.629 299.729 446.823 299.931 446.962C300.133 447.101 300.371 447.178 300.616 447.184C301.384 447.184 301.466 447.01 301.466 447.01L301.108 445.905Z" fill="#CE914D"/>
          <g style="mix-blend-mode:multiply">
            <path d="M300.483 445.925C300.486 445.865 300.47 445.806 300.436 445.756C300.403 445.707 300.354 445.669 300.298 445.65C300.241 445.63 300.18 445.629 300.123 445.647C300.066 445.666 300.016 445.702 299.981 445.751C299.98 445.771 299.98 445.792 299.981 445.812C299.971 445.877 299.971 445.943 299.981 446.007C299.983 446.078 300 446.149 300.03 446.214C300.06 446.279 300.102 446.337 300.155 446.386C300.209 446.432 300.278 446.458 300.35 446.458C300.421 446.458 300.49 446.432 300.544 446.386L300.483 445.925Z" fill="#CE914D"/>
          </g>
          <path d="M295.282 457.596L306.37 461.762" stroke="white" stroke-width="0.85995" stroke-linecap="round" stroke-linejoin="round"/>
          <path d="M294.504 456.951C294.504 456.951 309.748 462.182 311.048 469.4C311.775 473.392 311.386 473.986 311.386 473.986C309.76 470.116 307.174 466.725 303.873 464.133C300.571 461.541 296.663 459.834 292.518 459.172" fill="#003333"/>
          <path d="M336.028 476.607C335.699 476.608 335.375 476.527 335.086 476.371C334.628 476.116 334.285 475.694 334.129 475.193C333.972 474.692 334.015 474.15 334.246 473.679L341.965 458.988C342.045 458.691 342.191 458.416 342.391 458.183C342.592 457.95 342.842 457.765 343.124 457.642C343.406 457.519 343.711 457.461 344.019 457.472C344.326 457.484 344.627 457.564 344.898 457.708C345.17 457.851 345.406 458.054 345.589 458.301C345.772 458.548 345.897 458.833 345.954 459.135C346.012 459.437 346.001 459.748 345.922 460.045C345.843 460.342 345.698 460.618 345.497 460.851L337.789 475.532C337.622 475.855 337.369 476.126 337.059 476.316C336.748 476.505 336.392 476.606 336.028 476.607Z" fill="#004753"/>
          <g style="mix-blend-mode:multiply">
            <path d="M291.576 465.038C291.576 465.53 289.293 469.717 293.378 478.91C297.627 488.482 310.004 492.772 310.004 492.772L310.352 488.615L291.576 465.038Z" fill="#054752"/>
          </g>
          <path d="M311.478 480.497C312.051 482.821 315.256 482.616 315.256 482.616C321.521 480.128 328.564 476.822 332.588 475.184C333.335 474.877 333.489 474.508 333.919 474.283L333.345 471.212C311.181 472.768 310.987 478.501 311.478 480.497ZM338.423 469.543C339.026 469.199 339.665 468.921 340.327 468.714C340.501 468.714 341.095 467.895 341.699 467.608C341.903 467.2 342.081 466.779 342.231 466.349C342.291 466.22 342.386 466.11 342.506 466.034C342.626 465.958 342.765 465.918 342.907 465.919L342.549 468.54L341.095 469.973L339.478 471.713C339.227 471.684 338.99 471.587 338.79 471.434C338.59 471.281 338.435 471.077 338.341 470.843C338.227 470.642 338.173 470.412 338.188 470.181C338.203 469.95 338.284 469.728 338.423 469.543Z" fill="#CD904D"/>
          <path d="M336.673 467.854C336.283 468.089 335.649 468.724 335.321 468.939C334.185 469.727 334.093 470.26 332.137 472.113C330.028 474.16 331.943 475.655 332.987 475.04C333.325 474.836 333.724 474.467 334.082 474.283C335.88 473.571 337.64 472.768 339.355 471.877C339.495 471.661 339.581 471.414 339.606 471.157C339.631 470.901 339.594 470.642 339.498 470.403C339.382 470.165 339.194 469.97 338.961 469.845C338.727 469.72 338.46 469.671 338.198 469.707C337.983 469.789 337.707 469.922 337.502 469.604C337.396 469.394 337.375 469.151 337.441 468.925C337.508 468.699 337.657 468.506 337.86 468.386C338.884 467.639 338.955 467.096 338.741 466.85C338.444 467.096 337.246 467.485 336.673 467.854Z" fill="#CD904D"/>
          <path d="M337.881 469.963C338.411 469.51 338.984 469.109 339.59 468.765C339.754 468.693 340.184 467.813 340.716 467.403C340.836 466.962 340.929 466.514 340.993 466.062C341.024 465.923 341.094 465.796 341.196 465.696C341.298 465.596 341.426 465.527 341.566 465.499L341.74 468.14L340.594 469.84L339.355 471.887C339.117 471.94 338.869 471.922 338.641 471.835C338.413 471.747 338.216 471.595 338.075 471.396C337.83 470.961 337.76 470.448 337.881 469.963ZM292.549 467.977C292.549 467.977 293.02 471.693 295.805 473.3C299.101 475.214 312.133 483.701 315.256 482.125C319.893 479.75 317.672 479.473 316.28 477.651C314.887 475.829 311.724 470.945 306.994 467.68C302.694 464.782 294.842 459.807 292.549 467.977Z" fill="#CD904D"/>
          <path d="M302.131 477.641L308.622 468.806C309.011 468.273 308.12 467.782 307.731 468.284L301.241 477.119C300.851 477.651 301.742 478.142 302.131 477.641Z" fill="white"/>
          <path d="M237.256 463.533C237.256 463.533 236.795 466.707 239.539 472.225C242.283 477.743 252.285 485.012 252.991 485.257C257.711 486.65 257.834 482.862 256.841 480.906C256.022 479.268 253.769 475.624 247.924 468.386C245.149 464.977 240.471 460.391 237.256 463.533Z" fill="#EACB92"/>
          <path d="M230.735 472.921L234.748 488.892L246.695 489.015L247.903 472.716L230.735 472.921Z" fill="#EACB92"/>
          <path d="M234.298 488.892L246.49 488.718C246.49 488.718 249.746 493.601 245.794 502.026C245.364 502.927 243.348 511.332 243.348 511.332C243.348 511.332 233.397 514.219 228.892 510.831C228.452 510.503 227.203 505.886 226.783 504.391C225.125 498.361 230.1 495.649 234.298 488.892ZM244.596 475.808C244.596 475.808 250.739 476.351 250.739 472.737C250.739 470.823 250.585 472.123 245.508 464.905M253.063 485.257C254.885 487.305 257.158 485.401 257.158 485.401C261.519 481.726 268.675 473.505 270.651 470.045C270.961 469.546 271.228 469.022 271.449 468.478C271.552 468.151 271.523 467.797 271.371 467.49C271.218 467.183 270.953 466.946 270.63 466.83C270.037 466.635 268.317 468.038 268.317 468.038C247.954 481.766 251.783 483.783 253.063 485.257ZM273.384 462.09C273.757 461.551 274.19 461.057 274.674 460.616C274.877 460.101 275.116 459.601 275.391 459.121C275.397 458.69 275.376 458.26 275.329 457.831C275.327 457.697 275.363 457.564 275.434 457.45C275.504 457.335 275.607 457.244 275.729 457.186L276.497 459.561L275.831 461.373L275.155 463.503C274.931 463.582 274.689 463.598 274.456 463.549C274.224 463.501 274.009 463.389 273.835 463.226C273.654 463.104 273.515 462.93 273.434 462.728C273.354 462.525 273.337 462.303 273.384 462.09Z" fill="#EACB92"/>
          <path d="M271.204 461.353C270.968 461.701 270.661 462.52 270.487 462.817C269.842 463.963 269.361 466.717 269.033 467.311C268.903 467.465 268.805 467.644 268.746 467.837C268.687 468.03 268.669 468.234 268.692 468.434C268.715 468.635 268.779 468.829 268.88 469.003C268.981 469.178 269.117 469.331 269.279 469.451C270.303 470.311 270.968 468.959 270.968 468.959C271.152 468.585 271.364 468.226 271.603 467.884C272.843 466.548 274.015 465.151 275.115 463.697C275.147 463.456 275.122 463.209 275.04 462.98C274.958 462.75 274.822 462.543 274.644 462.377C274.447 462.222 274.208 462.133 273.959 462.12C273.71 462.107 273.462 462.172 273.251 462.305C273.098 462.469 272.924 462.694 272.617 462.51C272.439 462.36 272.307 462.164 272.236 461.943C272.166 461.722 272.159 461.485 272.217 461.261C272.883 460.042 272.832 459.971 272.555 459.664C272.077 460.204 271.625 460.767 271.204 461.353Z" fill="#EACB92"/>
          <path d="M273.087 462.663C273.38 462.066 273.723 461.494 274.111 460.954C274.215 460.406 274.356 459.865 274.531 459.336C274.447 458.915 274.341 458.498 274.214 458.087C274.185 457.956 274.193 457.819 274.239 457.692C274.284 457.565 274.364 457.454 274.469 457.37L275.698 459.551L275.411 461.465L275.166 463.697C274.984 463.839 274.765 463.924 274.535 463.94C274.305 463.957 274.075 463.904 273.876 463.789C273.478 463.529 273.196 463.126 273.087 462.663ZM247.064 467.127C245.856 465.816 242.866 458.579 242.866 458.579L236.151 458.271C236.151 458.271 231.892 462.459 231.288 465.806C230.93 468.104 230.903 470.441 231.206 472.747H246.388C246.388 472.747 247.115 467.188 247.064 467.127Z" fill="#EACB92"/>
          <path d="M232.598 463.943C232.598 463.943 228.769 466.963 230.858 472.757C232.076 476.146 236.734 489.823 237.256 490.294C240.89 493.611 242.651 490.294 242.621 488.062C242.621 486.23 242.508 478.112 240.573 473.044C238.945 469.021 236.867 462.52 232.598 463.943Z" fill="#EACB92"/>
          <path d="M241.781 439.352C242.878 439.542 243.887 440.074 244.663 440.872C245.439 441.67 245.943 442.694 246.101 443.796C246.759 448.518 247.172 453.271 247.34 458.036L230.96 457.903C230.96 457.903 228.913 437.274 241.781 439.352Z" fill="#004753"/>
          <path d="M237.215 453.49L235.772 459.643H243.01V452.047L237.215 453.49Z" fill="#EACB92"/>
          <g style="mix-blend-mode:multiply" opacity="0.59">
            <path d="M237.635 453.736C237.799 453.798 237.635 457.155 243.102 457.831L242.866 452.221L237.635 453.736Z" fill="#EACB92"/>
          </g>
          <path d="M245.17 447.993C245.17 451.678 243.194 454.596 239.887 454.596C236.58 454.596 234.666 451.576 234.666 447.88C234.666 444.185 236.611 441.236 239.887 441.236C243.163 441.236 245.17 444.307 245.17 447.993Z" fill="#EACB92"/>
          <path d="M236.13 447.287C236.437 446.887 238.28 446.764 238.679 447.287H236.13ZM241.546 447.379C242.15 446.805 244.054 446.979 244.361 447.502L241.546 447.379Z" fill="#004753"/>
          <g style="mix-blend-mode:multiply">
            <path d="M237.195 448.669C237.41 448.669 237.584 448.494 237.584 448.28C237.584 448.065 237.41 447.891 237.195 447.891C236.98 447.891 236.806 448.065 236.806 448.28C236.806 448.494 236.98 448.669 237.195 448.669Z" fill="#004753"/>
          </g>
          <g style="mix-blend-mode:multiply">
            <path d="M242.733 448.669C242.948 448.669 243.122 448.494 243.122 448.28C243.122 448.065 242.948 447.891 242.733 447.891C242.518 447.891 242.344 448.065 242.344 448.28C242.344 448.494 242.518 448.669 242.733 448.669Z" fill="#004753"/>
          </g>
          <path d="M238.556 450.665H241.484C241.411 451.013 241.223 451.327 240.95 451.555C240.677 451.783 240.335 451.913 239.979 451.924C239.632 451.914 239.3 451.782 239.04 451.552C238.78 451.322 238.609 451.008 238.556 450.665Z" fill="white"/>
          <path d="M235.127 447.502H234.308C234.121 447.502 233.97 447.653 233.97 447.839V449.682C233.97 449.869 234.121 450.02 234.308 450.02H235.127C235.313 450.02 235.465 449.869 235.465 449.682V447.839C235.465 447.653 235.313 447.502 235.127 447.502Z" fill="#EACB92"/>
          <path d="M245.293 447.502H244.474C244.287 447.502 244.136 447.653 244.136 447.839V449.682C244.136 449.869 244.287 450.02 244.474 450.02H245.293C245.479 450.02 245.63 449.869 245.63 449.682V447.839C245.63 447.653 245.479 447.502 245.293 447.502Z" fill="#EACB92"/>
          <path d="M237.164 441.697C237.164 441.697 236.314 445.997 236.673 446.119C237.031 446.242 241.341 446.242 241.341 446.242C241.341 446.242 242.201 441.697 242.078 442.147C242.115 443.519 242.238 444.886 242.447 446.242L244.166 446.611C244.166 446.611 245.262 439.496 242.119 439.619C238.976 439.742 237.41 439.987 237.164 441.697Z" fill="#004753"/>
          <g style="mix-blend-mode:multiply" opacity="0.59">
            <path d="M240.42 447.297V449.252L239.263 449.436C239.263 449.436 240.287 450.46 240.901 449.948C241.515 449.436 240.952 447.43 240.42 447.297ZM234.881 448.198C234.881 448.249 234.758 448.198 234.687 448.198C234.647 448.197 234.608 448.207 234.573 448.227C234.539 448.246 234.511 448.275 234.492 448.31C234.454 448.385 234.427 448.464 234.41 448.546C234.39 448.668 234.39 448.792 234.41 448.914C234.414 448.975 234.431 449.035 234.461 449.088C234.492 449.141 234.534 449.187 234.584 449.221C234.682 449.242 234.783 449.242 234.881 449.221M244.914 448.198C244.983 448.194 245.051 448.213 245.109 448.252C245.166 448.291 245.209 448.347 245.231 448.413C245.279 448.544 245.297 448.684 245.282 448.822C245.284 448.941 245.263 449.059 245.221 449.17C245.195 449.224 245.154 449.269 245.104 449.3C245.053 449.331 244.994 449.346 244.934 449.344C244.917 449.342 244.9 449.335 244.885 449.325C244.871 449.314 244.86 449.299 244.852 449.283" fill="#EACB92"/>
          </g>
          <path d="M235.188 459.193L233.141 461.599C233.141 461.599 247.053 469.963 246.286 487.059L246.849 487.346C246.849 487.346 251.148 467.628 235.219 459.193" fill="#003333"/>
          <path d="M450.34 498.72C450.34 476.996 361.273 471.437 361.273 471.437L167.109 471.355L162.246 471.201L159.718 519.461L171.603 530.302H443.409C447.668 530.302 450.903 526.842 450.155 523.075L449.336 518.888C449.336 518.888 450.114 500.173 450.36 499.897C452.295 497.972 450.34 498.986 450.34 498.72Z" fill="#1ca614"/>
          <path d="M238.997 482.217H227.254C226.576 482.217 226.026 482.767 226.026 483.445V484.449C226.026 485.127 226.576 485.677 227.254 485.677H238.997C239.675 485.677 240.225 485.127 240.225 484.449V483.445C240.225 482.767 239.675 482.217 238.997 482.217Z" fill="#054752"/>
          <path d="M305.428 482.217H293.685C293.007 482.217 292.457 482.767 292.457 483.445V484.449C292.457 485.127 293.007 485.677 293.685 485.677H305.428C306.106 485.677 306.656 485.127 306.656 484.449V483.445C306.656 482.767 306.106 482.217 305.428 482.217Z" fill="#054752"/>
          <path d="M431.462 490.509C431.462 490.509 432.649 502.968 436.949 502.968C446.071 502.968 451.752 503.235 451.752 503.235C451.752 503.235 452.387 494.195 444.34 491.595C440.162 490.38 435.784 490.011 431.462 490.509Z" fill="white"/>
          <path opacity="0.45" d="M373.077 529.913H221.777L218.122 515.591H378.339L373.077 529.913Z" fill="#054752"/>
          <path d="M232.875 532.35H373.077V536.619H232.875V532.35ZM169.525 532.35H183.079V536.619H166.495V535.421C166.495 534.614 166.813 533.839 167.38 533.264C167.947 532.689 168.717 532.361 169.525 532.35ZM420.917 532.35H449.48V536.619H420.917V532.35Z" fill="#054752"/>
          <path d="M159.769 480.651H179.22C179.22 480.651 179.507 494.256 168.266 496.263C158.888 497.942 159.523 496.478 159.523 496.478L159.769 480.651Z" fill="white"/>
          <path d="M178.575 473.761H160.342C159.217 473.761 158.305 474.673 158.305 475.798V477.436C158.305 478.561 159.217 479.473 160.342 479.473H178.575C179.7 479.473 180.612 478.561 180.612 477.436V475.798C180.612 474.673 179.7 473.761 178.575 473.761Z" fill="#054752"/>
          <path d="M235.792 468.253C234.943 468.181 230.008 467.639 223.774 466.748L222.75 472.184H283.489L283.346 471.263C267.473 470.635 251.617 469.632 235.792 468.253ZM290.102 471.57L290.205 472.205H307.793C302.131 472.031 296.204 471.816 290.102 471.57Z" fill="#1ca614"/>
          <path d="M193.071 458.374C192.365 455.548 207.68 437.377 221.736 436.936C222.268 436.936 223.784 436.936 226.077 436.885L226.149 436.496H229.22L229.158 436.855C241.064 436.773 264.191 436.67 278.063 436.64V436.496H284.727V436.629H285.352C323.681 436.629 354.465 468.161 354.465 468.161C354.465 468.161 352.141 470.741 350.903 472.256H368.675C368.675 472.256 366.034 470.505 354.516 459.715C345.61 451.361 319.709 432.207 287.973 432.207C265.45 432.207 198.538 431.572 197.709 431.572C188.372 431.572 186.366 435.329 187.87 441.369C189.631 448.402 163.423 469.205 162.185 472.205H219.73L220.753 466.328C208.786 464.506 193.88 461.609 193.071 458.374Z" fill="#1ca614"/>
          <path d="M219.105 475.696H222.166L222.791 472.194L219.74 472.184L219.105 475.696ZM229.21 436.496H226.138L226.067 436.885H229.138L229.21 436.496ZM220.794 466.308L219.771 472.184H222.842L223.866 466.748L220.794 466.308Z" fill="#1ca614"/>
          <path d="M226.087 436.885L220.794 466.308L223.774 466.748L229.148 436.855L226.087 436.885ZM284.031 475.419H290.696L290.205 472.205H283.54L284.031 475.419ZM284.728 436.496H278.063V436.64H284.728V436.496ZM283.397 471.283L283.54 472.205H290.205L290.102 471.57L283.397 471.283Z" fill="#1ca614"/>
          <path d="M278.053 436.64L283.397 471.283L290.102 471.57L284.728 436.629L278.053 436.64Z" fill="#1ca614"/>
          <path d="M441.832 507.667C439.007 507.667 433.806 517.536 433.806 522.225C433.806 526.914 439.007 530.753 441.832 530.753H444.115C444.981 530.754 445.838 530.585 446.638 530.255C447.437 529.925 448.164 529.44 448.777 528.828C449.389 528.217 449.875 527.491 450.206 526.692C450.538 525.892 450.708 525.036 450.708 524.17V515.816C450.708 514.639 449.766 507.626 448.599 507.626L441.832 507.667ZM158.417 499.805C158.417 499.805 175.186 496.519 183.069 505.732C190.952 514.946 194.075 530.169 194.075 530.169L171.296 530.272C165.072 530.333 158.346 530.343 158.346 517.639L158.417 499.805Z" fill="#054752"/>
          <path opacity="0.45" d="M450.186 506.859H434.093C433.712 506.859 433.348 506.708 433.079 506.439C432.81 506.17 432.659 505.806 432.659 505.425C432.662 505.047 432.814 504.685 433.083 504.419C433.351 504.152 433.714 504.002 434.093 504.002H450.186M347.463 464.639V484.94C349.298 484.932 351.055 484.199 352.351 482.901C353.647 481.602 354.378 479.844 354.383 478.009V471.56C354.378 469.726 353.647 467.969 352.35 466.672C351.054 465.375 349.297 464.645 347.463 464.639Z" fill="#054752"/>
          <path opacity="0.45" d="M353.606 491.758H295.098C292.752 491.758 290.85 493.66 290.85 496.007V499.457C290.85 501.803 292.752 503.705 295.098 503.705H353.606C355.952 503.705 357.854 501.803 357.854 499.457V496.007C357.854 493.66 355.952 491.758 353.606 491.758Z" fill="white"/>
          <path opacity="0.45" d="M274.111 491.758H236.048C233.702 491.758 231.8 493.66 231.8 496.007V499.457C231.8 501.803 233.702 503.705 236.048 503.705H274.111C276.458 503.705 278.36 501.803 278.36 499.457V496.007C278.36 493.66 276.458 491.758 274.111 491.758Z" fill="white"/>
          <path opacity="0.45" d="M160.915 484.367C161.523 484.338 162.13 484.432 162.7 484.645C163.27 484.857 163.791 485.183 164.231 485.603C164.671 486.023 165.022 486.528 165.261 487.087C165.5 487.646 165.624 488.248 165.624 488.856C165.624 489.464 165.5 490.066 165.261 490.625C165.022 491.184 164.671 491.689 164.231 492.109C163.791 492.529 163.27 492.854 162.7 493.067C162.13 493.28 161.523 493.374 160.915 493.345" fill="#054752"/>
          <path d="M372.565 530.558C372.698 523.976 375.406 517.709 380.108 513.101C384.81 508.493 391.13 505.912 397.714 505.912C404.297 505.912 410.618 508.493 415.32 513.101C420.021 517.709 422.729 523.976 422.862 530.558" fill="white"/>
          <path d="M418.46 530.876C418.455 536.378 416.267 541.653 412.376 545.543C408.486 549.434 403.211 551.622 397.709 551.627C393.604 551.627 389.592 550.41 386.18 548.13C382.767 545.85 380.107 542.609 378.537 538.817C376.966 535.025 376.555 530.853 377.356 526.827C378.157 522.802 380.133 519.104 383.035 516.202C385.937 513.3 389.635 511.324 393.66 510.523C397.686 509.722 401.858 510.133 405.65 511.704C409.442 513.275 412.683 515.934 414.963 519.347C417.243 522.759 418.46 526.772 418.46 530.876Z" fill="#054752"/>
          <g style="mix-blend-mode:multiply" opacity="0.49">
            <path d="M415.102 542.178C413.554 544.548 411.538 546.576 409.177 548.138C406.817 549.699 404.161 550.761 401.375 551.257C398.588 551.754 395.729 551.675 392.974 551.025C390.219 550.376 387.627 549.169 385.356 547.479C383.085 545.79 381.183 543.654 379.769 541.202C378.355 538.75 377.457 536.035 377.132 533.223C376.806 530.411 377.06 527.563 377.877 524.853C378.693 522.142 380.056 519.628 381.881 517.465L392.416 525.296L404.578 534.397L415.102 542.178Z" fill="#004553"/>
          </g>
          <path d="M405.418 530.866C405.42 532.391 404.969 533.882 404.123 535.151C403.278 536.42 402.074 537.41 400.666 537.995C399.257 538.58 397.707 538.734 396.211 538.438C394.715 538.141 393.34 537.408 392.261 536.33C391.182 535.253 390.447 533.879 390.149 532.383C389.85 530.888 390.002 529.337 390.586 527.928C391.169 526.519 392.157 525.314 393.425 524.467C394.693 523.619 396.184 523.167 397.709 523.167C399.751 523.167 401.711 523.978 403.156 525.421C404.601 526.865 405.415 528.823 405.418 530.866ZM182.568 530.558C182.568 523.887 185.218 517.489 189.935 512.772C194.652 508.055 201.05 505.405 207.721 505.405C214.392 505.405 220.79 508.055 225.507 512.772C230.225 517.489 232.875 523.887 232.875 530.558" fill="white"/>
          <path d="M228.421 530.876C228.419 534.977 227.201 538.986 224.922 542.395C222.642 545.804 219.402 548.461 215.613 550.03C211.823 551.598 207.654 552.008 203.631 551.208C199.609 550.407 195.914 548.432 193.014 545.532C190.114 542.632 188.139 538.937 187.338 534.914C186.537 530.892 186.947 526.723 188.516 522.933C190.084 519.143 192.741 515.904 196.151 513.624C199.56 511.344 203.569 510.126 207.67 510.124C210.401 510.103 213.109 510.624 215.637 511.66C218.164 512.695 220.461 514.222 222.392 516.154C224.323 518.085 225.851 520.381 226.886 522.909C227.921 525.436 228.443 528.145 228.421 530.876Z" fill="#054752"/>
          <g style="mix-blend-mode:multiply" opacity="0.49">
            <path d="M225.115 542.178C223.573 544.563 221.559 546.607 219.196 548.182C216.833 549.758 214.171 550.831 211.377 551.336C208.582 551.841 205.713 551.768 202.948 551.119C200.183 550.471 197.581 549.262 195.302 547.567C193.023 545.872 191.116 543.728 189.7 541.267C188.283 538.805 187.387 536.079 187.066 533.257C186.746 530.435 187.008 527.578 187.837 524.861C188.665 522.145 190.043 519.627 191.884 517.465L202.428 525.296L214.59 534.397L225.115 542.178Z" fill="#004553"/>
          </g>
          <path d="M215.42 530.866C215.422 532.391 214.971 533.882 214.125 535.151C213.28 536.42 212.076 537.41 210.668 537.995C209.26 538.58 207.709 538.734 206.213 538.438C204.717 538.141 203.343 537.408 202.263 536.33C201.184 535.253 200.449 533.879 200.151 532.383C199.853 530.888 200.005 529.337 200.588 527.928C201.171 526.519 202.159 525.314 203.427 524.467C204.695 523.619 206.186 523.167 207.711 523.167C208.723 523.166 209.725 523.364 210.66 523.75C211.595 524.136 212.445 524.703 213.161 525.418C213.877 526.133 214.445 526.982 214.833 527.917C215.22 528.852 215.42 529.854 215.42 530.866Z" fill="white"/>
          <path d="M136.284 440.212H196.685M124.511 453.009H184.912M901.158 388.196H961.559M901.537 456.081H961.938M920.098 421.468H980.499" stroke="white" stroke-width="1.02375" stroke-linecap="round" stroke-linejoin="round"/>
          <path d="M-400.53 849.375C-400.53 701.955 -281.007 582.401 -133.556 582.401C13.8945 582.401 133.417 701.924 133.417 849.375" stroke="#054752" stroke-width="10.2375" stroke-miterlimit="10"/>
          <path d="M127.736 849.375C127.736 701.955 247.269 582.401 394.709 582.401C542.15 582.401 661.693 701.924 661.693 849.375M667.272 849.375C667.272 701.955 786.795 582.401 934.246 582.401C1081.7 582.401 1201.22 701.924 1201.22 849.375" stroke="#054752" stroke-width="10.2375" stroke-miterlimit="10"/>
          <path d="M-651.277 504.668H1723.1" stroke="#054752" stroke-width="20.475" stroke-miterlimit="10"/>
          <path d="M-444.356 554.002V504.565M-349.004 554.002V504.565M-253.652 554.002V504.565M-158.31 554.002V504.565M-62.9584 554.002V504.565M32.3835 554.002V504.565M127.736 554.002V504.565M223.088 554.002V504.565M318.429 554.002V504.565M413.782 554.002V504.565M509.134 554.002V504.565M604.475 554.002V504.565M699.828 554.002V504.565M795.18 554.002V504.565M890.522 554.002V504.565M985.874 554.002V504.565M1081.23 554.002V504.565M1176.57 554.002V504.565M1271.92 554.002V504.565M1367.27 554.002V504.565M1462.61 554.002V504.565" stroke="#054752" stroke-width="7.16625" stroke-miterlimit="10"/>
          <path d="M-651.686 536.547H1723.1V579.555H-651.686V536.547Z" fill="#054752"/>
          <path d="M-427.311 569.42V822.593L-457.338 843.693V890.765H-343.732V841.256L-377.813 818.539V569.42H-427.311ZM106.636 569.42V822.593L76.6094 843.693V890.765H190.215V841.256L156.134 818.539V569.42H106.636ZM640.593 569.42V822.593L610.567 843.693V890.765H724.172V841.256L690.091 818.539V569.42H640.593ZM1174.54 569.42V822.593L1144.51 843.693V890.765H1258.12V841.256L1224.04 818.539V569.42H1174.54Z" fill="#054752"/>
        </g>
      </g>
    </g>
  </g>
  <defs>
    <linearGradient id="paint0_linear_2_3844" x1="513.444" y1="678.449" x2="511.15" y2="-9.31613" gradientUnits="userSpaceOnUse">
      <stop stop-color="white"/>
      <stop offset="0.09" stop-color="#F7FDFF"/>
      <stop offset="0.24" stop-color="#E0F8FF"/>
      <stop offset="0.42" stop-color="#BCF0FF"/>
      <stop offset="0.63" stop-color="#89E5FF"/>
      <stop offset="0.86" stop-color="#48D7FF"/>
      <stop offset="0.94" stop-color="#2ED1FF"/>
    </linearGradient>
    <clipPath id="clip0_2_3844">
      <rect width="1024" height="819" fill="white"/>
    </clipPath>
    <clipPath id="clip1_2_3844">
      <rect width="1024" height="819" fill="white"/>
    </clipPath>
    <clipPath id="clip2_2_3844">
      <rect width="2047.5" height="819" fill="white" transform="translate(-511.75)"/>
    </clipPath>
  </defs>
</svg>