<?xml version="1.0"?>
<svg width="32" height="24" xmlns="http://www.w3.org/2000/svg" xmlns:svg="http://www.w3.org/2000/svg">
 <defs>
  <clipPath id="clip0_2_4246">
   <rect fill="white" height="24" id="svg_1" transform="translate(-0.000244141)" width="24"/>
  </clipPath>
 </defs>
 <g class="layer">
  <title>Layer 1</title>
  <g clip-path="url(#clip0_2_4246)" id="svg_2">
   <path clip-rule="evenodd" d="m1.14,11.5c0,-2.75 1.09,-5.38 3.03,-7.33c1.95,-1.94 4.58,-3.03 7.33,-3.03c2.75,0 5.38,1.09 7.33,3.03c1.94,1.95 3.03,4.58 3.03,7.33c0,2.75 -1.09,5.38 -3.03,7.33c-1.95,1.94 -4.58,3.03 -7.33,3.03c-2.75,0 -5.38,-1.09 -7.33,-3.03c-1.94,-1.95 -3.03,-4.58 -3.03,-7.33zm10.36,-11.5c-3.05,0 -5.98,1.21 -8.13,3.37c-2.16,2.15 -3.37,5.08 -3.37,8.13c0,3.05 1.21,5.98 3.37,8.13c2.15,2.16 5.08,3.37 8.13,3.37c3.05,0 5.97,-1.21 8.13,-3.37c2.16,-2.15 3.37,-5.08 3.37,-8.13c0,-3.05 -1.21,-5.98 -3.37,-8.13c-2.16,-2.16 -5.08,-3.37 -8.13,-3.37zm0.57,6.53c0,-0.15 -0.06,-0.3 -0.17,-0.4c-0.1,-0.11 -0.25,-0.17 -0.4,-0.17c-0.15,0 -0.3,0.06 -0.4,0.17c-0.11,0.1 -0.17,0.25 -0.17,0.4l0,4.4l-4.4,0c-0.15,0 -0.3,0.06 -0.4,0.17c-0.11,0.1 -0.17,0.25 -0.17,0.4c0,0.15 0.06,0.3 0.17,0.4c0.1,0.11 0.25,0.17 0.4,0.17l4.4,0l0,4.4c0,0.15 0.06,0.3 0.17,0.4c0.1,0.11 0.25,0.17 0.4,0.17c0.15,0 0.3,-0.06 0.4,-0.17c0.11,-0.1 0.17,-0.25 0.17,-0.4l0,-4.4l4.4,0c0.15,0 0.3,-0.06 0.4,-0.17c0.11,-0.1 0.17,-0.25 0.17,-0.4c0,-0.15 -0.06,-0.3 -0.17,-0.4c-0.1,-0.11 -0.25,-0.17 -0.4,-0.17l-4.4,0l0,-4.4z" fill="#157b0f" fill-rule="evenodd" id="svg_3"/>
  </g>
 </g>
</svg>