<?xml version="1.0"?>
<svg width="33" height="24" xmlns="http://www.w3.org/2000/svg" xmlns:svg="http://www.w3.org/2000/svg">
 <defs>
  <clipPath id="clip0_2_4237">
   <rect fill="white" height="24" id="svg_1" transform="translate(0.109863)" width="24"/>
  </clipPath>
 </defs>
 <g class="layer">
  <title>Layer 1</title>
  <g clip-path="url(#clip0_2_4237)" id="svg_2">
   <path clip-rule="evenodd" d="m3.06,10.64c0,-4.25 3.44,-7.69 7.69,-7.69c4.24,0 7.68,3.44 7.68,7.69c0,4.24 -3.44,7.68 -7.68,7.68c-4.25,0 -7.69,-3.44 -7.69,-7.68zm7.69,-8.69c-4.8,0 -8.69,3.89 -8.69,8.69c0,4.79 3.89,8.68 8.69,8.68c2.21,0 4.24,-0.83 5.77,-2.2l4.78,4.78c0.2,0.19 0.51,0.19 0.71,0c0.19,-0.2 0.19,-0.51 0,-0.71l-4.78,-4.78c1.37,-1.53 2.2,-3.56 2.2,-5.77c0,-4.8 -3.89,-8.69 -8.68,-8.69z" fill="#157b0f" fill-rule="evenodd" id="svg_3"/>
  </g>
 </g>
</svg>