<svg width="13" height="13" viewBox="0 0 13 13" fill="none" xmlns="http://www.w3.org/2000/svg">
<path fill-rule="evenodd" clip-rule="evenodd" d="M1.29677 0.15332C0.744486 0.15332 0.296771 0.601036 0.296771 1.15332C0.296771 1.70561 0.744486 2.15332 1.29677 2.15332C3.20989 2.15332 5.58292 3.33333 7.52085 5.21743C9.45481 7.09768 10.7352 9.46519 10.7352 11.5918C10.7352 12.1441 11.1829 12.5918 11.7352 12.5918C12.2875 12.5918 12.7352 12.1441 12.7352 11.5918C12.7352 8.72607 11.0657 5.87435 8.915 3.78344C6.76832 1.69639 3.92211 0.15332 1.29677 0.15332ZM1.29677 4.69178C0.744486 4.69178 0.296771 5.1395 0.296771 5.69178C0.296771 6.24407 0.744486 6.69178 1.29677 6.69178C1.4588 6.69178 1.83502 6.75734 2.35588 6.96695C2.85698 7.16861 3.42843 7.47844 3.97571 7.90134C5.06916 8.74628 6.01333 9.99622 6.20289 11.7022C6.26388 12.2511 6.7583 12.6467 7.3072 12.5857C7.85611 12.5247 8.25164 12.0303 8.19065 11.4814C7.92636 9.10273 6.6013 7.40267 5.1986 6.31877C4.4978 5.77724 3.76445 5.37793 3.10256 5.11156C2.46045 4.85315 1.81551 4.69178 1.29677 4.69178Z" fill="#3E4958"/>
</svg>
