<svg width="56" height="55" viewBox="0 0 56 55" fill="none" xmlns="http://www.w3.org/2000/svg">
<g filter="url(#filter0_d_295_2017)">
<path d="M19.8814 13.0642C18.8588 14.0076 17.5556 15.3051 17.1351 16.146C16.2275 17.9614 17.589 22.9537 22.5813 28.3999C26.5752 32.7568 31.507 34.6329 34.3814 34.9354C36.2648 35.1337 38.0182 33.2405 39.0034 31.9115C39.5304 31.2005 39.4055 30.2331 38.7901 29.5972L35.9796 26.6932C35.1351 25.8205 33.7159 25.8983 32.9089 26.8058C32.2847 27.508 31.6092 28.1977 31.2045 28.4001C29.7292 29.1377 23.0352 22.0462 23.489 20.6845C23.8453 20.15 24.4815 19.5455 25.1228 19.0084C26.1052 18.1856 26.2386 16.667 25.3113 15.7826L22.5139 13.1142C21.777 12.4113 20.6299 12.3737 19.8814 13.0642Z" fill="white"/>
<path d="M19.8814 13.0642C18.8588 14.0076 17.5556 15.3051 17.1351 16.146C16.2275 17.9614 17.589 22.9537 22.5813 28.3999C26.5752 32.7568 31.507 34.6329 34.3814 34.9354C36.2648 35.1337 38.0182 33.2405 39.0034 31.9115C39.5304 31.2005 39.4055 30.2331 38.7901 29.5972L35.9796 26.6932C35.1351 25.8205 33.7159 25.8983 32.9089 26.8058C32.2847 27.508 31.6092 28.1977 31.2045 28.4001C29.7292 29.1377 23.0352 22.0462 23.489 20.6845C23.8453 20.15 24.4815 19.5455 25.1228 19.0084C26.1052 18.1856 26.2386 16.667 25.3113 15.7826L22.5139 13.1142C21.777 12.4113 20.6299 12.3737 19.8814 13.0642Z" stroke="#3E4958" stroke-width="2"/>
</g>
<defs>
<filter id="filter0_d_295_2017" x="0.872873" y="0.566406" width="54.4625" height="54.3838" filterUnits="userSpaceOnUse" color-interpolation-filters="sRGB">
<feFlood flood-opacity="0" result="BackgroundImageFix"/>
<feColorMatrix in="SourceAlpha" type="matrix" values="0 0 0 0 0 0 0 0 0 0 0 0 0 0 0 0 0 0 127 0" result="hardAlpha"/>
<feOffset dy="4"/>
<feGaussianBlur stdDeviation="7.5"/>
<feColorMatrix type="matrix" values="0 0 0 0 0 0 0 0 0 0 0 0 0 0 0 0 0 0 0.15 0"/>
<feBlend mode="normal" in2="BackgroundImageFix" result="effect1_dropShadow_295_2017"/>
<feBlend mode="normal" in="SourceGraphic" in2="effect1_dropShadow_295_2017" result="shape"/>
</filter>
</defs>
</svg>
