<svg width="79" height="79" viewBox="0 0 79 79" fill="none" xmlns="http://www.w3.org/2000/svg">
<path fill-rule="evenodd" clip-rule="evenodd" d="M39.5 79C61.3152 79 79 61.3152 79 39.5C79 17.6848 61.3152 0 39.5 0C17.6848 0 0 17.6848 0 39.5C0 61.3152 17.6848 79 39.5 79ZM53.1124 32.3698C53.1124 39.9445 45.4301 58.1545 39.1768 58.1545C32.9235 58.1545 25.243 39.9445 25.243 32.3698C25.243 24.795 31.6021 18.6545 39.1768 18.6545C46.7516 18.6545 53.1124 24.795 53.1124 32.3698ZM46.0833 32.9167C46.0833 36.5525 43.1359 39.5 39.5 39.5C35.8641 39.5 32.9167 36.5525 32.9167 32.9167C32.9167 29.2808 35.8641 26.3333 39.5 26.3333C43.1359 26.3333 46.0833 29.2808 46.0833 32.9167Z" fill="#7EAB3A"/>
</svg>
