<svg width="49" height="49" viewBox="0 0 49 49" fill="none" xmlns="http://www.w3.org/2000/svg">
<path d="M44.5691 32.6094V32.1013H44.4409L44.2926 32.4503L44.1451 32.1013H44.0161V32.6094H44.1072V32.2262L44.2459 32.5569H44.3402L44.4788 32.2254V32.6094H44.5691ZM43.7558 32.6094V32.1879H43.9202V32.1021H43.5011V32.1879H43.6655V32.6094H43.7558Z" fill="#F79410"/>
<path d="M30.0296 34.7918H18.9609V14.2363H30.0296V34.7918Z" fill="#FF5F00"/>
<path d="M19.6689 24.5102C19.6689 20.3404 21.5582 16.6261 24.5004 14.2324C22.3488 12.4821 19.6335 11.4373 16.6824 11.4373C9.69615 11.4373 4.03296 17.2901 4.03296 24.5102C4.03296 31.7302 9.69615 37.583 16.6824 37.583C19.6335 37.583 22.3488 36.5383 24.5004 34.7879C21.5582 32.3943 19.6689 28.6799 19.6689 24.5102Z" fill="#EB001B"/>
<path d="M44.963 24.5063C44.963 31.7263 39.2998 37.5791 32.3135 37.5791C29.3625 37.5791 26.6471 36.5344 24.4948 34.784C27.4377 32.3904 29.3271 28.676 29.3271 24.5063C29.3271 20.3365 27.4377 16.6222 24.4948 14.2285C26.6471 12.4782 29.3625 11.4334 32.3135 11.4334C39.2998 11.4334 44.963 17.2862 44.963 24.5063Z" fill="#F79E1B"/>
</svg>
