<svg width="22" height="20" viewBox="0 0 22 20" fill="none" xmlns="http://www.w3.org/2000/svg">
<path d="M9.59613 1.39057C10.0452 0.00860882 12.0003 0.00860977 12.4493 1.39058L13.8342 5.65298C14.0351 6.27102 14.611 6.68946 15.2608 6.68946H19.7426C21.1957 6.68946 21.7998 8.54888 20.6243 9.40298L16.9984 12.0373C16.4727 12.4193 16.2527 13.0963 16.4535 13.7143L17.8385 17.9768C18.2875 19.3587 16.7058 20.5079 15.5302 19.6538L11.9044 17.0195C11.3787 16.6375 10.6668 16.6375 10.141 17.0195L6.51522 19.6538C5.33965 20.5079 3.75793 19.3587 4.20696 17.9768L5.5919 13.7143C5.79271 13.0963 5.57272 12.4193 5.04699 12.0373L1.42117 9.40298C0.245597 8.54888 0.849761 6.68946 2.30285 6.68946H6.78461C7.43445 6.68946 8.01038 6.27102 8.21119 5.65298L9.59613 1.39057Z" fill="#FFB800"/>
</svg>
