<svg width="32" height="31" viewBox="0 0 32 31" fill="none" xmlns="http://www.w3.org/2000/svg">
<path d="M13.9235 1.8541C14.5222 0.0114779 17.129 0.0114794 17.7277 1.8541L20.0522 9.00816C20.3199 9.8322 21.0878 10.3901 21.9543 10.3901L29.4765 10.3901C31.414 10.3901 32.2195 12.8694 30.6521 14.0082L24.5665 18.4296C23.8655 18.9389 23.5722 19.8416 23.8399 20.6657L26.1644 27.8197C26.7631 29.6623 24.6542 31.1946 23.0868 30.0558L17.0012 25.6343C16.3002 25.1251 15.351 25.1251 14.65 25.6343L8.56441 30.0558C6.99698 31.1946 4.88802 29.6623 5.48672 27.8197L7.81122 20.6657C8.07897 19.8416 7.78565 18.9389 7.08467 18.4296L0.99907 14.0082C-0.568357 12.8694 0.237195 10.3901 2.17464 10.3901L9.69686 10.3901C10.5633 10.3901 11.3312 9.8322 11.599 9.00816L13.9235 1.8541Z" fill="#7EAB3A"/>
</svg>
