<svg width="32" height="31" viewBox="0 0 32 31" fill="none" xmlns="http://www.w3.org/2000/svg">
<path d="M13.9351 1.8541C14.5338 0.0114779 17.1406 0.0114794 17.7393 1.8541L20.0638 9.00816C20.3315 9.8322 21.0994 10.3901 21.9659 10.3901L29.4881 10.3901C31.4256 10.3901 32.2311 12.8694 30.6637 14.0082L24.5781 18.4296C23.8771 18.9389 23.5838 19.8416 23.8515 20.6657L26.176 27.8197C26.7747 29.6623 24.6658 31.1946 23.0984 30.0558L17.0127 25.6343C16.3118 25.1251 15.3626 25.1251 14.6616 25.6343L8.576 30.0558C7.00857 31.1946 4.89962 29.6623 5.49832 27.8197L7.82281 20.6657C8.09056 19.8416 7.79725 18.9389 7.09627 18.4296L1.01067 14.0082C-0.55676 12.8694 0.248792 10.3901 2.18624 10.3901L9.70846 10.3901C10.5749 10.3901 11.3428 9.8322 11.6106 9.00816L13.9351 1.8541Z" fill="#7EAB3A"/>
</svg>
