<svg width="32" height="31" viewBox="0 0 32 31" fill="none" xmlns="http://www.w3.org/2000/svg">
<path d="M14.2607 1.8541C14.8594 0.0114779 17.4662 0.0114794 18.0649 1.8541L20.3894 9.00816C20.6572 9.8322 21.4251 10.3901 22.2915 10.3901L29.8137 10.3901C31.7512 10.3901 32.5567 12.8694 30.9893 14.0082L24.9037 18.4296C24.2027 18.9389 23.9094 19.8416 24.1772 20.6657L26.5017 27.8197C27.1004 29.6623 24.9914 31.1946 23.424 30.0558L17.3384 25.6343C16.6374 25.1251 15.6882 25.1251 14.9872 25.6343L8.90162 30.0558C7.3342 31.1946 5.22524 29.6623 5.82394 27.8197L8.14844 20.6657C8.41619 19.8416 8.12287 18.9389 7.42189 18.4296L1.33629 14.0082C-0.231138 12.8694 0.574414 10.3901 2.51186 10.3901L10.0341 10.3901C10.9005 10.3901 11.6684 9.8322 11.9362 9.00816L14.2607 1.8541Z" fill="#7EAB3A"/>
</svg>
