<svg width="33" height="31" viewBox="0 0 33 31" fill="none" xmlns="http://www.w3.org/2000/svg">
<path d="M14.5979 1.8541C15.1966 0.0114779 17.8034 0.0114794 18.4021 1.8541L20.7266 9.00816C20.9944 9.8322 21.7623 10.3901 22.6287 10.3901L30.151 10.3901C32.0884 10.3901 32.894 12.8694 31.3265 14.0082L25.2409 18.4296C24.5399 18.9389 24.2466 19.8416 24.5144 20.6657L26.8389 27.8197C27.4376 29.6623 25.3286 31.1946 23.7612 30.0558L17.6756 25.6343C16.9746 25.1251 16.0254 25.1251 15.3244 25.6343L9.23884 30.0558C7.67142 31.1946 5.56246 29.6623 6.16116 27.8197L8.48566 20.6657C8.7534 19.8416 8.46009 18.9389 7.75911 18.4296L1.67351 14.0082C0.106081 12.8694 0.911633 10.3901 2.84908 10.3901L10.3713 10.3901C11.2378 10.3901 12.0057 9.8322 12.2734 9.00816L14.5979 1.8541Z" fill="#D5DDE0"/>
</svg>
