<svg width="32" height="31" viewBox="0 0 32 31" fill="none" xmlns="http://www.w3.org/2000/svg">
<path d="M14.2723 1.8541C14.871 0.0114779 17.4778 0.0114794 18.0765 1.8541L20.401 9.00816C20.6688 9.8322 21.4367 10.3901 22.3031 10.3901L29.8253 10.3901C31.7628 10.3901 32.5683 12.8694 31.0009 14.0082L24.9153 18.4296C24.2143 18.9389 23.921 19.8416 24.1888 20.6657L26.5133 27.8197C27.112 29.6623 25.003 31.1946 23.4356 30.0558L17.35 25.6343C16.649 25.1251 15.6998 25.1251 14.9988 25.6343L8.91322 30.0558C7.34579 31.1946 5.23684 29.6623 5.83554 27.8197L8.16003 20.6657C8.42778 19.8416 8.13447 18.9389 7.43349 18.4296L1.34789 14.0082C-0.219541 12.8694 0.586011 10.3901 2.52346 10.3901L10.0457 10.3901C10.9121 10.3901 11.68 9.8322 11.9478 9.00816L14.2723 1.8541Z" fill="#D5DDE0"/>
</svg>
