<svg width="54" height="54" viewBox="0 0 54 54" fill="none" xmlns="http://www.w3.org/2000/svg">
<rect x="0.333374" y="23.667" width="30" height="30" fill="white" fill-opacity="0.01"/>
<path fill-rule="evenodd" clip-rule="evenodd" d="M31.8889 40.334L13.2222 40.334C12.2404 40.334 11.4445 39.538 11.4445 38.5562C11.4445 37.5744 12.2404 36.7784 13.2222 36.7784L31.8889 36.7784C32.8707 36.7784 33.6667 37.5743 33.6667 38.5562C33.6667 39.538 32.8707 40.334 31.8889 40.334ZM11.4445 17.2228C11.4445 16.241 12.2404 15.445 13.2222 15.445L42.5556 15.445C43.5374 15.445 44.3333 16.241 44.3333 17.2228C44.3333 18.2047 43.5374 19.0006 42.5556 19.0006L13.2222 19.0006C12.2404 19.0006 11.4445 18.2047 11.4445 17.2228ZM13.2222 29.6673L37.2222 29.6673C38.2041 29.6673 39 28.8713 39 27.8895C39 26.9077 38.2041 26.1117 37.2222 26.1117L13.2222 26.1117C12.2404 26.1117 11.4445 26.9077 11.4445 27.8895C11.4445 28.8713 12.2404 29.6673 13.2222 29.6673Z" fill="#3E4958"/>
</svg>
