<svg width="54" height="54" viewBox="0 0 54 54" fill="none" xmlns="http://www.w3.org/2000/svg">
<rect x="0.333252" y="23.667" width="30" height="30" fill="white" fill-opacity="0.01"/>
<path fill-rule="evenodd" clip-rule="evenodd" d="M31.8888 40.334L13.2221 40.334C12.2403 40.334 11.4443 39.538 11.4443 38.5562C11.4443 37.5744 12.2403 36.7784 13.2221 36.7784L31.8888 36.7784C32.8706 36.7784 33.6666 37.5743 33.6666 38.5562C33.6666 39.538 32.8706 40.334 31.8888 40.334ZM11.4443 17.2228C11.4443 16.241 12.2403 15.445 13.2221 15.445L42.5554 15.445C43.5373 15.445 44.3332 16.241 44.3332 17.2228C44.3332 18.2047 43.5373 19.0006 42.5554 19.0006L13.2221 19.0006C12.2403 19.0006 11.4443 18.2047 11.4443 17.2228ZM13.2221 29.6673L37.2221 29.6673C38.204 29.6673 38.9999 28.8713 38.9999 27.8895C38.9999 26.9077 38.204 26.1117 37.2221 26.1117L13.2221 26.1117C12.2403 26.1117 11.4443 26.9077 11.4443 27.8895C11.4443 28.8713 12.2403 29.6673 13.2221 29.6673Z" fill="#3E4958"/>
</svg>
