<svg width="895" height="18" viewBox="0 0 895 18" fill="none" xmlns="http://www.w3.org/2000/svg">
<path d="M0 0.0751953H895V17.9999L867.031 10.4831L839.062 17.9999L811.094 10.4831L783.125 17.9999L755.156 10.4831L727.188 17.9999L699.219 10.4831L671.25 17.9999L643.281 10.4831L615.312 17.9999L587.344 10.4831L559.375 17.9999L531.406 10.4831L503.438 17.9999L475.469 10.4831L447.5 17.9999L419.531 10.4831L391.562 17.9999L363.594 10.4831L335.625 17.9999L307.656 10.4831L279.688 17.9999L251.719 10.4831L223.75 17.9999L195.781 10.4831L167.812 17.9999L139.844 10.4831L111.875 17.9999L83.9062 10.4831L55.9375 17.9999L27.9688 10.4831L0 17.9999V0.0751953Z" fill="white"/>
</svg>
