<svg width="30" height="30" viewBox="0 0 30 30" fill="none" xmlns="http://www.w3.org/2000/svg">
<g clip-path="url(#clip0_283_1260)">
<rect width="30" height="30" fill="white" fill-opacity="0.01"/>
<path d="M22.8787 15.3073C21.7204 11.8405 18.6079 9.35276 14.9394 9.35276C13.6261 9.35276 12.3876 9.67689 11.2821 10.2466L9.39576 8.36035L7.99243 9.76368L20.4829 22.2541L21.8862 20.8508L20.2692 19.2338C21.4467 18.211 22.36 16.8594 22.8786 15.3072L22.8787 15.3073ZM14.9394 11.3376C17.1318 11.3376 18.909 13.1149 18.909 15.3073C18.909 16.0433 18.7002 16.7253 18.3483 17.3129L16.8563 15.8208C16.9005 15.6572 16.9242 15.4852 16.9242 15.3072C16.9242 14.211 16.0355 13.3224 14.9394 13.3224C14.762 13.3224 14.5918 13.3492 14.4286 13.3932L12.9459 11.9105C13.5327 11.5593 14.2044 11.3376 14.9394 11.3376Z" fill="#97ADB6"/>
<path d="M14.9393 19.2768C12.7469 19.2768 10.9697 17.4996 10.9697 15.3072C10.9697 14.9539 11.0306 14.6177 11.1172 14.2917L8.8987 12.0732C8.06476 12.9865 7.40873 14.0839 7 15.3072C8.15832 18.7739 11.2708 21.2617 14.9393 21.2617C15.878 21.2617 16.7793 21.0967 17.6217 20.7962L15.9548 19.1293C15.6288 19.216 15.2926 19.2768 14.9393 19.2768Z" fill="#97ADB6"/>
</g>
<defs>
<clipPath id="clip0_283_1260">
<rect width="30" height="30" fill="white" transform="matrix(-1 0 0 1 30 0)"/>
</clipPath>
</defs>
</svg>
