<svg width="70" height="70" viewBox="0 0 70 70" fill="none" xmlns="http://www.w3.org/2000/svg">
<path fill-rule="evenodd" clip-rule="evenodd" d="M35.2381 69.5238C54.4366 69.5238 70 53.9604 70 34.7619C70 15.5634 54.4366 0 35.2381 0C16.0396 0 0.476196 15.5634 0.476196 34.7619C0.476196 53.9604 16.0396 69.5238 35.2381 69.5238ZM46.3835 38.7016H35.2381V30.8222H54.9365V34.7619C54.9365 45.6236 46.0998 54.4603 35.2381 54.4603C24.3764 54.4603 15.5397 45.6236 15.5397 34.7619C15.5397 23.9002 24.3764 15.0635 35.2381 15.0635C39.9697 15.0635 44.5239 16.7654 48.0696 19.8541L42.8929 25.7952C40.7812 23.9554 38.0629 22.9429 35.2381 22.9429C28.7219 22.9429 23.4191 28.2457 23.4191 34.7619C23.4191 41.2781 28.7219 46.581 35.2381 46.581C40.3755 46.581 44.7564 43.2874 46.3835 38.7016Z" fill="#D5DDE0"/>
</svg>
