<svg width="45" height="45" viewBox="0 0 45 45" fill="none" xmlns="http://www.w3.org/2000/svg">
<path fill-rule="evenodd" clip-rule="evenodd" d="M22.5 45C34.9264 45 45 34.9264 45 22.5C45 10.0736 34.9264 0 22.5 0C10.0736 0 0 10.0736 0 22.5C0 34.9264 10.0736 45 22.5 45ZM30.2539 18.4385C30.2539 22.7532 25.8779 33.126 22.3159 33.126C18.7539 33.126 14.3789 22.7532 14.3789 18.4385C14.3789 14.1238 18.0012 10.626 22.3159 10.626C26.6306 10.626 30.2539 14.1238 30.2539 18.4385ZM26.25 18.75C26.25 20.8211 24.5711 22.5 22.5 22.5C20.4289 22.5 18.75 20.8211 18.75 18.75C18.75 16.6789 20.4289 15 22.5 15C24.5711 15 26.25 16.6789 26.25 18.75Z" fill="#D5DDE0"/>
</svg>
