<svg width="350" height="183" viewBox="0 0 350 183" fill="none" xmlns="http://www.w3.org/2000/svg">
<path d="M2.18469 2.02344C2.18469 2.02344 20.6265 50.7929 46.7693 55.0922C62.1254 57.6176 74.5539 51.7334 85.5385 45.6876C99.387 38.0656 109.865 28.622 124.308 34.9395C139.29 41.4926 129.052 65.8904 143.692 73.2296C162.226 82.5205 173.11 59.8341 192.154 51.7334C202.215 47.4535 208.186 45.8461 218 40.9853C225.236 37.4014 228.196 32.3393 236.092 30.909C248.836 28.6006 256.08 35.9692 267.107 43.0006C293.742 59.984 335.448 97.8358 308.461 114.207C305.141 116.221 302.578 115.967 299.415 118.237C284.299 129.09 294.136 162.68 312.338 165.26C320.409 166.404 325.687 154.371 332.369 159.214C337.41 162.868 333.351 169.989 337.538 174.665C340.694 178.19 347.877 180.711 347.877 180.711" stroke="#7EAB3A" stroke-width="4" stroke-linecap="round" stroke-linejoin="round"/>
</svg>
