<svg width="38" height="39" viewBox="0 0 38 39" fill="none" xmlns="http://www.w3.org/2000/svg">
<path fill-rule="evenodd" clip-rule="evenodd" d="M38 19.5C38 30.2696 29.4934 39 19 39C8.50659 39 0 30.2696 0 19.5C0 8.73045 8.50659 0 19 0C29.4934 0 38 8.73045 38 19.5ZM11.1843 16.5085C11.429 16.6858 12.1667 17.2121 13.3973 18.0874C14.628 18.9627 15.5708 19.6366 16.2258 20.1092C16.2977 20.161 16.4506 20.2736 16.6845 20.4472C16.9184 20.6209 17.1127 20.7613 17.2674 20.8683C17.4222 20.9754 17.6093 21.0954 17.8289 21.2284C18.0484 21.3612 18.2553 21.461 18.4497 21.5272C18.644 21.5938 18.8239 21.6269 18.9894 21.6269H19.0003H19.0112C19.1767 21.6269 19.3567 21.5938 19.551 21.5272C19.7452 21.461 19.9524 21.361 20.1717 21.2284C20.3912 21.0953 20.5783 20.9753 20.733 20.8683C20.8878 20.7613 21.082 20.6209 21.316 20.4472C21.5498 20.2735 21.7029 20.161 21.7748 20.1092C22.4369 19.6366 24.1211 18.4362 26.8271 16.5083C27.3524 16.1318 27.7914 15.6774 28.144 15.1456C28.4968 14.6139 28.6731 14.0562 28.6731 13.4728C28.6731 12.9852 28.502 12.5678 28.1601 12.2207C27.8183 11.8735 27.4134 11.7 26.9457 11.7H11.0547C10.5006 11.7 10.0741 11.892 9.77545 12.2761C9.47681 12.6602 9.32749 13.1403 9.32749 13.7164C9.32749 14.1817 9.52548 14.686 9.92125 15.2288C10.317 15.7717 10.7381 16.1984 11.1843 16.5085ZM22.2174 22.0764C23.4407 21.1678 25.233 19.8935 27.5934 18.2539C28.0038 17.9659 28.3636 17.6444 28.6731 17.29V26.087C28.6731 26.5748 28.5041 26.9918 28.1657 27.3391C27.8275 27.6863 27.4208 27.8599 26.9459 27.8599H11.0548C10.5798 27.8599 10.1731 27.6863 9.83485 27.3391C9.49655 26.9919 9.32749 26.5748 9.32749 26.087V17.29C9.64417 17.6519 10.0076 17.9734 10.418 18.2539C13.0232 20.0709 14.8117 21.3452 15.7833 22.0764C16.1935 22.3865 16.5264 22.6286 16.7818 22.8021C17.0373 22.9756 17.3774 23.1529 17.802 23.3338C18.2265 23.5149 18.6224 23.6053 18.9895 23.6053H19.0003H19.0113C19.3784 23.6053 19.7741 23.5149 20.1987 23.3338C20.6234 23.1529 20.9632 22.9756 21.2188 22.8021C21.4744 22.6286 21.8072 22.3865 22.2174 22.0764Z" fill="#D5DDE0"/>
</svg>
