<svg width="38" height="39" viewBox="0 0 38 39" fill="none" xmlns="http://www.w3.org/2000/svg">
<path fill-rule="evenodd" clip-rule="evenodd" d="M21.9366 38.7685C31.0356 37.3196 38 29.2445 38 19.5C38 8.73045 29.4934 0 19 0C8.50659 0 0 8.73045 0 19.5C0 29.1476 6.82653 37.1588 15.7925 38.7233V27.2865H11.994C11.6661 27.2865 11.4 27.0137 11.4 26.6768V21.7611C11.4 21.4243 11.6658 21.1512 11.994 21.1512H15.7925V17.7584C15.7925 13.2882 18.5354 10.4 22.7798 10.4L26.5577 10.4062C26.8853 10.4068 27.1508 10.6796 27.1508 11.0159V15.5804C27.1508 15.917 26.885 16.1901 26.5571 16.1901L24.0121 16.191C22.2576 16.191 21.9366 16.8927 21.9366 18.2751V21.1512H26.3795C26.5371 21.1512 26.6886 21.2155 26.7998 21.33C26.9111 21.4445 26.9738 21.5994 26.9738 21.7611L26.972 26.6768C26.972 27.0137 26.7062 27.2865 26.3779 27.2865H21.9366V38.7685Z" fill="#D5DDE0"/>
</svg>
