<svg width="38" height="39" viewBox="0 0 38 39" fill="none" xmlns="http://www.w3.org/2000/svg">
<path fill-rule="evenodd" clip-rule="evenodd" d="M19 39C29.4934 39 38 30.2696 38 19.5C38 8.73045 29.4934 0 19 0C8.50659 0 0 8.73045 0 19.5C0 30.2696 8.50659 39 19 39ZM25.1398 22.1549L28.0741 25.1735C28.6569 25.775 28.6395 26.7707 28.035 27.3938L27.1972 28.2377L27.1791 28.2212C26.8255 28.5058 26.4177 28.7438 25.9815 28.9191C25.5754 29.0813 25.1758 29.1838 24.7589 29.235C24.5675 29.2559 20.1301 29.6838 14.6238 24.0201C10.6403 19.9225 9.1725 16.9029 9.55995 13.5989C9.60521 13.1868 9.70417 12.7757 9.86312 12.3448C10.0356 11.8921 10.2673 11.4723 10.5446 11.1084L10.522 11.0853L11.3489 10.2297C11.9547 9.60649 12.923 9.5883 13.5061 10.188L16.4403 13.2069C17.0234 13.8075 17.0067 14.8028 16.401 15.426L15.9132 15.9284L14.921 16.9474C14.9655 17.0274 15.0104 17.111 15.0569 17.1975C15.0645 17.2118 15.0723 17.2261 15.08 17.2406L15.083 17.246C15.6016 18.2064 16.311 19.5204 17.657 20.9047C19.0015 22.2887 20.2792 23.018 21.2127 23.5501C21.3143 23.6087 21.411 23.664 21.5044 23.717L22.9827 22.1967C23.5875 21.5743 24.5553 21.5561 25.1398 22.1549Z" fill="#D5DDE0"/>
</svg>
