<svg width="32" height="28" viewBox="0 0 32 28" fill="none" xmlns="http://www.w3.org/2000/svg">
<g clip-path="url(#clip0_2_3833)">
<g clip-path="url(#clip1_2_3833)">
<g clip-path="url(#clip2_2_3833)">
<path fill-rule="evenodd" clip-rule="evenodd" d="M31.817 17.199C30.9866 12.2979 26.3441 8.99865 21.4478 9.82983L22.8934 1.62373L17.6611 0.700195C17.2115 1.68556 15.242 6.18622 14.2856 11.267C16.2357 12.5969 17.6648 14.6864 18.0904 17.199C18.545 19.8816 17.7611 22.4865 16.1573 24.4327C16.5509 24.9117 17.0002 25.3557 17.5124 25.7568C19.5607 27.3611 22.0396 27.9882 24.455 27.5781C29.3513 26.7469 32.6474 22.1 31.817 17.199Z" fill="#054752"/>
<path fill-rule="evenodd" clip-rule="evenodd" d="M14.185 11.8256C14.2172 11.6386 14.251 11.4525 14.286 11.267C12.4322 10.0027 10.1077 9.42474 7.72146 9.82983L9.167 1.62373L3.93482 0.700195C3.46872 1.72157 1.3694 6.51943 0.458452 11.8256C-0.271733 16.0794 -0.237915 20.6597 2.01333 23.8831C2.49712 24.5757 3.08302 25.2061 3.78606 25.7568C5.8345 27.3611 8.3133 27.9882 10.7287 27.5781C12.9449 27.2019 14.8313 26.0423 16.1577 24.4327C16.0109 24.2542 15.8712 24.0712 15.7399 23.8831C13.4887 20.6597 13.4548 16.0794 14.185 11.8256Z" fill="#2ED1FF"/>
<path fill-rule="evenodd" clip-rule="evenodd" d="M18.0908 17.199C17.665 14.6865 16.236 12.5969 14.286 11.2671C14.2509 11.4526 14.2173 11.6387 14.1851 11.8256C13.4547 16.0795 13.4888 20.6597 15.7398 23.8832C15.8712 24.0713 16.0111 24.2544 16.158 24.4329C17.7614 22.4866 18.5455 19.8817 18.0908 17.199Z" fill="#9AED66"/>
</g>
</g>
</g>
<defs>
<clipPath id="clip0_2_3833">
<rect width="32" height="27" fill="white" transform="translate(0 0.700195)"/>
</clipPath>
<clipPath id="clip1_2_3833">
<rect width="32" height="27" fill="white" transform="translate(0 0.700195)"/>
</clipPath>
<clipPath id="clip2_2_3833">
<rect width="31.9304" height="27" fill="white" transform="translate(0.034668 0.700195)"/>
</clipPath>
</defs>
</svg>
