<svg width="294" height="43" viewBox="0 0 294 43" fill="none" xmlns="http://www.w3.org/2000/svg">
<g clip-path="url(#clip0_2_2918)">
<path d="M32.5467 14.1667C32.5467 13.7067 32.1717 13.3334 31.7134 13.3334H25.2884C24.8301 13.3334 24.4551 13.7067 24.4551 14.1667C24.4551 14.6267 24.8301 15 25.2884 15H31.7134C32.1717 15 32.5467 14.6267 32.5467 14.1667Z" fill="#6F8B90"/>
<path d="M16.8402 14.1533V13.555C16.8402 11.8983 15.5102 10.5566 13.8719 10.5566C12.2336 10.5566 10.9036 11.8983 10.9036 13.555V14.1533C10.9036 15.81 12.2336 17.1516 13.8719 17.1516C15.5102 17.1516 16.8402 15.81 16.8402 14.1533Z" fill="#6F8B90"/>
<path d="M7.27515 22.37V23.25C7.27515 23.525 7.49848 23.75 7.77515 23.75H19.9685C20.2451 23.75 20.4685 23.525 20.4685 23.25V22.37C20.4685 21.1817 19.6785 20.1384 18.5318 19.8267C17.2818 19.4867 15.5768 19.1317 13.8701 19.1317C12.1635 19.1317 10.4585 19.4867 9.20848 19.8267C8.06515 20.1384 7.27515 21.1817 7.27515 22.37Z" fill="#6F8B90"/>
<path d="M20.3301 30H3.63346V1.66667H8.47346C8.8468 3.565 10.4735 5 12.4385 5C14.4018 5 16.0285 3.565 16.4035 1.66667H24.5368C24.9118 3.565 26.5385 5 28.5018 5C30.4651 5 32.0918 3.565 32.4668 1.66667H37.3051V16.6667C37.3051 17.1267 37.6785 17.5 38.1385 17.5C38.5985 17.5 38.9718 17.1267 38.9718 16.6667V0.833333C38.9718 0.373333 38.5985 0 38.1385 0H31.7135C31.2535 0 30.8801 0.373333 30.8801 0.833333C30.8801 2.22167 29.8085 3.33333 28.5001 3.33333C27.1918 3.33333 26.1201 2.22167 26.1201 0.833333C26.1201 0.373333 25.7468 0 25.2868 0H15.6501C15.1901 0 14.8168 0.373333 14.8168 0.833333C14.8168 2.22167 13.7451 3.33333 12.4385 3.33333C11.1318 3.33333 10.0585 2.22167 10.0585 0.833333C10.0585 0.373333 9.68513 0 9.22513 0H2.80013C2.34013 0 1.9668 0.373333 1.9668 0.833333V30.8333C1.9668 31.2933 2.34013 31.6667 2.80013 31.6667H20.3301C20.7901 31.6667 21.1635 31.2933 21.1635 30.8333C21.1635 30.3733 20.7901 30 20.3301 30Z" fill="#6F8B90"/>
<path d="M42.5869 22.7434C42.2619 22.4184 41.7335 22.4184 41.4085 22.7434L31.9969 32.155L27.5869 27.745C27.2619 27.42 26.7335 27.42 26.4085 27.745C26.0835 28.07 26.0835 28.5984 26.4085 28.9234L31.4085 33.9234C31.7335 34.2484 32.2619 34.2484 32.5869 33.9234L42.5869 23.9234C42.9119 23.5967 42.9119 23.0701 42.5869 22.7434Z" fill="#6F8B90"/>
</g>
<defs>
<clipPath id="clip0_2_2918">
<rect width="40" height="40" fill="white" transform="translate(0.330078)"/>
</clipPath>
</defs>
</svg>
