<svg width="476" height="332" viewBox="0 0 476 332" fill="none" xmlns="http://www.w3.org/2000/svg">
<g clip-path="url(#clip0_2_2942)">
<g clip-path="url(#clip1_2_2942)">
<g clip-path="url(#clip2_2_2942)">
<path d="M0.00634766 -1.43945H475.994V331.56H0.00634766V-1.43945Z" fill="#2ED1FF"/>
<path opacity="0.25" d="M140.307 61.8976C136.311 63.8689 132.758 66.6333 129.865 70.0223C126.972 73.4113 124.799 77.354 123.479 81.61C122.159 85.866 121.72 90.3462 122.188 94.7776C122.656 99.2089 124.021 103.499 126.201 107.385C157.197 163.717 245.197 309.872 292.22 246.823C412.753 85.0253 215.448 27.4461 140.307 61.8976Z" fill="white"/>
<path d="M231.091 137.806C227.54 136.75 225.812 140.877 225.812 140.877C222.305 150.261 219.89 160.018 218.615 169.954V172.45C218.615 172.45 218.999 174.273 220.726 173.793C221.686 173.601 222.838 170.53 222.838 170.53C239.823 137.998 233.682 138.574 231.187 137.902L231.091 137.806ZM217.655 180.894C217.655 180.798 216.984 182.814 216.312 183.581C216.216 183.773 216.312 185.021 215.832 185.885L216.312 187.516C216.504 188.092 216.024 188.572 216.024 188.572L214.105 185.885L214.489 183.198L214.681 180.031C214.681 180.031 215.448 179.359 216.6 179.647C217.559 179.935 217.655 180.798 217.655 180.894Z" fill="#F9CCB2"/>
<path d="M221.014 180.703L221.494 178.399C222.07 176.48 221.782 172.641 222.07 171.682C222.262 170.818 222.55 169.571 221.014 169.091C219.191 168.515 218.807 170.626 218.807 170.626L218.231 172.354C217.655 173.793 215.352 177.536 214.68 179.743C214.68 179.743 214.872 180.99 215.832 181.182C216.984 181.566 217.751 180.511 217.751 180.511C217.943 180.319 218.135 179.935 218.615 179.935C219.287 180.223 219.575 180.894 219.575 181.374C219.095 183.294 219.191 183.39 219.575 183.677C219.671 183.485 220.726 181.566 221.014 180.703Z" fill="#F9CCB2"/>
<path d="M217.847 180.031C217.847 180.031 217.559 181.95 217.08 182.718C216.984 183.006 217.271 184.157 217.08 185.117L217.943 186.556C218.231 187.132 217.751 187.612 217.751 187.612L215.352 185.405L215.064 182.814L214.68 179.743C214.68 179.743 215.256 178.783 216.504 178.975C217.271 178.975 217.847 179.935 217.847 179.935V180.031ZM242.606 130.513L232.434 149.994L223.989 148.074C223.893 146.635 223.893 146.443 224.565 143.948C226.979 137.265 230.553 131.06 235.121 125.618C235.505 125.043 241.071 129.553 242.606 130.417M271.108 130.129C274.851 129.457 275.906 133.776 275.906 133.776C278.113 141.933 279.937 157.767 279.553 163.525L279.169 166.02C279.169 166.02 278.689 167.747 276.962 167.075C276.098 166.788 275.234 163.621 275.234 163.621C262.471 129.265 268.517 130.513 271.108 130.033V130.129ZM279.169 174.561C279.169 174.369 279.649 176.48 280.129 177.248C280.225 177.536 280.129 178.783 280.321 179.647L279.649 181.278C279.361 181.854 279.841 182.334 279.841 182.334L282.048 179.935V177.152L282.24 174.081C282.24 174.081 281.568 173.217 280.321 173.409C279.361 173.601 279.169 174.465 279.169 174.561Z" fill="#F9CCB2"/>
<path d="M275.906 173.889C275.715 173.313 275.715 171.97 275.619 171.586C275.331 169.667 276.098 165.828 275.906 164.868C275.811 163.909 275.715 162.661 277.346 162.373C279.169 162.085 279.265 164.292 279.265 164.292L279.649 166.02C280.033 167.459 281.76 171.394 282.24 173.697C282.24 173.697 281.952 174.945 280.993 175.041C279.745 175.233 279.073 174.081 279.073 174.081C278.977 173.889 278.881 173.409 278.402 173.505C277.634 173.601 277.154 174.177 277.25 174.753C277.538 176.672 277.346 176.768 276.866 176.96C276.866 176.864 276.098 174.849 275.906 173.889Z" fill="#F9CCB2"/>
<path d="M279.073 173.601C279.073 173.601 279.169 175.52 279.457 176.48C279.553 176.672 279.169 177.824 279.265 178.783L278.21 180.127C277.826 180.607 278.21 181.086 278.21 181.086L280.897 179.359L281.472 176.672L282.24 173.793C282.24 173.793 281.76 172.833 280.609 172.737C279.841 172.737 279.073 173.505 279.073 173.601ZM260.648 121.396L268.325 142.029L276.962 141.165C277.154 139.725 277.25 139.533 276.962 136.942C275.81 130.225 272.164 123.315 268.613 117.461C268.325 116.886 262.279 120.724 260.648 121.3" fill="#F9CCB2"/>
<path d="M257.193 261.985C256.521 261.409 255.946 261.697 255.946 262.753C255.946 263.712 255.37 263.904 254.89 263.904C252.683 264.096 252.491 263.041 252.491 263.041C252.491 263.041 251.339 266.687 253.067 267.071L258.345 267.743C260.84 268.031 263.143 268.415 263.335 267.167C263.335 266.495 261.224 265.632 259.496 264.192L257.193 261.985ZM143.858 176.576C144.05 175.137 144.146 174.561 144.434 174.657C144.722 174.657 144.722 175.329 144.722 176.192C144.722 177.248 145.298 177.728 145.97 177.728V175.233L145.874 173.313L145.97 171.202C147.505 162.949 150.768 153.065 151.727 151.337C152.975 148.842 153.839 138.574 153.839 138.574L146.737 136.655C146.257 137.806 144.53 144.044 143.858 146.251C141.869 152.584 140.582 159.117 140.02 165.732V167.651C139.732 169.859 138.676 172.162 138.484 174.561L138.1 178.591C138.196 178.879 138.676 178.783 138.772 178.303L139.348 175.616H139.636L139.252 179.167C139.252 180.031 139.252 180.607 139.636 180.703C140.02 180.703 140.212 179.263 140.404 178.016C140.404 177.152 140.499 176.384 140.595 176.384C140.691 176.192 140.883 176.384 140.883 176.48L140.691 179.551V180.895L141.075 181.086C142.035 181.182 141.747 177.824 142.131 176.672C142.131 176.48 142.419 176.48 142.419 176.672C142.419 177.152 142.035 179.743 142.035 180.895C142.035 181.566 142.995 181.854 143.091 180.895C143.474 179.359 143.666 177.632 143.858 176.576Z" fill="#FFCCC1"/>
<path d="M156.238 140.493L162.187 124.179L160.076 123.123L165.066 100.859C165.066 100.859 157.965 101.819 154.99 104.794C150.192 109.592 147.985 118.037 147.313 120.724C145.246 126.751 144.145 133.067 144.05 139.438" fill="#4FACAE"/>
<g style="mix-blend-mode:multiply" opacity="0.24">
<mask id="mask0_2_2942" style="mask-type:luminance" maskUnits="userSpaceOnUse" x="145" y="121" width="11" height="43">
<path d="M145.874 121.492H155.854V163.333H145.874V121.492Z" fill="white"/>
</mask>
<g mask="url(#mask0_2_2942)">
<path d="M147.793 129.841C148.081 127.346 153.167 121.492 153.167 121.492L155.95 122.164L153.743 141.261L146.545 140.493C146.545 140.493 146.545 139.533 147.697 129.841" fill="#A13F60"/>
</g>
</g>
<path d="M200.382 114.87L188.77 163.909H186.659L153.071 162.853L157.197 125.81L157.677 121.396L157.869 119.957L158.157 117.078L158.829 110.36L159.788 102.203H159.98L168.617 99.9958L173.703 98.7483L178.118 99.7079C186.463 101.862 194.145 106.05 200.478 111.896L200.382 114.774V114.87Z" fill="#4FACAE"/>
<path d="M182.34 100.763C182.34 100.763 178.31 106.617 170.729 105.562C163.147 104.602 169.577 99.8038 169.577 99.8038L173.799 98.5563L182.436 100.763H182.34Z" fill="#FFCCC1"/>
<path d="M169.193 171.778C172.072 179.743 172.552 187.132 171.88 193.658C171.174 201.068 168.953 208.254 165.354 214.77L164.587 216.018C164.587 216.018 152.687 217.169 152.495 212.851L151.823 171.298C153.359 171.106 168.521 172.258 169.193 171.682" fill="#162D38"/>
<path d="M189.346 170.818C190.113 176 189.922 179.071 191.265 192.698C191.841 200.375 191.841 212.851 191.841 212.851C191.841 212.851 179.845 215.442 179.173 214.29C173.991 205.462 165.642 170.626 165.642 170.626C167.082 170.146 188.866 171.394 189.346 170.722" fill="#162D38"/>
<path d="M189.154 163.621C189.154 163.621 190.401 176.864 189.634 180.511C188.77 184.253 173.415 187.324 169.481 185.597C168.905 185.309 151.727 172.162 151.727 172.162L153.455 162.085L189.154 163.621Z" fill="#162D38"/>
<path d="M194.144 262.561C193.184 261.889 192.417 262.273 192.513 263.712C192.513 264.96 191.841 265.248 191.169 265.344C188.29 265.824 187.906 264.384 187.906 264.384C187.906 264.384 186.659 269.47 189.058 269.758C190.018 269.95 193.28 270.142 196.255 270.238C199.614 270.334 202.781 270.718 202.973 268.895C202.973 268.127 199.998 267.071 197.503 265.344L194.144 262.465" fill="#004553"/>
<path d="M193.472 264.672H193.28V264.384L194.816 262.945H195.104V263.233L193.472 264.672ZM194.816 265.536H194.528V265.344L195.967 263.904H196.255V264.192L194.72 265.536M195.967 266.399H195.775V266.112L197.119 264.864H197.407V265.056L196.063 266.399M197.311 267.263H197.023V267.071L198.27 265.728H198.558V266.016L197.311 267.263Z" fill="white"/>
<path d="M190.305 107.769C194.816 106.042 198.75 108.345 200.478 112.855C202.205 117.365 201.15 122.356 196.639 124.083C195.555 124.5 194.4 124.7 193.239 124.67C192.078 124.64 190.935 124.382 189.874 123.909C188.813 123.437 187.856 122.76 187.057 121.917C186.259 121.074 185.634 120.082 185.219 118.997C184.803 117.933 184.601 116.796 184.627 115.654C184.653 114.511 184.905 113.385 185.369 112.341C185.834 111.296 186.5 110.354 187.331 109.57C188.162 108.785 189.14 108.173 190.209 107.769" fill="#E0B2A8"/>
<path d="M157.005 261.793C157.965 261.121 158.733 261.409 158.733 262.945C158.733 264.192 159.405 264.384 160.076 264.48C162.955 264.768 163.339 263.521 163.339 263.521C163.339 263.521 164.779 268.319 162.38 268.799L155.278 269.662C151.919 269.854 148.752 270.43 148.561 268.607C148.561 267.743 151.439 266.687 153.743 264.768L157.005 261.889" fill="#004553"/>
<path d="M157.869 263.904H157.965V263.616L156.334 262.273H156.142V262.561L157.773 263.904H157.869ZM156.622 264.864H156.813V264.576L155.278 263.233H154.99V263.521L156.526 264.864H156.622ZM155.47 265.824V265.536L154.126 264.288C154.126 264.192 153.935 264.192 153.935 264.288C153.839 264.288 153.839 264.48 153.935 264.48L155.278 265.728H155.374M154.222 266.783L154.318 266.687V266.399L153.071 265.248H152.783V265.44L154.031 266.687H154.222" fill="white"/>
<path d="M179.941 213.043C179.941 213.043 178.022 222.351 178.982 231.18C179.845 240.009 184.068 255.363 185.411 260.929L192.993 260.45C193.184 255.651 191.841 212.947 191.841 212.947H179.941V213.043Z" fill="#162D38"/>
<g style="mix-blend-mode:multiply" opacity="0.24">
<mask id="mask1_2_2942" style="mask-type:luminance" maskUnits="userSpaceOnUse" x="184" y="215" width="7" height="5">
<path d="M184.643 215.73H190.017V219.952H184.643V215.73Z" fill="white"/>
</mask>
<g mask="url(#mask1_2_2942)">
<path d="M184.643 216.402L190.017 215.73C190.017 215.73 189.634 219.473 188.098 219.856C185.219 220.528 184.643 216.402 184.643 216.402Z" fill="#A13F60"/>
</g>
</g>
<path d="M169.097 237.322C169.001 229.357 165.258 214.962 165.258 214.962L152.495 212.659C152.495 212.659 156.622 257.955 157.677 262.561L164.971 261.601C166.89 254.116 169.193 242.6 169.097 237.322Z" fill="#162D38"/>
<g style="mix-blend-mode:multiply" opacity="0.24">
<mask id="mask2_2_2942" style="mask-type:luminance" maskUnits="userSpaceOnUse" x="154" y="219" width="8" height="6">
<path d="M154.126 219.281H161.228V224.463H154.126V219.281Z" fill="white"/>
</mask>
<g mask="url(#mask2_2_2942)">
<path d="M154.031 219.952L161.132 219.281C161.132 219.281 160.076 224.367 158.157 224.463C154.99 224.751 154.031 219.952 154.031 219.952Z" fill="#A13F60"/>
</g>
</g>
<g style="mix-blend-mode:multiply" opacity="0.24">
<mask id="mask3_2_2942" style="mask-type:luminance" maskUnits="userSpaceOnUse" x="163" y="175" width="9" height="40">
<path d="M163.915 175.041H171.88V214.674H163.915V175.041Z" fill="white"/>
</mask>
<g mask="url(#mask3_2_2942)">
<path d="M169.193 175.041L171.88 193.658C171.175 201.068 168.953 208.254 165.355 214.77C160.556 188.955 169.193 175.041 169.193 175.041Z" fill="#A13F60"/>
</g>
</g>
<g style="mix-blend-mode:multiply" opacity="0.24">
<mask id="mask4_2_2942" style="mask-type:luminance" maskUnits="userSpaceOnUse" x="158" y="162" width="32" height="11">
<path d="M158.733 162.565H189.73V172.545H158.733V162.565Z" fill="white"/>
</mask>
<g mask="url(#mask4_2_2942)">
<path d="M189.154 163.525L158.733 162.565C158.733 162.565 183.78 173.697 189.634 172.449C190.114 172.354 189.154 163.525 189.154 163.525Z" fill="#A13F60"/>
</g>
</g>
<path d="M206.715 137.998C209.402 137.998 211.706 140.205 211.706 142.892C211.725 143.883 211.448 144.857 210.912 145.69C210.375 146.523 209.602 147.178 208.692 147.57C207.782 147.963 206.776 148.076 205.802 147.894C204.828 147.712 203.93 147.245 203.222 146.551C202.515 145.857 202.03 144.968 201.829 143.998C201.629 143.027 201.722 142.019 202.097 141.101C202.471 140.184 203.111 139.399 203.933 138.846C204.756 138.293 205.724 137.998 206.715 137.998Z" fill="#FFCCC1"/>
<g style="mix-blend-mode:multiply" opacity="0.24">
<mask id="mask5_2_2942" style="mask-type:luminance" maskUnits="userSpaceOnUse" x="184" y="120" width="11" height="30">
<path d="M184.835 120.052H194.624V149.514H184.835V120.052Z" fill="white"/>
</mask>
<g mask="url(#mask5_2_2942)">
<path d="M194.624 138.862L187.33 120.052C187.33 120.052 179.461 137.326 191.649 149.514C191.841 149.802 194.528 138.958 194.528 138.958" fill="#A13F60"/>
</g>
</g>
<path d="M208.251 125.043C208.251 125.043 212.377 136.175 212.569 140.397L200.766 142.316L193.856 133.104L193.472 132.624C189.466 127.68 185.871 122.417 182.724 116.886L182.148 100.955C182.148 100.955 202.397 105.082 208.347 124.947L208.251 125.043Z" fill="#4FACAE"/>
<path d="M168.137 88.8638L178.694 88.9597C178.694 88.9597 180.325 93.758 180.133 102.683C180.133 103.067 171.016 105.658 171.016 105.658L168.137 88.8638Z" fill="#FFCCC1"/>
<path d="M165.067 80.227C165.354 80.8028 165.642 81.5705 165.642 82.0503C165.642 83.01 165.067 84.0656 165.067 84.6414C165.258 89.3437 164.107 88.8639 164.587 90.5912C164.875 91.8388 166.506 91.9347 169.289 92.5105C171.304 92.8944 176.294 90.5912 177.158 90.3033C180.997 88.576 182.34 81.1866 182.34 78.1158C182.34 71.7821 177.158 71.0143 173.32 71.6861C171.438 72.0112 169.681 72.8403 168.233 74.0852C166.026 76.0045 164.971 79.8431 165.163 80.227" fill="#FFCCC1"/>
<path d="M168.905 80.3228C168.713 80.035 167.082 79.0753 165.546 80.1309L168.905 80.3228Z" fill="black"/>
<g style="mix-blend-mode:multiply">
<mask id="mask6_2_2942" style="mask-type:luminance" maskUnits="userSpaceOnUse" x="166" y="81" width="2" height="2">
<path d="M166.698 81.4745H167.754V82.5301H166.698V81.4745Z" fill="white"/>
</mask>
<g mask="url(#mask6_2_2942)">
<path d="M167.658 81.5705C167.607 81.5201 167.547 81.4801 167.482 81.4528C167.416 81.4255 167.345 81.4115 167.274 81.4115C167.203 81.4115 167.132 81.4255 167.066 81.4528C167 81.4801 166.94 81.5201 166.89 81.5705C166.84 81.6209 166.8 81.6808 166.772 81.7466C166.745 81.8125 166.731 81.8831 166.731 81.9544C166.731 82.0257 166.745 82.0962 166.772 82.1621C166.8 82.228 166.84 82.2878 166.89 82.3382C166.979 82.44 167.105 82.5023 167.24 82.5113C167.375 82.5203 167.508 82.4753 167.61 82.3862C167.711 82.2971 167.774 82.1712 167.783 82.0363C167.792 81.9013 167.747 81.7683 167.658 81.6665" fill="#004754"/>
</g>
</g>
<path d="M165.834 80.8987C165.067 83.1059 164.107 84.1615 163.915 85.0252C163.819 85.2171 165.067 85.409 165.162 85.409L165.738 80.8987M174.183 92.7984C173.895 92.7984 175.335 98.5563 170.057 100.188L168.809 92.4145L174.183 92.7024V92.7984Z" fill="#FFCCC1"/>
<path d="M164.875 77.0601C164.875 77.0601 169.289 65.8321 180.901 72.1659C186.179 75.0448 184.164 83.1059 179.653 89.9194C179.557 90.0154 176.87 90.3992 176.198 89.2477C175.335 87.8082 175.143 82.6261 175.143 82.6261L172.168 83.2978C172.168 83.2978 171.784 79.5552 171.208 79.4592C165.738 77.9238 164.97 77.0601 164.97 77.0601" fill="black"/>
<path d="M175.431 81.5704C175.431 81.5704 175.623 83.7776 174.567 84.1615C173.895 84.4494 173.224 84.1615 173.224 84.1615C173.224 84.1615 173.607 87.3284 175.335 86.6566C177.062 85.9848 175.431 81.5704 175.431 81.5704Z" fill="#FFCCC1"/>
<path d="M173.319 82.3382C173.319 82.3382 174.279 80.4189 175.239 81.1866C176.006 81.9544 175.719 84.0656 173.991 84.0656C173.032 84.0656 172.84 83.7777 172.84 83.7777L173.319 82.3382Z" fill="#FFCCC1"/>
<path d="M174.183 82.3381C174.183 82.0502 174.663 81.8583 174.855 82.1462V82.4341C174.855 82.626 174.855 82.818 174.663 83.0099C174.471 83.2018 174.279 83.1059 174.183 83.0099V82.3381ZM165.066 86.3687C165.066 86.3687 166.506 86.6566 166.506 86.9445C166.41 87.4243 164.97 87.5202 164.97 87.5202L165.066 86.2727V86.3687Z" fill="#FFCCC1"/>
<path d="M165.066 85.3131C165.066 85.3131 168.329 85.505 168.329 86.5607L165.066 86.3687V85.4091V85.3131Z" fill="black"/>
<path d="M172.072 83.2978C172.264 83.2018 172.072 89.6315 168.905 89.9194C165.642 90.1113 164.587 89.6315 164.587 89.6315C164.587 89.6315 162.475 92.7983 163.339 93.4701C164.203 94.3338 168.521 95.3894 170.632 93.854C175.527 90.2073 173.32 82.3381 173.32 82.3381L172.072 83.2978Z" fill="black"/>
<path d="M211.13 164.101C210.746 164.196 210.554 164.676 210.65 165.06L211.61 167.939L212.089 171.298C213.625 170.914 213.625 171.298 215.064 170.914L214.489 167.171L214.297 164.388C214.297 163.909 213.817 163.237 213.337 163.429L211.13 164.101Z" fill="white"/>
<path d="M212.377 171.01C211.897 171.106 211.418 171.586 211.418 172.162L210.458 176.672C210.458 177.344 210.17 178.399 210.362 179.167V181.566C210.362 182.046 210.938 182.334 211.322 181.95C211.706 181.566 211.802 181.086 211.802 180.319C211.802 179.263 211.706 178.399 212.089 178.207C212.377 178.207 212.473 178.975 212.857 180.703L213.817 186.269C214.105 187.42 215.064 187.036 215.064 186.269C215.064 184.829 214.393 181.47 214.489 180.798C214.489 180.607 214.68 180.607 214.776 180.798C215.16 182.046 215.064 185.405 215.736 186.269C216.024 186.556 216.408 186.46 216.504 186.077C216.696 185.885 216.696 185.501 216.696 184.925V184.541L216.312 180.607C216.312 180.319 216.312 180.223 216.504 180.319L216.888 182.43C217.08 184.061 217.367 185.885 217.847 185.789C218.327 185.789 218.327 184.925 218.231 183.869C218.039 181.95 217.559 179.455 217.655 179.359C217.655 179.263 217.847 179.167 217.943 179.359C217.943 180.031 218.423 181.662 218.615 182.814C218.807 183.39 219.383 183.39 219.479 183.006C219.479 181.854 219.095 179.551 218.903 177.92C218.615 175.232 216.984 173.697 216.216 171.394C216.024 170.818 215.448 170.434 214.872 170.434L212.377 171.01ZM209.978 164.964L202.301 145.099C202.013 144.524 202.589 144.14 202.973 144.428C204.796 146.251 207.003 148.266 208.827 147.115C209.144 146.908 209.418 146.64 209.632 146.327C209.846 146.015 209.996 145.662 210.074 145.291L210.842 142.029V141.741C210.938 141.069 211.802 141.069 211.993 141.741L215.352 163.813C215.352 163.909 215.352 164.101 215.16 164.101L210.362 165.06L209.978 164.964Z" fill="#171B1E"/>
<path d="M230.707 200.951L233.394 231.468C233.394 231.468 238.768 233.004 240.879 232.14C243.758 230.988 245.677 201.143 245.677 201.143L230.707 200.951Z" fill="#E7C1A8"/>
<path d="M242.606 239.721C242.702 235.115 241.455 228.781 241.455 228.781C241.455 228.781 238.48 230.125 237.328 230.317L233.49 229.549C233.49 229.549 232.53 235.307 232.434 239.817C232.242 245.671 233.873 257.379 234.737 261.409L238.96 257.763C240.207 249.798 242.606 244.04 242.606 239.721Z" fill="#E7C1A8"/>
<g opacity="0.16">
<mask id="mask7_2_2942" style="mask-type:luminance" maskUnits="userSpaceOnUse" x="234" y="230" width="7" height="5">
<path d="M234.449 230.125H240.591V234.731H234.449V230.125Z" fill="white"/>
</mask>
<g mask="url(#mask7_2_2942)">
<path d="M240.687 230.125C240.687 230.125 239.344 233.004 237.136 232.524C236.177 232.332 234.449 230.125 234.449 230.125C234.449 230.125 234.066 234.635 237.904 234.635C240.495 234.635 240.687 230.125 240.687 230.125Z" fill="#8D415F"/>
</g>
</g>
<path d="M238.96 257.187C238.96 257.187 240.303 261.409 240.111 263.425C240.015 265.44 240.207 266.783 237.904 266.399C235.601 266.112 234.545 263.137 234.545 263.137V257.187L238.96 257.091V257.187Z" fill="#E7C1A8"/>
<path d="M240.207 262.465C240.207 262.465 241.455 268.607 238.672 268.895C235.409 269.278 235.025 268.223 234.737 266.495C234.353 264.672 234.737 262.945 234.737 262.945C234.737 262.945 234.929 264.48 235.985 264.48C237.904 264.48 239.631 264.48 239.823 264.096C240.111 263.712 240.207 262.465 240.207 262.465Z" fill="#004553"/>
<path d="M247.405 186.556C248.748 190.587 251.339 198.168 253.163 202.103C253.738 203.254 255.082 204.022 256.33 203.926L258.057 203.83C259.017 203.734 259.976 203.158 260.456 202.295C261.896 200.183 263.719 194.617 263.719 180.511C263.719 178.015 261.224 176.48 259.017 177.632L249.036 182.718C248.359 183.067 247.825 183.641 247.527 184.342C247.229 185.043 247.186 185.827 247.405 186.556Z" fill="#D9BD98"/>
<path d="M255.274 203.446L259.112 203.254L260.264 219.76L256.425 220.048L255.274 203.446ZM252.971 258.146L254.218 240.201L258.057 240.393L256.905 258.434L252.971 258.146Z" fill="white"/>
<path d="M255.645 254.937L254.879 254.883C253.399 254.78 252.115 255.896 252.011 257.376L251.998 257.568C251.894 259.048 253.01 260.332 254.491 260.436L255.257 260.489C256.737 260.593 258.021 259.477 258.124 257.996L258.138 257.805C258.241 256.324 257.125 255.04 255.645 254.937Z" fill="#171B1E"/>
<path d="M258.555 202.951L255.683 203.152C254.996 203.2 254.477 203.796 254.526 204.484C254.574 205.171 255.17 205.689 255.857 205.641L258.729 205.44C259.416 205.392 259.935 204.796 259.886 204.109C259.838 203.421 259.242 202.903 258.555 202.951Z" fill="#171B1E"/>
<path d="M258.441 262.753C257.577 261.985 256.809 262.369 256.713 263.904C256.713 265.056 256.042 265.248 255.37 265.344C252.491 265.632 252.107 264.288 252.107 264.288C252.107 264.288 250.572 269.086 252.875 269.662C253.834 269.854 257.097 270.334 260.072 270.622C263.431 270.91 266.502 271.582 266.79 269.662C266.79 268.895 263.911 267.743 261.704 265.824L258.441 262.753Z" fill="#004553"/>
<path d="M257.577 264.864H257.385V264.576L259.112 263.233H259.4V263.521L257.673 264.864M258.824 265.824H258.633V265.536L260.168 264.288H260.456V264.48L258.92 265.824M260.072 266.783H259.88V266.496L261.32 265.248H261.512V265.536L260.072 266.783ZM261.224 268.703L261.032 268.607V268.319L262.375 267.167H262.567V267.455L261.32 268.607" fill="white"/>
<path d="M257.481 241.449L255.082 241.257C252.875 241.161 251.147 239.337 251.435 237.418L252.683 229.933V229.453L252.587 221.776C252.587 219.856 254.41 218.321 256.713 218.513L259.016 218.609C261.32 218.801 263.047 220.528 262.663 222.447L261.416 230.029V230.508L261.608 238.186C261.608 240.105 259.688 241.64 257.481 241.449Z" fill="#171B1E"/>
<path d="M249.036 118.709C247.885 119.093 240.975 119.669 240.975 119.669C240.975 119.669 246.925 150.569 253.355 150.953C259.784 151.241 266.502 117.941 266.502 117.941L249.036 118.709Z" fill="#E7C1A8"/>
<path d="M236.849 111.128C235.547 110.804 234.29 110.32 233.106 109.688C230.899 108.441 230.419 105.658 231.379 103.642C233.01 100.188 235.505 101.627 238.384 97.4047C240.015 95.0056 244.142 88.192 252.779 88.288C261.608 88.288 265.638 95.0056 267.174 97.4047C270.053 101.723 272.548 100.284 274.179 103.738C275.139 105.754 274.659 108.537 272.452 109.784C271.238 110.424 269.948 110.907 268.613 111.224C268.133 111.32 267.462 111.704 267.462 112.183C268.709 112.663 272.932 112.855 272.74 117.269C272.452 122.835 263.719 122.452 261.224 121.78C259.929 121.465 258.718 120.873 257.674 120.044C256.63 119.216 255.779 118.171 255.178 116.982C254.218 115.158 255.082 116.886 254.122 118.613C252.779 121.012 247.021 121.684 244.334 121.78C241.647 121.78 233.106 122.74 232.818 117.174C232.626 112.759 236.849 112.567 238.096 112.183C238.096 111.608 237.424 111.224 236.849 111.224" fill="#E9B455"/>
<mask id="mask8_2_2942" style="mask-type:luminance" maskUnits="userSpaceOnUse" x="235" y="95" width="23" height="28">
<path d="M235.697 99.0361L251.051 95.1975L257.001 118.997L241.647 122.835L235.697 99.0361Z" fill="white"/>
</mask>
<g mask="url(#mask8_2_2942)">
<g style="mix-blend-mode:multiply">
<path d="M241.071 113.431C241.567 112.761 242.228 112.232 242.99 111.895C241.39 109.391 240.839 106.358 241.455 103.451C242.031 100.572 243.854 98.0765 246.253 96.4451L246.061 98.5563C248.172 98.5563 250.188 99.6119 251.531 101.243C252.875 102.875 253.547 104.986 253.93 107.001C254.314 109.88 254.122 112.759 253.451 115.638C252.875 117.557 252.587 118.325 251.243 119.669C249.036 121.78 245.581 121.684 242.798 120.436C240.591 119.381 239.152 115.83 240.975 113.431" fill="#FFE68A"/>
</g>
</g>
<path d="M248.364 108.825L257.193 109.208L260.456 128.401L247.405 131.568L248.364 108.825Z" fill="#E7C1A8"/>
<g style="mix-blend-mode:multiply">
<mask id="mask9_2_2942" style="mask-type:luminance" maskUnits="userSpaceOnUse" x="245" y="107" width="14" height="13">
<path d="M245.773 110.36L255.85 107.769L258.057 116.502L247.98 119.093L245.773 110.36Z" fill="white"/>
</mask>
<g mask="url(#mask9_2_2942)">
<path d="M256.905 112.279C256.617 112.279 256.905 117.845 247.98 118.805L248.364 109.688L256.905 112.183V112.279Z" fill="#E7C1A8"/>
</g>
</g>
<path d="M244.718 102.683C245.677 112.183 247.884 113.239 253.258 113.623C257.001 113.911 261.895 108.729 261.895 102.683C261.895 96.637 258.728 91.7428 253.258 91.7428C247.884 91.7428 244.046 96.733 244.622 102.779" fill="#E7C1A8"/>
<path d="M259.496 101.435C258.92 100.764 255.945 100.476 255.274 101.435H259.496ZM250.571 101.531C249.612 100.572 246.445 100.86 245.965 101.723L250.571 101.531Z" fill="#E9B455"/>
<g style="mix-blend-mode:multiply">
<mask id="mask10_2_2942" style="mask-type:luminance" maskUnits="userSpaceOnUse" x="256" y="103" width="2" height="2">
<path d="M256.425 103.355L257.577 103.067L257.865 104.218L256.713 104.506L256.425 103.355Z" fill="white"/>
</mask>
<g mask="url(#mask10_2_2942)">
<path d="M257.673 103.355C257.61 103.291 257.536 103.24 257.453 103.205C257.371 103.171 257.282 103.153 257.193 103.153C257.104 103.153 257.015 103.171 256.933 103.205C256.85 103.24 256.776 103.291 256.713 103.355C256.629 103.5 256.585 103.666 256.585 103.834C256.585 104.003 256.629 104.168 256.713 104.314C257.001 104.506 257.385 104.506 257.673 104.314C257.757 104.168 257.802 104.003 257.802 103.834C257.802 103.666 257.757 103.5 257.673 103.355Z" fill="#004754"/>
</g>
</g>
<g style="mix-blend-mode:multiply">
<mask id="mask11_2_2942" style="mask-type:luminance" maskUnits="userSpaceOnUse" x="247" y="102" width="2" height="3">
<path d="M247.405 103.355L248.556 102.971L248.844 104.218L247.693 104.506L247.405 103.355Z" fill="white"/>
</mask>
<g mask="url(#mask11_2_2942)">
<path d="M248.556 103.355C248.494 103.291 248.419 103.24 248.337 103.205C248.255 103.171 248.166 103.153 248.077 103.153C247.987 103.153 247.899 103.171 247.816 103.205C247.734 103.24 247.659 103.291 247.597 103.355C247.513 103.5 247.468 103.666 247.468 103.834C247.468 104.003 247.513 104.168 247.597 104.314C247.885 104.506 248.269 104.506 248.556 104.314C248.844 104.026 248.844 103.642 248.556 103.355Z" fill="#004754"/>
</g>
</g>
<path d="M261.128 106.138H262.375C262.663 106.138 262.951 105.85 262.951 105.562V102.683C262.951 102.299 262.663 102.011 262.375 102.011H261.032C260.744 102.011 260.456 102.299 260.456 102.587V105.466C260.456 105.85 260.744 106.138 261.032 106.138M244.526 106.138H245.677C246.061 106.138 246.349 105.85 246.349 105.466V102.587C246.349 102.299 246.061 102.011 245.677 102.011H244.526C244.142 102.011 243.854 102.299 243.854 102.587V105.466C243.854 105.85 244.142 106.138 244.526 106.138Z" fill="#E7C1A8"/>
<path d="M245.294 92.4145C245.677 91.3589 246.637 90.4952 247.597 90.0154C249.181 89.1935 250.964 88.8299 252.744 88.9655C254.524 89.1011 256.231 89.7306 257.673 90.7831L259.784 92.6065C261.512 94.0459 261.704 97.0209 260.072 98.6523C258.345 100.188 255.274 99.8038 254.122 97.8845C253.738 97.2128 253.547 96.3491 253.067 95.6773C252.491 95.0056 251.531 94.5258 250.859 95.0056C250.284 95.4854 250.284 96.4451 249.9 97.1168C249.42 98.0765 247.981 98.1724 247.021 97.5966C246.117 96.8763 245.504 95.854 245.294 94.7177C245.058 93.9681 245.058 93.1641 245.294 92.4145Z" fill="#E9B455"/>
<g style="mix-blend-mode:multiply">
<mask id="mask12_2_2942" style="mask-type:luminance" maskUnits="userSpaceOnUse" x="249" y="100" width="6" height="7">
<path d="M249.996 101.339L252.875 100.667L254.122 105.85L251.243 106.617L249.996 101.339Z" fill="white"/>
</mask>
<g mask="url(#mask12_2_2942)">
<path d="M250.572 103.546C250.572 107.193 254.122 105.85 254.122 105.85L252.491 105.178L252.683 100.763C252.683 100.763 250.763 100.763 250.668 103.546" fill="#E7C1A8"/>
</g>
</g>
<path d="M258.92 117.27L251.819 130.897C249.9 125.427 247.98 120.82 247.98 118.805C247.98 118.805 235.121 118.805 232.626 121.108C230.707 122.74 235.985 148.938 236.081 161.989C236.081 166.02 240.015 171.202 244.046 171.49C258.249 172.354 261.32 173.313 262.183 169.379C264.294 160.358 269.86 136.559 270.724 127.634C271.588 118.805 269.477 116.118 258.824 117.27H258.92Z" fill="#ADEBFD"/>
<path d="M234.737 120.532C231.474 120.34 226.868 128.497 225.717 135.119L224.277 144.908L239.056 145.867C239.056 145.867 245.869 121.3 234.737 120.532Z" fill="#ADEBFD"/>
<path d="M271.588 84.8333C271.588 84.8333 271.492 85.0252 271.396 84.8333H271.588Z" fill="#E7C1A8"/>
<path d="M263.527 117.366C260.36 118.133 258.345 127.346 259.208 133.872C259.609 137.177 260.089 140.473 260.648 143.756L278.305 142.029C278.305 142.029 274.371 114.774 263.431 117.27" fill="#ADEBFD"/>
<path d="M264.199 161.414L266.79 185.309C267.173 189.627 267.749 193.946 268.517 198.264L271.588 214.962H223.221V210.932C223.221 194.713 228.883 176.576 236.081 161.126C240.111 162.085 241.167 162.085 250.092 162.085C259.016 162.085 259.016 162.085 264.295 161.509L264.199 161.414Z" fill="#0A4752"/>
<g style="mix-blend-mode:multiply">
<mask id="mask13_2_2942" style="mask-type:luminance" maskUnits="userSpaceOnUse" x="250" y="107" width="5" height="4">
<path d="M250.092 109.017L254.41 107.865L254.794 109.4L250.476 110.456L250.092 109.017Z" fill="white"/>
</mask>
<g mask="url(#mask13_2_2942)">
<path d="M254.698 109.017C254.602 109.592 252.491 109.592 252.491 109.592C252.491 109.592 250.38 109.592 250.284 109.017H254.698Z" fill="#E7C1A8"/>
</g>
</g>
<path d="M80.3291 126.866C76.6824 125.906 75.051 129.937 75.051 129.937C71.8842 137.806 68.0456 153.257 67.8536 159.014V161.51C67.8536 161.51 68.1415 163.333 69.8689 162.853C70.8286 162.661 72.0761 159.59 72.0761 159.59C88.966 127.058 82.8242 127.634 80.3291 126.962V126.866ZM66.894 169.954C66.894 169.859 66.1263 171.874 65.5505 172.641C65.3586 172.833 65.4545 174.081 64.9747 174.945L65.5505 176.576C65.7424 177.152 65.1666 177.632 65.1666 177.632L63.2473 174.945L63.6312 172.258L63.9191 169.091C63.9191 169.091 64.5908 168.419 65.8384 168.707C66.798 168.995 66.798 169.859 66.798 169.954H66.894Z" fill="#F9CCB2"/>
<path d="M70.1569 169.763L70.7327 167.459C71.2125 165.636 70.9246 161.701 71.2125 160.838C71.5004 159.878 71.6924 158.631 70.2529 158.151C68.3336 157.671 67.9497 159.686 67.9497 159.686L67.4699 161.51C66.7982 162.853 64.5909 166.596 63.9192 168.803C63.9192 168.803 64.0152 170.05 64.9748 170.338C65.3255 170.417 65.6914 170.396 66.0307 170.278C66.3701 170.159 66.6692 169.947 66.8941 169.667C67.086 169.379 67.278 168.995 67.8538 168.995C68.4296 169.283 68.8134 169.954 68.8134 170.434C68.2376 172.354 68.3336 172.45 68.8134 172.737L70.1569 169.859V169.763Z" fill="#F9CCB2"/>
<path d="M67.086 169.091C67.086 169.091 66.7022 171.01 66.3183 171.874C66.1264 172.066 66.5103 173.313 66.3183 174.177C66.2224 174.273 66.7022 174.945 67.086 175.616C67.3739 176.192 66.9901 176.672 66.9901 176.672L64.495 174.561L64.3031 171.874L63.9192 168.803C63.9192 168.803 64.495 167.843 65.6466 168.035C66.4143 168.035 67.086 168.995 67.086 169.091ZM91.8451 119.573L81.5768 139.054L73.0359 137.134C73.0359 135.695 73.0359 135.503 73.6117 133.008C75.531 126.482 80.1373 120.052 84.1678 114.678C84.6477 114.103 90.2137 118.613 91.7491 119.477M129.655 128.497C133.398 127.538 134.837 131.76 134.837 131.76C137.525 139.725 140.595 155.464 140.499 161.222L140.403 163.717C140.403 163.717 139.924 165.444 138.196 164.964C137.333 164.676 136.277 161.605 136.277 161.605C121.018 128.209 127.064 129.073 129.655 128.497ZM140.883 172.162C140.883 172.066 141.555 174.081 142.035 174.849C142.227 175.041 142.035 176.384 142.419 177.248L141.843 178.879C141.651 179.455 142.131 179.839 142.131 179.839L144.146 177.344L143.954 174.561V171.49C143.954 171.49 143.186 170.722 142.035 171.01C140.979 171.202 140.883 172.162 140.883 172.162Z" fill="#F9CCB2"/>
<path d="M137.621 171.778L137.237 169.475C136.757 167.555 137.237 163.717 136.949 162.757C136.757 161.797 136.565 160.646 138.196 160.262C140.02 159.782 140.308 161.893 140.308 161.893L140.787 163.621C141.267 165.06 143.282 168.899 143.954 171.202C143.954 171.202 143.762 172.45 142.803 172.546C141.555 172.833 140.883 171.778 140.883 171.778C140.691 171.49 140.499 171.106 139.924 171.202C139.348 171.394 138.964 171.97 138.964 172.546C139.348 174.465 139.252 174.561 138.772 174.753C138.772 174.657 137.812 172.642 137.621 171.874V171.778Z" fill="#F9CCB2"/>
<path d="M140.691 171.298C140.691 171.298 140.979 173.217 141.363 174.081C141.459 174.273 141.075 175.52 141.363 176.384C141.363 176.48 140.691 177.152 140.404 177.824C140.02 178.303 140.404 178.783 140.404 178.783L142.995 176.864L143.378 174.177L143.954 171.202C143.954 171.202 143.378 170.242 142.227 170.242C141.363 170.242 140.691 171.202 140.691 171.202V171.298ZM118.523 120.532L127.736 140.493L136.373 139.054C136.373 137.614 136.469 137.422 135.893 134.831C133.822 128.047 130.574 121.68 126.297 116.022C125.913 115.446 120.155 119.669 118.619 120.532" fill="#F9CCB2"/>
<path d="M334.445 124.083L333.965 119.669L333.773 118.133L333.485 115.254L332.718 108.345L331.854 100.092H331.566L322.833 97.8845L317.651 96.637L299.994 100.668L289.821 109.688L290.589 112.951L302.393 162.757L304.504 162.661L338.668 161.701L334.445 124.083Z" fill="#560E3B"/>
<path d="M308.822 98.6523C308.822 98.6523 312.949 104.602 320.626 103.642C328.303 102.683 321.874 97.6926 321.874 97.6926L317.651 96.4451L308.822 98.6523Z" fill="#CC8F4D"/>
<path d="M322.258 170.722C319.761 177.843 318.82 185.417 319.499 192.933C320.177 200.449 322.46 207.732 326.192 214.29L326.864 215.634C326.864 215.634 338.955 216.785 339.147 212.467L339.819 170.242C338.284 170.146 322.833 171.202 322.162 170.722" fill="#004754"/>
<path d="M301.817 169.666C300.857 174.945 301.145 178.111 299.898 192.026C299.226 199.704 299.226 212.467 299.226 212.467C299.226 212.467 311.413 215.058 312.085 213.906C317.363 204.886 325.808 169.571 325.808 169.571C324.369 169.091 302.297 170.338 301.817 169.666Z" fill="#004754"/>
<path d="M302.009 162.469C302.009 162.469 300.761 175.904 301.529 179.551C302.393 183.39 317.939 186.556 321.97 184.733C322.545 184.541 339.915 171.106 339.915 171.106L338.284 160.934L302.009 162.469Z" fill="#004754"/>
<path d="M296.923 262.849C297.882 262.177 298.65 262.561 298.554 264.096C298.554 265.344 299.226 265.632 299.898 265.728C302.777 266.207 303.257 264.768 303.257 264.768C303.257 264.768 304.504 269.854 302.105 270.238C301.049 270.334 297.786 270.622 294.716 270.718C291.357 270.718 288.094 271.102 287.998 269.278C287.998 268.511 290.973 267.455 293.468 265.632L296.923 262.753" fill="#004553"/>
<path d="M297.594 265.056H297.786V264.768L296.251 263.233H295.963V263.521L297.594 264.96M296.347 265.92H296.539V265.632L295.003 264.192H294.811V264.48L296.251 265.92M295.003 266.783H295.195V266.496L293.852 265.152H293.66V265.44L295.003 266.783ZM293.66 267.743H293.948V267.455L292.7 266.112H292.508V266.4L293.66 267.647" fill="white"/>
<path d="M307.479 118.997L298.458 112.855L296.827 111.8C295.516 110.886 294.172 110.022 292.796 109.208L291.933 110.36C286.099 118.892 282.171 128.58 280.417 138.766L280.129 140.397C280.033 141.033 279.969 141.674 279.937 142.316L289.15 146.635L301.049 128.689L306.807 120.053L307.383 119.093L307.479 118.997Z" fill="#E0B2A8"/>
<path d="M300.761 105.754C299.665 105.337 298.497 105.141 297.325 105.176C296.153 105.211 294.999 105.477 293.929 105.958C292.86 106.439 291.896 107.127 291.092 107.981C290.288 108.835 289.661 109.839 289.246 110.936C288.654 113.076 288.882 115.36 289.885 117.341C290.887 119.323 292.592 120.859 294.667 121.651C296.742 122.442 299.037 122.432 301.104 121.622C303.172 120.811 304.863 119.26 305.848 117.269C306.28 116.18 306.491 115.016 306.468 113.845C306.446 112.673 306.191 111.518 305.717 110.446C305.244 109.374 304.562 108.407 303.711 107.601C302.86 106.796 301.857 106.168 300.761 105.754Z" fill="#E0B2A8"/>
<path d="M334.637 262.081C333.677 261.409 332.91 261.697 332.91 263.233C332.91 264.48 332.142 264.768 331.47 264.864C328.591 265.152 328.207 263.808 328.207 263.808C328.207 263.808 326.768 268.799 329.167 269.278C330.127 269.47 333.389 269.854 336.364 270.046C339.819 270.334 342.986 270.814 343.082 269.087C343.274 268.127 340.203 267.071 337.9 265.056L334.637 262.177" fill="#004553"/>
<path d="M333.773 264.288H333.582V264L335.213 262.561H335.501V262.849L333.869 264.192H333.773M334.925 265.248H334.829V264.96L336.365 263.616H336.652V263.808L335.117 265.152H334.925M336.173 266.207V266.111C335.981 266.111 335.981 265.92 336.173 265.824L337.516 264.576H337.804V264.864L336.365 266.111H336.173M337.42 267.071H337.324V266.783L338.668 265.536H338.86V265.824L337.612 267.071H337.42Z" fill="white"/>
<path d="M311.318 212.563C311.318 212.563 313.237 222.16 312.373 230.988C311.414 239.913 307.095 255.651 305.656 261.313L298.074 260.738C297.883 255.939 299.226 212.467 299.226 212.467H311.318V212.563Z" fill="#004754"/>
<g style="mix-blend-mode:multiply" opacity="0.24">
<mask id="mask14_2_2942" style="mask-type:luminance" maskUnits="userSpaceOnUse" x="301" y="215" width="6" height="5">
<path d="M301.145 215.346H306.615V219.664H301.145V215.346Z" fill="white"/>
</mask>
<g mask="url(#mask14_2_2942)">
<path d="M306.519 216.018L301.145 215.346C301.145 215.346 301.433 219.185 303.065 219.568C305.944 220.24 306.519 216.018 306.519 216.018Z" fill="#A13F60"/>
</g>
</g>
<path d="M322.353 237.226C322.353 229.165 326.192 214.578 326.192 214.578L339.243 212.275C339.243 212.275 334.925 258.147 333.965 262.945L326.48 261.985C324.561 254.308 322.258 242.6 322.353 237.226Z" fill="#004754"/>
<g style="mix-blend-mode:multiply" opacity="0.24">
<mask id="mask15_2_2942" style="mask-type:luminance" maskUnits="userSpaceOnUse" x="330" y="218" width="8" height="7">
<path d="M330.415 218.993H337.612V224.271H330.415V218.993Z" fill="white"/>
</mask>
<g mask="url(#mask15_2_2942)">
<path d="M337.612 219.664L330.415 218.993C330.415 218.993 331.47 224.079 333.389 224.271C336.652 224.463 337.612 219.664 337.612 219.664Z" fill="#A13F60"/>
</g>
</g>
<g style="mix-blend-mode:multiply" opacity="0.24">
<mask id="mask16_2_2942" style="mask-type:luminance" maskUnits="userSpaceOnUse" x="319" y="174" width="9" height="41">
<path d="M319.475 174.081H327.632V214.29H319.475V174.081Z" fill="white"/>
</mask>
<g mask="url(#mask16_2_2942)">
<path d="M322.258 174.081L319.475 192.986C320.434 203.542 324.465 211.411 326.192 214.29C330.99 188.188 322.258 174.081 322.258 174.081Z" fill="#A13F60"/>
</g>
</g>
<g style="mix-blend-mode:multiply" opacity="0.24">
<mask id="mask17_2_2942" style="mask-type:luminance" maskUnits="userSpaceOnUse" x="301" y="161" width="32" height="11">
<path d="M301.433 161.414H332.814V171.49H301.433V161.414Z" fill="white"/>
</mask>
<g mask="url(#mask17_2_2942)">
<path d="M302.009 162.373L332.814 161.414C332.814 161.414 307.383 172.642 301.529 171.394C301.049 171.394 302.009 162.373 302.009 162.373Z" fill="#A13F60"/>
</g>
</g>
<path d="M280.417 173.601C280.609 172.162 280.705 171.586 280.992 171.586C281.28 171.586 281.28 172.354 281.28 173.217C281.28 174.273 281.856 174.753 282.624 174.753V172.258L282.432 170.338V168.131C283.871 159.686 288.478 148.458 289.341 146.731C290.589 144.14 290.973 141.357 290.973 141.357L281.376 138.478C278.648 146.311 277.001 154.479 276.482 162.757C276.386 163.717 276.482 164.005 276.29 164.676C276.098 166.883 275.139 169.187 274.947 171.682C274.851 172.929 274.563 174.753 274.659 175.712C274.755 176 275.234 176 275.426 175.52C275.661 174.595 275.885 173.668 276.098 172.737L275.81 176.288C275.81 177.248 275.81 177.824 276.29 177.824C276.674 177.824 276.866 176.384 276.962 175.136C276.962 174.273 277.058 173.505 277.154 173.505C277.25 173.313 277.442 173.505 277.346 173.601V176.768L277.25 177.152L277.346 178.111L277.73 178.303C278.689 178.303 278.401 174.945 278.689 173.697H278.977C278.977 174.273 278.593 176.96 278.689 178.015C278.689 178.687 279.649 178.975 279.745 178.015C280.129 176.48 280.321 174.753 280.417 173.601Z" fill="#CC8F4D"/>
<g style="mix-blend-mode:multiply" opacity="0.24">
<mask id="mask18_2_2942" style="mask-type:luminance" maskUnits="userSpaceOnUse" x="296" y="118" width="11" height="31">
<path d="M296.443 118.325H306.327V148.17H296.443V118.325Z" fill="white"/>
</mask>
<g mask="url(#mask18_2_2942)">
<path d="M296.443 136.463L303.832 117.366C303.832 117.366 311.797 134.831 299.514 147.211C299.226 147.499 296.443 136.463 296.443 136.463Z" fill="#A13F60"/>
</g>
</g>
<path d="M285.503 118.325C286.367 116.502 289.533 109.4 290.877 107.193C292.988 103.93 299.994 99.42 304.6 99.9958L311.893 113.239L311.605 113.815C309.686 117.653 304.888 125.331 302.201 128.497C302.009 128.689 301.241 130.417 300.282 131.28L291.069 144.62L284.639 161.03L276.674 160.646C275.619 142.029 285.503 118.421 285.503 118.421" fill="#560E3B"/>
<path d="M323.313 86.5607L312.565 86.7526C312.565 86.7526 310.934 91.5509 311.126 100.668C311.126 101.051 320.434 103.642 320.434 103.642L323.313 86.5607Z" fill="#CC8F4D"/>
<path d="M312.373 77.9238C311.896 77.5217 311.301 77.2855 310.678 77.2509C310.055 77.2163 309.437 77.3851 308.918 77.7318" fill="black"/>
<g style="mix-blend-mode:multiply">
<mask id="mask19_2_2942" style="mask-type:luminance" maskUnits="userSpaceOnUse" x="310" y="79" width="2" height="2">
<path d="M310.166 79.1714H311.222V80.227H310.166V79.1714Z" fill="white"/>
</mask>
<g mask="url(#mask19_2_2942)">
<path d="M311.03 79.2673C310.924 79.1729 310.787 79.1207 310.646 79.1207C310.504 79.1207 310.367 79.1729 310.262 79.2673C310.07 79.4593 310.07 79.8431 310.262 80.0351C310.55 80.227 310.838 80.227 311.03 80.0351C311.222 79.8431 311.222 79.4593 311.03 79.2673Z" fill="#004754"/>
</g>
</g>
<path d="M309.206 78.4995C308.438 80.8027 307.479 81.8583 307.191 82.722C307.191 82.9139 308.438 83.1058 308.63 83.1058L309.206 78.4995ZM317.171 90.5911C317.459 90.5911 316.02 96.541 321.394 98.0764L322.641 90.2073L317.171 90.5911Z" fill="#CC8F4D"/>
<path d="M308.247 74.661C308.247 74.661 312.757 63.2411 324.561 69.6708C329.839 72.5497 327.823 80.8027 323.217 87.7122C323.217 87.8082 320.434 88.1921 319.762 87.0405C318.803 85.601 318.611 80.3229 318.611 80.3229L315.54 80.8987C315.54 80.8987 315.252 77.1561 314.58 77.0601C309.11 75.5247 308.247 74.661 308.247 74.661Z" fill="black"/>
<path d="M318.995 79.2673C318.995 79.2673 319.187 81.4745 318.035 81.8584C317.363 82.1463 316.692 81.8584 316.692 81.8584C316.692 81.8584 317.076 85.1212 318.803 84.3535C320.626 83.6817 318.995 79.2673 318.995 79.2673Z" fill="#CC8F4D"/>
<path d="M316.787 80.035C316.787 80.035 317.747 78.1157 318.707 78.8834C319.57 79.6511 319.187 81.7624 317.459 81.7624C316.5 81.7624 316.308 81.4745 316.308 81.4745L316.787 80.035Z" fill="#CC8F4D"/>
<path d="M317.651 80.035C317.651 79.6511 318.131 79.4592 318.323 79.843V80.1309C318.323 80.3229 318.323 80.5148 318.131 80.6107C317.939 80.7067 317.747 80.8027 317.651 80.6107V80.035ZM350.279 172.737C350.087 171.298 349.991 170.626 349.799 170.626C349.416 170.626 349.512 171.49 349.416 172.258C349.416 173.409 348.84 173.889 348.072 173.793C348.072 173.313 348.264 172.258 348.168 171.298L348.36 169.379L348.264 167.267C346.751 159.872 344.434 152.664 341.355 145.771C340.577 144.059 340.028 142.252 339.723 140.397L349.416 137.518C349.895 138.67 350.375 139.629 350.951 142.028C352.794 148.475 353.921 155.104 354.31 161.797V163.717C354.598 166.02 355.557 168.323 355.749 170.722C355.845 172.066 356.133 173.889 356.037 174.849C355.941 175.136 355.461 175.041 355.365 174.561C355.099 173.668 354.844 172.772 354.598 171.874C354.598 171.874 354.886 173.889 354.886 175.424C354.886 176.288 354.886 176.96 354.502 176.96C354.022 176.96 353.926 175.52 353.734 174.273C353.734 173.313 353.734 172.641 353.542 172.545C353.542 172.449 353.35 172.545 353.35 172.737L353.446 175.904V176.192L353.35 177.152L353.062 177.344C352.007 177.44 352.391 174.081 352.103 172.833C352.007 172.737 351.815 172.641 351.719 172.833C351.719 173.409 352.103 176 352.007 177.152C352.007 177.824 351.047 178.111 350.951 177.152L350.279 172.737Z" fill="#CC8F4D"/>
<path d="M345.289 117.366H345.193C344.33 115.638 341.259 108.441 339.819 106.234C337.708 102.971 330.703 98.4604 326.192 99.0362L318.803 112.183L319.091 112.855C321.01 116.694 327.536 124.563 330.223 127.73L330.607 128.306L339.723 143.66L346.057 159.974L354.118 159.686C355.078 140.973 345.289 117.462 345.289 117.462M81.5768 224.175C81.602 224.767 81.7437 225.349 81.9936 225.886C82.2436 226.424 82.597 226.907 83.0336 227.308C83.4703 227.709 83.9816 228.02 84.5385 228.223C85.0954 228.427 85.6868 228.518 86.2791 228.493C86.8714 228.468 87.453 228.326 87.9906 228.076C88.5281 227.827 89.0112 227.473 89.4122 227.036C89.8132 226.6 90.1243 226.088 90.3277 225.532C90.5311 224.975 90.6228 224.383 90.5976 223.791C90.5467 222.595 90.0227 221.468 89.1408 220.658C88.2589 219.848 87.0915 219.422 85.8953 219.473C84.6991 219.523 83.572 220.047 82.7622 220.929C81.9523 221.811 81.5259 222.979 81.5768 224.175Z" fill="#560E3B"/>
<path d="M81.6729 224.942L90.7895 224.463C90.7895 224.463 92.9967 231.372 92.5169 236.554C91.7492 246.343 84.8397 261.121 84.072 262.945L82.3446 259.682L81.6729 224.942ZM99.7143 183.198C100.194 201.143 90.5017 224.463 90.5017 224.463L81.6729 223.695L83.976 178.975C83.976 178.975 99.6184 179.551 99.7143 183.198ZM119.963 184.445L117.66 215.442C117.66 215.442 111.518 217.265 109.023 216.402C105.664 215.25 102.785 183.869 102.785 183.869L119.963 184.445Z" fill="#560E3B"/>
<path d="M108.639 214.962C108.601 216.158 109.039 217.321 109.858 218.194C110.677 219.066 111.809 219.578 113.005 219.616C114.202 219.655 115.364 219.216 116.237 218.397C117.11 217.578 117.622 216.446 117.66 215.25C117.679 214.658 117.581 214.067 117.372 213.513C117.162 212.959 116.846 212.451 116.44 212.019C116.035 211.586 115.548 211.238 115.008 210.994C114.468 210.75 113.886 210.615 113.293 210.596C112.701 210.577 112.111 210.675 111.556 210.884C111.002 211.093 110.494 211.409 110.062 211.815C109.63 212.22 109.282 212.707 109.037 213.247C108.793 213.787 108.658 214.37 108.639 214.962Z" fill="#560E3B"/>
<path d="M108.735 217.937C108.789 218.564 108.973 219.173 109.276 219.724C109.579 220.275 109.994 220.757 110.495 221.138C110.995 221.52 111.57 221.792 112.182 221.938C112.794 222.084 113.43 222.101 114.048 221.986C114.667 221.872 115.255 221.63 115.774 221.274C116.294 220.919 116.733 220.46 117.064 219.925C117.395 219.39 117.611 218.791 117.697 218.168C117.783 217.545 117.738 216.91 117.564 216.306C117.254 215.229 116.555 214.305 115.602 213.716C114.649 213.126 113.511 212.912 112.409 213.116C111.307 213.319 110.321 213.926 109.642 214.817C108.962 215.708 108.639 216.821 108.735 217.937Z" fill="#560E3B"/>
<path d="M107.295 227.438C107.104 222.447 108.351 215.442 108.351 215.442C108.351 215.442 111.806 216.785 113.149 216.977L117.468 216.018C117.468 216.018 118.715 222.351 119.003 227.342C118.939 236.822 118.169 246.285 116.7 255.651L112.574 256.323C110.942 247.686 107.487 232.332 107.295 227.534" fill="#560E3B"/>
<g style="mix-blend-mode:multiply" opacity="0.18">
<mask id="mask20_2_2942" style="mask-type:luminance" maskUnits="userSpaceOnUse" x="109" y="216" width="8" height="7">
<path d="M109.407 216.881H116.412L116.604 222.064L109.503 222.256L109.407 216.881Z" fill="white"/>
</mask>
<g mask="url(#mask20_2_2942)">
<path d="M109.407 216.881C109.407 216.881 110.846 220.24 113.437 219.569C114.397 219.281 116.316 216.786 116.316 216.786C116.316 216.786 116.988 221.968 112.574 222.064C109.695 222.064 109.311 216.977 109.311 216.977" fill="#8D415F"/>
</g>
</g>
<path d="M103.457 164.484C103.457 164.484 107.967 174.081 101.825 184.925C101.825 184.925 83.4001 190.011 83.9759 178.975C84.5517 169.858 89.062 159.686 89.062 159.686L103.457 164.484Z" fill="#560E3B"/>
<path d="M113.629 161.51C113.629 161.51 120.635 170.53 119.963 184.541L101.825 184.925L100.386 180.607L98.3706 162.085L113.725 161.51H113.629Z" fill="#560E3B"/>
<path d="M88.5823 254.02C87.997 256.456 87.5485 258.923 87.2388 261.409V268.127C87.2388 268.127 86.3751 268.607 85.5114 268.319C85.3195 267.647 85.3195 266.687 85.3195 266.687C84.0719 267.647 83.6881 269.182 80.8091 270.046C76.1068 271.582 71.2126 269.566 73.1319 267.743C74.8593 265.92 80.3293 262.177 80.4253 261.601C80.5212 261.217 80.2333 257.763 79.8495 253.732C79.2737 247.974 85.2235 250.469 88.4863 254.02M110.079 253.348C110.567 255.822 110.919 258.321 111.134 260.833V267.551C111.134 267.551 111.806 268.031 112.766 267.839L112.957 266.208C114.205 267.167 114.493 268.703 117.276 269.758C121.978 271.39 126.872 269.47 125.145 267.647C123.514 265.728 118.14 261.889 117.948 261.217C117.948 260.833 118.236 257.379 118.811 253.444C119.099 250.853 118.044 249.893 116.604 249.893C114.685 249.893 111.998 251.525 110.079 253.444" fill="#162D38"/>
<mask id="mask21_2_2942" style="mask-type:luminance" maskUnits="userSpaceOnUse" x="110" y="249" width="16" height="22">
<path d="M110.078 253.348C110.567 255.822 110.919 258.321 111.134 260.833V267.551C111.134 267.551 111.806 268.031 112.765 267.839L112.957 266.208C114.205 267.167 114.493 268.703 117.276 269.758C121.978 271.39 126.872 269.47 125.145 267.647C123.513 265.728 118.139 261.889 117.948 261.217C117.948 260.833 118.235 257.379 118.811 253.444C119.099 250.853 118.043 249.893 116.604 249.893C114.685 249.893 111.998 251.525 110.078 253.444" fill="white"/>
</mask>
<g mask="url(#mask21_2_2942)">
<path d="M119.291 254.212C117.084 251.525 117.372 250.373 113.533 252.964C111.786 253.955 110.118 255.078 108.543 256.323" fill="#162D38"/>
</g>
<path d="M95.2999 79.6512C95.2999 79.6512 99.8103 72.2619 107.104 73.9892C114.397 75.7166 118.236 81.6665 113.917 90.3033C109.695 98.8442 104.8 100.188 101.25 98.1725C97.699 96.2532 93.2846 86.6566 95.2039 79.6512" fill="#014754"/>
<path d="M120.731 109.208C119.675 108.249 114.973 106.233 112.094 105.178L111.134 104.89C111.134 104.89 102.497 103.834 100.386 103.834L96.0675 103.93L90.5016 105.178C87.7186 105.85 80.6171 105.754 74.3794 127.058C74.3794 127.346 79.4656 128.305 84.7436 130.897C85.9912 140.781 79.2736 164.484 79.7534 166.788C79.7534 166.788 89.8298 171.106 101.538 171.106C113.245 171.106 124.377 167.459 124.377 167.459C124.953 164.292 116.028 137.422 118.14 129.073L122.65 130.225C127.16 126.578 134.166 122.356 129.943 119.285" fill="#162D38"/>
<path d="M90.2136 107.673C90.2452 109.655 90.8447 111.587 91.941 113.239C93.8603 116.118 97.1231 118.133 100.962 118.133C102.58 118.153 104.18 117.801 105.641 117.104C107.101 116.407 108.381 115.384 109.383 114.113C110.385 112.842 111.081 111.358 111.418 109.776C111.755 108.193 111.723 106.554 111.326 104.986L108.927 104.314L106.624 103.93H106.336C105.447 103.775 104.55 103.679 103.649 103.642H100.482C99.3303 103.642 98.0828 103.642 96.9312 103.834H96.8352C96.2231 103.9 95.6146 103.996 95.0119 104.122L94.4361 104.218L93.0926 104.506L91.845 104.89L90.5015 105.178C90.3463 105.968 90.2819 106.773 90.3096 107.577" fill="#F8CDC2"/>
<path d="M105.856 92.2227L96.1636 95.1016V103.738C96.1636 104.314 97.795 108.153 100.77 108.249H101.442C105.568 107.961 105.76 103.93 105.76 103.93V92.2227H105.856Z" fill="#F8CDC2"/>
<g style="mix-blend-mode:multiply" opacity="0.18">
<mask id="mask22_2_2942" style="mask-type:luminance" maskUnits="userSpaceOnUse" x="96" y="95" width="10" height="8">
<path d="M96.1636 95.7733H105.088V102.683H96.1636V95.7733Z" fill="white"/>
</mask>
<g mask="url(#mask22_2_2942)">
<path d="M105.088 96.1571C104.896 96.2531 103.553 103.45 96.1636 102.683V95.9652L105.088 96.2531V96.1571Z" fill="#8D415F"/>
</g>
</g>
<path d="M94.0522 84.7373C94.0522 84.4494 94.5321 82.6261 94.724 82.3382C95.1079 81.3785 96.1635 80.131 97.2191 80.131H104.321C105.472 80.131 106.048 81.4745 106.432 82.3382L106.816 86.4647L107.775 86.8485L107.679 89.7275C107.583 92.6065 105.568 98.5563 101.538 99.1321H100.578C100.194 99.1321 99.6182 99.2281 99.0424 99.1321C95.0119 98.6523 94.5321 92.3186 94.3401 89.5356L94.1482 86.6566L94.0522 84.7373Z" fill="#F8CDC2"/>
<g style="mix-blend-mode:multiply" opacity="0.18">
<mask id="mask23_2_2942" style="mask-type:luminance" maskUnits="userSpaceOnUse" x="95" y="87" width="6" height="7">
<path d="M95.2998 87.4243H100.482V93.3742H95.2998V87.4243Z" fill="white"/>
</mask>
<g mask="url(#mask23_2_2942)">
<path d="M98.7546 87.5203L98.6586 92.0307C98.8505 92.4146 100.482 92.5105 100.482 92.5105C100.482 92.5105 98.3707 94.046 96.6433 92.8944C94.9159 91.6468 94.1482 86.7526 98.6586 87.5203" fill="#8D415F"/>
</g>
</g>
<path d="M103.937 88.8638L103.457 89.2477C103.073 89.2477 102.209 89.4396 101.729 88.8638C101.729 88.8638 102.017 88.5759 102.593 88.48C103.169 88.48 103.745 88.48 103.937 88.8638ZM97.6989 89.0558L97.1231 89.4396C96.6433 89.5356 95.9715 89.4396 95.4917 89.0558C95.4917 89.0558 95.8756 88.6719 96.4514 88.6719C96.7392 88.6719 97.315 88.6719 97.6989 89.0558Z" fill="#004754"/>
<path d="M104.608 90.2073C104.608 91.7427 105.376 93.662 107.199 93.0862C108.447 92.5105 109.695 91.8387 109.695 90.2073C109.695 88.5759 108.543 87.5203 107.199 87.5203C105.856 87.5203 104.704 88.7678 104.704 90.3033" fill="#F8CDC2"/>
<path d="M107.488 78.4995C98.6587 78.4995 119.483 68.7111 121.402 75.2367C123.322 81.7624 118.524 85.9848 120.155 94.4298C121.786 102.875 129.943 100.284 125.913 108.825C122.074 117.269 120.827 120.532 120.827 120.532C120.827 120.532 121.402 116.694 117.852 108.441C114.205 100.284 109.887 102.971 111.614 95.5813C113.245 88.288 114.205 78.4995 107.392 78.4995" fill="#014754"/>
<path d="M96.0676 78.5955C96.0676 88.8638 104.321 86.2727 105.664 87.7122C107.104 89.2477 106.72 92.3185 106.72 92.3185C106.72 92.3185 110.558 86.3687 105.376 80.3229C102.113 76.4843 96.0676 78.5955 96.0676 78.5955Z" fill="#014754"/>
<path d="M105.664 84.0656C105.664 84.0656 98.4666 81.2826 96.7392 84.0656C95.0118 86.8486 95.7795 88.576 92.6127 90.9751C92.6127 90.9751 93.9562 89.2477 92.6127 85.5051C90.6934 80.131 96.7392 76.6763 100.482 78.4996C104.32 80.323 105.664 84.0656 105.664 84.0656Z" fill="#014754"/>
<path d="M101.537 94.8136C101.441 95.2934 99.3302 95.3894 99.3302 95.3894C99.3302 95.3894 97.315 95.3894 97.123 94.7177L99.7141 94.8136H101.537Z" fill="#E7C1A8"/>
<path d="M369.76 133.488C366.594 132.144 364.674 135.695 364.674 135.695C361.028 142.412 356.037 156.135 355.27 161.318L354.982 163.525C354.982 163.525 355.078 165.252 356.709 164.964C357.573 164.964 359.012 162.277 359.012 162.277C377.534 134.447 371.968 134.447 369.76 133.488ZM353.254 171.106C353.35 171.01 352.487 172.641 351.815 173.313C351.623 173.505 351.527 174.657 351.143 175.424L351.431 176.96C351.527 177.536 351.047 177.92 351.047 177.92L349.608 175.233L350.183 172.833L350.663 169.954C350.663 169.954 351.431 169.475 352.487 169.954C353.446 170.242 353.35 171.01 353.254 171.106Z" fill="#F9CCB2"/>
<path d="M356.325 171.202L356.997 169.283C357.669 167.651 357.765 164.101 358.149 163.237C358.532 162.373 358.82 161.318 357.477 160.742C355.941 160.07 355.27 161.893 355.27 161.893C355.138 162.441 354.91 162.96 354.598 163.429C353.926 164.676 351.623 167.843 350.759 169.762C350.759 169.762 350.759 170.914 351.527 171.202C352.583 171.586 353.446 170.818 353.446 170.818C353.542 170.53 353.83 170.242 354.214 170.338C354.79 170.626 355.174 171.298 354.982 171.682C354.31 173.409 354.406 173.505 354.79 173.793L356.325 171.298V171.202Z" fill="#F9CCB2"/>
<path d="M353.542 170.338C353.542 170.338 353.062 171.97 352.583 172.737C352.487 172.929 352.583 174.081 352.295 174.849L352.966 176.192C353.158 176.768 352.775 177.152 352.775 177.152L350.759 174.945V169.858C350.759 169.858 351.335 169.091 352.391 169.283C353.062 169.475 353.542 170.338 353.542 170.434V170.338ZM380.892 128.018L369.76 144.62L362.275 142.029C362.275 140.781 362.275 140.589 363.235 138.382C366.068 132.576 369.902 127.313 374.559 122.836C375.038 122.356 379.549 127.058 380.892 128.018ZM404.5 133.68C407.763 132.816 409.106 136.559 409.106 136.559C411.601 143.948 414.288 158.151 414.288 163.429L414.192 165.732C414.192 165.732 413.808 167.267 412.273 166.788C411.409 166.596 410.354 163.717 410.354 163.717C396.631 133.392 402.101 134.159 404.5 133.584V133.68ZM414.576 173.409C414.576 173.313 415.248 175.137 415.728 175.808C415.824 176 415.728 177.248 416.112 178.016L415.536 179.455C415.344 180.031 415.824 180.415 415.824 180.415L417.743 178.112L417.455 175.616V172.737C417.455 172.737 416.783 172.066 415.632 172.354C414.672 172.546 414.672 173.313 414.672 173.313L414.576 173.409Z" fill="#F9CCB2"/>
<path d="M411.697 173.025C411.505 172.545 411.409 171.394 411.313 170.914C410.929 169.283 411.313 165.732 411.121 164.868C410.929 164.005 410.738 162.949 412.177 162.565C413.808 162.085 414.096 164.005 414.096 164.005L414.576 165.636C415.056 166.979 416.879 170.434 417.455 172.545C417.455 172.545 417.263 173.697 416.399 173.793C415.248 173.985 414.576 173.121 414.576 173.121C414.48 172.833 414.288 172.449 413.904 172.449C413.233 172.641 412.945 173.217 412.945 173.697C413.329 175.52 413.233 175.616 412.753 175.808C412.753 175.616 411.889 173.889 411.697 173.025Z" fill="#F9CCB2"/>
<path d="M414.576 172.546C414.576 172.546 414.768 174.273 415.152 175.137C415.152 175.329 414.864 176.384 415.056 177.248L414.096 178.495C413.904 178.975 414.288 179.455 414.288 179.455L416.591 177.632L416.879 175.233L417.455 172.546C417.455 172.546 416.879 171.586 415.824 171.682C415.152 171.682 414.48 172.546 414.48 172.641L414.576 172.546ZM394.423 126.386L402.676 144.62L410.45 143.276C410.641 142.029 410.641 141.741 410.162 139.438C408.27 133.277 405.315 127.496 401.429 122.356C401.045 121.876 395.767 125.714 394.327 126.386" fill="#F9CCB2"/>
<path d="M365.634 223.983C365.659 225.179 366.159 226.316 367.023 227.144C367.887 227.972 369.044 228.423 370.24 228.397C371.436 228.372 372.574 227.872 373.401 227.008C374.229 226.144 374.68 224.987 374.655 223.791C374.629 222.582 374.124 221.433 373.252 220.596C372.379 219.759 371.209 219.303 370 219.329C368.791 219.354 367.642 219.859 366.805 220.731C365.968 221.604 365.512 222.774 365.538 223.983" fill="#162D38"/>
<path d="M365.634 224.655L374.751 224.463C374.751 224.463 376.766 231.372 376.19 236.65C375.23 246.343 367.937 261.025 367.169 262.753L365.442 259.49L365.73 224.655H365.634ZM384.635 183.39C384.731 201.335 374.559 224.463 374.559 224.463L365.634 223.503L369.089 178.783C369.089 178.783 384.635 179.743 384.635 183.39ZM404.98 185.213L401.813 216.114C401.813 216.114 395.575 217.745 393.176 216.785C389.817 215.538 387.802 184.157 387.802 184.157L404.884 185.117" fill="#162D38"/>
<path d="M392.792 215.442C392.728 216.638 393.143 217.811 393.943 218.701C394.744 219.592 395.866 220.129 397.062 220.192C398.259 220.256 399.431 219.842 400.322 219.041C401.213 218.24 401.749 217.118 401.813 215.922C401.876 214.725 401.462 213.553 400.661 212.662C399.86 211.771 398.739 211.235 397.542 211.171C396.346 211.108 395.174 211.522 394.283 212.323C393.392 213.124 392.856 214.246 392.792 215.442Z" fill="#162D38"/>
<path d="M392.792 218.417C392.887 219.003 393.096 219.564 393.407 220.07C393.719 220.575 394.127 221.014 394.608 221.361C395.089 221.709 395.634 221.958 396.212 222.095C396.789 222.232 397.388 222.254 397.974 222.159C398.56 222.065 399.122 221.856 399.627 221.544C400.132 221.233 400.571 220.825 400.919 220.344C401.266 219.862 401.516 219.317 401.653 218.74C401.79 218.162 401.811 217.563 401.717 216.977C401.526 215.794 400.873 214.735 399.901 214.033C398.929 213.331 397.718 213.044 396.535 213.235C395.351 213.426 394.292 214.079 393.59 215.051C392.888 216.022 392.601 217.233 392.792 218.417Z" fill="#162D38"/>
<path d="M391.161 227.821C391.161 222.831 392.6 215.826 392.6 215.826C392.6 215.826 395.959 217.265 397.302 217.553L401.717 216.69C401.717 216.69 402.676 223.023 402.868 228.013C403.156 234.443 400.949 251.813 399.893 256.227L395.863 256.899C394.423 248.166 391.257 232.62 391.161 227.821Z" fill="#162D38"/>
<g style="mix-blend-mode:multiply" opacity="0.18">
<mask id="mask24_2_2942" style="mask-type:luminance" maskUnits="userSpaceOnUse" x="393" y="217" width="8" height="6">
<path d="M393.464 217.361H400.565V222.639H393.464V217.361Z" fill="white"/>
</mask>
<g mask="url(#mask24_2_2942)">
<path d="M393.464 217.361C393.464 217.361 394.903 220.72 397.494 220.144C398.55 219.856 400.565 217.457 400.565 217.457C400.565 217.457 401.045 222.639 396.631 222.639C393.656 222.639 393.464 217.361 393.464 217.361Z" fill="#8D415F"/>
</g>
</g>
<path d="M388.857 164.868C388.857 164.868 393.176 174.465 386.746 185.213C386.746 185.213 368.129 189.819 369.089 178.783C369.856 169.667 374.559 159.59 374.559 159.59L388.857 164.868Z" fill="#162D38"/>
<path d="M371.584 112.855C370.244 112.508 368.954 111.992 367.745 111.32C365.538 110.072 365.154 107.289 366.114 105.274C367.745 101.915 370.24 103.355 373.119 99.0362C374.655 96.637 378.781 89.8235 387.514 90.0154C396.343 89.9195 400.373 96.733 401.909 99.1321C404.788 103.355 407.283 102.011 408.914 105.37C409.874 107.385 409.394 110.168 407.187 111.416C405.973 112.055 404.683 112.539 403.348 112.855C402.868 113.047 402.101 113.335 402.197 113.911C403.444 114.391 407.667 114.487 407.475 118.901C407.091 124.563 398.454 124.179 395.863 123.507C394.586 123.18 393.393 122.582 392.367 121.754C391.34 120.927 390.504 119.888 389.913 118.709C388.953 116.79 389.817 118.517 388.762 120.34C387.514 122.74 381.756 123.315 379.069 123.411C376.382 123.507 367.745 124.371 367.553 118.805C367.265 114.391 371.584 114.295 372.735 113.815C372.735 113.239 372.16 112.951 371.584 112.855Z" fill="black"/>
<path d="M399.222 162.181C399.222 162.181 405.939 171.298 404.98 185.213H386.746L385.499 180.894L383.867 162.277L399.222 162.085V162.181Z" fill="#162D38"/>
<path d="M406.227 120.916C405.267 120.244 399.989 117.366 397.302 116.502L396.343 116.214C396.343 116.214 388.569 115.254 386.65 115.254L382.716 115.35L377.629 116.502C375.134 117.078 368.609 116.982 362.947 136.367C362.947 136.655 367.553 137.518 372.351 139.917C373.503 148.938 367.361 170.434 367.745 172.546C367.745 172.546 377.054 176.384 387.706 176.384C398.358 176.384 408.434 173.217 408.434 173.217C409.01 170.338 400.757 145.771 402.772 138.19L410.45 138.862C411.409 130.801 409.97 123.795 406.227 121.012" fill="#004754"/>
<path d="M377.437 118.709C377.426 120.506 377.926 122.27 378.877 123.795C380.604 126.482 383.675 128.306 387.13 128.306C388.604 128.323 390.062 128 391.392 127.363C392.721 126.726 393.886 125.791 394.795 124.631C395.705 123.47 396.335 122.116 396.636 120.673C396.938 119.23 396.903 117.737 396.535 116.31L394.423 115.734L392.216 115.35H392.024L390.873 115.158H388.953L387.61 115.062H386.842L383.483 115.254C382.901 115.303 382.323 115.399 381.756 115.542L381.18 115.638L380.029 115.926L378.781 116.214L377.629 116.502C377.437 117.174 377.437 117.941 377.437 118.709Z" fill="#F8CDC2"/>
<path d="M391.544 104.698L382.716 107.289V115.254C382.716 115.734 384.251 119.093 386.938 119.285H387.706C391.352 118.997 391.64 115.35 391.64 115.35V104.602L391.544 104.698Z" fill="#F8CDC2"/>
<g style="mix-blend-mode:multiply" opacity="0.18">
<mask id="mask25_2_2942" style="mask-type:luminance" maskUnits="userSpaceOnUse" x="382" y="107" width="9" height="8">
<path d="M382.812 107.961H390.969V114.295H382.812V107.961Z" fill="white"/>
</mask>
<g mask="url(#mask25_2_2942)">
<path d="M390.969 108.345C390.777 108.345 389.529 114.87 382.812 114.199V107.961L390.969 108.345Z" fill="#8D415F"/>
</g>
</g>
<path d="M380.796 97.8846C380.796 97.5967 381.276 95.9653 381.468 95.6774C381.756 94.9097 382.716 93.7581 383.675 93.7581H386.842L387.802 93.6621H390.201C391.161 93.6621 391.736 94.9097 392.12 95.6774L392.408 99.516L393.368 99.8039L393.176 102.395C393.176 104.986 391.257 110.456 387.706 111.032H385.403C381.756 110.552 381.276 104.794 381.084 102.203L380.892 99.612L380.796 97.8846Z" fill="#F8CDC2"/>
<g style="mix-blend-mode:multiply" opacity="0.18">
<mask id="mask26_2_2942" style="mask-type:luminance" maskUnits="userSpaceOnUse" x="381" y="100" width="6" height="6">
<path d="M381.948 100.284H386.746V105.658H381.948V100.284Z" fill="white"/>
</mask>
<g mask="url(#mask26_2_2942)">
<path d="M385.115 100.38L385.019 104.506C385.211 104.89 386.65 104.89 386.65 104.89C386.65 104.89 384.731 106.425 383.196 105.274C381.66 104.218 380.892 99.7079 385.115 100.38Z" fill="#8D415F"/>
</g>
</g>
<path d="M389.817 101.723L389.337 101.915C389.049 102.011 388.282 102.107 387.802 101.627C387.802 101.627 388.09 101.339 388.57 101.339C389.145 101.243 389.625 101.339 389.817 101.627M384.155 101.723L383.579 102.107C383.196 102.299 382.62 102.203 382.14 101.819C382.14 101.819 382.524 101.435 383.1 101.435C383.291 101.435 383.771 101.435 384.059 101.819" fill="black"/>
<path d="M390.489 102.875C390.489 104.314 391.161 106.042 392.792 105.37C393.944 104.986 394.999 104.314 394.999 102.875C394.999 101.435 394.039 100.38 392.792 100.38C391.544 100.38 390.489 101.531 390.489 102.875Z" fill="#F8CDC2"/>
<path d="M382.716 92.3185C382.716 101.627 390.201 99.228 391.352 100.572C392.696 102.011 392.312 104.794 392.312 104.794C392.312 104.794 395.863 99.324 391.161 93.854C388.282 90.3992 382.716 92.3185 382.716 92.3185Z" fill="black"/>
<path d="M391.448 97.3087C391.448 97.3087 384.827 94.8136 383.291 97.3087C381.756 99.8038 382.332 101.339 379.549 103.546C379.549 103.546 380.796 102.011 379.549 98.5562C377.821 93.758 383.291 90.4952 386.746 92.1266C390.201 93.8539 391.448 97.3087 391.448 97.3087Z" fill="black"/>
<path d="M371.776 253.924C371.008 257.187 370.432 260.162 370.336 261.217L370.048 267.935C370.048 267.935 369.281 268.415 368.417 268.223C368.225 267.455 368.225 266.495 368.225 266.495C366.977 267.455 366.594 268.991 363.715 269.758C358.916 271.198 354.118 269.086 356.037 267.263C357.765 265.536 363.331 261.889 363.523 261.313L363.139 253.444C362.659 247.686 368.513 250.373 371.776 253.924ZM393.368 253.924C393.792 256.369 394.08 258.836 394.231 261.313L393.944 268.031C393.944 268.031 394.711 268.511 395.671 268.415L395.959 266.687C397.11 267.743 397.398 269.278 400.181 270.334C404.788 272.061 409.778 270.334 408.146 268.415C406.419 266.495 401.141 262.465 401.045 261.889L402.005 254.02C402.389 251.525 401.429 250.565 399.893 250.565C397.974 250.565 395.287 252.005 393.368 253.828" fill="#073E44"/>
<mask id="mask27_2_2942" style="mask-type:luminance" maskUnits="userSpaceOnUse" x="393" y="250" width="16" height="22">
<path d="M393.368 253.924C393.792 256.369 394.08 258.836 394.231 261.313L393.943 268.031C393.943 268.031 394.711 268.511 395.671 268.415L395.959 266.687C397.11 267.743 397.398 269.278 400.181 270.334C404.788 272.061 409.778 270.334 408.146 268.415C406.419 266.495 401.141 262.465 401.045 261.889L402.005 254.02C402.388 251.525 401.429 250.565 399.893 250.565C397.974 250.565 395.287 252.005 393.368 253.828" fill="white"/>
</mask>
<g mask="url(#mask27_2_2942)">
<path d="M402.484 254.884C400.373 252.101 400.757 251.045 396.727 253.444L391.736 256.707" fill="#073E44"/>
</g>
<path d="M387.034 107.385C387.034 107.673 385.883 107.673 385.883 107.673C385.883 107.673 384.731 107.673 384.635 107.385H387.034Z" fill="white"/>
<mask id="mask28_2_2942" style="mask-type:luminance" maskUnits="userSpaceOnUse" x="254" y="130" width="11" height="10">
<path d="M263.815 130.993C263.559 130.704 263.249 130.47 262.901 130.303C262.554 130.137 262.177 130.042 261.792 130.024C261.407 130.006 261.023 130.066 260.661 130.199C260.3 130.332 259.969 130.537 259.688 130.801V130.897C259.411 130.626 259.083 130.412 258.723 130.268C258.363 130.123 257.979 130.052 257.591 130.056C257.203 130.06 256.82 130.141 256.464 130.294C256.107 130.446 255.785 130.667 255.514 130.945C255.243 131.222 255.029 131.55 254.885 131.91C254.741 132.269 254.669 132.654 254.673 133.042C254.678 133.429 254.758 133.812 254.911 134.169C255.063 134.525 255.284 134.848 255.562 135.119L259.4 139.15L263.431 135.311L263.719 135.119C263.994 134.851 264.213 134.53 264.363 134.176C264.513 133.821 264.59 133.44 264.59 133.056C264.59 132.671 264.513 132.29 264.363 131.936C264.213 131.582 263.994 131.261 263.719 130.993H263.815Z" fill="white"/>
</mask>
<g mask="url(#mask28_2_2942)">
<path d="M253.352 133.967L265.724 134.399L265.53 139.961L253.158 139.529L253.352 133.967Z" fill="#FFFF49"/>
</g>
<mask id="mask29_2_2942" style="mask-type:luminance" maskUnits="userSpaceOnUse" x="254" y="130" width="11" height="10">
<path d="M263.815 130.993C263.559 130.704 263.249 130.47 262.901 130.303C262.554 130.137 262.177 130.042 261.792 130.024C261.407 130.006 261.023 130.066 260.661 130.199C260.3 130.332 259.969 130.537 259.688 130.801V130.897C259.411 130.626 259.083 130.412 258.723 130.268C258.363 130.123 257.979 130.052 257.591 130.056C257.203 130.06 256.82 130.141 256.464 130.294C256.107 130.446 255.785 130.667 255.514 130.945C255.243 131.222 255.029 131.55 254.885 131.91C254.741 132.269 254.669 132.654 254.673 133.042C254.678 133.429 254.758 133.812 254.911 134.169C255.063 134.525 255.284 134.848 255.562 135.119L259.4 139.15L263.431 135.311L263.719 135.119C263.994 134.851 264.213 134.53 264.363 134.176C264.513 133.821 264.59 133.44 264.59 133.056C264.59 132.671 264.513 132.29 264.363 131.936C264.213 131.582 263.994 131.261 263.719 130.993H263.815Z" fill="white"/>
</mask>
<g mask="url(#mask29_2_2942)">
<path d="M253.544 128.301L265.916 128.733L265.709 134.68L253.337 134.248L253.544 128.301Z" fill="#005F9F"/>
</g>
<path opacity="0.28" d="M312.757 89.9194C312.853 89.9194 314.964 96.2531 321.106 96.8289L322.546 90.4952L323.121 85.9849L312.757 89.8235V89.9194Z" fill="#8D415F"/>
<path d="M307.287 71.0143C306.903 71.0143 307.095 76.1005 307.671 79.5552C307.959 81.6664 309.59 81.2826 309.59 81.2826L312.949 70.9183H307.191L307.287 71.0143Z" fill="black"/>
<path d="M325.424 80.8028C325.424 87.3284 322.258 92.5105 316.787 92.5105C311.317 92.5105 308.343 87.1365 308.343 80.6108C308.343 74.0852 311.509 68.9031 316.883 68.9031C322.258 68.9031 325.52 74.3731 325.52 80.8028H325.424Z" fill="#CC8F4D"/>
<path d="M310.55 78.4996C310.838 76.9641 313.909 76.8682 314.58 77.8278L310.55 78.4996ZM319.571 77.5399C320.53 76.4843 323.601 76.9641 323.889 78.4996L319.571 77.5399Z" fill="black"/>
<path d="M308.534 79.9391H308.247C307.664 79.9391 307.191 80.4117 307.191 80.9947V83.2979C307.191 83.8809 307.664 84.3535 308.247 84.3535H308.534C309.117 84.3535 309.59 83.8809 309.59 83.2979V80.9947C309.59 80.4117 309.117 79.9391 308.534 79.9391Z" fill="#CC8F4D"/>
<path d="M325.136 79.9391H324.849C324.266 79.9391 323.793 80.4117 323.793 80.9947V83.2979C323.793 83.8809 324.266 84.3535 324.849 84.3535H325.136C325.719 84.3535 326.192 83.8809 326.192 83.2979V80.9947C326.192 80.4117 325.719 79.9391 325.136 79.9391Z" fill="#CC8F4D"/>
<g style="mix-blend-mode:multiply">
<path d="M315.06 82.6261C314.964 86.9445 318.899 85.0252 318.899 85.0252L317.171 84.2575L317.363 79.4592C317.363 79.4592 315.156 79.6512 315.06 82.6261Z" fill="#F8CDC2"/>
</g>
<g style="mix-blend-mode:multiply">
<path d="M308.343 81.2826C308.343 81.2826 307.191 82.2422 308.343 82.914V81.2826ZM325.137 81.2826V83.1059C325.137 83.1059 325.616 83.1059 325.808 82.3382C326 81.3786 325.137 81.2826 325.137 81.2826Z" fill="#F8CDC2"/>
</g>
<path d="M325.041 76.1964L311.605 71.2062C311.605 71.2062 308.439 70.1506 309.014 66.1201C309.59 62.0895 315.06 64.6806 318.323 66.6959C321.654 68.9294 324.045 72.3116 325.041 76.1964ZM322.257 79.9391C322.257 79.9391 322.162 80.227 321.682 80.3229C321.394 80.5149 320.338 80.6108 319.858 80.035C319.858 80.035 320.146 79.6512 320.818 79.5552C321.394 79.5552 322.066 79.5552 322.257 80.035V79.9391ZM313.813 80.131L313.237 80.5149C312.947 80.6073 312.639 80.6295 312.338 80.5794C312.038 80.5293 311.754 80.4085 311.509 80.227C311.509 80.227 311.893 79.7471 312.661 79.7471C312.853 79.7471 313.429 79.7471 313.813 80.227V80.131Z" fill="black"/>
<g style="mix-blend-mode:multiply">
<mask id="mask30_2_2942" style="mask-type:luminance" maskUnits="userSpaceOnUse" x="314" y="85" width="6" height="4">
<path d="M314.772 87.1365L319.187 85.9849L319.57 87.5203L315.252 88.5759L314.772 87.1365Z" fill="white"/>
</mask>
<g mask="url(#mask30_2_2942)">
<path d="M314.964 87.5202C315.06 86.9445 317.171 86.9445 317.171 86.9445C317.171 86.9445 319.187 86.9445 319.378 87.5202H314.964Z" fill="#E7C1A8"/>
</g>
</g>
</g>
</g>
</g>
<defs>
<clipPath id="clip0_2_2942">
<rect width="476" height="331.08" rx="8" fill="white"/>
</clipPath>
<clipPath id="clip1_2_2942">
<rect width="476" height="331.08" fill="white"/>
</clipPath>
<clipPath id="clip2_2_2942">
<rect width="475.987" height="331.08" fill="white" transform="translate(0.00634766)"/>
</clipPath>
</defs>
</svg>
