<svg width="24" height="25" viewBox="0 0 24 25" fill="none" xmlns="http://www.w3.org/2000/svg">
<path fill-rule="evenodd" clip-rule="evenodd" d="M7 4.13C5.34315 4.13 4 5.47316 4 7.13V8.13H20V7.13C20 5.47316 18.6569 4.13 17 4.13H7ZM3 8.13V9.13V17.13C3 19.3391 4.79086 21.13 7 21.13H17C19.2091 21.13 21 19.3391 21 17.13V9.13V8.13V7.13C21 4.92086 19.2091 3.13 17 3.13H7C4.79086 3.13 3 4.92086 3 7.13V8.13ZM17 20.13C18.6569 20.13 20 18.7869 20 17.13V9.13H4V17.13C4 18.7869 5.34315 20.13 7 20.13H17ZM7 11.13C6.44772 11.13 6 11.5777 6 12.13C6 12.6823 6.44772 13.13 7 13.13C7.55228 13.13 8 12.6823 8 12.13C8 11.5777 7.55228 11.13 7 11.13ZM6 16.13C6 15.5777 6.44772 15.13 7 15.13C7.55228 15.13 8 15.5777 8 16.13C8 16.6823 7.55228 17.13 7 17.13C6.44772 17.13 6 16.6823 6 16.13ZM12 11.13C11.4477 11.13 11 11.5777 11 12.13C11 12.6823 11.4477 13.13 12 13.13C12.5523 13.13 13 12.6823 13 12.13C13 11.5777 12.5523 11.13 12 11.13ZM11 16.13C11 15.5777 11.4477 15.13 12 15.13C12.5523 15.13 13 15.5777 13 16.13C13 16.6823 12.5523 17.13 12 17.13C11.4477 17.13 11 16.6823 11 16.13ZM17 11.13C16.4477 11.13 16 11.5777 16 12.13C16 12.6823 16.4477 13.13 17 13.13C17.5523 13.13 18 12.6823 18 12.13C18 11.5777 17.5523 11.13 17 11.13Z" fill="#6F8B90"/>
</svg>
