<svg width="18" height="19" viewBox="0 0 18 19" fill="none" xmlns="http://www.w3.org/2000/svg">
<g clip-path="url(#clip0_2_4209)">
<path d="M9.07471 8.38033C9.96982 8.38033 10.8283 8.02475 11.4612 7.39182C12.0941 6.75888 12.4497 5.90044 12.4497 5.00533V4.25473C12.4497 3.35962 12.0941 2.50118 11.4612 1.86824C10.8283 1.23531 9.96982 0.87973 9.07471 0.87973C8.17961 0.87973 7.32116 1.23531 6.68823 1.86824C6.05529 2.50118 5.69971 3.35962 5.69971 4.25473V5.00533C5.69971 5.90044 6.05529 6.75888 6.68823 7.39182C7.32116 8.02475 8.17961 8.38033 9.07471 8.38033ZM9.07471 9.13003C7.98085 9.12979 6.93185 8.69515 6.15837 7.92167C5.38489 7.14819 4.95025 6.0992 4.95001 5.00533V4.25473C4.96602 3.17123 5.40767 2.13752 6.17955 1.37696C6.95142 0.616402 7.99154 0.190063 9.07516 0.190063C10.1588 0.190063 11.1989 0.616402 11.9708 1.37696C12.7427 2.13752 13.1843 3.17123 13.2003 4.25473V5.00533C13.2001 6.09935 12.7653 7.14848 11.9916 7.92199C11.218 8.69549 10.1687 9.13003 9.07471 9.13003ZM16.9497 15.4363V17.005C16.9497 17.212 16.7823 17.3803 16.5753 17.3803H1.57501C1.47548 17.3803 1.38002 17.3408 1.30964 17.2704C1.23925 17.2 1.19971 17.1046 1.19971 17.005V15.4363C1.19827 14.6973 1.43997 13.9782 1.88756 13.3901C2.33516 12.802 2.96378 12.3775 3.67651 12.1819C5.50621 11.6833 7.34851 11.38 9.07471 11.38C10.8027 11.38 12.6441 11.6833 14.4729 12.1819C15.1856 12.3775 15.8143 12.802 16.2619 13.3901C16.7095 13.9782 16.9512 14.6973 16.9497 15.4363ZM16.2 15.4363C16.2016 14.8618 16.014 14.3027 15.6662 13.8453C15.3185 13.3879 14.8299 13.0577 14.2758 12.9055C12.5055 12.4222 10.7262 12.1297 9.07471 12.1297C7.42411 12.1297 5.64481 12.4222 3.87361 12.9055C3.31972 13.0578 2.83132 13.3881 2.48374 13.8455C2.13617 14.3029 1.94872 14.8619 1.95031 15.4363V16.6297H16.2V15.4363Z" fill="#6F8B90"/>
</g>
<defs>
<clipPath id="clip0_2_4209">
<rect width="18" height="18" fill="white" transform="translate(0 0.130005)"/>
</clipPath>
</defs>
</svg>
