<svg width="70" height="70" viewBox="0 0 70 70" fill="none" xmlns="http://www.w3.org/2000/svg">
<path fill-rule="evenodd" clip-rule="evenodd" d="M40.1346 69.1111C56.782 66.5283 69.5238 52.1331 69.5238 34.7619C69.5238 15.5634 53.9604 0 34.7619 0C15.5634 0 0 15.5634 0 34.7619C0 51.9603 12.4896 66.2417 28.8936 69.0306V48.6426H21.944C21.344 48.6426 20.8571 48.1563 20.8571 47.5558V38.7928C20.8571 38.1922 21.3434 37.7054 21.944 37.7054H28.8936V31.6573C28.8936 23.6883 33.9119 18.5397 41.6773 18.5397L48.5892 18.5508C49.1886 18.5519 49.6744 19.0382 49.6744 19.6376V27.7746C49.6744 28.3745 49.1881 28.8614 48.5881 28.8614L43.9319 28.8631C40.7219 28.8631 40.1346 30.1141 40.1346 32.5783V37.7054H48.2632C48.5515 37.7054 48.8288 37.8201 49.0323 38.0242C49.2358 38.2283 49.3506 38.5044 49.3506 38.7928L49.3472 47.5558C49.3472 48.1563 48.8609 48.6426 48.2604 48.6426H40.1346V69.1111Z" fill="#D5DDE0"/>
</svg>
