<svg width="70" height="70" viewBox="0 0 70 70" fill="none" xmlns="http://www.w3.org/2000/svg">
<path fill-rule="evenodd" clip-rule="evenodd" d="M35.0001 69.5238C54.1985 69.5238 69.762 53.9604 69.762 34.7619C69.762 15.5634 54.1985 0 35.0001 0C15.8016 0 0.238159 15.5634 0.238159 34.7619C0.238159 53.9604 15.8016 69.5238 35.0001 69.5238ZM25.9368 52.8845C27.7009 53.1628 29.4544 53.3016 31.158 53.3016C33.1298 53.3016 35.0348 53.1153 36.8088 52.7439C40.4253 51.9866 43.4692 50.5055 45.8563 48.3424C47.7854 46.594 49.2395 44.4267 50.1779 41.9007C51.1701 39.2308 51.5852 36.1507 51.4124 32.7464C51.367 31.8506 51.6107 30.9962 52.0989 30.3402C54.0487 27.7204 54.1911 27.5045 54.3057 27.3309L54.3073 27.3284C54.3353 27.2858 54.3568 27.2531 54.4367 27.1434L55.8572 25.1899L53.4538 25.2994C53.3495 25.3039 53.2498 25.3109 53.153 25.319L54.6207 21.1012L52.37 21.8815C51.7659 22.0909 51.2818 22.2742 50.8549 22.4359L50.8407 22.4413L50.8404 22.4414C50.1252 22.7123 49.5959 22.9128 48.8776 23.1006C47.4066 21.7702 45.5545 21.0011 43.5145 20.8749C41.5918 20.7561 39.6519 21.2355 38.0522 22.2247C36.6119 23.1157 35.528 24.3657 34.9188 25.8398C34.3955 27.1059 34.2374 28.5183 34.4484 29.9818C29.2825 29.2605 24.9299 26.7965 21.4935 22.6427L20.4069 21.3295L19.5944 22.8302C18.568 24.7262 18.2271 26.8945 18.6344 28.9353C18.8015 29.7722 19.0859 30.5706 19.4793 31.3183L18.5466 30.9547L18.436 32.5223C18.3239 34.115 18.8508 35.9735 19.846 37.4944C20.1259 37.9224 20.4868 38.393 20.944 38.8566L20.4619 38.7825L21.0498 40.5784C21.8226 42.9387 23.4279 44.7646 25.5109 45.7795C23.4306 46.6675 21.7501 47.2346 18.9876 48.1486L16.4604 48.9848L18.7946 50.269C19.6846 50.7587 22.8298 52.394 25.9368 52.8845Z" fill="#D5DDE0"/>
</svg>
