<svg width="49" height="49" viewBox="0 0 49 49" fill="none" xmlns="http://www.w3.org/2000/svg">
<path d="M44.569 32.6094V32.1013H44.4408L44.2925 32.4503L44.145 32.1013H44.016V32.6094H44.1071V32.2262L44.2457 32.5569H44.34L44.4787 32.2254V32.6094H44.569ZM43.7557 32.6094V32.1879H43.9201V32.1021H43.501V32.1879H43.6654V32.6094H43.7557Z" fill="#F79410"/>
<path d="M30.0296 34.7918H18.9609V14.2363H30.0296V34.7918Z" fill="#FF5F00"/>
<path d="M19.6686 24.5102C19.6686 20.3404 21.5579 16.6261 24.5001 14.2324C22.3486 12.4821 19.6332 11.4373 16.6822 11.4373C9.6959 11.4373 4.03271 17.2901 4.03271 24.5102C4.03271 31.7302 9.6959 37.583 16.6822 37.583C19.6332 37.583 22.3486 36.5383 24.5001 34.7879C21.5579 32.3943 19.6686 28.6799 19.6686 24.5102Z" fill="#EB001B"/>
<path d="M44.9629 24.5063C44.9629 31.7263 39.2997 37.5791 32.3134 37.5791C29.3623 37.5791 26.647 36.5344 24.4946 34.784C27.4376 32.3904 29.327 28.676 29.327 24.5063C29.327 20.3365 27.4376 16.6222 24.4946 14.2285C26.647 12.4782 29.3623 11.4334 32.3134 11.4334C39.2997 11.4334 44.9629 17.2862 44.9629 24.5063Z" fill="#F79E1B"/>
</svg>
