<svg width="30" height="21" viewBox="0 0 30 21" fill="none" xmlns="http://www.w3.org/2000/svg">
<path fill-rule="evenodd" clip-rule="evenodd" d="M3.91182 0C3.35953 -8.34464e-07 2.91182 0.447714 2.91182 1C2.91181 1.55228 3.35953 2 3.91182 2L26.4718 2.00003C27.0241 2.00003 27.4718 1.55232 27.4718 1.00003C27.4718 0.44775 27.0241 3.37362e-05 26.4718 3.29018e-05L3.91182 0ZM2.6001 6H27.4001L27.4001 18.8H2.6001V6ZM0.600098 6C0.600098 4.89543 1.49553 4 2.6001 4H27.4001C28.5047 4 29.4001 4.89543 29.4001 6V18.8C29.4001 19.9046 28.5047 20.8 27.4001 20.8H2.6001C1.49553 20.8 0.600098 19.9046 0.600098 18.8V6ZM8.4831 11.1045C8.96429 10.7979 9.34417 10.4399 9.67937 10.04H20.3019C20.659 10.4707 21.0696 10.8026 21.517 11.0881V13.7659C21.036 14.0723 20.6563 14.4301 20.3212 14.8298H9.693C9.3373 14.4006 8.92846 14.0696 8.4831 13.7847V11.1045ZM21.6156 16.4204C21.4337 16.6687 21.1399 16.8298 20.8086 16.8298H9.1915C8.8356 16.8298 8.52312 16.6439 8.3459 16.3639L8.34229 16.3662C8.05006 15.9076 7.65628 15.5897 6.99817 15.2305L6.99899 15.229C6.69135 15.0585 6.4831 14.7304 6.4831 14.3538V10.516C6.4831 10.1092 6.72602 9.75916 7.07472 9.60297C7.62512 9.33695 7.98346 8.99475 8.37009 8.4695C8.55073 8.2099 8.85127 8.04 9.1915 8.04H20.8086C21.1695 8.04 21.4857 8.23117 21.6615 8.51777C21.9488 8.96228 22.3344 9.27467 22.9695 9.62404C23.2944 9.78918 23.517 10.1266 23.517 10.516V14.3538C23.517 14.7524 23.2838 15.0965 22.9464 15.2572L22.9464 15.2572C22.3772 15.528 22.0127 15.8773 21.6156 16.4205L21.6156 16.4204ZM11.4001 11.4602C10.8478 11.4602 10.4001 11.908 10.4001 12.4602C10.4001 13.0125 10.8478 13.4602 11.4001 13.4602H18.6001C19.1524 13.4602 19.6001 13.0125 19.6001 12.4602C19.6001 11.908 19.1524 11.4602 18.6001 11.4602H11.4001Z" fill="#3E4958"/>
</svg>
