<svg width="73" height="76" viewBox="0 0 73 76" fill="none" xmlns="http://www.w3.org/2000/svg">
<path d="M72.2192 38.3508C72.2192 59.0495 56.0806 75.8191 36.1846 75.8191C16.2887 75.8191 0.15 59.0495 0.15 38.3508C0.15 17.652 16.2887 0.882422 36.1846 0.882422C56.0806 0.882422 72.2192 17.652 72.2192 38.3508Z" fill="#7EAB3A" fill-opacity="0.3" stroke="#92BB54" stroke-width="0.3"/>
<path d="M41.3538 38.3506C41.3538 41.3186 39.0395 43.7247 36.1846 43.7247C33.3297 43.7247 31.0154 41.3186 31.0154 38.3506C31.0154 35.3826 33.3297 32.9766 36.1846 32.9766C39.0395 32.9766 41.3538 35.3826 41.3538 38.3506Z" fill="#7EAB3A"/>
<path fill-rule="evenodd" clip-rule="evenodd" d="M43.9385 38.3511C43.9385 42.8031 40.467 46.4122 36.1846 46.4122C31.9023 46.4122 28.4308 42.8031 28.4308 38.3511C28.4308 33.8991 31.9023 30.29 36.1846 30.29C40.467 30.29 43.9385 33.8991 43.9385 38.3511ZM36.1846 43.7252C39.0395 43.7252 41.3539 41.3191 41.3539 38.3511C41.3539 35.3831 39.0395 32.9771 36.1846 32.9771C33.3297 32.9771 31.0154 35.3831 31.0154 38.3511C31.0154 41.3191 33.3297 43.7252 36.1846 43.7252Z" fill="#FDFDFD"/>
</svg>
